<svg width="299" height="32" viewBox="0 0 299 32" fill="none" xmlns="http://www.w3.org/2000/svg">
<g clip-path="url(#clip0_5_6082)">
<path d="M112.584 24.7056C111.008 24.7056 109.478 24.188 107.996 23.1762C106.49 22.1409 105.525 20.7056 105.055 18.8703L107.596 17.8351C107.902 19.0115 108.514 20.0233 109.455 20.8233C110.396 21.6468 111.431 22.0468 112.608 22.0468C113.808 22.0468 114.843 21.7409 115.69 21.1056C116.537 20.4703 116.961 19.6233 116.961 18.5409C116.961 17.3409 116.537 16.3998 115.69 15.7645C114.843 15.1056 113.478 14.4939 111.643 13.9527C109.737 13.3409 108.278 12.5645 107.314 11.6233C106.325 10.6586 105.831 9.45858 105.831 7.9527C105.831 6.39975 106.443 5.05858 107.666 3.90564C108.89 2.75269 110.49 2.18799 112.466 2.18799C114.302 2.18799 115.784 2.63505 116.914 3.55269C118.066 4.47034 118.796 5.45858 119.149 6.54093L116.608 7.59975C116.419 6.9174 115.972 6.28211 115.266 5.69387C114.561 5.10564 113.643 4.82328 112.514 4.82328C111.455 4.82328 110.537 5.12917 109.784 5.7174C109.031 6.30564 108.655 7.05858 108.655 7.92917C108.655 8.72917 109.008 9.41152 109.69 9.9527C110.372 10.4939 111.408 11.0115 112.749 11.435C113.808 11.788 114.702 12.1174 115.408 12.4233C116.114 12.7527 116.843 13.1762 117.572 13.6939C118.302 14.235 118.866 14.8939 119.219 15.6703C119.596 16.4703 119.784 17.388 119.784 18.4233C119.784 19.4586 119.572 20.3998 119.125 21.2233C118.702 22.0468 118.114 22.7056 117.408 23.1762C116.702 23.6468 115.925 24.0233 115.102 24.2821C114.278 24.588 113.431 24.7056 112.584 24.7056Z" fill="white"/>
<path d="M128.842 24.7055C126.607 24.7055 124.795 23.9526 123.407 22.4702C122.018 20.9879 121.312 19.1055 121.312 16.8467C121.312 14.7055 121.995 12.8467 123.336 11.2938C124.701 9.74083 126.418 8.96436 128.536 8.96436C130.724 8.96436 132.465 9.67024 133.783 11.1055C135.101 12.5408 135.76 14.4467 135.76 16.8232L135.736 17.3408H124.089C124.16 18.8232 124.677 19.9996 125.571 20.8702C126.489 21.7408 127.548 22.1644 128.771 22.1644C130.748 22.1644 132.112 21.3173 132.818 19.6232L135.289 20.6585C134.818 21.8114 134.018 22.7526 132.912 23.5291C131.807 24.3291 130.465 24.7055 128.842 24.7055ZM132.818 15.082C132.748 14.2349 132.371 13.4349 131.665 12.682C130.96 11.9291 129.901 11.5291 128.489 11.5291C127.454 11.5291 126.583 11.8585 125.83 12.4938C125.077 13.1291 124.56 13.9997 124.277 15.082H132.818Z" fill="white"/>
<path d="M142.326 24.7055C140.75 24.7055 139.456 24.2585 138.397 23.3408C137.338 22.4467 136.82 21.2467 136.82 19.7644C136.82 18.1644 137.432 16.8938 138.679 15.9761C139.926 15.0585 141.456 14.6114 143.291 14.6114C144.914 14.6114 146.256 14.9173 147.291 15.5055V15.082C147.291 13.9997 146.914 13.1291 146.185 12.4702C145.432 11.8114 144.538 11.482 143.456 11.482C142.656 11.482 141.926 11.6702 141.267 12.0467C140.609 12.4232 140.161 12.9408 139.926 13.6232L137.385 12.5408C137.714 11.6467 138.397 10.8467 139.409 10.0938C140.42 9.34083 141.738 8.96436 143.385 8.96436C145.267 8.96436 146.844 9.50553 148.091 10.6114C149.338 11.7173 149.95 13.2702 149.95 15.2702V24.2349H147.291V22.1879H147.173C146.067 23.882 144.444 24.7055 142.326 24.7055ZM142.773 22.1879C143.926 22.1879 144.961 21.7644 145.879 20.9173C146.82 20.0702 147.291 19.0585 147.291 17.882C146.514 17.2467 145.338 16.9173 143.761 16.9173C142.42 16.9173 141.409 17.1996 140.726 17.7879C140.044 18.3761 139.691 19.0585 139.691 19.8349C139.691 20.5644 139.997 21.1291 140.632 21.5526C141.267 21.9761 141.973 22.1879 142.773 22.1879Z" fill="white"/>
<path d="M155.362 24.2353H152.586V9.48234H155.245V11.8823H155.362C155.645 11.0823 156.209 10.4235 157.104 9.90587C157.974 9.38822 158.821 9.12939 159.645 9.12939C160.468 9.12939 161.151 9.24704 161.715 9.48234L160.657 12.0706C160.304 11.9294 159.809 11.8588 159.174 11.8588C158.162 11.8588 157.292 12.2588 156.515 13.0588C155.739 13.8588 155.362 14.8941 155.362 16.1647V24.2353Z" fill="white"/>
<path d="M169.03 24.7054C166.818 24.7054 165.006 23.9525 163.571 22.4701C162.136 20.9643 161.43 19.1054 161.43 16.8466C161.43 14.5878 162.136 12.729 163.571 11.2231C165.006 9.7172 166.818 8.98779 169.03 8.98779C170.677 8.98779 172.041 9.38779 173.124 10.1878C174.206 10.9878 175.006 11.9996 175.5 13.2231L172.959 14.2819C172.206 12.4231 170.818 11.5054 168.841 11.5054C167.618 11.5054 166.536 11.9996 165.594 13.0113C164.653 14.0231 164.183 15.2937 164.183 16.8466C164.183 18.3996 164.653 19.6701 165.594 20.6819C166.536 21.6937 167.618 22.1878 168.841 22.1878C170.912 22.1878 172.324 21.2701 173.124 19.4113L175.594 20.4701C175.1 21.6701 174.277 22.6819 173.171 23.5054C172.041 24.3054 170.677 24.7054 169.03 24.7054Z" fill="white"/>
<path d="M180.042 2.68213V9.48213L179.924 11.5292H180.042C180.442 10.8233 181.077 10.2351 181.948 9.74095C182.819 9.24683 183.736 9.01154 184.724 9.01154C186.56 9.01154 187.948 9.57625 188.913 10.7057C189.877 11.8351 190.348 13.341 190.348 15.2233V24.2351H187.572V15.6233C187.572 12.8939 186.348 11.5292 183.924 11.5292C182.772 11.5292 181.854 11.9762 181.124 12.8939C180.395 13.8115 180.042 14.8704 180.042 16.0704V24.2351H177.266V2.68213H180.042Z" fill="white"/>
<path d="M206.958 24.7057C203.781 24.7057 201.123 23.6234 198.981 21.4822C196.84 19.341 195.758 16.6587 195.758 13.4351C195.758 10.2116 196.84 7.55279 198.981 5.38808C201.123 3.2469 203.781 2.16455 206.958 2.16455C210.205 2.16455 212.84 3.34102 214.887 5.69396L212.958 7.55279C211.499 5.71749 209.499 4.82337 206.958 4.82337C204.605 4.82337 202.628 5.62338 201.005 7.19985C199.381 8.77632 198.581 10.8704 198.581 13.4351C198.581 15.9998 199.381 18.094 201.005 19.6704C202.628 21.2469 204.605 22.0469 206.958 22.0469C209.546 22.0469 211.758 21.0116 213.593 18.9175L215.523 20.8469C214.534 22.0234 213.311 22.9646 211.828 23.6704C210.323 24.3763 208.699 24.7057 206.958 24.7057Z" fill="white"/>
<path d="M218.723 11.247C220.159 9.74113 221.97 9.01172 224.182 9.01172C226.394 9.01172 228.206 9.76466 229.641 11.247C231.076 12.7529 231.782 14.6117 231.782 16.8705C231.782 19.1294 231.076 20.9882 229.641 22.4941C228.206 24 226.394 24.7294 224.182 24.7294C221.97 24.7294 220.159 23.9764 218.723 22.4941C217.288 20.9882 216.582 19.1294 216.582 16.8705C216.582 14.6117 217.288 12.7294 218.723 11.247ZM220.77 20.7294C221.735 21.6941 222.864 22.1882 224.159 22.1882C225.453 22.1882 226.582 21.6941 227.547 20.7294C228.511 19.7647 228.982 18.4705 228.982 16.8705C228.982 15.2705 228.511 13.9764 227.547 13.0117C226.582 12.047 225.453 11.5529 224.159 11.5529C222.864 11.5529 221.735 12.047 220.77 13.0117C219.806 13.9764 219.335 15.2705 219.335 16.8705C219.359 18.4705 219.829 19.7411 220.77 20.7294Z" fill="white"/>
<path d="M236.37 9.48231V11.5294H236.487C236.887 10.8235 237.523 10.2352 238.393 9.74113C239.264 9.24701 240.182 9.01172 241.17 9.01172C243.005 9.01172 244.393 9.57643 245.358 10.7058C246.323 11.8352 246.793 13.3411 246.793 15.2235V24.2353H244.017V15.6235C244.017 12.8941 242.793 11.5294 240.37 11.5294C239.217 11.5294 238.299 11.9764 237.57 12.8941C236.84 13.8117 236.487 14.8705 236.487 16.0705V24.2353H233.711V9.48231H236.37Z" fill="white"/>
<path d="M254.865 24.7059C253.218 24.7059 251.853 24.3059 250.794 23.5059C249.712 22.7059 248.936 21.6942 248.441 20.4942L250.912 19.4589C251.688 21.3177 253.03 22.2353 254.912 22.2353C255.783 22.2353 256.488 22.0471 257.03 21.6706C257.571 21.2942 257.853 20.7765 257.853 20.1647C257.853 19.2 257.171 18.5412 255.83 18.2118L252.841 17.4824C251.9 17.2471 251.006 16.7765 250.159 16.1177C249.312 15.4353 248.888 14.5412 248.888 13.3883C248.888 12.0942 249.477 11.0353 250.63 10.2118C251.783 9.38828 253.147 8.98828 254.747 8.98828C256.041 8.98828 257.218 9.29416 258.23 9.8824C259.265 10.4706 259.994 11.3177 260.418 12.4236L258.018 13.4118C257.477 12.1177 256.347 11.4589 254.653 11.4589C253.83 11.4589 253.147 11.6236 252.583 11.9765C252.018 12.3295 251.736 12.7765 251.736 13.3648C251.736 14.2118 252.394 14.7765 253.688 15.0824L256.606 15.7648C257.994 16.0942 259.006 16.6353 259.688 17.4118C260.347 18.1883 260.677 19.0824 260.677 20.0706C260.677 21.3883 260.136 22.4942 259.053 23.3883C257.971 24.2824 256.559 24.7059 254.865 24.7059Z" fill="white"/>
<path d="M263.852 11.247C265.287 9.74113 267.099 9.01172 269.311 9.01172C271.523 9.01172 273.334 9.76466 274.77 11.247C276.205 12.7529 276.911 14.6117 276.911 16.8705C276.911 19.1294 276.205 20.9882 274.77 22.4941C273.334 24 271.523 24.7294 269.311 24.7294C267.099 24.7294 265.287 23.9764 263.852 22.4941C262.417 20.9882 261.711 19.1294 261.711 16.8705C261.711 14.6117 262.417 12.7294 263.852 11.247ZM265.923 20.7294C266.887 21.6941 268.017 22.1882 269.311 22.1882C270.605 22.1882 271.734 21.6941 272.699 20.7294C273.664 19.7647 274.134 18.4705 274.134 16.8705C274.134 15.2705 273.664 13.9764 272.699 13.0117C271.734 12.047 270.605 11.5529 269.311 11.5529C268.017 11.5529 266.887 12.047 265.923 13.0117C264.958 13.9764 264.487 15.2705 264.487 16.8705C264.487 18.4705 264.958 19.7411 265.923 20.7294Z" fill="white"/>
<path d="M281.663 24.2351H278.887V2.68213H281.663V24.2351Z" fill="white"/>
<path d="M291.193 24.7055C288.958 24.7055 287.146 23.9526 285.758 22.4702C284.37 20.9879 283.664 19.1055 283.664 16.8467C283.664 14.7055 284.346 12.8467 285.688 11.2938C287.052 9.74083 288.77 8.96436 290.888 8.96436C293.076 8.96436 294.817 9.67024 296.135 11.1055C297.452 12.5408 298.111 14.4467 298.111 16.8232L298.088 17.3408H286.441C286.511 18.8232 287.029 19.9996 287.923 20.8702C288.841 21.7408 289.899 22.1644 291.123 22.1644C293.099 22.1644 294.464 21.3173 295.17 19.6232L297.641 20.6585C297.17 21.8114 296.37 22.7526 295.264 23.5291C294.158 24.3291 292.793 24.7055 291.193 24.7055ZM295.17 15.082C295.099 14.2349 294.723 13.4349 294.017 12.682C293.311 11.9291 292.252 11.5291 290.841 11.5291C289.805 11.5291 288.935 11.8585 288.182 12.4938C287.429 13.1291 286.911 13.9997 286.629 15.082H295.17Z" fill="white"/>
<path d="M0.441406 12.3764C0.441406 5.57638 6.15905 0.0234375 12.9826 0.0234375C16.7473 0.0234375 19.4296 1.50579 21.4532 3.4352L19.0767 5.81167C17.6414 4.44697 15.6649 3.41167 12.9826 3.41167C8.01788 3.41167 4.13552 7.41167 4.13552 12.3764C4.13552 17.3411 8.01788 21.3411 12.9826 21.3411C16.2061 21.3411 18.0414 20.047 19.2179 18.8705C20.1826 17.9058 20.8179 16.5176 21.0532 14.6352H12.9826V11.2705H24.3473C24.4649 11.8823 24.5355 12.5881 24.5355 13.3881C24.5355 15.9293 23.8532 19.0587 21.6179 21.2705C19.4532 23.5293 16.6767 24.7293 13.0061 24.7293C6.15905 24.7058 0.441406 19.1764 0.441406 12.3764Z" fill="white"/>
<path d="M33.6874 8.82324C29.2874 8.82324 25.7109 12.1644 25.7109 16.7762C25.7109 21.3644 29.2874 24.7291 33.6874 24.7291C38.0874 24.7291 41.6639 21.3644 41.6639 16.7762C41.6639 12.1644 38.0874 8.82324 33.6874 8.82324ZM33.6874 21.5762C31.2874 21.5762 29.1933 19.5997 29.1933 16.7527C29.1933 13.8821 31.2639 11.9291 33.6874 11.9291C36.0874 11.9291 38.1815 13.8821 38.1815 16.7527C38.1815 19.5997 36.0874 21.5762 33.6874 21.5762Z" fill="white"/>
<path d="M51.1015 8.82324C46.7015 8.82324 43.125 12.1644 43.125 16.7762C43.125 21.3644 46.7015 24.7291 51.1015 24.7291C55.5015 24.7291 59.0779 21.3644 59.0779 16.7762C59.0779 12.1644 55.5015 8.82324 51.1015 8.82324ZM51.1015 21.5762C48.7015 21.5762 46.6074 19.5997 46.6074 16.7527C46.6074 13.8821 48.6779 11.9291 51.1015 11.9291C53.525 11.9291 55.5956 13.8821 55.5956 16.7527C55.5956 19.5997 53.5015 21.5762 51.1015 21.5762Z" fill="white"/>
<path d="M72.4646 9.29392V10.588H72.3469C71.5704 9.64686 70.0646 8.7998 68.1587 8.7998C64.1822 8.7998 60.5352 12.2822 60.5352 16.7763C60.5352 21.2233 64.1822 24.7057 68.1587 24.7057C70.0646 24.7057 71.5704 23.8586 72.3469 22.8939H72.4646V24.0469C72.4646 27.0822 70.841 28.7057 68.2293 28.7057C66.0881 28.7057 64.7705 27.1763 64.2293 25.8822L61.194 27.1527C62.0646 29.2704 64.394 31.8586 68.2528 31.8586C72.3469 31.8586 75.8057 29.4586 75.8057 23.5763V9.29392H72.4646ZM68.4646 21.5763C66.0646 21.5763 64.041 19.5527 64.041 16.7763C64.041 13.9763 66.0646 11.9292 68.4646 11.9292C70.841 11.9292 72.6999 13.9763 72.6999 16.7763C72.7234 19.5763 70.841 21.5763 68.4646 21.5763Z" fill="white"/>
<path d="M81.6894 0.870605H78.207V24.2353H81.6894V0.870605Z" fill="white"/>
<path d="M91.2652 21.5762C89.4769 21.5762 88.2299 20.7527 87.4063 19.1762L98.0416 14.7762L97.6887 13.8821C97.0299 12.0938 95.0063 8.82324 90.8887 8.82324C86.7946 8.82324 83.3828 12.0468 83.3828 16.7762C83.3828 21.2232 86.7475 24.7291 91.2652 24.7291C94.9122 24.7291 97.0063 22.4938 97.9005 21.1997L95.1946 19.3879C94.2769 20.7056 93.0534 21.5762 91.2652 21.5762ZM91.0063 11.8821C92.3946 11.8821 93.5711 12.5644 93.9475 13.5762L86.8416 16.5174C86.7475 13.4585 89.2181 11.8821 91.0063 11.8821Z" fill="white"/>
</g>
<defs>
<clipPath id="clip0_5_6082">
<rect width="298.667" height="32" fill="white" transform="translate(0.277344)"/>
</clipPath>
</defs>
</svg>
