<svg width="103" height="32" viewBox="0 0 103 32" fill="none" xmlns="http://www.w3.org/2000/svg">
<path d="M12.7751 11.4182V14.8364H21.0241C20.8051 16.7273 20.1481 18.1818 19.1261 19.1273C17.9581 20.2909 16.0601 21.6 12.7751 21.6C7.73805 21.6 3.79602 17.5273 3.79602 12.5091C3.79602 7.49091 7.66505 3.41818 12.7751 3.41818C15.4761 3.41818 17.5201 4.50909 18.9801 5.89091L21.3891 3.49091C19.3451 1.52727 16.5711 0 12.7751 0C5.84004 0 0 5.6 0 12.5091C0 19.4182 5.84004 25.0182 12.7751 25.0182C16.4981 25.0182 19.3451 23.7818 21.5351 21.5273C23.7982 19.2727 24.5282 16.0727 24.5282 13.5273C24.5282 12.7273 24.4552 12 24.3822 11.4182H12.7751Z" fill="white"/>
<path d="M34.7464 8.58203C30.2933 8.58203 26.5703 12.0002 26.5703 16.6548C26.5703 21.3093 30.2203 24.7275 34.7464 24.7275C39.2724 24.7275 42.9224 21.382 42.9224 16.7275C42.9224 12.0002 39.2724 8.58203 34.7464 8.58203ZM34.7464 21.6002C32.2643 21.6002 30.1473 19.5638 30.1473 16.7275C30.1473 13.8184 32.2643 11.8548 34.7464 11.8548C37.2284 11.8548 39.3454 13.8184 39.3454 16.7275C39.3454 19.5638 37.2284 21.6002 34.7464 21.6002Z" fill="white"/>
<path d="M74.6779 10.4002H74.5319C73.7289 9.45476 72.1959 8.58203 70.2249 8.58203C66.1368 8.58203 62.6328 12.0729 62.6328 16.6548C62.6328 21.1638 66.1368 24.7275 70.2249 24.7275C72.1959 24.7275 73.7289 23.8548 74.5319 22.9093H74.6779V24.0729C74.6779 27.1275 72.9989 28.8002 70.3709 28.8002C68.1808 28.8002 66.8668 27.2729 66.2828 25.8911L63.2168 27.2002C64.0928 29.3093 66.5018 32.0002 70.4439 32.0002C74.6049 32.0002 78.1819 29.5275 78.1819 23.5639V9.01839H74.8239V10.4002H74.6779ZM70.5899 21.6002C68.1078 21.6002 66.2828 19.4911 66.2828 16.7275C66.2828 13.8911 68.1808 11.8548 70.5899 11.8548C72.9989 11.8548 74.8969 13.9638 74.8969 16.8002C74.9699 19.5638 73.0719 21.6002 70.5899 21.6002Z" fill="white"/>
<path d="M52.9261 8.58203C48.473 8.58203 44.75 12.0002 44.75 16.6548C44.75 21.3093 48.4 24.7275 52.9261 24.7275C57.4521 24.7275 61.1021 21.382 61.1021 16.7275C61.1021 12.0002 57.4521 8.58203 52.9261 8.58203ZM52.9261 21.6002C50.444 21.6002 48.327 19.5638 48.327 16.7275C48.327 13.8184 50.444 11.8548 52.9261 11.8548C55.4081 11.8548 57.5251 13.8184 57.5251 16.7275C57.5251 19.5638 55.4081 21.6002 52.9261 21.6002Z" fill="white"/>
<path d="M80.8828 0.36377H84.3868V24.8001H80.8828V0.36377Z" fill="white"/>
<path d="M95.1941 21.6002C93.3691 21.6002 92.1281 20.8002 91.2521 19.1275L102.129 14.6911L101.764 13.7457C101.107 11.9275 98.9901 8.58203 94.8291 8.58203C90.6681 8.58203 87.1641 11.8548 87.1641 16.6548C87.1641 21.1638 90.5951 24.7275 95.1941 24.7275C98.9171 24.7275 101.034 22.4729 101.983 21.1638L99.2091 19.3457C98.2601 20.7275 97.0191 21.6002 95.1941 21.6002ZM94.9751 11.6366C96.4351 11.6366 97.6761 12.3638 98.0411 13.382L90.7411 16.4366C90.6681 13.0911 93.1501 11.6366 94.9751 11.6366Z" fill="white"/>
</svg>
