<svg width="202" height="32" viewBox="0 0 202 32" fill="none" xmlns="http://www.w3.org/2000/svg">
<g clip-path="url(#clip0_5_6068)">
<path d="M121.385 11.2068L124.188 18.5641H118.757L121.385 11.2068ZM120.334 8.75439L114.203 24.8701H116.481L118.057 20.4909H124.889L126.466 24.8701H128.743L122.612 8.75439H120.335H120.334ZM153.44 24.8701H155.542V8.75439H153.44V24.8701ZM131.888 15.4104C132.589 14.3592 133.989 13.4836 135.391 13.4836C138.194 13.4836 139.595 15.4104 139.595 18.2135V25.0451H137.494V18.5634C137.494 16.286 136.268 15.4111 134.691 15.4111C132.939 15.4111 131.713 17.1629 131.713 18.7391V24.8701H129.611V13.6592H131.713L131.888 15.4111L131.888 15.4104ZM141.348 21.5421C141.348 19.0897 143.625 17.6885 146.253 17.6885C147.83 17.6885 148.881 18.0392 149.231 18.3898V18.0392C149.231 16.2873 147.83 15.4111 146.428 15.4111C145.203 15.4111 144.151 15.9367 143.8 16.9879L141.879 16.111C142.23 15.0598 143.631 13.4829 146.441 13.4829C149.069 13.4829 151.346 15.0598 151.346 18.2128V24.8695H149.419V23.2851H149.244C148.718 24.1607 147.492 25.2119 145.565 25.2119C143.288 25.2119 141.361 23.8107 141.361 21.5333L141.348 21.5421ZM149.244 20.1321C149.244 20.1321 148.368 19.4308 146.616 19.4308C144.514 19.4308 143.638 20.6564 143.638 21.5326C143.638 22.7581 144.863 23.2844 145.915 23.2844C147.492 23.2844 149.243 21.8832 149.243 20.1321" fill="white"/>
<path fill-rule="evenodd" clip-rule="evenodd" d="M158.513 29.7735L160.965 23.9863L156.586 13.8266H158.688L162.016 21.5338L165.344 13.8266H167.446L160.615 29.7735H158.513H158.513ZM189.342 17.5127C188.815 16.1102 187.59 15.2353 186.364 15.2353C184.612 15.2353 183.036 16.8121 183.036 19.0889C183.036 21.3657 184.613 22.9425 186.364 22.9425C187.59 22.9425 188.817 22.0669 189.342 20.8407L191.094 21.892C190.219 23.8188 188.466 25.0443 186.364 25.0443C183.386 25.0443 180.934 22.4162 180.934 19.0889C180.934 15.5852 183.386 13.1328 186.364 13.1328C188.466 13.1328 190.218 14.3583 191.094 16.2852L189.342 17.5107L189.342 17.5127Z" fill="white"/>
<path d="M196.876 25.2202C199.678 25.2202 201.08 23.6433 201.08 21.7165C201.08 17.5123 194.949 19.0884 194.949 16.6374C194.949 15.7618 195.65 15.2362 196.876 15.2362C198.101 15.2362 199.328 15.7618 199.854 16.6374L201.079 15.4118C200.378 14.5363 198.451 13.3101 196.7 13.3101C194.072 13.3101 192.671 14.8869 192.671 16.8137C192.671 20.8423 198.977 19.4418 198.977 21.5436C198.977 22.5948 198.276 23.2954 196.876 23.2954C195.475 23.2954 194.774 22.4198 194.073 21.5436L192.496 22.7691C193.548 23.8204 195.124 25.2215 196.876 25.2215V25.2202ZM176.906 24.8695H179.008V13.6593H176.906V24.8702V24.8695Z" fill="white"/>
<path fill-rule="evenodd" clip-rule="evenodd" d="M177.781 8.229C178.657 8.229 179.182 8.93028 179.182 9.6302C179.182 10.5058 178.481 11.0314 177.781 11.0314C177.081 11.0314 176.38 10.3301 176.38 9.6302C176.38 8.93028 177.081 8.229 177.781 8.229ZM174.804 23.1192L175.154 24.6961H173.053C171.126 24.6961 170.25 23.2949 170.25 21.1924V15.7619H168.148V13.6602H170.25V10.3322H172.352V13.6602H174.804V15.7619H172.352V21.5492C172.352 23.126 173.578 23.126 174.804 23.126L174.804 23.1192Z" fill="white"/>
<path d="M45.7055 15.2355V17.8636H51.8365C51.6616 19.2648 51.1353 20.316 50.4354 21.0159C49.5598 21.8915 48.1579 22.9427 45.7055 22.9427C42.0268 22.9427 39.0488 19.9647 39.0488 16.1111C39.0488 12.4324 42.0268 9.27943 45.7055 9.27943C47.8073 9.27943 49.2091 10.155 50.2672 11.0313L52.019 9.27943C50.4422 7.87823 48.5154 6.65137 45.713 6.65137C40.6338 6.65137 36.2539 10.8556 36.2539 15.9354C36.2539 21.0153 40.6263 25.2188 45.7062 25.2188C48.5085 25.2188 50.611 24.3433 52.1879 22.5907C53.9397 20.8389 54.4653 18.5622 54.4653 16.6347C54.4653 16.109 54.4653 15.4091 54.2903 15.0578H45.7116L45.7055 15.2355ZM61.2956 13.1405C57.9676 13.1405 55.3395 15.593 55.3395 19.0966C55.3395 22.6003 57.9676 25.052 61.2956 25.052C64.6236 25.052 67.2517 22.4239 67.2517 19.0966C67.2517 15.593 64.6236 13.1405 61.2956 13.1405ZM61.2956 22.7746C59.5438 22.7746 57.9676 21.1977 57.9676 19.0959C57.9676 16.9942 59.5445 15.4173 61.2956 15.4173C63.0468 15.4173 64.6236 16.8185 64.6236 19.0959C64.6236 21.3734 63.0468 22.7746 61.2956 22.7746ZM90.0235 14.3661C89.3222 13.6648 88.2716 12.9649 86.6955 12.9649C83.7174 12.9649 81.09 15.593 81.09 18.921C81.09 22.249 83.7181 24.8764 86.6955 24.8764C88.0966 24.8764 89.3235 24.1751 89.8478 23.4752H90.0228V24.3507C90.0228 26.6282 88.7972 27.8544 86.8704 27.8544C85.2936 27.8544 84.2423 26.6289 83.8924 25.7526L81.6149 26.6282C82.3162 28.205 84.0674 30.1319 86.8698 30.1319C90.0221 30.1319 92.657 28.38 92.657 23.8258V12.9662H90.2046V14.3674L90.0235 14.3661ZM87.0454 22.7746C85.2936 22.7746 83.8931 21.1977 83.8931 19.0959C83.8931 16.9942 85.2943 15.4173 87.0454 15.4173C88.7966 15.4173 90.1978 16.9942 90.1978 19.0959C90.1978 21.1977 88.7966 22.7746 87.0454 22.7746ZM74.2577 13.1405C70.9297 13.1405 68.3016 15.593 68.3016 19.0966C68.3016 22.6003 70.9297 25.052 74.2577 25.052C77.5857 25.052 80.2137 22.4239 80.2137 19.0966C80.3887 15.593 77.5857 13.1405 74.2577 13.1405ZM74.2577 22.7746C72.5058 22.7746 70.9297 21.1977 70.9297 19.0959C70.9297 16.9942 72.5065 15.4173 74.2577 15.4173C76.0088 15.4173 77.5857 16.8185 77.5857 19.0959C77.5857 21.3734 76.0088 22.7746 74.2577 22.7746ZM94.5777 6.82768H97.2058V25.0452H94.5777V6.82768ZM104.387 22.7678C102.986 22.7678 102.11 22.0665 101.409 21.0159L109.467 17.6879L109.117 16.9867C108.591 15.5855 107.015 13.133 104.037 13.133C100.885 13.133 98.432 15.5855 98.432 19.0891C98.432 22.4171 101.06 25.0445 104.388 25.0445C107.19 25.0445 108.767 23.2927 109.467 22.4164L107.365 21.0153C106.664 22.0665 105.789 22.7671 104.387 22.7671V22.7678ZM104.212 15.4105C105.264 15.4105 106.139 15.9361 106.49 16.8117L101.059 19.0891C101.059 16.461 102.811 15.4105 104.212 15.4105H104.212Z" fill="white"/>
<path d="M20.543 3.83526V27.6448C20.543 30.309 22.3828 31.7935 24.3309 31.7935C26.1347 31.7935 28.1188 30.5309 28.1188 27.6448V4.01563C28.1188 1.57334 26.315 0.0473633 24.3309 0.0473633C22.3467 0.0473633 20.543 1.73027 20.543 3.83526Z" fill="white"/>
<path d="M10.625 15.9207V27.6451C10.625 30.3093 12.4648 31.7938 14.4128 31.7938C16.2166 31.7938 18.2008 30.5312 18.2008 27.6451V16.1011C18.2008 13.6588 16.3971 12.1328 14.4128 12.1328C12.4287 12.1328 10.625 13.8157 10.625 15.9207Z" fill="white"/>
<path d="M4.49103 31.7936C6.58304 31.7936 8.27895 30.0977 8.27895 28.0057C8.27895 25.9137 6.58304 24.2178 4.49103 24.2178C2.39903 24.2178 0.703125 25.9137 0.703125 28.0057C0.703125 30.0977 2.39903 31.7936 4.49103 31.7936Z" fill="white"/>
</g>
<defs>
<clipPath id="clip0_5_6068">
<rect width="201.532" height="32" fill="white" transform="translate(0.125)"/>
</clipPath>
</defs>
</svg>
