<svg width="235" height="32" viewBox="0 0 235 32" fill="none" xmlns="http://www.w3.org/2000/svg">
<g clip-path="url(#clip0_5_6084)">
<path d="M141.962 2.62511C138.213 2.62511 136.391 4.8343 136.391 8.08838V9.99939H133.553V12.7843H136.402V27.507H139.342V12.7843H143.859V9.99939H139.342L139.315 8.17601C139.315 6.60061 140.246 5.51393 142.1 5.51393C142.735 5.51139 143.367 5.57119 143.99 5.6897V2.90385C143.33 2.71565 142.647 2.62132 141.962 2.62511ZM54.009 3.27466C53.5151 3.29268 53.0433 3.49626 52.6915 3.84948C52.2879 4.25156 52.0801 4.81066 52.1197 5.37878C52.1197 6.13005 52.5194 6.82488 53.1704 7.19969C53.8202 7.57613 54.6221 7.57613 55.2719 7.19969C55.9217 6.82488 56.3233 6.13005 56.3219 5.37878C56.3626 4.81066 56.1546 4.25156 55.7512 3.84948C55.3489 3.4458 54.7896 3.23775 54.2214 3.27864C54.1503 3.27357 54.0794 3.27206 54.009 3.2746V3.27466ZM104.231 4.15396C98.8707 4.15396 96.1411 6.80381 96.1411 10.3846C96.1411 14.1656 98.4611 15.9514 103.635 17.2128C108.011 18.2635 109.272 19.3453 109.272 21.3789C109.272 23.4123 107.963 24.7776 104.497 24.7776C101.453 24.7776 98.1624 23.973 96.0262 22.8518V26.0713C97.8125 26.9822 99.8776 27.8571 104.326 27.8571C110.036 27.8571 112.416 25.1589 112.44 21.1685C112.44 17.0221 109.707 15.4624 104.84 14.2358C100.782 13.2222 99.3087 12.2746 99.3087 10.3846C99.3087 8.28415 101.096 7.23336 104.107 7.23336C106.607 7.17251 109.079 7.77631 111.27 8.98447V5.83229C109.694 4.94984 107.558 4.15396 104.231 4.15396ZM45.3281 4.50744L45.3361 20.714C45.3361 23.0103 44.4161 24.6018 41.7551 24.6018C40.641 24.6105 39.537 24.4078 38.5 24.0053V27.0683C39.7162 27.4832 40.9951 27.6848 42.2799 27.6665C46.6255 27.6665 48.4799 24.7415 48.4799 20.5036V4.50744H45.3281ZM148.328 6.28627V10.0143H145.49V12.8006H148.339V22.0398C148.339 25.2987 150.163 27.5031 153.911 27.5031C154.597 27.507 155.28 27.4126 155.94 27.2245V24.3198C155.32 24.4645 154.686 24.5474 154.05 24.5662C152.195 24.5662 151.284 23.5163 151.268 21.9755V12.7843H155.924V9.99939H151.268V6.28627H148.328ZM226.533 9.63699C221.209 9.63699 218.269 13.4165 218.269 18.7054C218.269 24.077 221.138 27.8571 227.688 27.8571C229.474 27.8571 231.684 27.5861 233.119 26.8114V24.0251C231.412 24.6501 229.611 24.971 227.795 24.9721C223.664 24.9721 221.738 23.0462 221.317 20.0694H234.093V18.7054C234.093 13.3845 231.926 9.63699 226.533 9.63699ZM77.9245 9.6494C73.0221 9.6494 70.5715 13.8153 70.5715 18.7525C70.5715 23.9015 72.9192 27.8571 77.5745 27.8571C80.2689 27.8571 82.3697 26.6679 83.4922 24.3559L83.4957 27.507H86.5085V9.99944H83.4957V13.0788C82.4413 10.8026 80.4794 9.6494 77.9247 9.6494H77.9245ZM123.411 9.6494C118.158 9.6494 115.078 13.4653 115.078 18.7169C115.078 23.9696 118.194 27.8695 123.411 27.8695C128.628 27.8695 131.675 23.9696 131.675 18.7169C131.675 13.4653 128.662 9.6494 123.411 9.6494ZM194.808 9.6494C189.905 9.6494 187.455 13.8153 187.455 18.7525C187.455 23.9015 189.803 27.8571 194.458 27.8571C197.152 27.8571 199.252 26.6679 200.375 24.3559L200.379 27.507H203.392V9.99944H200.379V13.0788C199.324 10.8026 197.362 9.6494 194.808 9.6494ZM68.761 9.73208C65.7491 9.72803 64.1338 11.1421 63.1825 13.0788V9.99944H60.2417V27.5189H63.1825V17.1732C63.1825 13.4651 65.5302 12.2953 69.3818 12.6927V9.7519C69.1683 9.73871 68.9617 9.73238 68.761 9.73212V9.73208ZM216.458 9.73208C213.446 9.72803 211.831 11.1421 210.88 13.0788V9.99944H207.938V27.5189H210.88V17.1732C210.88 13.4651 213.228 12.2953 217.079 12.6927V9.7519C216.866 9.73871 216.659 9.73238 216.458 9.73212V9.73208ZM156.783 9.99944L163.225 27.507H167.077L170.129 19.0362L171.721 13.6433L173.312 19.0362L176.325 27.507H180.177L186.619 9.99944H183.292L178.246 24.8446L173.133 9.99944H170.26L165.151 24.8446L160.11 9.99944H156.783ZM52.6817 10.0035V27.5106H55.6927V10.0035H52.6817ZM226.385 12.3982C229.394 12.3982 230.866 14.2559 231.042 17.5109H221.281V17.4917C221.596 14.4556 223.207 12.3824 226.385 12.3982V12.3982ZM78.7167 12.4344C81.2877 12.4344 83.4922 14.1497 83.4922 18.0372V19.4531C83.4922 23.339 81.0783 25.0549 78.383 25.0565C75.2625 25.0565 73.5839 22.9545 73.5679 18.7363C73.5679 14.6742 75.3181 12.4344 78.7167 12.4344ZM195.6 12.4344C198.171 12.4344 200.375 14.1497 200.375 18.0372V19.4531C200.375 23.3385 197.962 25.0544 195.266 25.0565C192.146 25.0565 190.455 22.9547 190.455 18.7526C190.455 14.6905 192.217 12.4664 195.6 12.4344ZM123.411 12.466C127.123 12.466 128.734 15.3913 128.734 18.717C128.734 22.0439 127.155 25.0565 123.411 25.0565C119.667 25.0565 118.019 22.0439 118.019 18.717H118.034C118.034 15.3913 119.698 12.466 123.411 12.466Z" fill="white"/>
<path d="M30.6553 15.1562L17.6827 2.18358L16.4254 0.927246L2.19651 15.1562C1.73137 15.6226 1.73137 16.3777 2.19651 16.8431L11.1181 25.7645L16.4254 31.073L30.6553 16.8431C31.1209 16.3777 31.1209 15.6226 30.6553 15.1562ZM16.4254 20.4559L11.9695 16.0003L16.4254 11.5431L20.8823 16.0003L16.4254 20.4559Z" fill="white"/>
<path d="M16.4247 11.5429C13.5075 8.62441 13.4926 3.89757 16.3937 0.961914L6.64062 10.7112L11.9492 16.0198L16.4247 11.5429Z" fill="white"/>
<path d="M20.8911 15.9873L16.4219 20.4556C17.8303 21.8627 18.6224 23.7726 18.6224 25.7642C18.6224 27.7555 17.8303 29.6643 16.4219 31.0727L26.1985 21.2959L20.8911 15.9873Z" fill="white"/>
</g>
<defs>
<clipPath id="clip0_5_6084">
<rect width="234.057" height="32" fill="white" transform="translate(0.941406)"/>
</clipPath>
</defs>
</svg>
