<svg width="104" height="32" viewBox="0 0 104 32" fill="none" xmlns="http://www.w3.org/2000/svg">
<g clip-path="url(#clip0_5_6080)">
<path d="M26.6356 0H4.95817C2.10766 0 -0.203125 2.31079 -0.203125 5.16129V26.8387C-0.203125 29.6893 2.10766 32 4.95817 32H26.6356C29.4862 32 31.7969 29.6893 31.7969 26.8387V5.16129C31.7969 2.31079 29.4862 0 26.6356 0Z" fill="white"/>
<path fill-rule="evenodd" clip-rule="evenodd" d="M21.4761 5.16113H18.3793L20.9599 9.80629L15.2825 5.16113H12.1857L15.0244 10.8386L9.08896 5.16113H5.99219L9.08896 12.3869L5.99219 26.8385H9.08896L15.0244 11.3547L12.1857 26.8385H15.2825L20.9599 10.3224L18.3793 26.8385H21.4761L27.1535 8.77403L21.4761 5.16113Z" fill="white"/>
<path fill-rule="evenodd" clip-rule="evenodd" d="M94.7633 7.22576C99.9246 7.22576 103.021 11.0785 103.021 16C103.021 20.9032 99.9246 24.7741 94.7633 24.7741C89.6021 24.7741 86.5053 20.9214 86.5053 16C86.5053 11.0785 89.6021 7.22576 94.7633 7.22576ZM71.5375 8.25802V24.258H67.9246V16.5161V12.6451V8.77415L71.5375 8.25802ZM84.9569 7.74189V11.3548L82.8924 11.6129C81.0859 11.8709 79.7956 12.9032 79.7956 14.9573V24.258H76.1827V14.9573C76.1827 10.5393 78.7634 8.51608 82.8924 7.99995L84.9569 7.74189ZM48.8279 7.74189C50.3763 7.74189 51.9773 8.38176 52.9569 9.80641C53.9401 8.50906 55.5375 7.74189 57.6021 7.74189C60.1827 7.74189 63.2795 9.29028 63.2795 14.4516V24.258H59.6666V14.4516C59.6666 12.6451 58.5414 11.3548 56.8279 11.3548C55.1143 11.3548 53.9892 12.6451 53.9892 14.4516V24.258H50.3763V14.4516C50.3763 12.6451 49.2508 11.3548 47.5375 11.3548C45.7935 11.3548 44.6988 12.6451 44.6988 14.4516V24.258H41.0859V14.4516V8.77415L44.6988 8.25802V9.80641C45.7084 8.56524 46.7634 7.74189 48.8279 7.74189ZM94.7633 10.8387C91.6666 10.8387 90.1182 13.1499 90.1182 16C90.1182 18.85 91.6666 21.1612 94.7633 21.1612C97.8601 21.1612 99.4085 18.8387 99.4085 16C99.4085 13.1535 97.8601 10.8387 94.7633 10.8387ZM69.7311 1.54834C71.0214 1.54834 72.0537 2.32253 72.0537 3.87092C72.0537 5.41931 71.0214 6.1935 69.7311 6.1935C68.4408 6.1935 67.4085 5.41931 67.4085 3.87092C67.4085 2.32253 68.4408 1.54834 69.7311 1.54834Z" fill="white"/>
</g>
<defs>
<clipPath id="clip0_5_6080">
<rect width="103.226" height="32" fill="white" transform="translate(-0.203125)"/>
</clipPath>
</defs>
</svg>
