<svg width="156" height="32" viewBox="0 0 156 32" fill="none" xmlns="http://www.w3.org/2000/svg">
<g clip-path="url(#clip0_5_6065)">
<path fill-rule="evenodd" clip-rule="evenodd" d="M14.748 14.5478L15.0123 14.474C16.9816 13.8836 18.9134 13.1746 20.7972 12.3509C22.7081 11.6007 24.5011 10.5789 26.121 9.31708C27.8408 7.94775 29.1352 6.11625 29.8527 4.03708C30.0074 3.69483 30.1209 3.33539 30.1908 2.96631C27.6026 6.50477 17.3422 6.874 17.3422 6.874L19.7644 4.65246C12.7154 4.67676 5.85016 6.9058 0.128906 11.0278C4.00392 11.4434 7.64873 13.0738 10.543 15.6863C11.9323 15.2555 13.3524 14.9478 14.748 14.5602V14.5478ZM30.8363 14.1971C24.308 13.8943 17.7767 14.7272 11.5327 16.6586C12.8443 18.0286 13.939 19.5913 14.7787 21.2925C19.9488 18.4125 27.117 14.7325 30.8363 14.2094V14.1971ZM15.4303 22.7632C16.0436 24.3428 16.4366 25.9994 16.5984 27.6863L25.6169 18.4125L15.4303 22.7632ZM20.164 27.3109V27.2125C20.1625 27.1728 20.1497 27.1344 20.1271 27.1017C20.1065 27.0709 20.0719 27.0524 20.0349 27.0525H20.1148C20.1638 27.0198 20.1919 26.9636 20.1886 26.9048C20.1971 26.8254 20.1519 26.75 20.0779 26.7201C20.015 26.708 19.9503 26.708 19.8874 26.7201H19.6353V27.4155H19.7706V27.1632H19.8689C19.9113 27.1528 19.9556 27.1528 19.998 27.1632C20.0401 27.1974 20.0611 27.2511 20.0533 27.3048V27.4094H20.1886L20.164 27.3109ZM19.7644 26.7694H19.8505C19.897 26.7586 19.9454 26.7586 19.9919 26.7694C20.0189 26.7892 20.033 26.8222 20.0288 26.8555C20.034 26.8988 20.0084 26.9398 19.9673 26.954C19.9306 26.9599 19.8933 26.9599 19.8566 26.954H19.7644V26.7201V26.7694Z" fill="white"/>
<path fill-rule="evenodd" clip-rule="evenodd" d="M20.3282 26.5664C20.2119 26.4421 20.0494 26.3716 19.8794 26.3716C19.7093 26.3716 19.5468 26.4421 19.4306 26.5664C19.3102 26.6845 19.2435 26.8469 19.2462 27.0156C19.2435 27.1843 19.3102 27.3467 19.4306 27.4648C19.5468 27.5891 19.7093 27.6596 19.8794 27.6596C20.0494 27.6596 20.2119 27.5891 20.3282 27.4648C20.4523 27.3485 20.5228 27.1859 20.5228 27.0156C20.5228 26.8454 20.4523 26.6827 20.3282 26.5664ZM19.8794 27.5387C19.7405 27.5405 19.607 27.4848 19.5105 27.3848C19.3106 27.1794 19.3106 26.8519 19.5105 26.6464C19.6076 26.5472 19.7406 26.4912 19.8794 26.4912C20.0182 26.4912 20.1511 26.5472 20.2482 26.6464C20.4481 26.8519 20.4481 27.1794 20.2482 27.3848C20.1517 27.4848 20.0182 27.5405 19.8794 27.5387Z" fill="white"/>
<path fill-rule="evenodd" clip-rule="evenodd" d="M85.6164 18.7261C84.1405 18.7261 82.7766 17.9379 82.0387 16.6585C81.3007 15.379 81.3007 13.8026 82.0387 12.5231C82.7766 11.2436 84.1405 10.4554 85.6164 10.4554C87.898 10.4554 89.7476 12.3069 89.7476 14.5908C89.7476 16.8747 87.898 18.7261 85.6164 18.7261ZM85.6164 5.94461C82.049 5.98687 78.8776 8.22784 77.6432 11.5785C76.4088 14.9291 77.3674 18.6947 80.0532 21.0453C82.739 23.3959 86.5951 23.8442 89.7476 22.1723V23.2185C89.7442 25.501 87.8966 27.3504 85.6164 27.3538C84.3737 27.3538 83.3664 28.3622 83.3664 29.6061C83.3664 30.8501 84.3737 31.8584 85.6164 31.8584C90.3624 31.8418 94.2065 27.9938 94.2231 23.2431V14.6277C94.2065 9.87691 90.3624 6.02891 85.6164 6.0123V5.94461ZM43.0871 18.7261C40.8055 18.7295 38.9532 16.8808 38.9498 14.5969C38.9464 12.313 40.7932 10.4588 43.0748 10.4554C45.3564 10.452 47.2088 12.3007 47.2122 14.5846C47.2156 16.8685 45.3687 18.7227 43.0871 18.7261ZM43.0871 5.94461C38.3412 5.96122 34.4971 9.80922 34.4805 14.56V26.8677C34.4805 27.6724 34.9093 28.4159 35.6055 28.8182C36.3016 29.2206 37.1594 29.2206 37.8555 28.8182C38.5517 28.4159 38.9805 27.6724 38.9805 26.8677V22.1538C40.2449 22.8471 41.6639 23.2091 43.1056 23.2061C47.8743 23.2061 51.7399 19.3366 51.7399 14.5631C51.7399 9.78953 47.8743 5.91999 43.1056 5.91999L43.0871 5.94461ZM67.2965 5.94461C62.5505 5.96122 58.7064 9.80922 58.6898 14.56V20.9477C58.6898 22.1916 59.6972 23.2 60.9398 23.2C62.1825 23.2 63.1899 22.1916 63.1899 20.9477V14.5908C63.1899 12.3102 65.0367 10.4615 67.3149 10.4615C69.5931 10.4615 71.44 12.3102 71.44 14.5908V20.9785C71.3965 21.8101 71.815 22.5979 72.5281 23.0268C73.2413 23.4557 74.1326 23.4557 74.8457 23.0268C75.5589 22.5979 75.9774 21.8101 75.9339 20.9785V14.5908C75.9173 9.83999 72.0732 5.99199 67.3272 5.97538L67.2965 5.94461ZM122.269 18.6523C119.987 18.6557 118.135 16.807 118.131 14.5231C118.128 12.2392 119.975 10.3849 122.256 10.3815C124.538 10.3781 126.39 12.2269 126.394 14.5108C126.397 16.7947 124.55 18.6489 122.269 18.6523ZM122.269 5.87076C117.515 5.87076 113.662 9.72799 113.662 14.4861C113.662 19.2443 117.515 23.1015 122.269 23.1015C127.022 23.1015 130.875 19.2443 130.875 14.4861C130.859 9.73538 127.014 5.88738 122.269 5.87076ZM103.942 18.7261C101.661 18.7261 99.8112 16.8747 99.8112 14.5908C99.8112 12.3069 101.661 10.4554 103.942 10.4554C106.224 10.4554 108.074 12.3069 108.074 14.5908C108.07 16.8733 106.223 18.7228 103.942 18.7261ZM110.318 0.0369156C109.075 0.0369156 108.068 1.04531 108.068 2.28922V7.00307C104.665 5.15031 100.445 5.80093 97.7576 8.59273C95.0698 11.3845 94.5761 15.6296 96.5514 18.9648C98.5267 22.2999 102.484 23.9034 106.221 22.8825C109.958 21.8617 112.553 18.468 112.561 14.5908V2.28307C112.561 1.03915 111.554 0.0307617 110.311 0.0307617L110.318 0.0369156ZM55.032 5.94461C53.7893 5.94461 52.7819 6.953 52.7819 8.19691V20.9723C52.7819 22.2162 53.7893 23.2246 55.032 23.2246C56.2746 23.2246 57.282 22.2162 57.282 20.9723V8.20307C57.282 6.95915 56.2746 5.95076 55.032 5.95076V5.94461ZM52.7819 2.28922C52.7819 3.53314 53.7893 4.54153 55.032 4.54153C56.2746 4.54153 57.282 3.53314 57.282 2.28922C57.282 1.04531 56.2746 0.0369156 55.032 0.0369156C53.7893 0.0369156 52.7819 1.04531 52.7819 2.28922ZM143.773 23.1569C144.371 23.1569 144.944 22.9188 145.366 22.4951C145.788 22.0713 146.025 21.4969 146.023 20.8985V11.3231C146.023 10.8031 146.444 10.3815 146.964 10.3815C149.243 10.3849 151.089 12.2354 151.089 14.5169V20.8738C151.089 22.1178 152.096 23.1261 153.339 23.1261C154.581 23.1261 155.589 22.1178 155.589 20.8738V14.5169C155.572 9.76615 151.728 5.91815 146.982 5.90153C145.889 5.89865 144.805 6.10762 143.791 6.51691C142.777 6.10777 141.694 5.89881 140.601 5.90153C135.856 5.92184 132.014 9.76738 131.994 14.5169V20.8738C131.994 22.1178 133.001 23.1261 134.244 23.1261C135.487 23.1261 136.494 22.1178 136.494 20.8738V14.5169C136.494 12.2354 138.34 10.3849 140.619 10.3815C141.139 10.3815 141.56 10.8031 141.56 11.3231V20.8738C141.558 21.4722 141.794 22.0467 142.217 22.4704C142.639 22.8942 143.212 23.1323 143.81 23.1323L143.773 23.1569Z" fill="white"/>
</g>
<defs>
<clipPath id="clip0_5_6065">
<rect width="155.535" height="32" fill="white" transform="translate(0.128906)"/>
</clipPath>
</defs>
</svg>
