<svg width="124" height="32" viewBox="0 0 124 32" fill="none" xmlns="http://www.w3.org/2000/svg">
<g clip-path="url(#clip0_5_6066)">
<path fill-rule="evenodd" clip-rule="evenodd" d="M41.1679 9.10086H41.9295C42.4494 9.10086 42.8706 9.52218 42.8706 10.0419V10.9329C42.8706 10.9605 42.893 10.9829 42.9207 10.9829C43.3542 10.2162 43.9377 9.65851 44.6713 9.30998C45.405 8.96145 46.1969 8.78718 47.0474 8.78718C47.9644 8.78718 48.7897 8.95709 49.5233 9.29691C50.257 9.63673 50.8822 10.1029 51.3991 10.6954C51.916 11.2879 52.3078 11.9849 52.5745 12.7866C52.8413 13.5882 52.9747 14.4508 52.9747 15.3745C52.9747 16.298 52.833 17.1606 52.5496 17.9622C52.2661 18.7639 51.8702 19.461 51.3616 20.0535C50.8531 20.6459 50.2403 21.1121 49.5233 21.4519C48.8063 21.7917 48.0227 21.9616 47.1724 21.9616C46.6055 21.9616 46.1053 21.9007 45.6718 21.7787C45.2382 21.6567 44.8547 21.4999 44.5213 21.3082C44.1879 21.1164 43.9043 20.9117 43.671 20.6939C43.4375 20.476 43.2458 20.2625 43.0958 20.0535C43.0543 20.0535 43.0207 20.087 43.0207 20.1285V26.4594C43.0207 27.0936 42.5066 27.6078 41.8722 27.6078H41.1679C40.5337 27.6078 40.0195 27.0936 40.0195 26.4594V10.2493C40.0195 9.61503 40.5337 9.10086 41.1679 9.10086ZM49.9734 15.3745C49.9734 14.8865 49.8943 14.416 49.7359 13.9629C49.5775 13.5098 49.3441 13.109 49.0356 12.7604C48.7271 12.4119 48.3562 12.1331 47.9226 11.924C47.4892 11.7148 46.9973 11.6103 46.4471 11.6103C45.8969 11.6103 45.405 11.7148 44.9715 11.924C44.5379 12.1331 44.167 12.4119 43.8585 12.7604C43.55 13.109 43.3167 13.5098 43.1582 13.9629C42.9999 14.416 42.9207 14.8865 42.9207 15.3745C42.9207 15.8624 42.9999 16.3329 43.1582 16.7859C43.3167 17.239 43.55 17.6398 43.8585 17.9884C44.167 18.3369 44.5379 18.6158 44.9715 18.8248C45.405 19.034 45.8969 19.1386 46.4471 19.1386C46.9973 19.1386 47.4892 19.034 47.9226 18.8248C48.3562 18.6158 48.7271 18.3369 49.0356 17.9884C49.3441 17.6398 49.5775 17.239 49.7359 16.7859C49.8943 16.3329 49.9734 15.8624 49.9734 15.3745ZM57.2994 9.10086H58.1589C58.7075 9.10086 59.1522 9.54558 59.1522 10.0942V11.0375C59.1522 11.0651 59.1746 11.0875 59.2022 11.0875C59.5357 10.3556 60.0108 9.78921 60.6278 9.3884C61.2447 8.98759 61.9534 8.78718 62.7536 8.78718C62.937 8.78718 63.1162 8.80461 63.2913 8.83947C63.6039 8.9017 63.8291 9.17606 63.8291 9.49478V11.2157C63.8291 11.5618 63.5485 11.8424 63.2024 11.8424C63.1651 11.8424 63.128 11.8391 63.0913 11.8325C62.8495 11.7889 62.6119 11.7671 62.3784 11.7671C61.6782 11.7671 61.1155 11.9022 60.6902 12.1723C60.2652 12.4424 59.94 12.7517 59.7149 13.1003C59.4899 13.4488 59.3397 13.7973 59.2647 14.1458C59.1897 14.4943 59.1522 14.7557 59.1522 14.9301V20.4995C59.1522 21.1338 58.638 21.648 58.0038 21.648H57.2994C56.6652 21.648 56.151 21.1338 56.151 20.4995V10.2493C56.151 9.61503 56.6652 9.10086 57.2994 9.10086ZM67.4535 9.10086H68.1578C68.7921 9.10086 69.3063 9.61503 69.3063 10.2493V20.4995C69.3063 21.1338 68.7921 21.648 68.1578 21.648H67.4535C66.8193 21.648 66.3051 21.1338 66.3051 20.4995V10.2493C66.3051 9.61503 66.8193 9.10086 67.4535 9.10086ZM65.8799 4.84007C65.8799 4.3347 66.0591 3.89469 66.4176 3.52C66.7761 3.14534 67.2304 2.95801 67.7807 2.95801C68.331 2.95801 68.7935 3.13662 69.1687 3.49387C69.5439 3.85112 69.7314 4.29984 69.7314 4.84007C69.7314 5.38029 69.5439 5.82902 69.1687 6.18627C68.7935 6.54352 68.331 6.72214 67.7807 6.72214C67.2304 6.72214 66.7761 6.5348 66.4176 6.16013C66.0591 5.78546 65.8799 5.34544 65.8799 4.84007ZM78.8102 11.9682C78.2013 11.5205 77.6593 11.2966 77.1845 11.2966C76.7843 11.2966 76.3925 11.4012 76.009 11.6103C75.6255 11.8194 75.4338 12.1592 75.4338 12.6297C75.4338 13.0131 75.5921 13.2919 75.9089 13.4662C76.2257 13.6405 76.6259 13.7885 77.1094 13.9105C77.5929 14.0325 78.114 14.159 78.6726 14.2897C79.231 14.4204 79.7521 14.6207 80.2357 14.8909C80.7192 15.161 81.1193 15.5313 81.4361 16.0018C81.7529 16.4723 81.9114 17.1171 81.9114 17.9361C81.9114 18.6854 81.7571 19.3171 81.4486 19.8313C81.1402 20.3453 80.74 20.7592 80.2481 21.0729C79.7564 21.3866 79.202 21.6131 78.585 21.7526C77.9681 21.892 77.3512 21.9616 76.7343 21.9616C75.8005 21.9616 74.9419 21.8222 74.1583 21.5434C73.8513 21.4342 73.4831 21.2149 73.0535 20.8851C72.5503 20.4991 72.4555 19.7781 72.8415 19.2749C72.8744 19.232 72.9103 19.1916 72.9489 19.1538L73.2602 18.8488C73.6898 18.4278 74.3715 18.4096 74.8229 18.807C75.0049 18.9673 75.1627 19.0909 75.2962 19.1777C75.7381 19.4653 76.2758 19.6091 76.9094 19.6091C77.1261 19.6091 77.3512 19.583 77.5846 19.5306C77.8181 19.4784 78.0348 19.3912 78.2348 19.2693C78.435 19.1473 78.5976 18.9948 78.7226 18.8118C78.8476 18.6289 78.9101 18.4154 78.9101 18.1714C78.9101 17.7357 78.7517 17.4134 78.4349 17.2042C78.1182 16.9951 77.718 16.8252 77.2345 16.6945C76.7509 16.5638 76.23 16.4419 75.6714 16.3286C75.1128 16.2153 74.5917 16.0323 74.1082 15.7796C73.6246 15.5269 73.2245 15.174 72.9077 14.7209C72.5909 14.2678 72.4326 13.6405 72.4326 12.8389C72.4326 12.1418 72.5701 11.5362 72.8453 11.0221C73.1203 10.508 73.4829 10.0855 73.9331 9.75436C74.3833 9.42325 74.9002 9.17928 75.4837 9.02244C76.0673 8.8656 76.6593 8.78718 77.2595 8.78718C78.0598 8.78718 78.8518 8.93095 79.6354 9.21849C79.9192 9.3226 80.2357 9.5154 80.585 9.79688C81.079 10.1948 81.1568 10.9178 80.7589 11.4117C80.7257 11.4528 80.6899 11.4915 80.6513 11.5277L80.2774 11.8795C79.8737 12.2591 79.2566 12.2965 78.8102 11.9682ZM85.6358 9.10086H86.19C86.8244 9.10086 87.3386 9.61503 87.3386 10.2493V11.0613C87.6554 10.4688 88.0847 9.9417 88.6765 9.47989C89.2684 9.01808 90.0646 8.78718 91.065 8.78718C92.9492 8.78718 94.1996 9.56265 94.8166 11.1136C95.25 10.312 95.7919 9.72386 96.4422 9.34919C97.0924 8.97452 97.8677 8.78718 98.7681 8.78718C99.5684 8.78718 100.244 8.9266 100.794 9.20542C101.344 9.48424 101.79 9.86763 102.132 10.3556C102.474 10.8435 102.72 11.4142 102.87 12.0677C103.02 12.7212 103.095 13.4226 103.095 14.172V20.4995C103.095 21.1338 102.581 21.648 101.946 21.648H101.242C100.608 21.648 100.094 21.1338 100.094 20.4995V14.538C100.094 14.1545 100.06 13.7842 99.9937 13.4269C99.927 13.0697 99.8102 12.7561 99.6435 12.486C99.4768 12.2159 99.2516 12.0024 98.9683 11.8455C98.6847 11.6887 98.3179 11.6103 97.8677 11.6103C97.4009 11.6103 97.0049 11.7018 96.6797 11.8848C96.3546 12.0677 96.0879 12.3117 95.8795 12.6167C95.6711 12.9216 95.521 13.2701 95.4293 13.6622C95.3375 14.0544 95.2917 14.4508 95.2917 14.8516V20.4995C95.2917 21.1338 94.7775 21.648 94.1433 21.648H93.439C92.8047 21.648 92.2905 21.1338 92.2905 20.4995V14.172C92.2905 13.3878 92.1322 12.7648 91.8154 12.303C91.4986 11.8412 90.9734 11.6103 90.2397 11.6103C89.7395 11.6103 89.3185 11.6974 88.9767 11.8717C88.6348 12.0459 88.3514 12.2812 88.1264 12.5775C87.9012 12.8737 87.7387 13.2136 87.6386 13.5969C87.5386 13.9803 87.4886 14.3811 87.4886 14.7994V20.4995C87.4886 21.1338 86.9744 21.648 86.3402 21.648H85.6358C85.0015 21.648 84.4874 21.1338 84.4874 20.4995V10.2493C84.4874 9.61503 85.0015 9.10086 85.6358 9.10086ZM107.945 9.10086H108.649C109.283 9.10086 109.798 9.61503 109.798 10.2493V20.4995C109.798 21.1338 109.283 21.648 108.649 21.648H107.945C107.311 21.648 106.796 21.1338 106.796 20.4995V10.2493C106.796 9.61503 107.311 9.10086 107.945 9.10086ZM106.371 4.84007C106.371 4.3347 106.55 3.89469 106.909 3.52C107.267 3.14534 107.722 2.95801 108.272 2.95801C108.822 2.95801 109.285 3.13662 109.66 3.49387C110.035 3.85112 110.223 4.29984 110.223 4.84007C110.223 5.38029 110.035 5.82902 109.66 6.18627C109.285 6.54352 108.822 6.72214 108.272 6.72214C107.722 6.72214 107.267 6.5348 106.909 6.16013C106.55 5.78546 106.371 5.34544 106.371 4.84007ZM121.053 12.1781C120.929 12.0814 120.821 12.0054 120.727 11.9501C120.343 11.7236 119.952 11.6103 119.551 11.6103C119.001 11.6103 118.509 11.7148 118.076 11.924C117.642 12.1331 117.271 12.4119 116.963 12.7604C116.655 13.109 116.421 13.5098 116.263 13.9629C116.104 14.416 116.025 14.8865 116.025 15.3745C116.025 15.8624 116.104 16.3329 116.263 16.7859C116.421 17.239 116.655 17.6398 116.963 17.9884C117.271 18.3369 117.642 18.6158 118.076 18.8248C118.509 19.034 119.001 19.1386 119.551 19.1386C120.018 19.1386 120.452 19.0383 120.852 18.8379C120.933 18.7974 121.021 18.7424 121.115 18.6726C121.593 18.3215 122.26 18.3916 122.654 18.8344L123.11 19.3469C123.511 19.798 123.471 20.4892 123.02 20.8908C122.965 20.94 122.904 20.9836 122.84 21.0207C122.448 21.2471 122.053 21.4301 121.652 21.5695C121.252 21.7089 120.869 21.8092 120.502 21.8702C120.135 21.9311 119.818 21.9616 119.551 21.9616C118.651 21.9616 117.801 21.8048 117.001 21.4911C116.2 21.1775 115.508 20.7331 114.925 20.158C114.341 19.583 113.878 18.8902 113.537 18.0799C113.195 17.2695 113.024 16.3677 113.024 15.3745C113.024 14.3811 113.195 13.4793 113.537 12.6689C113.878 11.8586 114.341 11.1659 114.925 10.5908C115.508 10.0157 116.2 9.57138 117.001 9.25769C117.801 8.94402 118.651 8.78718 119.551 8.78718C120.319 8.78718 121.09 8.93967 121.865 9.24463C122.16 9.36085 122.509 9.56864 122.911 9.86802C123.419 10.247 123.524 10.9666 123.145 11.4752C123.117 11.5129 123.087 11.5488 123.054 11.5828L122.59 12.0676C122.182 12.4941 121.517 12.5418 121.053 12.1781Z" fill="white"/>
<path fill-rule="evenodd" clip-rule="evenodd" d="M31.8111 16.4245L29.4843 14.0925C29.2998 13.9077 29.1963 13.6572 29.1963 13.3961V10.5419C29.1963 7.90482 28.9224 6.94855 28.4078 5.98446C27.8934 5.02038 27.1383 4.26376 26.1764 3.74816C25.2143 3.23256 24.2601 2.95798 21.6287 2.95798H17.8652C17.7563 2.95798 17.668 2.8697 17.668 2.76078C17.668 2.70856 17.6887 2.65847 17.7256 2.62149L20.0525 0.289542C20.2374 0.104173 20.4886 0 20.7505 0H22.0577C25.5663 0 26.8387 0.366102 28.1213 1.05357C29.404 1.74103 30.4106 2.74985 31.0966 4.0353C31.7827 5.32074 32.148 6.59578 32.148 10.1119V16.2851C32.148 16.394 32.0597 16.4823 31.9507 16.4823C31.8984 16.4823 31.8481 16.4614 31.8111 16.4245Z" fill="white"/>
<path fill-rule="evenodd" clip-rule="evenodd" d="M15.7568 31.2158L18.0837 28.8838C18.2687 28.6984 18.5198 28.5942 18.7817 28.5942H21.6277C24.2591 28.5942 25.2133 28.3197 26.1752 27.8041C27.1373 27.2885 27.8922 26.5319 28.4068 25.5678C28.9212 24.6037 29.1953 23.6474 29.1953 21.0104V17.2391C29.1953 17.1302 29.2836 17.042 29.3924 17.042C29.4449 17.042 29.4951 17.0627 29.532 17.0998L31.8588 19.4316C32.0433 19.6165 32.1468 19.867 32.1468 20.1281V21.4403C32.1468 24.9565 31.7815 26.2315 31.0956 27.517C30.4096 28.8024 29.4029 29.8113 28.1202 30.4988C26.8375 31.1861 25.5653 31.5523 22.0567 31.5523H15.8963C15.7874 31.5523 15.6992 31.464 15.6992 31.3551C15.6992 31.3029 15.72 31.2528 15.7568 31.2158Z" fill="white"/>
<path fill-rule="evenodd" clip-rule="evenodd" d="M1.00085 15.1277L3.32764 17.4596C3.5121 17.6444 3.61569 17.8949 3.61569 18.156V21.0102C3.61569 23.6474 3.88968 24.6035 4.40416 25.5676C4.91866 26.5317 5.67364 27.2883 6.63565 27.8039C7.59767 28.3196 8.55188 28.5942 11.1833 28.5942H14.9468C15.0557 28.5942 15.1441 28.6824 15.1441 28.7913C15.1441 28.8435 15.1233 28.8937 15.0865 28.9306L12.7595 31.2626C12.5745 31.4479 12.3234 31.5521 12.0615 31.5521H10.7542C7.24566 31.5521 5.97336 31.1861 4.69069 30.4986C3.408 29.8111 2.40134 28.8023 1.71536 27.5168C1.02938 26.2314 0.664062 24.9563 0.664062 21.4403V15.2671C0.664062 15.1581 0.752352 15.0698 0.861262 15.0698C0.913636 15.0698 0.963858 15.0907 1.00085 15.1277Z" fill="white"/>
<path fill-rule="evenodd" clip-rule="evenodd" d="M17.0542 0.33649L14.7272 2.66844C14.5422 2.85381 14.2912 2.95799 14.0293 2.95799H11.1833C8.55188 2.95799 7.59766 3.23256 6.63565 3.74816C5.67364 4.26376 4.91865 5.02038 4.40416 5.98446C3.88968 6.94855 3.61569 7.90483 3.61569 10.5419V14.3131C3.61569 14.422 3.5274 14.5103 3.41848 14.5103C3.36612 14.5103 3.31589 14.4895 3.2789 14.4525L0.952103 12.1206C0.767653 11.9358 0.664062 11.6853 0.664062 11.4242V10.1119C0.664062 6.59579 1.02938 5.32076 1.71536 4.0353C2.40134 2.74986 3.408 1.74103 4.69069 1.05357C5.97336 0.366103 7.24566 0 10.7542 0H16.9146C17.0235 0 17.1118 0.0882891 17.1118 0.197199C17.1118 0.249426 17.0911 0.29952 17.0542 0.33649Z" fill="white"/>
<path fill-rule="evenodd" clip-rule="evenodd" d="M26.8946 11.5121L23.7218 8.47316C23.5119 8.26285 23.2663 8.10996 23.0047 8.01451C22.7884 7.93254 22.5539 7.88766 22.3089 7.88766H12.9433C12.8344 7.88766 12.7461 7.79938 12.7461 7.69047C12.7461 7.63822 12.7668 7.58809 12.8038 7.55113L15.1328 5.21893C15.3178 5.03374 15.5688 4.92969 15.8306 4.92969H23.2927C25.4663 4.92969 27.2282 6.69546 27.2282 8.87366V11.3697C27.2282 11.4786 27.14 11.5669 27.0311 11.5669C26.9803 11.5669 26.9314 11.5473 26.8946 11.5121Z" fill="white"/>
<path fill-rule="evenodd" clip-rule="evenodd" d="M20.66 26.2906L23.6933 23.1098C23.9033 22.8995 24.0558 22.6535 24.1511 22.3912C24.2329 22.1744 24.2775 21.9393 24.2775 21.6938V12.3085C24.2775 12.1996 24.3659 12.1113 24.4748 12.1113C24.5271 12.1113 24.5774 12.1322 24.6144 12.1693L26.9415 14.5033C27.1258 14.6881 27.2292 14.9385 27.2292 15.1995V22.6798C27.2292 24.8581 25.4673 26.6239 23.2937 26.6239H20.8027C20.6938 26.6239 20.6055 26.5356 20.6055 26.4266C20.6055 26.376 20.6249 26.3272 20.66 26.2906Z" fill="white"/>
<path fill-rule="evenodd" clip-rule="evenodd" d="M5.91564 20.0396L9.08856 23.0786C9.29843 23.2889 9.54393 23.4418 9.80557 23.5372C10.0219 23.6192 10.2564 23.6641 10.5014 23.6641H19.867C19.9759 23.6641 20.0643 23.7524 20.0643 23.8613C20.0643 23.9136 20.0435 23.9636 20.0065 24.0006L17.6774 26.3328C17.4925 26.518 17.2415 26.622 16.9797 26.622H9.51753C7.34402 26.622 5.58203 24.8563 5.58203 22.6781V20.182C5.58203 20.0732 5.67033 19.9849 5.77924 19.9849C5.83007 19.9849 5.87893 20.0044 5.91564 20.0396Z" fill="white"/>
<path fill-rule="evenodd" clip-rule="evenodd" d="M12.1513 5.26297L9.11789 8.44378C8.90802 8.65409 8.75547 8.90011 8.66024 9.16232C8.57843 9.37912 8.53366 9.61416 8.53366 9.85966V19.2451C8.53366 19.354 8.44536 19.4422 8.33646 19.4422C8.28406 19.4422 8.23381 19.4213 8.19681 19.3842L5.86979 17.0502C5.68551 16.8654 5.58203 16.615 5.58203 16.354V8.87366C5.58203 6.69546 7.34401 4.92969 9.51753 4.92969H12.0086C12.1175 4.92969 12.2058 5.01797 12.2058 5.12688C12.2058 5.17757 12.1863 5.2263 12.1513 5.26297Z" fill="white"/>
</g>
<defs>
<clipPath id="clip0_5_6066">
<rect width="122.88" height="32" fill="white" transform="translate(0.664062)"/>
</clipPath>
</defs>
</svg>
