<svg width="141" height="32" viewBox="0 0 141 32" fill="none" xmlns="http://www.w3.org/2000/svg">
<g clip-path="url(#clip0_5_6081)">
<path fill-rule="evenodd" clip-rule="evenodd" d="M0.292109 21.9837C0.175683 22.2874 0.333639 22.3507 0.371086 22.4045C0.719001 22.6564 1.07236 22.8389 1.42641 23.0438C3.31917 24.0447 5.103 24.3374 6.96855 24.3374C10.7677 24.3374 13.1302 22.3153 13.1302 19.0609V18.9968C13.1302 15.9875 10.4613 14.8913 7.9694 14.1083L7.64327 14.0028C5.7573 13.3914 4.13007 12.859 4.13007 11.6198V11.5565C4.13007 10.4944 5.08326 9.7114 6.55389 9.7114C8.18795 9.7114 10.1352 10.2554 11.3811 10.9437C11.3811 10.9437 11.7502 11.182 11.8843 10.826C11.9571 10.6333 12.5924 8.93319 12.6605 8.74255C12.7326 8.54306 12.606 8.3926 12.476 8.31498C11.0462 7.44349 9.0717 6.85115 7.02914 6.85115L6.64989 6.85251C3.17075 6.85251 0.740108 8.95634 0.740108 11.9657V12.0304C0.740108 15.2031 3.42266 16.238 5.92819 16.9529L6.33126 17.0782C8.15595 17.6392 9.73553 18.1267 9.73553 19.4067V19.4707C9.73553 20.6486 8.70744 21.5269 7.05978 21.5269C6.41909 21.5269 4.37721 21.516 2.16445 20.1175C1.89687 19.9616 1.74436 19.8493 1.53807 19.7233C1.42913 19.6573 1.15679 19.5381 1.03832 19.8949L0.289385 21.9783L0.292109 21.9837ZM55.9149 21.9783C55.7985 22.282 55.9565 22.3453 55.9953 22.3991C56.3418 22.651 56.6965 22.8334 57.0506 23.0384C58.9434 24.0392 60.7272 24.332 62.5927 24.332C66.3919 24.332 68.7544 22.3099 68.7544 19.0554V18.9914C68.7544 15.982 66.0923 14.8859 63.5936 14.1029L63.2674 13.9974C61.3815 13.386 59.7543 12.8535 59.7543 11.6144V11.5511C59.7543 10.4889 60.7074 9.70596 62.1781 9.70596C63.8121 9.70596 65.7525 10.25 67.0053 10.9383C67.0053 10.9383 67.3743 11.1766 67.5091 10.8205C67.5813 10.6278 68.2172 8.92774 68.2785 8.73711C68.3514 8.53762 68.224 8.38715 68.0947 8.30953C66.6649 7.43804 64.6904 6.8457 62.6479 6.8457L62.268 6.84706C58.7888 6.84706 56.3582 8.95089 56.3582 11.9603V12.0249C56.3582 15.1977 59.0407 16.2326 61.5462 16.9475L61.9486 17.0728C63.7801 17.6338 65.3529 18.1213 65.3529 19.4013V19.4653C65.3529 20.6431 64.3248 21.5214 62.6771 21.5214C62.0351 21.5214 59.9878 21.5106 57.7818 20.1121C57.5143 19.9562 57.3577 19.8486 57.1548 19.7179C57.086 19.6743 56.7653 19.549 56.6557 19.8894L55.9068 21.9728L55.9149 21.9783ZM93.8983 15.6001C93.8983 17.4384 93.5551 18.8886 92.8838 19.9167C92.2138 20.9311 91.2021 21.4282 89.7927 21.4282C88.3834 21.4282 87.3757 20.9352 86.7153 19.9235C86.0501 18.9022 85.7144 17.4452 85.7144 15.6069C85.7144 13.7686 86.0521 12.3252 86.7153 11.3107C87.3743 10.3031 88.3766 9.81966 89.7927 9.81966C91.2089 9.81966 92.2166 10.3078 92.8838 11.3107C93.5592 12.3252 93.8983 13.7686 93.8983 15.6069V15.6001ZM97.071 12.1958C96.7585 11.1405 96.2744 10.2146 95.6276 9.43838C94.9801 8.66221 94.1638 8.03583 93.1902 7.58647C92.2234 7.1337 91.0795 6.90562 89.7859 6.90562C88.4923 6.90562 87.3553 7.13506 86.3817 7.58647C85.4148 8.03855 84.591 8.66221 83.9442 9.43838C83.2988 10.2146 82.814 11.1405 82.5008 12.1958C82.191 13.2443 82.0337 14.3882 82.0337 15.6069C82.0337 16.8256 82.191 17.9694 82.5008 19.018C82.812 20.0733 83.2974 20.9992 83.9442 21.7754C84.5917 22.5516 85.4148 23.1711 86.3817 23.6137C87.3553 24.0549 88.4991 24.2796 89.7859 24.2796C91.0727 24.2796 92.2166 24.0549 93.1834 23.6137C94.1502 23.1725 94.974 22.5516 95.6208 21.7754C96.2669 20.9992 96.751 20.0733 97.0642 19.018C97.3733 17.9694 97.5306 16.8256 97.5306 15.6069C97.5306 14.395 97.3733 13.2443 97.0642 12.1958H97.071ZM123.141 20.9107C123.037 20.6023 122.736 20.7187 122.736 20.7187C122.275 20.8951 121.783 21.0585 121.258 21.1402C120.73 21.2232 120.142 21.2648 119.522 21.2648C117.99 21.2648 116.765 20.8079 115.893 19.9031C115.015 18.9975 114.525 17.5405 114.531 15.566C114.536 13.7686 114.971 12.4205 115.75 11.3856C116.52 10.3643 117.704 9.83328 119.27 9.83328C120.577 9.83328 121.578 9.98511 122.627 10.3133C122.627 10.3133 122.875 10.4215 122.994 10.094C123.273 9.32468 123.479 8.77319 123.777 7.92894C123.862 7.68724 123.655 7.58511 123.579 7.55583C123.168 7.39515 122.197 7.13166 121.462 7.02068C120.774 6.91583 119.978 6.86136 119.079 6.86136C117.744 6.86136 116.56 7.08945 115.545 7.54153C114.531 7.99294 113.673 8.61728 112.992 9.39345C112.311 10.1696 111.794 11.0956 111.447 12.1509C111.103 13.1994 110.929 14.35 110.929 15.5688C110.929 18.1968 111.637 20.3279 113.04 21.8871C114.442 23.453 116.553 24.2428 119.304 24.2428C120.931 24.2428 122.599 23.914 123.797 23.4394C123.797 23.4394 124.026 23.3291 123.927 23.0622L123.144 20.9107H123.141ZM128.692 13.8299C128.844 12.8086 129.124 11.9575 129.564 11.2971C130.222 10.2894 131.225 9.73796 132.635 9.73796C134.044 9.73796 134.977 10.2922 135.644 11.2971C136.087 11.9609 136.28 12.8426 136.352 13.8299L128.658 13.8285L128.692 13.8299ZM139.382 11.5831C139.112 10.5686 138.442 9.54051 138.007 9.07072C137.312 8.3286 136.638 7.80434 135.964 7.51838C134.991 7.10456 133.944 6.89221 132.887 6.89404C131.545 6.89404 130.327 7.12077 129.339 7.5817C128.352 8.04604 127.521 8.67787 126.868 9.46766C126.215 10.2574 125.724 11.1902 125.411 12.2591C125.098 13.3145 124.94 14.4719 124.94 15.6838C124.94 16.923 125.104 18.0736 125.426 19.1153C125.753 20.1638 126.277 21.083 126.986 21.8455C127.694 22.6149 128.599 23.214 129.689 23.6362C130.771 24.0549 132.085 24.2721 133.59 24.2673C136.695 24.2571 138.329 23.566 138.996 23.1916C139.115 23.1248 139.227 23.0098 139.087 22.6782L138.386 20.7105C138.278 20.4171 137.981 20.5233 137.981 20.5233C137.212 20.8106 136.123 21.3267 133.569 21.3199C131.901 21.3172 130.669 20.8249 129.893 20.0535C129.103 19.2637 128.708 18.1131 128.647 16.4791L139.404 16.4872C139.404 16.4872 139.688 16.4845 139.717 16.2081C139.728 16.0937 140.085 14.0021 139.396 11.5851L139.382 11.5831ZM42.701 13.8299C42.8528 12.8086 43.1333 11.9575 43.5725 11.2971C44.2315 10.2894 45.2337 9.73796 46.6431 9.73796C48.0525 9.73796 48.9852 10.2922 49.6525 11.2971C50.0943 11.9609 50.2877 12.8426 50.3605 13.8299L42.6669 13.8285L42.701 13.8299ZM53.3903 11.5831C53.1207 10.5686 52.4508 9.54051 52.015 9.07072C51.3205 8.3286 50.6465 7.80434 49.9725 7.51838C48.9993 7.10456 47.9524 6.89221 46.895 6.89404C45.5537 6.89404 44.335 7.12077 43.3478 7.5817C42.3605 8.04604 41.5299 8.67787 40.8763 9.46766C40.2247 10.2574 39.7325 11.1902 39.4193 12.2591C39.1068 13.3145 38.9495 14.4719 38.9495 15.6838C38.9495 16.923 39.1122 18.0736 39.437 19.1153C39.7624 20.1638 40.288 21.083 40.9893 21.8455C41.6974 22.6149 42.6029 23.214 43.6923 23.6362C44.7748 24.0549 46.0821 24.2721 47.5936 24.2673C50.6983 24.2571 52.3323 23.566 52.9995 23.1916C53.118 23.1248 53.231 23.0098 53.0901 22.6782L52.3888 20.7105C52.2805 20.4171 51.9837 20.5233 51.9837 20.5233C51.2143 20.8106 50.125 21.3267 47.5718 21.3199C45.9105 21.3172 44.6714 20.8249 43.8952 20.0535C43.1054 19.2637 42.7105 18.1131 42.6492 16.4791L53.4067 16.4872C53.4067 16.4872 53.6899 16.4845 53.7192 16.2081C53.7308 16.0937 54.0875 14.0021 53.3978 11.5851L53.3903 11.5831ZM19.484 20.8426C19.0625 20.5063 19.004 20.4239 18.8644 20.2054C18.6513 19.8765 18.5423 19.4088 18.5423 18.8096C18.5423 17.87 18.8555 17.1892 19.5023 16.733C19.4955 16.7344 20.4283 15.9296 22.6206 15.9569C23.5964 15.9743 24.57 16.0573 25.5347 16.2054V21.0871H25.536C25.536 21.0871 24.1743 21.3805 22.6356 21.4731C20.4501 21.6045 19.4833 20.844 19.4901 20.846L19.484 20.8426ZM23.7597 13.2852C23.324 13.2532 22.7588 13.2375 22.0848 13.2375C21.1657 13.2375 20.2737 13.3519 19.4431 13.5766C18.6057 13.8026 17.8499 14.1526 17.2031 14.6183C16.5545 15.081 16.021 15.6867 15.644 16.3885C15.2634 17.0966 15.0693 17.9272 15.0693 18.8668C15.0693 19.82 15.2348 20.6438 15.5616 21.3179C15.8818 21.9865 16.3639 22.5645 16.9641 22.9996C17.5612 23.434 18.2986 23.7553 19.1497 23.946C19.9939 24.1386 20.9471 24.236 21.9956 24.236C23.0986 24.236 24.1948 24.1434 25.2569 23.9643C26.1615 23.8083 27.0627 23.633 27.9599 23.4387C28.318 23.3563 28.7156 23.2481 28.7156 23.2481C28.9811 23.1807 28.9607 22.8968 28.9607 22.8968L28.9546 13.0925C28.9546 10.941 28.38 9.34102 27.2457 8.35379C26.1154 7.36655 24.461 6.86953 22.3163 6.86953C21.5129 6.86953 20.2125 6.97847 19.4363 7.13438C19.4363 7.13438 17.0942 7.58919 16.1274 8.3463C16.1274 8.3463 15.9149 8.47702 16.0307 8.77319L16.7932 10.8157C16.8879 11.0806 17.1459 10.99 17.1459 10.99C17.1459 10.99 17.2269 10.958 17.3223 10.9015C19.3852 9.77813 21.9997 9.81217 21.9997 9.81217C23.1571 9.81217 24.0559 10.0471 24.655 10.5066C25.2412 10.9567 25.5401 11.6369 25.5401 13.0666V13.5208C24.621 13.3873 23.7699 13.3104 23.7699 13.3104L23.7597 13.2852ZM110.228 7.74987C110.243 7.71392 110.252 7.67532 110.252 7.63624C110.252 7.59709 110.244 7.55835 110.229 7.52226C110.214 7.48618 110.192 7.4535 110.164 7.4262C110.136 7.39883 110.103 7.37738 110.066 7.36315C109.883 7.2937 108.97 7.10102 108.269 7.05745C106.921 6.97302 106.172 7.20043 105.498 7.50272C104.832 7.80298 104.095 8.2857 103.687 8.844L103.685 7.53677C103.685 7.35702 103.558 7.212 103.377 7.212H100.626C100.448 7.212 100.319 7.35702 100.319 7.53677V23.5368C100.319 23.6232 100.353 23.706 100.415 23.7672C100.475 23.8283 100.558 23.8627 100.645 23.8629H103.464C103.55 23.8627 103.632 23.8282 103.694 23.7671C103.755 23.706 103.789 23.6232 103.789 23.5368V15.5027C103.789 14.427 103.907 13.358 104.144 12.684C104.377 12.0174 104.693 11.4857 105.083 11.1044C105.456 10.7362 105.911 10.4629 106.411 10.3078C106.88 10.1732 107.366 10.1049 107.854 10.1049C108.416 10.1049 109.032 10.2493 109.032 10.2493C109.239 10.2724 109.354 10.1458 109.424 9.95923C109.609 9.46834 110.132 7.99838 110.235 7.70562" fill="white"/>
<path fill-rule="evenodd" clip-rule="evenodd" d="M83.8995 0.365423C83.5509 0.260128 83.1968 0.176006 82.838 0.113511C82.356 0.0330039 81.8671 -0.0048166 81.3783 0.000489779C79.4358 0.000489779 77.9046 0.549258 76.8295 1.63317C75.7619 2.70892 75.0355 4.34772 74.6712 6.50398L74.5398 7.2318H72.1017C72.1017 7.2318 71.8041 7.21954 71.7415 7.54431L71.3412 9.7775C71.3132 9.99128 71.4052 10.1247 71.6911 10.1234H74.0646L71.6564 23.5654C71.4678 24.648 71.252 25.5385 71.013 26.2132C70.7774 26.8791 70.5473 27.3782 70.2641 27.7404C69.9897 28.091 69.7296 28.3491 69.2809 28.4995C68.9105 28.6241 68.4843 28.6813 68.0174 28.6813C67.7573 28.6813 67.4114 28.6377 67.1561 28.5867C66.9008 28.5363 66.768 28.4791 66.5767 28.3988C66.5767 28.3988 66.2982 28.2926 66.1886 28.5717C66.0994 28.7998 65.4669 30.5394 65.392 30.7545C65.3158 30.9669 65.4227 31.1344 65.5575 31.1828C65.8734 31.2958 66.1083 31.368 66.5386 31.4694C67.1364 31.6103 67.6402 31.6192 68.1119 31.6192C69.1005 31.6192 70.0012 31.4803 70.7481 31.2107C71.4998 30.939 72.1541 30.4658 72.7328 29.8252C73.3585 29.1341 73.7521 28.4103 74.1286 27.4231C74.501 26.4447 74.8183 25.2301 75.0722 23.8146L77.492 10.1234H81.0297C81.0297 10.1234 81.3279 10.1343 81.3898 9.81086L81.7902 7.57767C81.8181 7.36388 81.7269 7.23043 81.4395 7.2318H78.006C78.023 7.15418 78.1789 5.94636 78.5732 4.80934C78.7413 4.32389 79.0579 3.9324 79.3262 3.66347C79.5767 3.40733 79.8852 3.21535 80.2256 3.10381C80.5987 2.98844 80.9881 2.93238 81.3783 2.93767C81.7017 2.93767 82.0189 2.97649 82.2606 3.02687C82.5936 3.09768 82.7229 3.13513 82.8101 3.161C83.16 3.26789 83.207 3.1644 83.2758 2.99487L84.0969 0.739894C84.1813 0.49751 83.9757 0.39538 83.8995 0.365423ZM35.9173 23.594C35.9173 23.7738 35.7893 23.9201 35.6096 23.9201H32.7616C32.5811 23.9201 32.4531 23.7738 32.4531 23.594V0.671128C32.4531 0.492065 32.5811 0.347045 32.7616 0.347045H35.6096C35.7893 0.347045 35.9173 0.492065 35.9173 0.671128V23.594Z" fill="white"/>
</g>
<defs>
<clipPath id="clip0_5_6081">
<rect width="140.255" height="32" fill="white" transform="translate(0.0195312)"/>
</clipPath>
</defs>
</svg>
