<svg width="129" height="32" viewBox="0 0 129 32" fill="none" xmlns="http://www.w3.org/2000/svg">
<g clip-path="url(#clip0_5_6083)">
<path d="M41.2935 25.3213L42.8556 21.6701C44.5661 22.9368 46.797 23.6073 49.0284 23.6073C50.6646 23.6073 51.7058 22.9742 51.7058 22.0056C51.6684 19.323 41.8513 21.4094 41.7767 14.6648C41.7393 11.2371 44.7889 8.5918 49.103 8.5918C51.6684 8.5918 54.2348 9.2254 56.0566 10.6787L54.5969 14.4078C52.9206 13.3299 50.8502 12.5785 48.8797 12.5785C47.5409 12.5785 46.6481 13.2115 46.6481 14.0317C46.6855 16.6771 56.5777 15.2238 56.6892 21.6701C56.6892 25.1726 53.7137 27.6317 49.4742 27.6317C46.351 27.6317 43.4877 26.8868 41.293 25.3213H41.2935ZM103.495 20.348C103.101 21.0487 102.527 21.6317 101.833 22.0376C101.139 22.4434 100.35 22.6573 99.5458 22.6574C97.0402 22.6574 95.0092 20.6222 95.0092 18.1117C95.0092 15.6014 97.0402 13.5662 99.5458 13.5662C100.35 13.5662 101.139 13.7802 101.833 14.186C102.527 14.5917 103.101 15.1749 103.495 15.8756L107.838 13.4648C106.211 10.5577 103.108 8.5918 99.5458 8.5918C94.2983 8.5918 90.0445 12.8536 90.0445 18.1117C90.0445 23.3693 94.2983 27.6317 99.5458 27.6317C103.108 27.6317 106.211 25.6659 107.838 22.7588L103.495 20.348ZM59.5074 27.259H64.9366V0.666992H59.5079L59.5074 27.259ZM110.58 0.666992V27.259H116.009V19.292L122.443 27.259H129.383L121.201 17.7944L128.787 8.963H122.145L116.009 16.3054V0.666992H110.58ZM81.6637 8.96406V11.1257C80.7714 9.635 78.5772 8.5918 76.2717 8.5918C71.5116 8.5918 67.7558 12.8024 67.7558 18.0932C67.7558 23.3838 71.5116 27.6317 76.2717 27.6317C78.5772 27.6317 80.7714 26.5885 81.6637 25.098V27.259H87.0929V8.96406H81.6637ZM81.6637 20.3849C80.8829 21.6888 79.2465 22.6569 77.4247 22.6569C74.9186 22.6569 72.8876 20.6222 72.8876 18.1117C72.8876 15.6014 74.9186 13.5662 77.4247 13.5662C79.2465 13.5662 80.8829 14.572 81.6637 15.9128V20.3849Z" fill="white"/>
<path d="M12.6225 0.0791016C10.863 0.0791016 9.43687 1.50843 9.43687 3.2711C9.43646 3.68986 9.51852 4.1046 9.67838 4.49165C9.83825 4.87869 10.0728 5.23045 10.3686 5.52686C10.6644 5.82327 11.0157 6.05851 11.4024 6.21915C11.7891 6.37979 12.2037 6.46268 12.6225 6.4631H15.8086V3.2711C15.8094 2.42533 15.474 1.61391 14.8765 1.01531C14.279 0.416708 13.4682 0.0799498 12.6225 0.0791016ZM12.6225 8.5911H4.12701C2.36754 8.5911 0.941406 10.0204 0.941406 11.7836C0.941406 13.5463 2.36754 14.9757 4.12701 14.9757H12.623C14.3819 14.9757 15.8086 13.5463 15.8086 11.7836C15.8086 10.0204 14.3819 8.5911 12.6225 8.5911Z" fill="white"/>
<path d="M32.8008 11.7836C32.8008 10.0204 31.3741 8.59111 29.6146 8.59111C27.8551 8.59111 26.4291 10.0204 26.4291 11.7836V14.9757H29.6146C30.4604 14.9748 31.2712 14.638 31.8687 14.0395C32.4662 13.4408 32.8014 12.6294 32.8008 11.7836ZM24.3053 11.7836V3.27111C24.3059 2.42533 23.9707 1.61391 23.3732 1.01531C22.7757 0.416708 21.965 0.0799498 21.1191 0.0791016C19.3596 0.0791016 17.9336 1.50843 17.9336 3.27111V11.7831C17.9336 13.5468 19.3596 14.9762 21.1191 14.9762C21.965 14.9753 22.7757 14.6385 23.3732 14.04C23.9707 13.4413 24.3059 12.6299 24.3053 11.7842" fill="white"/>
<path d="M21.1191 32C21.965 31.9993 22.7757 31.6625 23.3732 31.0638C23.9707 30.4653 24.3059 29.6538 24.3053 28.8081C24.3059 27.9623 23.9707 27.1509 23.3732 26.5522C22.7757 25.9537 21.965 25.6169 21.1191 25.616H17.9336V28.8081C17.9336 30.5708 19.3596 32 21.1191 32ZM21.1191 23.488H29.6151C31.3741 23.488 32.8008 22.0588 32.8008 20.2956C32.8014 19.4498 32.4662 18.6384 31.8687 18.0397C31.2712 17.4412 30.4604 17.1044 29.6146 17.1035H21.1191C19.3596 17.1035 17.9336 18.5329 17.9336 20.2956C17.9331 20.7143 18.0153 21.129 18.1751 21.5161C18.3349 21.9031 18.5695 22.2549 18.8653 22.5513C19.1611 22.8476 19.5123 23.0829 19.8992 23.2435C20.2859 23.4042 20.7004 23.4871 21.1191 23.4875" fill="white"/>
<path d="M0.941408 20.2956C0.940987 20.7143 1.02305 21.129 1.18292 21.5161C1.34278 21.9031 1.57731 22.2549 1.87312 22.5513C2.16893 22.8476 2.52022 23.0829 2.90695 23.2435C3.29367 23.4042 3.70825 23.4871 4.12701 23.4875C4.97278 23.4866 5.78358 23.1499 6.38109 22.5513C6.97858 21.9527 7.31385 21.1413 7.31314 20.2956V17.1035H4.12701C2.36754 17.1035 0.941408 18.5329 0.941408 20.2956ZM9.43687 20.2956V28.8076C9.43687 30.5708 10.863 32 12.6225 32C13.4682 31.9993 14.279 31.6625 14.8765 31.0638C15.474 30.4653 15.8094 29.6538 15.8086 28.8081V20.2956C15.809 19.8768 15.7269 19.4619 15.5671 19.0748C15.4072 18.6878 15.1726 18.336 14.8768 18.0396C14.5808 17.7431 14.2295 17.508 13.8427 17.3474C13.4559 17.1867 13.0413 17.1039 12.6225 17.1035C10.863 17.1035 9.43687 18.5329 9.43687 20.2956Z" fill="white"/>
</g>
<defs>
<clipPath id="clip0_5_6083">
<rect width="128" height="32" fill="white" transform="translate(0.941406)"/>
</clipPath>
</defs>
</svg>
