<svg width="165" height="101" viewBox="0 0 165 101" fill="none" xmlns="http://www.w3.org/2000/svg">
<path d="M28.4193 62.2801V61.726H28.4201V61.5649C28.4201 61.4352 28.4273 61.2999 28.441 61.1541L28.4418 61.1308C28.4546 61.0027 28.4739 60.8754 28.4987 60.7562L28.5068 60.72C28.53 60.5976 28.5589 60.4776 28.5934 60.3592L28.6046 60.3253C28.6375 60.2198 28.6792 60.1038 28.7362 59.9629L28.7418 59.9436C28.79 59.8276 28.8421 59.7164 28.9015 59.6045L28.9135 59.5787C28.9648 59.482 29.025 59.3805 29.0996 59.2654L29.1197 59.2332C29.1742 59.1478 29.24 59.0568 29.3211 58.9529L29.3556 58.9126C29.4366 58.8111 29.508 58.7281 29.5882 58.6468L29.6187 58.6122C29.6893 58.5381 29.7687 58.4656 29.8682 58.3778L29.9091 58.3407C29.9805 58.2787 30.0591 58.2199 30.1354 58.1619L30.226 58.0951C30.3119 58.0347 30.4025 57.9775 30.4908 57.9251L30.5694 57.8792C30.6544 57.8301 30.7451 57.785 30.8349 57.7415L30.928 57.698C31.0155 57.6593 31.1045 57.6247 31.1944 57.5909L31.3067 57.5506C31.3957 57.5232 31.484 57.4966 31.5682 57.4741L31.622 57.4604C31.6492 57.4531 31.6765 57.4459 31.711 57.4394C31.7921 57.4209 31.8731 57.4056 31.9509 57.3927L32.0215 57.3822C32.0544 57.3774 32.0865 57.3726 32.1202 57.3686C32.1996 57.3597 32.2782 57.3524 32.3544 57.3484L32.4146 57.3444C32.4668 57.3412 32.5173 57.3379 32.5646 57.3371H33.3404C34.4034 57.3371 35.0019 57.8478 35.6349 58.3882C36.2551 58.9182 36.8969 59.4659 37.9768 59.4659C39.331 59.4659 40.4333 58.3592 40.4333 56.9989C40.4333 55.6385 39.331 54.5326 37.9768 54.5326C36.8969 54.5326 36.2551 55.0803 35.6349 55.6103C35.0019 56.1507 34.4034 56.6614 33.3404 56.6614H32.6288C32.5181 56.6614 32.4002 56.6557 32.2461 56.642L32.186 56.6364C32.072 56.6243 31.9557 56.6066 31.845 56.5849L31.7712 56.5712C31.6653 56.5494 31.561 56.522 31.4607 56.493L31.3741 56.4681C31.277 56.4367 31.1831 56.402 31.0901 56.3658L30.989 56.3255C30.9023 56.2885 30.8197 56.2482 30.7355 56.2055C30.7355 56.2055 30.6512 56.1636 30.6231 56.1483C30.5517 56.1088 30.4827 56.0662 30.3993 56.0138C30.3584 55.9888 30.3199 55.9655 30.2782 55.9357C30.2156 55.893 30.1506 55.8479 30.0896 55.7979L30.0375 55.7585C30.011 55.7383 29.9837 55.7182 29.9581 55.6957C29.9027 55.6481 29.8465 55.5998 29.7944 55.5523L29.654 55.4194C29.6091 55.3759 29.569 55.33 29.5248 55.2784C29.4767 55.2269 29.431 55.1761 29.3844 55.1198C29.3556 55.0867 29.3283 55.0505 29.3018 55.0151L29.2328 54.9216C29.2031 54.8805 29.1726 54.8395 29.1462 54.8024C29.1189 54.7581 29.0908 54.7138 29.0635 54.6727L29.0411 54.6405C29.0034 54.5777 28.9656 54.5157 28.9295 54.4496C28.9135 54.4214 28.8991 54.3924 28.8846 54.3643L28.871 54.3369C28.8293 54.2539 28.7908 54.1726 28.7563 54.0872L28.7137 53.9817C28.676 53.8874 28.6407 53.7924 28.6118 53.707L28.5878 53.6096C28.5557 53.5057 28.53 53.4001 28.5084 53.3051L28.4963 53.2262C28.4731 53.1126 28.4546 52.999 28.4426 52.8871L28.4394 52.8291C28.4265 52.6897 28.4201 52.5625 28.4201 52.4384C28.4201 50.1518 30.2028 48.2945 32.4724 48.2123H33.3404C34.4034 48.2123 35.0019 48.723 35.6349 49.2634C36.2551 49.7926 36.8969 50.3403 37.9768 50.3403C39.331 50.3403 40.4333 49.2336 40.4333 47.874C40.4333 46.5144 39.331 45.4086 37.9768 45.4086C36.8969 45.4086 36.2551 45.9563 35.6349 46.4862C35.0019 47.0267 34.4034 47.5373 33.3404 47.5373H32.478C30.2028 47.4544 28.4201 45.5986 28.4201 43.3112C28.4201 41.0245 30.2028 39.1688 32.4724 39.0858H33.3404C34.4034 39.0858 35.0019 39.5965 35.6349 40.1369C36.2551 40.6669 36.8969 41.2138 37.9768 41.2138C39.331 41.2138 40.4333 40.1071 40.4333 38.7476C40.4333 37.388 39.331 36.2813 37.9768 36.2813C36.8969 36.2813 36.2551 36.829 35.6341 37.359C35.0011 37.8994 34.4026 38.4101 33.3396 38.4101H32.478C30.2028 38.3271 28.4201 36.4706 28.4201 34.1839C28.4201 34.0599 28.4265 33.9302 28.4402 33.7836L28.4418 33.745C28.4546 33.6225 28.4739 33.4993 28.5003 33.3729L28.5068 33.3358C28.53 33.2182 28.5589 33.1006 28.5966 32.9725L28.6046 32.9419C28.6423 32.8251 28.6841 32.7084 28.729 32.5972L28.7458 32.5569C28.7924 32.4385 28.8485 32.325 28.895 32.2332L28.9151 32.1969C28.9729 32.0849 29.0403 31.9762 29.098 31.8868L29.1189 31.8554C29.1831 31.7587 29.2513 31.6637 29.3267 31.5679L29.3556 31.5324C29.4294 31.4398 29.5064 31.3512 29.5858 31.2682L29.6195 31.2328C29.6981 31.1482 29.7888 31.0669 29.869 30.9968L29.9099 30.9606C30.0006 30.88 30.1033 30.8043 30.1755 30.7528L30.2244 30.7165C30.3103 30.6561 30.4017 30.5997 30.498 30.5409L30.5646 30.5023C30.6528 30.4515 30.7475 30.4056 30.8454 30.3581L30.924 30.3194C31.0155 30.2792 31.1085 30.2429 31.2064 30.2083L31.3019 30.1728C31.3957 30.1422 31.4856 30.1165 31.577 30.0931L31.6228 30.081C31.6484 30.0738 31.6749 30.0673 31.7038 30.0609C31.7913 30.0415 31.8779 30.0254 31.9653 30.0117C32.0167 30.0037 32.0688 29.9964 32.1194 29.9892C32.2004 29.9787 32.2838 29.9731 32.3681 29.9674C32.4315 29.9626 32.494 29.9586 32.5582 29.9578H33.3404C34.4034 29.9578 35.0019 30.4684 35.6349 31.0089C36.2551 31.5389 36.8969 32.0858 37.9768 32.0858C39.331 32.0858 40.4333 30.9799 40.4333 29.6203C40.4333 28.2607 39.331 27.1548 37.9768 27.1548C36.8969 27.1548 36.2551 27.7025 35.6349 28.2317C35.0019 28.7722 34.4034 29.2828 33.3404 29.2828H32.7885V29.2804H32.628C32.5045 29.2804 32.3793 29.274 32.2349 29.2611L32.1884 29.257C32.0712 29.245 31.9517 29.2264 31.8402 29.2055L31.7744 29.1918C31.6773 29.1725 31.5786 29.1475 31.4503 29.1097L31.3741 29.0879C31.2754 29.0565 31.1791 29.0219 31.0844 28.9824L30.9866 28.9429C30.8983 28.9067 30.8133 28.864 30.7323 28.8237L30.6191 28.7641C30.5525 28.7295 30.49 28.69 30.4282 28.6505L30.3913 28.6272C30.3488 28.6038 30.3127 28.5813 30.2774 28.5571C30.2124 28.5112 30.145 28.4613 30.0832 28.4146L30.0222 28.3678C29.999 28.3501 29.9749 28.3324 29.9549 28.3155C29.9067 28.2744 29.8578 28.2309 29.8096 28.1874L29.7888 28.1689C29.7431 28.1262 29.6989 28.0843 29.6524 28.0384C29.6203 28.0078 29.5914 27.9764 29.5633 27.945L29.5176 27.8959C29.4719 27.8459 29.4262 27.7936 29.3828 27.7428C29.3588 27.7138 29.3363 27.6832 29.313 27.6534L29.2721 27.6003C29.2256 27.5415 29.1831 27.481 29.1422 27.4198C29.1253 27.3949 29.0571 27.2861 29.0571 27.2861C29.013 27.2161 28.9697 27.146 28.9287 27.0703C28.9127 27.0429 28.8999 27.0155 28.8862 26.9881L28.8678 26.9511C28.8277 26.8705 28.7883 26.7876 28.7539 26.707L28.7097 26.5999C28.6752 26.5081 28.6407 26.4154 28.6118 26.322L28.5838 26.2238C28.5541 26.1231 28.5284 26.0208 28.5076 25.9225L28.4931 25.8388C28.469 25.7212 28.4522 25.6084 28.4434 25.5061L28.4378 25.4393C28.4249 25.3015 28.4185 25.1759 28.4185 25.0575L28.4177 24.3414C28.4177 23.275 28.9255 22.675 29.4639 22.0387C29.9918 21.4153 30.5373 20.7701 30.5373 19.6852C30.5373 18.3256 29.435 17.2197 28.0799 17.2197C26.7257 17.2197 25.625 18.3256 25.625 19.6852C25.625 20.7701 26.1705 21.4153 26.6992 22.0387C27.2376 22.6742 27.7462 23.275 27.7462 24.3406V25.1114L27.735 25.3265L27.7302 25.3909C27.7253 25.4481 27.7213 25.5053 27.7141 25.5657C27.7085 25.6181 27.6997 25.6704 27.686 25.7324C27.674 25.8154 27.6596 25.8984 27.6427 25.9797C27.6339 26.024 27.6218 26.0675 27.6058 26.119L27.5954 26.1593C27.5769 26.2318 27.5585 26.3035 27.532 26.3792C27.5232 26.4074 27.5135 26.4324 27.5039 26.4589L27.4614 26.5725C27.4373 26.6353 27.4141 26.6982 27.3868 26.7586L27.3451 26.8504L27.3082 26.9229C27.2737 26.9905 27.24 27.0574 27.2063 27.1178L27.1565 27.1999C27.1052 27.291 27.0482 27.3812 26.9921 27.4625L26.9511 27.5189L26.9006 27.5849C26.8493 27.6526 26.7987 27.7195 26.7442 27.7839L26.7081 27.8266C26.6334 27.9128 26.5548 27.9965 26.4738 28.0755L26.4385 28.1093C26.3535 28.1914 26.2668 28.2672 26.1721 28.3445L26.1473 28.3654C26.0518 28.4387 25.9539 28.512 25.8536 28.5781L25.824 28.5974C25.7028 28.6771 25.6057 28.7351 25.5127 28.7834L25.4854 28.7971C25.3578 28.864 25.2503 28.9139 25.1516 28.955L25.122 28.9663C24.9968 29.0186 24.8813 29.0597 24.7682 29.0935L24.7449 29.1008C24.6205 29.1378 24.4962 29.1701 24.3767 29.1942L24.3486 29.1999C24.217 29.2264 24.0919 29.245 23.9675 29.2562L23.937 29.2587C23.799 29.2723 23.6634 29.2788 23.5351 29.2788L23.3746 29.2812H22.8227C21.7612 29.2812 21.1636 28.7714 20.5298 28.2309C19.9088 27.7009 19.2662 27.1532 18.1855 27.1532C16.8313 27.1532 15.7306 28.2591 15.7306 29.6187C15.7306 30.9783 16.8321 32.0841 18.1855 32.0841C19.2662 32.0841 19.9088 31.5364 20.5298 31.0065C21.1628 30.466 21.7612 29.9562 22.8227 29.9562H23.6025C23.6546 29.9578 23.7108 29.961 23.7653 29.9642L23.8111 29.9666C23.8865 29.9715 23.9635 29.9771 24.0429 29.9884C24.1023 29.9948 24.1536 30.0029 24.2226 30.0142C24.298 30.027 24.3751 30.0399 24.4513 30.0577C24.4914 30.0657 24.5291 30.0754 24.5676 30.0858L24.6197 30.0995C24.6936 30.1197 24.7658 30.1398 24.8404 30.1656C24.8973 30.1833 24.9535 30.2042 25.0064 30.2244C25.077 30.251 25.1468 30.2767 25.2142 30.3073C25.2511 30.3235 25.2864 30.3404 25.3233 30.3581L25.3803 30.3855C25.4381 30.412 25.4926 30.4418 25.5472 30.4708L25.568 30.4821L25.7253 30.5739L25.755 30.5933C25.8063 30.6263 25.8593 30.6601 25.9082 30.6931C25.9371 30.7125 25.9652 30.7334 25.9932 30.7544L26.0558 30.8003C26.1128 30.8438 26.1697 30.8889 26.2203 30.9291L26.3631 31.0564C26.4136 31.1023 26.4634 31.1506 26.5099 31.1974C26.554 31.2433 26.5981 31.2892 26.6431 31.3391L26.6591 31.3568C26.6992 31.4003 26.7385 31.443 26.7771 31.4913C26.8172 31.5405 26.8557 31.592 26.8982 31.65C26.9407 31.7032 26.9784 31.7547 27.0121 31.8022C27.049 31.8602 27.0859 31.919 27.1212 31.9738C27.1549 32.031 27.1886 32.0866 27.2215 32.1462C27.2536 32.2033 27.2841 32.2638 27.3146 32.329C27.3435 32.3854 27.3715 32.4434 27.3988 32.5078C27.4261 32.569 27.4518 32.6335 27.4742 32.6906L27.5023 32.7696C27.5151 32.805 27.528 32.8413 27.5408 32.8831C27.5577 32.9315 27.5705 32.9806 27.5833 33.0305L27.5978 33.0845C27.6162 33.1489 27.6315 33.211 27.6467 33.277C27.6563 33.3165 27.6636 33.3559 27.6708 33.3962C27.6764 33.4276 27.682 33.4582 27.6868 33.4792C27.6916 33.5146 27.7181 33.6749 27.7181 33.6749C27.7181 33.6749 27.731 33.8456 27.735 33.8932L27.7462 34.1203V34.2443C27.7141 36.4972 25.9339 38.3263 23.6987 38.4093H22.8211C21.7596 38.4093 21.162 37.8986 20.5282 37.3582C19.9072 36.8282 19.2646 36.2797 18.1831 36.2797C16.8289 36.2797 15.7282 37.3864 15.7282 38.7459C15.7282 40.1055 16.8297 41.2122 18.1831 41.2122C19.2638 41.2122 19.9064 40.6645 20.5274 40.1345C21.1603 39.5949 21.7588 39.0842 22.8202 39.0842H23.6891C25.9636 39.1672 27.7454 41.0229 27.7454 43.3096C27.7454 45.5946 25.9644 47.4512 23.6971 47.5357H22.8194C21.758 47.5357 21.1603 47.0259 20.5266 46.4854C19.9056 45.9555 19.263 45.4078 18.1823 45.4078C16.8281 45.4078 15.7274 46.5136 15.7274 47.8732C15.7274 49.2328 16.8289 50.3395 18.1823 50.3395C19.263 50.3395 19.9056 49.7918 20.5266 49.2618C21.1595 48.7221 21.758 48.2115 22.8194 48.2115H23.6883C25.9242 48.2945 27.7061 50.1212 27.7438 52.3676V52.4997L27.7326 52.6994L27.7277 52.7687C27.7229 52.8291 27.7189 52.8903 27.7117 52.9515C27.7069 52.999 27.6981 53.0449 27.686 53.1078C27.674 53.194 27.6571 53.2793 27.6379 53.3671C27.6283 53.4082 27.6194 53.4485 27.6042 53.4984C27.5833 53.5862 27.5601 53.6756 27.532 53.7586L27.4935 53.8681L27.4686 53.9317C27.4413 54.0034 27.4141 54.0743 27.386 54.1387L27.3402 54.233C27.2961 54.3272 27.2488 54.4182 27.2031 54.5028L27.1573 54.5793C27.1036 54.6727 27.0458 54.7621 26.9897 54.8443L26.9279 54.9281C26.8661 55.0094 26.8075 55.0884 26.7442 55.1625L26.7008 55.2108C26.6318 55.2913 26.5548 55.3751 26.473 55.4548L26.4313 55.4935C26.343 55.5797 26.2588 55.6546 26.1689 55.7246L26.1392 55.7496C26.0454 55.8237 25.9483 55.8946 25.8504 55.9606L25.8207 55.9808C25.7197 56.0452 25.6162 56.1072 25.5127 56.1628L25.4774 56.1797C25.3675 56.2369 25.2592 56.2885 25.1444 56.3376L25.1196 56.3489C25.0024 56.3948 24.8861 56.4367 24.7698 56.4729L24.7345 56.4834C24.6125 56.5204 24.4954 56.5502 24.3759 56.5736L24.3381 56.5808C24.217 56.605 24.0951 56.6235 23.9699 56.6364L23.9258 56.6396C23.779 56.6541 23.649 56.6606 23.5303 56.6606H22.8186C21.7572 56.6606 21.1595 56.1507 20.5258 55.6103C19.9048 55.0803 19.2622 54.5318 18.1815 54.5318C16.8273 54.5318 15.7266 55.6385 15.7266 56.9981C15.7266 58.3584 16.8281 59.4651 18.1815 59.4651C19.2622 59.4651 19.9048 58.9166 20.5258 58.3866C21.1587 57.8462 21.7572 57.3363 22.8186 57.3363H23.5928C23.6362 57.3371 23.6811 57.3404 23.726 57.3428L23.8167 57.3476C23.8873 57.3524 23.9627 57.3589 24.0309 57.3661C24.075 57.3718 24.1175 57.3782 24.1616 57.3855L24.2242 57.3951L24.2996 57.4096C24.3454 57.4177 24.3911 57.4265 24.4408 57.4378C24.5058 57.4507 24.566 57.4676 24.6262 57.4837L24.6879 57.5006C24.7361 57.5143 24.7834 57.5272 24.8275 57.5417C24.8901 57.5627 24.9511 57.5852 25.0153 57.6102C25.0794 57.6335 25.1428 57.6593 25.2054 57.6875C25.2656 57.7133 25.3225 57.7399 25.3843 57.7713C25.4445 57.7995 25.5038 57.8301 25.5624 57.8631C25.6186 57.8945 25.6747 57.9283 25.7293 57.9622L25.7566 57.9791C25.8047 58.0089 25.8536 58.0387 25.9018 58.0717C25.9459 58.1015 25.9876 58.1329 26.0317 58.1659L26.0622 58.1893C26.1136 58.2264 26.1649 58.2658 26.2139 58.3085C26.2668 58.3528 26.3157 58.3971 26.3639 58.4406L26.392 58.4664C26.4305 58.5026 26.4698 58.5381 26.5067 58.5759C26.5524 58.6226 26.5998 58.6726 26.6463 58.7249C26.6896 58.7716 26.7321 58.8192 26.7706 58.8675C26.814 58.9206 26.8573 58.9746 26.899 59.031C26.9375 59.0817 26.9752 59.1317 27.0097 59.1832C27.0394 59.2283 27.0675 59.275 27.0964 59.3218L27.1212 59.3628C27.1541 59.4152 27.1862 59.4667 27.2175 59.5271C27.2512 59.5859 27.2833 59.6463 27.3146 59.7132C27.3435 59.7704 27.3699 59.826 27.3948 59.8807C27.4229 59.946 27.4486 60.0144 27.4726 60.0789L27.4967 60.1457C27.5095 60.1812 27.5232 60.2174 27.5368 60.2633C27.5601 60.3294 27.5785 60.3962 27.5962 60.4751C27.613 60.5331 27.6283 60.5903 27.6419 60.6588C27.6539 60.7055 27.662 60.7522 27.67 60.7997L27.6836 60.8763C27.6932 60.9367 27.7029 60.9979 27.7109 61.0591C27.7181 61.1155 27.7221 61.1718 27.7269 61.2282L27.7318 61.2838L27.743 61.494V62.2793C27.743 63.3457 27.2343 63.9466 26.696 64.5821C26.1681 65.2055 25.6226 65.8499 25.6226 66.9348C25.6226 68.2952 26.7241 69.4027 28.0775 69.4027C29.4326 69.4027 30.5349 68.296 30.5349 66.9348C30.5349 65.8499 29.9893 65.2055 29.4615 64.5821C28.9271 63.9474 28.4193 63.3465 28.4193 62.2801Z" fill="white"/>
<path d="M61.6287 39.0847H62.4952C63.5558 39.0847 64.1535 39.5945 64.7865 40.135C65.4074 40.665 66.05 41.2135 67.1315 41.2135C68.4865 41.2135 69.5889 40.1068 69.5889 38.7472C69.5889 37.3876 68.4865 36.281 67.1315 36.281C66.05 36.281 65.4082 36.8295 64.7865 37.3594C64.1535 37.8999 63.5558 38.4097 62.4952 38.4097H61.6319C59.3567 38.3268 57.574 36.4702 57.574 34.1836C57.574 34.0314 57.5797 33.9033 57.5909 33.7889L57.5973 33.7462C57.6086 33.6085 57.6318 33.4772 57.6503 33.3773L57.6599 33.3387C57.684 33.2106 57.7145 33.0866 57.7481 32.9754L57.7594 32.9432C57.7907 32.8393 57.8292 32.729 57.8845 32.5888L57.895 32.5638C57.9391 32.4567 57.9912 32.3456 58.0578 32.2183L58.065 32.2014C58.122 32.0951 58.1862 31.988 58.256 31.8792L58.2696 31.8575C58.3386 31.752 58.4108 31.6529 58.4862 31.5578L58.5023 31.5353C58.5761 31.4435 58.6539 31.3557 58.7422 31.2631L58.7678 31.2349C58.8432 31.1559 58.9283 31.0762 59.0189 30.9981L59.0623 30.961C59.1521 30.8821 59.238 30.8152 59.3294 30.7524L59.3792 30.7154C59.4666 30.6525 59.5581 30.5953 59.6479 30.5414L59.7185 30.5011C59.8068 30.4496 59.8998 30.4037 59.9969 30.3577L60.0771 30.3183C60.1678 30.278 60.2625 30.2426 60.3531 30.2087L60.4622 30.1709C60.5481 30.1411 60.6387 30.1161 60.7278 30.0928L60.7839 30.0783C60.8072 30.0718 60.8305 30.0662 60.8561 30.0605C60.9436 30.0412 61.031 30.0251 61.1145 30.0114L61.2725 29.988C61.3528 29.9776 61.4346 29.9719 61.5212 29.9663C61.5846 29.9615 61.6496 29.9574 61.713 29.9566H62.4952C63.5558 29.9566 64.1535 30.4665 64.7865 31.0069C65.4074 31.5369 66.05 32.0854 67.1315 32.0854C68.4865 32.0854 69.5889 30.9795 69.5889 29.62C69.5889 28.2604 68.4865 27.1545 67.1315 27.1545C66.05 27.1545 65.4082 27.7022 64.7873 28.2322C64.1543 28.7718 63.5566 29.2817 62.496 29.2817H61.9408V29.2793H61.7804C61.6592 29.2793 61.5317 29.2728 61.3905 29.2599L61.3447 29.2559C61.226 29.2438 61.1081 29.2253 60.9949 29.2044L60.9283 29.1915C60.8305 29.1713 60.727 29.1447 60.6066 29.1085L60.5304 29.0876C60.4325 29.0561 60.3379 29.0215 60.2416 28.982L60.1437 28.9434C60.0555 28.9071 59.9712 28.8661 59.8894 28.8242L59.7771 28.7654C59.7185 28.7348 59.6624 28.6993 59.6054 28.6647L59.4345 28.5576C59.3695 28.5117 59.3029 28.4633 59.242 28.4166L59.2123 28.3933C59.1794 28.3675 59.1457 28.3409 59.108 28.3087C59.0631 28.2733 59.0197 28.2338 58.9748 28.1943L58.8962 28.1218C58.8673 28.0953 58.8384 28.0695 58.8104 28.0397C58.7718 28.0018 58.7373 27.9624 58.702 27.9237L58.6651 27.8834C58.6226 27.8375 58.5801 27.7924 58.54 27.7401C58.5175 27.7127 58.4261 27.5935 58.4261 27.5935C58.3819 27.5347 58.3378 27.4759 58.2961 27.4155C58.2728 27.3816 58.2528 27.347 58.2319 27.3132L58.2183 27.2906C58.1709 27.2157 58.126 27.1416 58.0883 27.0756L58.0281 26.9499C57.9824 26.8678 57.9439 26.7808 57.911 26.7035L57.8717 26.6036C57.8348 26.5085 57.7979 26.4111 57.7682 26.3168L57.7449 26.2355C57.7153 26.1276 57.6864 26.0188 57.6639 25.9206L57.6527 25.8457C57.627 25.7208 57.6093 25.6073 57.5989 25.4921L57.5933 25.4462C57.5813 25.3262 57.5765 25.1981 57.5765 25.0555L57.5749 24.8944V24.3395C57.5749 23.2731 58.0827 22.673 58.6202 22.0367C59.1481 21.4133 59.6929 20.7682 59.6929 19.6832C59.6929 18.3236 58.5905 17.2178 57.2363 17.2178C55.8821 17.2178 54.7805 18.3236 54.7805 19.6832C54.7805 20.769 55.3269 21.4133 55.8548 22.0367C56.3931 22.6722 56.9018 23.2731 56.9018 24.3387V25.1143L56.9001 25.1425C56.8969 25.1989 56.8945 25.2545 56.8881 25.3213C56.8849 25.4027 56.8785 25.4848 56.8681 25.5678C56.8624 25.6161 56.8544 25.6636 56.8424 25.7248C56.8328 25.8102 56.8151 25.8996 56.7983 25.981L56.7662 26.1082C56.7429 26.2017 56.7172 26.2903 56.69 26.3756L56.6514 26.482C56.6161 26.5762 56.5808 26.6696 56.5399 26.7598L56.499 26.8476C56.4557 26.9427 56.4067 27.0361 56.3626 27.1191L56.3193 27.1883C56.2623 27.2834 56.2046 27.3776 56.146 27.463L56.1083 27.5145C56.0409 27.6072 55.9727 27.6966 55.9005 27.7811L55.8628 27.823C55.7818 27.9189 55.7048 28.001 55.6237 28.0767L55.5957 28.1041C55.5098 28.1871 55.4192 28.2652 55.3245 28.3433L55.3044 28.3602C55.2186 28.4279 55.1167 28.506 55.0012 28.5785L54.9795 28.5938C54.8832 28.6583 54.7781 28.7211 54.6698 28.7799L54.6426 28.7936C54.5407 28.8475 54.4291 28.8999 54.3056 28.9522L54.2799 28.9627C54.1596 29.0127 54.0408 29.0553 53.9237 29.09L53.9005 29.0972C53.7713 29.1351 53.6501 29.1665 53.5346 29.1907L53.5009 29.1963C53.3758 29.2213 53.2482 29.2406 53.1239 29.2527L53.0942 29.2551C52.9514 29.2688 52.8198 29.2752 52.6922 29.2752L52.5318 29.2776H51.979C50.9168 29.2776 50.3175 28.767 49.6837 28.2273C49.0628 27.6974 48.4201 27.1505 47.3403 27.1505C45.9844 27.1505 44.8805 28.2563 44.8805 29.6159C44.8805 30.9755 45.9836 32.0814 47.3403 32.0814C48.4201 32.0814 49.062 31.5337 49.6837 31.0045C50.3175 30.4641 50.916 29.9534 51.979 29.9534H52.7572C52.811 29.9542 52.8639 29.9582 52.9169 29.9607L52.9642 29.9631C53.042 29.9679 53.1174 29.9735 53.1953 29.9848C53.2562 29.9921 53.318 30.0009 53.3766 30.0106C53.4512 30.0235 53.5258 30.0372 53.6044 30.0541C53.6517 30.0629 53.6975 30.075 53.7408 30.0871L53.7745 30.096C53.8483 30.1161 53.9197 30.1362 53.9959 30.162C54.0392 30.1757 54.081 30.191 54.1227 30.2063L54.1676 30.2232C54.235 30.249 54.3024 30.2748 54.3626 30.3006C54.3626 30.3006 54.5014 30.3658 54.5318 30.3811C54.596 30.4125 54.6626 30.4471 54.7196 30.4769L54.7565 30.4987C54.7966 30.5229 54.8375 30.547 54.8848 30.5776C54.9282 30.6026 54.9691 30.6292 55.0108 30.6574L55.0637 30.692C55.1047 30.7186 55.1424 30.7476 55.1809 30.7766L55.2114 30.7999C55.2667 30.8418 55.3229 30.8853 55.375 30.9272C55.4224 30.9667 55.4689 31.0077 55.5202 31.0569C55.5708 31.1004 55.6165 31.1447 55.6679 31.1978C55.7072 31.2349 55.7401 31.2711 55.7738 31.309L55.8002 31.3388C55.846 31.3863 55.8901 31.4338 55.9302 31.4837C55.9559 31.5152 55.9807 31.5482 56.0056 31.5812L56.0858 31.6875C56.1131 31.7246 56.1404 31.7608 56.1661 31.8003C56.2046 31.8575 56.2415 31.9155 56.2768 31.9735L56.3209 32.0468C56.3394 32.0774 56.3586 32.108 56.3755 32.1394C56.4011 32.1853 56.4244 32.232 56.4493 32.2803L56.4717 32.3238C56.4974 32.3834 56.5247 32.4422 56.5504 32.4946C56.5776 32.5614 56.6033 32.6291 56.633 32.7088C56.6563 32.7628 56.6755 32.8176 56.694 32.8739C56.7164 32.9432 56.7357 33.0133 56.7541 33.089L56.7614 33.1148C56.775 33.1639 56.7886 33.213 56.7991 33.2654C56.8151 33.3411 56.8303 33.4184 56.8424 33.4845L56.8544 33.569C56.86 33.6037 56.8648 33.6383 56.8689 33.6745C56.8777 33.7503 56.8849 33.8244 56.8873 33.9049C56.8873 33.9049 56.8977 34.062 56.9009 34.1119V34.248C56.864 36.4976 55.0822 38.3252 52.8511 38.4073H51.979C50.9168 38.4073 50.3175 37.8967 49.6837 37.3562C49.0628 36.8262 48.4201 36.2785 47.3403 36.2785C45.9844 36.2785 44.8805 37.3852 44.8805 38.7448C44.8805 40.1044 45.9836 41.2111 47.3403 41.2111C48.4201 41.2111 49.062 40.6634 49.6837 40.1342C50.3175 39.5937 50.916 39.0831 51.979 39.0831H52.8455C55.1199 39.166 56.9009 41.0218 56.9009 43.3084C56.9009 45.5935 55.1191 47.45 52.8511 47.5346H51.979C50.9168 47.5346 50.3175 47.0239 49.6837 46.4835C49.0628 45.9535 48.4201 45.4058 47.3403 45.4058C45.9844 45.4058 44.8805 46.5117 44.8805 47.8713C44.8805 49.2308 45.9836 50.3375 47.3403 50.3375C48.4201 50.3375 49.062 49.7898 49.6837 49.2598C50.3175 48.7194 50.916 48.2095 51.979 48.2095H52.8447C55.0814 48.2925 56.8632 50.1184 56.9001 52.3656V52.4969L56.8985 52.5235C56.8953 52.5815 56.8929 52.6379 56.8857 52.7055C56.8825 52.7861 56.8761 52.8674 56.8656 52.952C56.8608 53.0019 56.852 53.0486 56.8408 53.1098C56.8312 53.1968 56.8135 53.2822 56.7959 53.3652C56.7902 53.3926 56.7646 53.4948 56.7646 53.4948C56.7413 53.5859 56.7156 53.6761 56.6875 53.7614L56.649 53.8678C56.6145 53.9628 56.5784 54.0538 56.5375 54.1456L56.499 54.2318C56.4533 54.3277 56.4067 54.4195 56.3594 54.5057L56.3177 54.5757C56.2607 54.6708 56.2038 54.7618 56.1412 54.8504L56.1067 54.902C56.0401 54.9914 55.9727 55.08 55.8957 55.1677L55.8596 55.2112C55.7866 55.2982 55.708 55.3812 55.6269 55.4577L55.59 55.4923C55.4906 55.5866 55.4071 55.6599 55.3213 55.7275L55.2956 55.7501C55.1937 55.8322 55.0998 55.9007 54.998 55.9651L54.9795 55.9788C54.8816 56.0433 54.7749 56.1069 54.6762 56.1617L54.6369 56.1794C54.5254 56.2406 54.4115 56.2938 54.3048 56.3381L54.2751 56.3493C54.1612 56.3977 54.0425 56.4395 53.9245 56.4758L53.8972 56.4838C53.7897 56.5177 53.6686 56.5483 53.537 56.5765L53.5009 56.5821C53.379 56.6071 53.2554 56.6256 53.1239 56.6393L53.0926 56.6417C52.961 56.6546 52.8294 56.661 52.6906 56.661L52.5302 56.6635H51.9774C50.9152 56.6635 50.3159 56.1528 49.6821 55.6123C49.0611 55.0824 48.4185 54.5347 47.3387 54.5347C45.9828 54.5347 44.8789 55.6413 44.8789 57.0009C44.8789 58.3613 45.982 59.468 47.3387 59.468C48.4185 59.468 49.0603 58.9203 49.6821 58.3903C50.3159 57.8499 50.9144 57.3392 51.9774 57.3392H52.7492C52.7933 57.34 52.8382 57.3424 52.8824 57.3457L52.973 57.3505C53.0476 57.3553 53.1198 57.3618 53.1888 57.369C53.237 57.3747 53.2851 57.3827 53.334 57.39L53.3806 57.3972L53.4456 57.4093C53.4953 57.4182 53.5442 57.4278 53.5972 57.4391C53.655 57.4512 53.7079 57.4657 53.7801 57.485L53.825 57.4971C53.8788 57.5124 53.9325 57.5269 53.9871 57.5454C54.0433 57.5639 54.1002 57.5841 54.1644 57.6074L54.2125 57.6268C54.2623 57.6461 54.3144 57.667 54.3634 57.688L54.531 57.7645C54.531 57.7645 54.6835 57.8434 54.7188 57.8628C54.7621 57.8877 54.8824 57.9602 54.8824 57.9602C54.8824 57.9602 55.0108 58.0416 55.0597 58.0746C55.1079 58.1068 55.1528 58.1414 55.2154 58.189C55.2683 58.2276 55.3213 58.2679 55.371 58.3098C55.4167 58.3492 55.4617 58.3895 55.5202 58.4419C55.5692 58.4862 55.6157 58.5297 55.6663 58.5812C55.7048 58.6175 55.7393 58.6561 55.7738 58.694C55.7738 58.694 55.9053 58.8398 55.9286 58.8663C55.9711 58.9203 56.0128 58.9751 56.057 59.0339C56.0955 59.083 56.1308 59.1313 56.1661 59.1861C56.2054 59.2425 56.2423 59.3005 56.2768 59.3609L56.3217 59.435C56.3402 59.4648 56.3586 59.4946 56.3747 59.522C56.3971 59.563 56.418 59.6049 56.4396 59.6476L56.4709 59.7072C56.4966 59.7676 56.5247 59.8264 56.5496 59.8788C56.5656 59.9166 56.6322 60.0882 56.6322 60.0882C56.6538 60.143 56.6739 60.2018 56.6924 60.2573C56.7148 60.3274 56.7341 60.3975 56.7525 60.4716L56.7606 60.5014C56.7742 60.5505 56.787 60.598 56.7975 60.6504C56.8135 60.7253 56.8287 60.8018 56.8408 60.8703L56.8528 60.95C56.8584 60.9854 56.8632 61.0217 56.8681 61.0595C56.8769 61.1336 56.8833 61.2094 56.8865 61.2891C56.8865 61.2891 56.8977 61.4494 56.9001 61.4953V62.2806C56.9001 63.347 56.3915 63.9479 55.8532 64.5834C55.3253 65.2068 54.7789 65.8511 54.7789 66.9361C54.7789 68.2779 55.8652 69.3846 57.2018 69.4039H57.2684H57.2692C58.6042 69.3854 59.6904 68.2779 59.6904 66.9361C59.6904 65.8511 59.1449 65.2068 58.6178 64.5834C58.0803 63.9479 57.5716 63.347 57.5716 62.2806V61.7265H57.5733V61.5654C57.5733 61.4156 57.5789 61.2835 57.5901 61.1723L57.5965 61.1296C57.6053 61.0201 57.623 60.9001 57.6503 60.7607L57.6599 60.7221C57.684 60.5932 57.7144 60.47 57.7497 60.3572L57.7594 60.3266C57.7907 60.2235 57.8308 60.1099 57.8861 59.969L57.8942 59.9472C57.9343 59.853 57.988 59.7298 58.0514 59.6114L58.0666 59.5832C58.1244 59.4744 58.1886 59.3697 58.2504 59.2699L58.2704 59.2393C58.3402 59.1337 58.4092 59.0387 58.4798 58.9501L58.5095 58.9139C58.5721 58.8341 58.6451 58.7512 58.7398 58.6513L58.7734 58.615C58.8513 58.5337 58.9331 58.4572 59.0197 58.3831L59.0663 58.342C59.1473 58.2719 59.2315 58.2051 59.3214 58.1414L59.3832 58.0971C59.4674 58.0367 59.5557 57.982 59.6439 57.9288L59.7217 57.8821C59.8068 57.833 59.8958 57.7878 59.9857 57.746L60.0852 57.7001C60.1678 57.6622 60.2552 57.6284 60.3515 57.5945C60.39 57.5792 60.4277 57.5647 60.4638 57.5527C60.5457 57.5261 60.6331 57.5003 60.7206 57.4778L60.7494 57.4705C60.788 57.4608 60.8257 57.4512 60.8634 57.4423C60.9428 57.4238 61.0238 57.4085 61.104 57.398L61.1313 57.3932C61.1787 57.3851 61.2244 57.3763 61.2749 57.3714C61.3503 57.3626 61.429 57.3553 61.5092 57.3513L61.5605 57.3481C61.6135 57.3449 61.6672 57.3408 61.7194 57.34H62.4952C63.5558 57.34 64.1535 57.8499 64.7865 58.3903C65.4074 58.9203 66.05 59.4688 67.1315 59.4688C68.4865 59.4688 69.5889 58.3621 69.5889 57.0017C69.5889 55.6413 68.4865 54.5355 67.1315 54.5355C66.05 54.5355 65.4082 55.084 64.7865 55.614C64.1535 56.1536 63.5558 56.6643 62.4952 56.6643H61.94V56.6618H61.7796C61.648 56.6618 61.5172 56.6554 61.3897 56.6433L61.3455 56.6393C61.2348 56.628 61.1225 56.6111 60.9917 56.5869L60.9283 56.5749C60.8176 56.5531 60.7109 56.5249 60.6026 56.4935L60.5312 56.4734C60.4333 56.4411 60.3347 56.4057 60.236 56.3646L60.1469 56.33C60.0555 56.2913 59.9688 56.2478 59.883 56.206L59.7803 56.1536C59.7017 56.1109 59.6263 56.0642 59.55 56.0159L59.53 56.003C59.4987 55.9837 59.4682 55.9643 59.4337 55.9402C59.3655 55.8951 59.3005 55.8483 59.2356 55.7976C59.1922 55.7646 59.1521 55.7324 59.1112 55.6993C59.0815 55.6744 58.9451 55.5544 58.9451 55.5544L58.8938 55.5068C58.8649 55.4795 58.836 55.4537 58.8096 55.4263C58.7767 55.3933 58.7462 55.3594 58.7157 55.3248L58.6748 55.2789C58.6274 55.229 58.5833 55.1798 58.54 55.1259C58.5095 55.0888 58.4798 55.0485 58.4501 55.0091L58.4341 54.9873C58.3876 54.9269 58.341 54.8657 58.2961 54.8005C58.2817 54.7795 58.2167 54.6772 58.2167 54.6772L58.191 54.6337C58.1549 54.5741 58.1196 54.5153 58.0907 54.4622L58.0281 54.3357C57.9832 54.252 57.9455 54.1706 57.911 54.0893L57.8565 53.9499C57.8252 53.867 57.7939 53.7824 57.7682 53.7051L57.7449 53.6189C57.7153 53.5118 57.6864 53.4038 57.6639 53.3056L57.6527 53.2291C57.627 53.105 57.6093 52.9914 57.5989 52.8771L57.5933 52.8312C57.5813 52.712 57.5765 52.5839 57.5765 52.4405C57.5765 50.1531 59.3599 48.2965 61.6311 48.2144H62.4976C63.5582 48.2144 64.1559 48.7242 64.7889 49.2639C65.4098 49.7938 66.0525 50.3423 67.1339 50.3423C68.489 50.3423 69.5913 49.2357 69.5913 47.8761C69.5913 46.5165 68.489 45.4106 67.1339 45.4106C66.0525 45.4106 65.4106 45.9591 64.7889 46.4891C64.1559 47.0288 63.5582 47.5394 62.4976 47.5394H61.6343C59.3591 47.4565 57.5765 45.6007 57.5765 43.3133C57.5741 41.0234 59.3575 39.1677 61.6287 39.0847Z" fill="white"/>
<path d="M52.5767 59.0698C51.4953 59.0698 50.8534 59.6175 50.2325 60.1475C49.5995 60.6871 49.0018 61.1978 47.9404 61.1978H47.3892V61.1962H47.2288C47.1036 61.1962 46.9753 61.1897 46.8301 61.1752L46.7899 61.1736C46.6696 61.1599 46.5533 61.1414 46.4417 61.1212L46.3744 61.1067C46.2669 61.0842 46.1569 61.0568 46.0551 61.0286L45.9724 61.0028C45.8745 60.973 45.7791 60.9368 45.6884 60.9014L45.5897 60.8603C45.5031 60.8232 45.4164 60.7822 45.3346 60.7419L45.2223 60.6823C45.1469 60.6412 45.0707 60.5945 44.9993 60.5502C44.9584 60.5244 44.9166 60.4978 44.8773 60.4713C44.8115 60.4261 44.749 60.381 44.68 60.3271C44.6382 60.2949 44.5957 60.261 44.5548 60.228C44.5003 60.1821 44.4465 60.1354 44.3976 60.0895L44.3518 60.046C44.3205 60.0162 44.2885 59.9872 44.2556 59.9534C44.2106 59.9099 44.1681 59.864 44.128 59.8197L44.0959 59.7834C44.0574 59.7399 44.0197 59.698 43.9804 59.6505C43.9475 59.6086 43.9138 59.5667 43.8841 59.5265L43.848 59.4781C43.8119 59.4306 43.7758 59.3823 43.7429 59.3299C43.7172 59.2913 43.6908 59.2494 43.6643 59.2067C43.6178 59.1342 43.5752 59.0609 43.5343 58.9836L43.4758 58.8733C43.4332 58.7887 43.3931 58.7041 43.3578 58.6179L43.3177 58.514C43.2784 58.4238 43.2471 58.3304 43.2142 58.2313L43.1909 58.1524C43.1613 58.0453 43.1316 57.9349 43.1099 57.8318L43.0987 57.7634C43.0794 57.6611 43.0578 57.5395 43.0457 57.409L43.0417 57.3663C43.0305 57.2189 43.0217 57.0965 43.0217 56.97C43.0217 54.6842 44.8035 52.8276 47.0731 52.7439H47.9428C49.0042 52.7439 49.6019 53.2537 50.2349 53.7941C50.8559 54.3241 51.4985 54.8726 52.5791 54.8726C53.9334 54.8726 55.0357 53.766 55.0357 52.4064C55.0357 51.046 53.9334 49.9401 52.5791 49.9401C51.4977 49.9401 50.8559 50.4886 50.2349 51.0186C49.6019 51.559 49.0042 52.0689 47.9428 52.0689H47.0788C44.8035 51.9859 43.0209 50.1294 43.0209 47.8435C43.0209 45.5561 44.8027 43.6996 47.0723 43.6166H47.942C49.0034 43.6166 49.6011 44.1264 50.2341 44.6669C50.855 45.1969 51.4977 45.7446 52.5783 45.7446C53.9326 45.7446 55.0349 44.6379 55.0349 43.2775C55.0349 41.9179 53.9326 40.8112 52.5783 40.8112C51.4969 40.8112 50.855 41.3597 50.2341 41.8897C49.6011 42.4302 49.0034 42.94 47.942 42.94H47.078C44.8027 42.8587 43.0201 41.0029 43.0201 38.7147C43.0201 36.428 44.8019 34.5723 47.0715 34.4893H47.9412C49.0026 34.4893 49.6003 34.9992 50.2333 35.5396C50.8542 36.0696 51.4969 36.6173 52.5775 36.6173C53.9318 36.6173 55.0341 35.5106 55.0341 34.1511C55.0341 32.7907 53.9318 31.6832 52.5775 31.6832C51.4961 31.6832 50.8542 32.2317 50.2333 32.7617C49.6003 33.3021 49.0026 33.812 47.9412 33.812H47.0772C44.8019 33.7298 43.0193 31.8733 43.0193 29.5866C43.0193 29.4537 43.0289 29.3184 43.0377 29.1936L43.0441 29.1517C43.0546 29.0325 43.0722 28.9084 43.0987 28.7747L43.1059 28.7425C43.1284 28.6297 43.1589 28.5097 43.1998 28.3712L43.2054 28.3495C43.2423 28.2286 43.2848 28.1102 43.3362 27.987L43.3426 27.9661C43.3859 27.8614 43.4372 27.7518 43.4942 27.6399L43.5151 27.6052C43.5736 27.4965 43.6338 27.3918 43.6924 27.2992L43.7229 27.2573C43.779 27.1679 43.8472 27.0744 43.9347 26.9641L43.9523 26.9383C44.0269 26.8481 44.1039 26.7603 44.185 26.6758L44.2203 26.6379C44.2989 26.5565 44.3807 26.4792 44.4609 26.4075L44.5123 26.3648C44.5949 26.2932 44.6808 26.2279 44.7658 26.1651L44.8292 26.12C44.9142 26.0588 45.0017 26.0048 45.0915 25.9509L45.1685 25.9057C45.2576 25.8566 45.345 25.8115 45.4317 25.7696L45.5336 25.7237C45.6178 25.6843 45.7069 25.6512 45.7927 25.619C45.8336 25.6053 45.8705 25.5908 45.9123 25.5747C45.9877 25.5505 46.0647 25.5288 46.1409 25.5079L46.161 25.5022C46.1866 25.4966 46.2837 25.4724 46.3094 25.4668C46.3904 25.4475 46.4738 25.433 46.5629 25.4193C46.6126 25.4096 46.6688 25.4015 46.7201 25.3951C46.798 25.3862 46.8766 25.3798 46.9552 25.375L47.0234 25.3709C47.0723 25.3677 47.1213 25.3645 47.167 25.3629H47.9412C49.0026 25.3629 49.6003 25.8735 50.2333 26.4132C50.8542 26.9432 51.4969 27.4917 52.5775 27.4917C53.9318 27.4917 55.0341 26.385 55.0341 25.0254C55.0341 23.665 53.9318 22.5591 52.5775 22.5591C51.4961 22.5591 50.8542 23.1076 50.2333 23.6376C49.6003 24.1781 49.0026 24.6879 47.9412 24.6879H47.39V24.6863H47.2296C47.094 24.6863 46.9656 24.6799 46.8309 24.6662L46.7899 24.6638C46.6736 24.6509 46.5589 24.6332 46.4337 24.6082L46.3784 24.5993C46.2693 24.576 46.1577 24.5486 46.0518 24.5164L45.9756 24.4938C45.877 24.4624 45.7791 24.4278 45.682 24.3891L45.5913 24.3529C45.5039 24.315 45.4156 24.2723 45.329 24.228L45.2279 24.1773C45.1653 24.1418 45.1044 24.1048 45.0426 24.0669L44.9993 24.0403L44.9503 24.0089C44.9271 23.9944 44.9038 23.9791 44.8773 23.9606C44.8099 23.9163 44.7474 23.868 44.6719 23.81C44.6326 23.7794 44.5941 23.7504 44.5548 23.7182C44.497 23.6715 44.4425 23.6223 44.3927 23.578L44.3502 23.5377C44.3189 23.5079 44.2885 23.479 44.2564 23.4459C44.2187 23.4089 44.1834 23.3702 44.1473 23.3324L44.12 23.3034C44.0742 23.2534 44.0293 23.2019 43.9836 23.1455C43.9491 23.1052 43.9178 23.0642 43.8785 23.0126L43.8456 22.9691C43.8095 22.9216 43.7734 22.8733 43.7437 22.8298C43.7164 22.7855 43.6884 22.7404 43.6611 22.6977C43.6162 22.626 43.5736 22.5527 43.5327 22.4746L43.4717 22.3626C43.4292 22.278 43.3891 22.1943 43.3538 22.1105L43.3129 22.0098C43.2752 21.914 43.2431 21.8206 43.2126 21.7223L43.1877 21.6401C43.1581 21.5346 43.1292 21.4275 43.1067 21.3228L43.0947 21.2551C43.0746 21.1448 43.0546 21.0256 43.0425 20.9032L43.0385 20.8572C43.0273 20.7115 43.0185 20.5898 43.0185 20.4626L43.0169 20.3015V19.7465C43.0169 18.6801 43.5255 18.0793 44.0638 17.4438C44.5917 16.8204 45.1381 16.176 45.1381 15.0903C45.1381 13.7307 44.0357 12.624 42.6815 12.624C41.3265 12.624 40.2249 13.7299 40.2249 15.0903C40.2249 16.1752 40.7705 16.8196 41.2976 17.443C41.8351 18.0785 42.3429 18.6793 42.3429 19.7457V20.5326C42.3429 20.5963 42.3397 20.6615 42.3357 20.7219C42.3357 20.7219 42.3189 20.9168 42.3133 20.9708C42.306 21.024 42.2988 21.0763 42.2908 21.1287C42.2764 21.2149 42.2619 21.3018 42.2387 21.4033L42.205 21.537C42.1825 21.62 42.16 21.7021 42.1319 21.7835L42.0934 21.8955C42.0589 21.9889 42.0244 22.0791 41.9875 22.1645L41.9426 22.2595C41.8993 22.3513 41.8536 22.4432 41.8086 22.5237L41.7581 22.605C41.7051 22.6969 41.6498 22.7847 41.5904 22.87L41.5463 22.9313C41.4821 23.0215 41.4131 23.1076 41.3481 23.1866L41.304 23.2357C41.2302 23.3211 41.1524 23.4049 41.0762 23.4806L41.036 23.5184C40.9494 23.603 40.8547 23.6827 40.7769 23.7464L40.7416 23.7737C40.6461 23.8487 40.5515 23.9179 40.4512 23.9872L40.4271 24.0041C40.3204 24.0726 40.2145 24.1354 40.1118 24.1894L40.0829 24.2047C39.9762 24.2618 39.8639 24.315 39.7532 24.3609L39.7219 24.373C39.6072 24.4205 39.4877 24.4632 39.3721 24.4986L39.3408 24.5075C39.2365 24.5405 39.1194 24.5703 38.9726 24.6009L38.9477 24.6066C38.8258 24.6307 38.6974 24.6501 38.5747 24.6638L38.5378 24.6662C38.407 24.6799 38.2754 24.6863 38.1334 24.6863L37.973 24.6879H37.4218C36.3596 24.6879 35.7619 24.1773 35.1281 23.6368C34.5072 23.1068 33.8653 22.5591 32.7855 22.5591C31.4304 22.5591 30.3281 23.6658 30.3281 25.0254C30.3281 26.385 31.4304 27.4917 32.7855 27.4917C33.8653 27.4917 34.5072 26.944 35.1281 26.414C35.7611 25.8735 36.3596 25.3629 37.4218 25.3629H38.1936C38.2457 25.3645 38.2987 25.3677 38.3524 25.3709L38.4158 25.375C38.4896 25.3806 38.5626 25.3862 38.634 25.3935C38.7006 25.4015 38.7624 25.4112 38.8306 25.4241C38.8996 25.4346 38.9702 25.4475 39.0408 25.4628C39.1034 25.4764 39.1651 25.4934 39.2309 25.5111C39.2975 25.5288 39.3665 25.5481 39.4299 25.5675C39.4933 25.5892 39.5518 25.611 39.6136 25.6343C39.6786 25.6585 39.7444 25.6843 39.8078 25.7124C39.8527 25.7318 39.8952 25.7527 39.9385 25.7728L39.9787 25.7922C40.042 25.8244 40.1038 25.8566 40.1648 25.8896C40.2201 25.9202 40.2747 25.9533 40.33 25.9871C40.3878 26.0225 40.4448 26.0588 40.5041 26.1007C40.5563 26.1345 40.6076 26.1715 40.6702 26.2207C40.7183 26.2577 40.7673 26.294 40.8186 26.3391C40.8684 26.3785 40.9157 26.4204 40.9775 26.4784C41.0208 26.5179 41.0657 26.559 41.1074 26.6025C41.154 26.6492 41.2005 26.6983 41.2446 26.7482C41.288 26.795 41.3313 26.8425 41.3738 26.8972C41.4123 26.9424 41.4484 26.9891 41.4845 27.0366L41.4966 27.0519L41.6105 27.2106C41.6482 27.2669 41.6859 27.3265 41.722 27.3853L41.8183 27.5448L41.9137 27.7317C41.9258 27.7591 41.9386 27.7865 41.9522 27.8138C41.9667 27.8444 41.9811 27.8751 41.9948 27.9065C42.0228 27.9717 42.0485 28.0378 42.075 28.1127C42.0983 28.1698 42.1175 28.227 42.1384 28.2899C42.1568 28.3406 42.1705 28.3913 42.1841 28.4429L42.1985 28.496C42.2146 28.5573 42.2298 28.6153 42.2443 28.6773C42.2555 28.7288 42.2643 28.7812 42.2731 28.8327L42.2852 28.9004C42.2964 28.9608 42.3044 29.0204 42.3117 29.0824C42.3189 29.1436 42.3237 29.2056 42.3301 29.2693L42.3341 29.312C42.3381 29.3812 42.3413 29.4497 42.3413 29.5198V29.6575C42.306 31.9071 40.5266 33.733 38.2963 33.8152H37.4234C36.3612 33.8152 35.7635 33.3045 35.1297 32.7641C34.5088 32.2341 33.8669 31.6864 32.7871 31.6864C31.4321 31.6864 30.3297 32.7931 30.3297 34.1543C30.3297 35.5147 31.4321 36.6205 32.7871 36.6205C33.8669 36.6205 34.5088 36.0728 35.1297 35.5429C35.7627 35.0024 36.3612 34.4926 37.4234 34.4926H38.2907C40.5659 34.5755 42.3486 36.4313 42.3486 38.7179C42.3486 41.0045 40.5667 42.8603 38.2979 42.9432H37.4234C36.3612 42.9432 35.7635 42.4326 35.1297 41.8921C34.5088 41.3622 33.8669 40.8145 32.7871 40.8145C31.4321 40.8145 30.3297 41.9203 30.3297 43.2807C30.3297 44.6411 31.4321 45.7478 32.7871 45.7478C33.8669 45.7478 34.5088 45.2001 35.1297 44.6701C35.7627 44.1297 36.3612 43.6198 37.4234 43.6198H38.2907C40.5667 43.7028 42.3494 45.5593 42.3494 47.8468C42.3494 50.1326 40.5675 51.9883 38.2987 52.0713H37.4234C36.3612 52.0713 35.7635 51.5607 35.1297 51.0202C34.5088 50.4902 33.8669 49.9425 32.7871 49.9425C31.4321 49.9425 30.3297 51.0492 30.3297 52.4088C30.3297 53.7684 31.4321 54.875 32.7871 54.875C33.8669 54.875 34.5088 54.3273 35.1297 53.7974C35.7627 53.2569 36.3612 52.7463 37.4234 52.7463H38.2907C40.5282 52.8292 42.3084 54.6568 42.3437 56.9032V57.0425C42.3437 57.1085 42.3405 57.173 42.3365 57.2326C42.3365 57.2326 42.3205 57.4243 42.3141 57.4823C42.3068 57.5362 42.2996 57.587 42.2916 57.6385C42.2772 57.7263 42.2627 57.8125 42.2443 57.8938C42.2322 57.9398 42.2202 57.9857 42.2106 58.0275C42.1865 58.117 42.1632 58.2039 42.1255 58.307C42.1167 58.3417 42.1047 58.3747 42.0934 58.4053C42.0589 58.4987 42.0244 58.5905 41.9883 58.6751L41.9434 58.7694C41.9001 58.8604 41.8544 58.9514 41.8062 59.0376L41.7597 59.1141C41.7067 59.2051 41.6506 59.2945 41.592 59.3799L41.5479 59.4403C41.4837 59.5297 41.4147 59.6167 41.3489 59.6964L41.3048 59.7456C41.231 59.8317 41.1532 59.9147 41.0802 59.9888L41.036 60.0283C40.9534 60.1072 40.866 60.1837 40.7785 60.2554L40.74 60.286C40.6477 60.3601 40.5539 60.4278 40.4608 60.4914L40.4223 60.5156C40.314 60.5872 40.2137 60.6476 40.1134 60.7L40.0862 60.7153C39.9594 60.7805 39.8535 60.8297 39.7516 60.8716L39.7235 60.8836C39.6064 60.9312 39.4885 60.973 39.3818 61.0069L39.3416 61.0173C39.2382 61.0512 39.1226 61.0802 38.9766 61.11L38.9517 61.1156C38.8234 61.1406 38.6958 61.1591 38.5803 61.1736L38.5426 61.1752C38.399 61.1889 38.2658 61.1953 38.1366 61.1953L37.9762 61.197H37.425C36.3628 61.197 35.7651 60.6871 35.1313 60.1467C34.5104 59.6167 33.8686 59.069 32.7887 59.069C31.4337 59.069 30.3313 60.1749 30.3313 61.5344C30.3313 62.8948 31.4337 64.0007 32.7887 64.0007C33.8686 64.0007 34.5104 63.453 35.1313 62.923C35.7643 62.3826 36.3628 61.8719 37.425 61.8719H38.1984C38.2698 61.8735 38.3436 61.8776 38.423 61.8848C38.4944 61.8888 38.5659 61.8937 38.6421 61.9033C38.7071 61.9098 38.7688 61.9202 38.8322 61.9315C38.902 61.9436 38.9734 61.9557 39.0448 61.971C39.0937 61.9815 39.1427 61.9943 39.1924 62.0072L39.2325 62.0177C39.2991 62.0362 39.3689 62.0556 39.4371 62.0773C39.4716 62.0886 39.5045 62.1007 39.5374 62.1127L39.6136 62.1393L39.8126 62.2199C39.8711 62.2448 39.9281 62.273 39.9843 62.3012C40.0484 62.3334 40.111 62.3657 40.168 62.3955C40.2225 62.4261 40.2779 62.4591 40.3365 62.4986C40.3926 62.5324 40.448 62.5662 40.5082 62.6089C40.5627 62.6435 40.6141 62.6822 40.6678 62.7241C40.7208 62.7619 40.7713 62.8014 40.821 62.8433C40.8724 62.8868 40.9229 62.9311 40.9719 62.9754L40.9927 62.9947C41.0344 63.0334 41.0762 63.0712 41.1123 63.1075C41.1484 63.1453 41.1845 63.184 41.2206 63.2234L41.2872 63.2959C41.3168 63.329 41.3473 63.3636 41.3786 63.4023C41.4235 63.4562 41.4669 63.5126 41.5062 63.565L41.6153 63.714L41.71 63.8654C41.71 63.8654 41.795 64.0063 41.8231 64.0514C41.8576 64.1175 41.8905 64.1843 41.9234 64.252L41.9354 64.277C41.9571 64.3205 41.9795 64.3664 41.9996 64.4155C42.0236 64.4695 42.0453 64.525 42.067 64.5806L42.083 64.6217C42.1031 64.6781 42.1223 64.7328 42.1432 64.7981C42.1656 64.8569 42.1801 64.9133 42.1953 64.9721L42.2058 65.0099C42.2218 65.0687 42.237 65.1267 42.2507 65.1839C42.2627 65.2387 42.2715 65.2942 42.2812 65.3506L42.2916 65.4151C42.3028 65.473 42.3109 65.5326 42.3173 65.589C42.3229 65.6438 42.3397 65.821 42.3397 65.821C42.3438 65.8903 42.347 65.9595 42.347 66.028V66.8149C42.347 67.8813 41.8391 68.4814 41.3016 69.1177C40.7745 69.7411 40.229 70.3854 40.229 71.4704C40.229 72.8299 41.3313 73.9358 42.6855 73.9358C44.0398 73.9358 45.1421 72.8299 45.1421 71.4704C45.1421 70.3854 44.5957 69.7403 44.0678 69.1169C43.5295 68.4814 43.0209 67.8805 43.0209 66.8149V66.2592H43.0225V66.0981C43.0225 65.966 43.0321 65.8315 43.0409 65.705L43.0465 65.6623C43.057 65.5447 43.0746 65.4215 43.1011 65.2862L43.1075 65.254C43.1292 65.1444 43.1589 65.0276 43.2014 64.8827L43.207 64.8593C43.2439 64.7409 43.2864 64.6233 43.3394 64.496L43.345 64.4767C43.3867 64.376 43.4364 64.2697 43.4966 64.1505L43.5167 64.1159C43.5752 64.0079 43.6354 63.904 43.7004 63.8026L43.7237 63.7663C43.7814 63.6777 43.848 63.5851 43.9347 63.4756L43.9531 63.4482C44.0285 63.3588 44.1071 63.2702 44.185 63.1848L44.2211 63.1469C44.3005 63.068 44.3831 62.9899 44.465 62.9166L44.5131 62.8739C44.5965 62.803 44.6816 62.7362 44.769 62.6733L44.83 62.629C44.9158 62.5694 45.0033 62.513 45.0939 62.4591L45.1702 62.414C45.2592 62.3648 45.3475 62.3205 45.4357 62.2771L45.5344 62.2303C45.6194 62.1917 45.7085 62.1579 45.7911 62.1264C45.816 62.1184 45.9163 62.0829 45.9163 62.0829C45.9997 62.0548 46.0847 62.0306 46.1666 62.0096L46.3094 61.9726C46.392 61.9541 46.4754 61.9404 46.5629 61.9267C46.6134 61.9178 46.6696 61.909 46.7233 61.9025C46.7939 61.8945 46.8654 61.8896 46.9368 61.884L46.9592 61.8824C47.0314 61.8776 47.0996 61.8727 47.1694 61.8719H47.9436C49.005 61.8719 49.6027 62.3818 50.2357 62.9222C50.8567 63.4522 51.4993 64.0007 52.5799 64.0007C53.9342 64.0007 55.0365 62.894 55.0365 61.5344C55.0333 60.1757 53.9318 59.0698 52.5767 59.0698Z" fill="white"/>
<path d="M81.4454 29.405H78.3398L78.3759 27.3262H86.7966L86.8375 29.405H83.691V37.573H81.4454V29.405Z" fill="white"/>
<path d="M99.7888 29.4275H96.6832L96.6367 27.3486H105.139L105.086 29.4275H102.034V37.5955H99.788V29.4275H99.7888Z" fill="white"/>
<path d="M106.074 27.3268H108.48L110.594 34.2649L112.883 27.2979H114.808L117.097 34.2649L119.211 27.3268H121.558L118.074 37.6462H116.12L113.817 30.9417L111.513 37.6462H109.559L106.074 27.3268Z" fill="white"/>
<path d="M132.988 27.3262H140.687L139.935 29.3317H135.219V31.4106H140.031L139.983 33.4161H135.219V35.5674H140.76V37.573H132.988V27.3262Z" fill="white"/>
<path d="M123.219 27.3262H130.917L130.166 29.3317H125.45V31.4106H130.261L130.214 33.4161H125.45V35.5674H130.99V37.573H123.219V27.3262Z" fill="white"/>
<path d="M148.956 37.5727H151.581L149.087 33.9119C150.385 33.4311 151.273 32.3904 151.273 30.7361V30.7063C151.273 29.7405 150.967 28.9351 150.399 28.3648C149.729 27.6915 148.722 27.3242 147.424 27.3242H142.758V37.5718H145.005V29.3612H147.235C148.329 29.3612 148.999 29.8589 148.999 30.8255V30.8553C148.999 31.7179 148.373 32.3027 147.278 32.3027L145.745 32.33" fill="white"/>
<path d="M92.7728 27.2529H90.7029L86.3281 37.5722H88.6178L89.5509 35.2735H92.0515L93.0648 33.2817H90.3531L91.7098 29.96L92.8851 32.8411L92.9276 32.9426L93.0648 33.2817L93.8687 35.2735L94.1029 35.8518L94.8017 37.5722H97.1484L92.7728 27.2529Z" fill="white"/>
<path d="M100.966 51.0521V57.0044H83.5235V49.6152L81.0878 51.0529V58.8391C81.0878 60.6659 80.028 61.1709 78.332 61.1411V63.5864C78.3826 63.5872 78.4323 63.5913 78.4829 63.5913C79.7681 63.5913 81.0614 63.3367 82.0939 62.4097C82.6715 61.8902 83.3454 60.9679 83.4914 59.4505H103.401V49.6152L100.966 51.0521Z" fill="white"/>
<path d="M148.705 51.0527V57.005L140.047 57.0042V55.3095C140.047 53.8782 139.77 52.5855 139.04 51.7986C138.17 50.8731 136.985 50.4881 135.419 50.4881H125.829V45.2842L123.393 46.7179V57.0042H115.296L115.313 49.6142H112.139C104.891 49.6142 104.487 59.4495 111.419 59.4495L112.876 57.0042H111.848C110.283 57.0042 109.029 56.148 109.029 54.5242C109.029 53.039 110.403 52.062 111.848 52.062H112.876V56.6626V56.8342V57.0033V58.905C112.876 61.1039 111.343 61.3906 109.01 61.1304V63.5854C109.423 63.6257 109.845 63.6571 110.27 63.6571C111.556 63.6571 112.85 63.4026 113.882 62.4747C114.467 61.9488 115.139 60.9991 115.273 59.4479L151.139 59.4487V49.6158L148.705 51.0527ZM137.612 57.0042H125.83V52.9182H135.663C136.29 52.9182 136.848 53.2138 137.142 53.5988C137.457 53.9983 137.612 54.5065 137.612 55.2048V57.0042Z" fill="white"/>
<path d="M146.416 45.834L144.773 47.4834L146.416 49.1328L148.059 47.4834L146.416 45.834Z" fill="white"/>
<path d="M149.936 45.834L148.293 47.4834L149.936 49.1328L151.579 47.4834L149.936 45.834Z" fill="white"/>
<path d="M98.2444 60.9112L96.6016 62.5605L98.2444 64.2099L99.8873 62.5606L98.2444 60.9112Z" fill="white"/>
<path d="M101.764 60.9112L100.121 62.5605L101.764 64.2099L103.407 62.5606L101.764 60.9112Z" fill="white"/>
<path d="M20.2294 97V86.824H16.2934V85.8H25.3494V86.824H21.4134V97H20.2294ZM31.1289 88.52C31.8115 88.52 32.4089 88.6533 32.9209 88.92C33.4435 89.176 33.8489 89.5707 34.1369 90.104C34.4355 90.6373 34.5849 91.3093 34.5849 92.12V97H33.4489V92.232C33.4489 91.3467 33.2249 90.68 32.7769 90.232C32.3395 89.7733 31.7209 89.544 30.9209 89.544C30.3235 89.544 29.8009 89.6667 29.3529 89.912C28.9155 90.1467 28.5742 90.4933 28.3289 90.952C28.0942 91.4 27.9769 91.944 27.9769 92.584V97H26.8409V85.128H27.9769V90.904L27.7529 90.472C28.0195 89.864 28.4462 89.3893 29.0329 89.048C29.6195 88.696 30.3182 88.52 31.1289 88.52ZM37.4934 97V88.6H38.6294V97H37.4934ZM38.0694 86.744C37.8347 86.744 37.6374 86.664 37.4774 86.504C37.3174 86.344 37.2374 86.152 37.2374 85.928C37.2374 85.704 37.3174 85.5173 37.4774 85.368C37.6374 85.208 37.8347 85.128 38.0694 85.128C38.304 85.128 38.5014 85.2027 38.6614 85.352C38.8214 85.5013 38.9014 85.688 38.9014 85.912C38.9014 86.1467 38.8214 86.344 38.6614 86.504C38.512 86.664 38.3147 86.744 38.0694 86.744ZM45.9183 88.52C46.6009 88.52 47.1983 88.6533 47.7103 88.92C48.2329 89.176 48.6383 89.5707 48.9263 90.104C49.2249 90.6373 49.3743 91.3093 49.3743 92.12V97H48.2383V92.232C48.2383 91.3467 48.0143 90.68 47.5663 90.232C47.1289 89.7733 46.5103 89.544 45.7103 89.544C45.1129 89.544 44.5903 89.6667 44.1423 89.912C43.7049 90.1467 43.3636 90.4933 43.1183 90.952C42.8836 91.4 42.7663 91.944 42.7663 92.584V97H41.6303V88.6H42.7183V90.904L42.5423 90.472C42.8089 89.864 43.2356 89.3893 43.8223 89.048C44.4089 88.696 45.1076 88.52 45.9183 88.52ZM53.1788 94.824L53.2108 93.368L58.4428 88.6H59.8348L56.1388 92.136L55.4988 92.68L53.1788 94.824ZM52.2828 97V85.128H53.4188V97H52.2828ZM58.7948 97L55.2908 92.632L56.0268 91.752L60.1868 97H58.7948ZM68.1756 97V86.824H64.2396V85.8H73.2956V86.824H69.3596V97H68.1756ZM77.3361 97.08C76.5255 97.08 75.7948 96.8987 75.1441 96.536C74.5041 96.1627 73.9975 95.656 73.6241 95.016C73.2508 94.3653 73.0641 93.624 73.0641 92.792C73.0641 91.9493 73.2508 91.208 73.6241 90.568C73.9975 89.928 74.5041 89.4267 75.1441 89.064C75.7841 88.7013 76.5148 88.52 77.3361 88.52C78.1681 88.52 78.9041 88.7013 79.5441 89.064C80.1948 89.4267 80.7015 89.928 81.0641 90.568C81.4375 91.208 81.6241 91.9493 81.6241 92.792C81.6241 93.624 81.4375 94.3653 81.0641 95.016C80.7015 95.656 80.1948 96.1627 79.5441 96.536C78.8935 96.8987 78.1575 97.08 77.3361 97.08ZM77.3361 96.072C77.9441 96.072 78.4828 95.9387 78.9521 95.672C79.4215 95.3947 79.7895 95.0107 80.0561 94.52C80.3335 94.0187 80.4721 93.4427 80.4721 92.792C80.4721 92.1307 80.3335 91.5547 80.0561 91.064C79.7895 90.5733 79.4215 90.1947 78.9521 89.928C78.4828 89.6507 77.9495 89.512 77.3521 89.512C76.7548 89.512 76.2215 89.6507 75.7521 89.928C75.2828 90.1947 74.9095 90.5733 74.6321 91.064C74.3548 91.5547 74.2161 92.1307 74.2161 92.792C74.2161 93.4427 74.3548 94.0187 74.6321 94.52C74.9095 95.0107 75.2828 95.3947 75.7521 95.672C76.2215 95.9387 76.7495 96.072 77.3361 96.072ZM94.2794 88.52C94.962 88.52 95.554 88.6533 96.0554 88.92C96.5674 89.176 96.962 89.5707 97.2394 90.104C97.5274 90.6373 97.6714 91.3093 97.6714 92.12V97H96.5354V92.232C96.5354 91.3467 96.322 90.68 95.8954 90.232C95.4794 89.7733 94.8874 89.544 94.1194 89.544C93.5434 89.544 93.042 89.6667 92.6154 89.912C92.1994 90.1467 91.874 90.4933 91.6394 90.952C91.4154 91.4 91.3034 91.944 91.3034 92.584V97H90.1674V92.232C90.1674 91.3467 89.954 90.68 89.5274 90.232C89.1007 89.7733 88.5034 89.544 87.7354 89.544C87.17 89.544 86.674 89.6667 86.2474 89.912C85.8207 90.1467 85.49 90.4933 85.2554 90.952C85.0314 91.4 84.9194 91.944 84.9194 92.584V97H83.7834V88.6H84.8714V90.872L84.6954 90.472C84.9514 89.864 85.362 89.3893 85.9274 89.048C86.5034 88.696 87.1807 88.52 87.9594 88.52C88.7807 88.52 89.4794 88.728 90.0554 89.144C90.6314 89.5493 91.0047 90.1627 91.1754 90.984L90.7274 90.808C90.9727 90.1253 91.4047 89.576 92.0234 89.16C92.6527 88.7333 93.4047 88.52 94.2794 88.52ZM104.016 97.08C103.205 97.08 102.475 96.8987 101.824 96.536C101.184 96.1627 100.677 95.656 100.304 95.016C99.9308 94.3653 99.7441 93.624 99.7441 92.792C99.7441 91.9493 99.9308 91.208 100.304 90.568C100.677 89.928 101.184 89.4267 101.824 89.064C102.464 88.7013 103.195 88.52 104.016 88.52C104.848 88.52 105.584 88.7013 106.224 89.064C106.875 89.4267 107.381 89.928 107.744 90.568C108.117 91.208 108.304 91.9493 108.304 92.792C108.304 93.624 108.117 94.3653 107.744 95.016C107.381 95.656 106.875 96.1627 106.224 96.536C105.573 96.8987 104.837 97.08 104.016 97.08ZM104.016 96.072C104.624 96.072 105.163 95.9387 105.632 95.672C106.101 95.3947 106.469 95.0107 106.736 94.52C107.013 94.0187 107.152 93.4427 107.152 92.792C107.152 92.1307 107.013 91.5547 106.736 91.064C106.469 90.5733 106.101 90.1947 105.632 89.928C105.163 89.6507 104.629 89.512 104.032 89.512C103.435 89.512 102.901 89.6507 102.432 89.928C101.963 90.1947 101.589 90.5733 101.312 91.064C101.035 91.5547 100.896 92.1307 100.896 92.792C100.896 93.4427 101.035 94.0187 101.312 94.52C101.589 95.0107 101.963 95.3947 102.432 95.672C102.901 95.9387 103.429 96.072 104.016 96.072ZM110.463 97V88.6H111.551V90.888L111.439 90.488C111.674 89.848 112.069 89.3627 112.623 89.032C113.178 88.6907 113.866 88.52 114.687 88.52V89.624C114.645 89.624 114.602 89.624 114.559 89.624C114.517 89.6133 114.474 89.608 114.431 89.608C113.546 89.608 112.853 89.88 112.351 90.424C111.85 90.9573 111.599 91.72 111.599 92.712V97H110.463ZM116.6 97V88.6H117.688V90.888L117.576 90.488C117.811 89.848 118.206 89.3627 118.76 89.032C119.315 88.6907 120.003 88.52 120.824 88.52V89.624C120.782 89.624 120.739 89.624 120.696 89.624C120.654 89.6133 120.611 89.608 120.568 89.608C119.683 89.608 118.99 89.88 118.488 90.424C117.987 90.9573 117.736 91.72 117.736 92.712V97H116.6ZM126.083 97.08C125.272 97.08 124.542 96.8987 123.891 96.536C123.251 96.1627 122.744 95.656 122.371 95.016C121.998 94.3653 121.811 93.624 121.811 92.792C121.811 91.9493 121.998 91.208 122.371 90.568C122.744 89.928 123.251 89.4267 123.891 89.064C124.531 88.7013 125.262 88.52 126.083 88.52C126.915 88.52 127.651 88.7013 128.291 89.064C128.942 89.4267 129.448 89.928 129.811 90.568C130.184 91.208 130.371 91.9493 130.371 92.792C130.371 93.624 130.184 94.3653 129.811 95.016C129.448 95.656 128.942 96.1627 128.291 96.536C127.64 96.8987 126.904 97.08 126.083 97.08ZM126.083 96.072C126.691 96.072 127.23 95.9387 127.699 95.672C128.168 95.3947 128.536 95.0107 128.803 94.52C129.08 94.0187 129.219 93.4427 129.219 92.792C129.219 92.1307 129.08 91.5547 128.803 91.064C128.536 90.5733 128.168 90.1947 127.699 89.928C127.23 89.6507 126.696 89.512 126.099 89.512C125.502 89.512 124.968 89.6507 124.499 89.928C124.03 90.1947 123.656 90.5733 123.379 91.064C123.102 91.5547 122.963 92.1307 122.963 92.792C122.963 93.4427 123.102 94.0187 123.379 94.52C123.656 95.0107 124.03 95.3947 124.499 95.672C124.968 95.9387 125.496 96.072 126.083 96.072ZM134.008 97L130.84 88.6H131.928L134.808 96.392H134.312L137.272 88.6H138.248L141.176 96.392H140.68L143.608 88.6H144.648L141.464 97H140.392L137.576 89.672H137.912L135.08 97H134.008ZM146.246 93.64L146.022 85.8H147.366L147.126 93.64H146.246ZM146.694 97.08C146.46 97.08 146.257 97 146.086 96.84C145.926 96.6693 145.846 96.472 145.846 96.248C145.846 96.0133 145.926 95.8213 146.086 95.672C146.257 95.512 146.46 95.432 146.694 95.432C146.94 95.432 147.137 95.512 147.286 95.672C147.446 95.8213 147.526 96.0133 147.526 96.248C147.526 96.472 147.446 96.6693 147.286 96.84C147.137 97 146.94 97.08 146.694 97.08Z" fill="white"/>
</svg>
