<svg width="141" height="32" viewBox="0 0 141 32" fill="none" xmlns="http://www.w3.org/2000/svg">
<g clip-path="url(#clip0_5_6067)">
<path d="M18.7982 11.7943H27.1792V26.6362H0.542969V11.7943H8.92392V19.2H18.7677V11.7943H18.7982ZM47.141 19.3829C47.141 21.9124 45.4953 23.3752 43.2096 23.3752C40.9849 23.3752 39.3087 21.8819 39.3087 19.3829V7.43619H35.5906V19.3524C35.5906 24.0457 38.943 27.0324 43.2401 27.0324C47.5677 27.0324 50.8896 24.0457 50.8896 19.3524V7.43619H47.1715V19.3829H47.141ZM60.4591 12.9524C59.0268 12.9524 57.442 13.5619 56.6191 14.9638V13.3181H53.1449V26.6362H56.741V18.9562C56.741 17.4019 57.6553 16.1829 59.2401 16.1829C60.9772 16.1829 61.7087 17.341 61.7087 18.8343V26.6057H65.3049V18.2248C65.2744 15.299 63.7506 12.9524 60.4591 12.9524ZM73.6553 18.56C73.6553 18.56 72.4363 18.3162 71.6744 18.1638C70.9125 18.0114 70.4553 17.6152 70.4553 16.9752C70.4553 16.2133 71.1258 15.6648 72.0706 15.6648C73.4115 15.6648 73.9296 16.3352 74.0515 17.1581H77.1601C77.1296 15.3295 75.6972 12.9524 72.1315 12.9524C69.2668 12.9524 67.1639 14.9333 67.1639 17.3105C67.1639 19.1695 68.322 20.7238 70.882 21.2724L72.7106 21.6686C73.7468 21.8819 74.143 22.3695 74.143 22.979C74.143 23.68 73.503 24.2895 72.3144 24.2895C70.882 24.2895 70.0896 23.4667 69.9068 22.5219H66.7068C66.8896 24.5029 68.322 27.0324 72.3449 27.0324C75.8191 27.0324 77.5868 24.8076 77.5868 22.6438C77.6172 20.6933 76.2763 19.1086 73.6553 18.56ZM92.9163 19.9314C92.9163 23.9543 90.3868 26.941 86.6382 26.941C84.8096 26.941 83.4382 26.2095 82.7982 25.3257V31.7562H79.202V13.3181H82.6763V14.9638C83.2858 13.9276 84.7487 13.0133 86.7601 13.0133C90.661 13.0133 92.9163 16 92.9163 19.9314ZM89.381 19.9619C89.381 17.6152 87.9182 16.2438 86.0896 16.2438C84.261 16.2438 82.7677 17.6152 82.7677 19.9619C82.7677 22.3086 84.261 23.7105 86.0896 23.7105C87.9182 23.7105 89.381 22.339 89.381 19.9619ZM110.105 13.3181H113.579V26.6362H109.983V24.9905C109.373 26.0571 107.972 26.941 106.143 26.941C102.394 26.941 99.8648 23.9543 99.8648 19.9314C99.8648 15.9695 102.12 13.0133 105.991 13.0133C108.002 13.0133 109.434 13.9276 110.074 14.9638V13.3181H110.105ZM110.044 19.9619C110.044 17.6152 108.551 16.2438 106.722 16.2438C104.893 16.2438 103.431 17.6152 103.431 19.9619C103.431 22.339 104.893 23.7105 106.722 23.7105C108.551 23.7105 110.044 22.3086 110.044 19.9619ZM94.5925 26.6057H98.1887V7.43619H94.5925V26.6057ZM134.943 12.9524C133.663 12.9524 132.2 13.379 131.347 14.4152V7.43619H127.751V26.6057H131.347V18.8038C131.438 17.341 132.322 16.2133 133.846 16.2133C135.583 16.2133 136.314 17.3714 136.314 18.8648V26.6362H139.911V18.2552C139.88 15.299 138.326 12.9524 134.943 12.9524ZM122.143 18.56C122.143 18.56 120.924 18.3162 120.162 18.1638C119.4 18.0114 118.943 17.6152 118.943 16.9752C118.943 16.2133 119.613 15.6648 120.558 15.6648C121.899 15.6648 122.417 16.3352 122.539 17.1581H125.648C125.617 15.3295 124.185 12.9524 120.619 12.9524C117.754 12.9524 115.652 14.9333 115.652 17.3105C115.652 19.1695 116.81 20.7238 119.37 21.2724L121.198 21.6686C122.234 21.8819 122.631 22.3695 122.631 22.979C122.631 23.68 121.991 24.2895 120.802 24.2895C119.37 24.2895 118.577 23.4667 118.394 22.5219H115.194C115.377 24.5029 116.81 27.0324 120.832 27.0324C124.307 27.0324 126.074 24.8076 126.074 22.6438C126.105 20.6933 124.764 19.1086 122.143 18.56ZM18.7982 0H8.92392V7.43619H18.7677V0H18.7982Z" fill="white"/>
</g>
<defs>
<clipPath id="clip0_5_6067">
<rect width="139.581" height="32" fill="white" transform="translate(0.542969)"/>
</clipPath>
</defs>
</svg>
