<svg width="22" height="24" viewBox="0 0 22 24" fill="none" xmlns="http://www.w3.org/2000/svg">
<path d="M5.12372 19.4383V19.2214H5.12403V19.1584C5.12403 19.1076 5.12685 19.0546 5.13217 18.9976L5.13248 18.9884C5.13748 18.9383 5.14499 18.8885 5.15468 18.8418L5.15781 18.8276C5.16688 18.7797 5.17814 18.7327 5.19159 18.6864L5.19597 18.6731C5.20879 18.6318 5.22505 18.5864 5.24726 18.5313L5.24944 18.5237C5.26821 18.4783 5.28854 18.4348 5.31168 18.391L5.31637 18.3809C5.33639 18.343 5.35984 18.3033 5.38893 18.2582L5.39675 18.2456C5.41802 18.2122 5.44366 18.1766 5.47525 18.1359L5.4887 18.1201C5.52028 18.0804 5.54812 18.0479 5.57939 18.0161L5.59128 18.0025C5.6188 17.9735 5.64976 17.9451 5.68854 17.9108L5.70449 17.8963C5.73232 17.872 5.76297 17.849 5.79268 17.8263L5.82802 17.8001C5.86149 17.7765 5.89683 17.7541 5.93123 17.7336L5.96188 17.7156C5.99503 17.6964 6.03037 17.6787 6.0654 17.6617L6.10168 17.6447C6.13576 17.6295 6.17048 17.616 6.20551 17.6028L6.24929 17.587C6.28401 17.5763 6.31841 17.5659 6.35125 17.557L6.3722 17.5517C6.38283 17.5488 6.39347 17.546 6.40691 17.5435C6.4385 17.5362 6.47009 17.5302 6.50042 17.5252L6.52795 17.5211C6.54077 17.5192 6.55328 17.5173 6.56641 17.5157C6.59738 17.5123 6.62803 17.5094 6.65774 17.5079L6.68119 17.5063C6.70152 17.505 6.72122 17.5038 6.73968 17.5034H7.0421C7.45649 17.5034 7.6898 17.7033 7.93655 17.9149C8.1783 18.1223 8.4285 18.3367 8.84945 18.3367C9.37737 18.3367 9.80708 17.9035 9.80708 17.371C9.80708 16.8385 9.37737 16.4056 8.84945 16.4056C8.4285 16.4056 8.1783 16.62 7.93655 16.8275C7.6898 17.039 7.45649 17.2389 7.0421 17.2389H6.7647C6.72154 17.2389 6.67556 17.2367 6.61552 17.2313L6.59206 17.2291C6.54765 17.2244 6.5023 17.2175 6.45914 17.209L6.43037 17.2036C6.38909 17.1951 6.34843 17.1844 6.30934 17.173L6.27556 17.1632C6.23772 17.151 6.20113 17.1374 6.16485 17.1232L6.12544 17.1074C6.09167 17.0929 6.05945 17.0772 6.02662 17.0605C6.02662 17.0605 5.99378 17.0441 5.98283 17.0381C5.955 17.0226 5.9281 17.0059 5.89558 16.9854C5.87963 16.9757 5.86461 16.9665 5.84835 16.9548C5.82396 16.9381 5.79863 16.9205 5.77486 16.9009L5.75453 16.8855C5.74421 16.8776 5.73357 16.8697 5.72357 16.8609C5.70199 16.8423 5.6801 16.8234 5.65977 16.8048L5.60504 16.7527C5.58752 16.7357 5.57189 16.7178 5.55468 16.6976C5.53592 16.6774 5.51809 16.6575 5.49995 16.6355C5.4887 16.6225 5.47806 16.6083 5.46774 16.5945L5.44085 16.5579C5.42927 16.5418 5.41739 16.5257 5.40707 16.5112C5.39644 16.4939 5.38549 16.4766 5.37486 16.4605L5.3661 16.4479C5.3514 16.4233 5.3367 16.399 5.32263 16.3731C5.31637 16.3621 5.31074 16.3508 5.30511 16.3397L5.2998 16.329C5.28353 16.2965 5.26852 16.2647 5.25507 16.2313L5.2385 16.19C5.2238 16.1531 5.21004 16.1159 5.19878 16.0825L5.1894 16.0443C5.17689 16.0036 5.16688 15.9623 5.15844 15.9251L5.15374 15.8942C5.14468 15.8498 5.13748 15.8053 5.13279 15.7615L5.13154 15.7388C5.12654 15.6843 5.12403 15.6344 5.12403 15.5859C5.12403 14.6908 5.81895 13.9638 6.70371 13.9316H7.0421C7.45649 13.9316 7.6898 14.1315 7.93655 14.343C8.1783 14.5502 8.4285 14.7646 8.84945 14.7646C9.37737 14.7646 9.80708 14.3314 9.80708 13.7992C9.80708 13.267 9.37737 12.8341 8.84945 12.8341C8.4285 12.8341 8.1783 13.0485 7.93655 13.2559C7.6898 13.4675 7.45649 13.6674 7.0421 13.6674H6.7059C5.81895 13.6349 5.12403 12.9085 5.12403 12.0131C5.12403 11.118 5.81895 10.3916 6.70371 10.3591H7.0421C7.45649 10.3591 7.6898 10.559 7.93655 10.7706C8.1783 10.978 8.4285 11.1921 8.84945 11.1921C9.37737 11.1921 9.80708 10.7589 9.80708 10.2267C9.80708 9.6945 9.37737 9.2613 8.84945 9.2613C8.4285 9.2613 8.1783 9.47569 7.93624 9.68315C7.68948 9.8947 7.45617 10.0946 7.04179 10.0946H6.7059C5.81895 10.0621 5.12403 9.33539 5.12403 8.4403C5.12403 8.39175 5.12654 8.34099 5.13185 8.28361L5.13248 8.26847C5.13748 8.22055 5.14499 8.17231 5.15531 8.12281L5.15781 8.10831C5.16688 8.06228 5.17814 8.01625 5.19284 7.96612L5.19597 7.95413C5.21066 7.90842 5.22693 7.8627 5.24444 7.81919L5.25101 7.80343C5.26915 7.75708 5.29104 7.71263 5.30918 7.67669L5.317 7.6625C5.33952 7.61867 5.36579 7.57611 5.3883 7.54111L5.39644 7.52882C5.42145 7.49098 5.44804 7.45378 5.47744 7.41626L5.4887 7.40239C5.51747 7.36613 5.54749 7.33145 5.57845 7.29898L5.59159 7.2851C5.62224 7.252 5.65758 7.22016 5.68885 7.19273L5.7048 7.17854C5.74014 7.14701 5.78017 7.11737 5.80832 7.0972L5.8274 7.08301C5.86086 7.05936 5.89651 7.03729 5.93404 7.01428L5.96 6.99914C5.9944 6.97928 6.03131 6.96131 6.06946 6.94271L6.10011 6.92757C6.13576 6.91181 6.17204 6.89762 6.2102 6.88406L6.24741 6.87019C6.28401 6.85821 6.31903 6.84812 6.35469 6.83898L6.37251 6.83425C6.38252 6.83141 6.39284 6.82889 6.4041 6.82637C6.43819 6.8188 6.47197 6.81249 6.50606 6.80713C6.52607 6.80398 6.5464 6.80114 6.5661 6.79831C6.59769 6.79421 6.63021 6.792 6.66305 6.78979C6.68776 6.7879 6.71215 6.78633 6.73717 6.78601H7.0421C7.45649 6.78601 7.6898 6.9859 7.93655 7.19745C8.1783 7.40491 8.4285 7.61899 8.84945 7.61899C9.37737 7.61899 9.80708 7.1861 9.80708 6.65391C9.80708 6.12171 9.37737 5.68882 8.84945 5.68882C8.4285 5.68882 8.1783 5.90322 7.93655 6.11036C7.6898 6.32191 7.45649 6.5218 7.0421 6.5218H6.82693V6.52086H6.76438C6.71622 6.52086 6.66743 6.51833 6.61114 6.51329L6.593 6.51171C6.54734 6.50698 6.50074 6.49973 6.45727 6.49154L6.43162 6.48618C6.39378 6.47861 6.35531 6.46884 6.30527 6.45402L6.27556 6.4455C6.23709 6.43321 6.19956 6.41965 6.16266 6.4042L6.12451 6.38875C6.0901 6.37457 6.05695 6.35786 6.02537 6.34209L5.98127 6.31876C5.95531 6.3052 5.93092 6.28975 5.90684 6.27431L5.89245 6.26516C5.87587 6.25602 5.8618 6.24719 5.84804 6.23773C5.82271 6.21976 5.79644 6.20021 5.77235 6.18193L5.74859 6.16364C5.73952 6.1567 5.73013 6.14977 5.72232 6.14315C5.70355 6.12707 5.68447 6.11004 5.66571 6.09302L5.65758 6.08577C5.63975 6.06906 5.62255 6.05266 5.60441 6.03469C5.5919 6.02271 5.58064 6.01041 5.5697 5.99812L5.55187 5.97889C5.53404 5.95934 5.51622 5.93884 5.49933 5.91898C5.48995 5.90763 5.48119 5.89565 5.47212 5.88398L5.45617 5.86318C5.43803 5.84016 5.42145 5.81651 5.40551 5.79255C5.39894 5.78278 5.37235 5.74022 5.37235 5.74022C5.35515 5.71279 5.33826 5.68536 5.32231 5.65572C5.31606 5.645 5.31106 5.63428 5.30574 5.62356L5.29855 5.60906C5.28291 5.57753 5.26758 5.54505 5.25414 5.51353L5.23694 5.47159C5.22349 5.43565 5.21004 5.39939 5.19878 5.36282L5.18783 5.32436C5.17626 5.28495 5.16625 5.24491 5.15812 5.20644L5.15249 5.17365C5.14311 5.12762 5.13654 5.08348 5.1331 5.04344L5.13092 5.01727C5.12591 4.96336 5.12341 4.91417 5.12341 4.86783L5.1231 4.58754C5.1231 4.1701 5.32106 3.93522 5.53092 3.68614C5.7367 3.44212 5.94937 3.18957 5.94937 2.76489C5.94937 2.23269 5.51966 1.7998 4.99143 1.7998C4.46352 1.7998 4.03443 2.23269 4.03443 2.76489C4.03443 3.18957 4.2471 3.44212 4.4532 3.68614C4.66305 3.9349 4.86133 4.1701 4.86133 4.58722V4.88895L4.85695 4.97313L4.85507 4.99835C4.8532 5.02074 4.85163 5.04312 4.84882 5.06677C4.84663 5.08726 4.84319 5.10776 4.83787 5.13203C4.83318 5.16451 4.82755 5.19698 4.82098 5.22883C4.81754 5.24617 4.81285 5.26319 4.8066 5.28337L4.80253 5.29913C4.79534 5.32751 4.78815 5.35557 4.77783 5.38521C4.77439 5.39624 4.77063 5.40602 4.76688 5.41642L4.7503 5.46087C4.74092 5.48547 4.73185 5.51006 4.72122 5.53371L4.70496 5.56965L4.69057 5.59802C4.67712 5.62451 4.66399 5.65068 4.65085 5.67432L4.63146 5.70648C4.61145 5.74211 4.58924 5.77742 4.56735 5.80926L4.5514 5.83133L4.5317 5.85719C4.51168 5.88367 4.49198 5.90984 4.47071 5.93506L4.45664 5.95177C4.42755 5.98551 4.3969 6.01829 4.36531 6.04919L4.35155 6.06244C4.3184 6.09459 4.28463 6.12423 4.24772 6.1545L4.23803 6.16269C4.20081 6.19139 4.16266 6.22008 4.12356 6.24593L4.11199 6.2535C4.06477 6.28471 4.02692 6.30741 3.99065 6.32633L3.98001 6.33169C3.93029 6.35786 3.88838 6.3774 3.84991 6.39348L3.83834 6.3979C3.78955 6.41839 3.74452 6.43447 3.70042 6.44771L3.69135 6.45055C3.64287 6.46505 3.5944 6.47766 3.5478 6.48712L3.53685 6.48933C3.48556 6.49973 3.43677 6.50698 3.3883 6.5114L3.37641 6.51234C3.32262 6.5177 3.26977 6.52023 3.21973 6.52023L3.15718 6.52117H2.94201C2.52825 6.52117 2.29525 6.3216 2.04819 6.11004C1.80612 5.90259 1.55561 5.68819 1.13435 5.68819C0.606432 5.68819 0.177345 6.12108 0.177345 6.65328C0.177345 7.18547 0.606744 7.61836 1.13435 7.61836C1.55561 7.61836 1.80612 7.40397 2.04819 7.19651C2.29494 6.98495 2.52825 6.78538 2.94201 6.78538H3.246C3.26633 6.78601 3.28822 6.78727 3.30949 6.78853L3.32731 6.78948C3.35671 6.79137 3.38674 6.79358 3.4177 6.79799C3.44084 6.80051 3.46086 6.80367 3.48775 6.80808C3.51715 6.81312 3.54717 6.81817 3.57688 6.82511C3.59252 6.82826 3.60722 6.83204 3.62223 6.83614L3.64256 6.8415C3.67133 6.84938 3.69948 6.85726 3.72857 6.86735C3.75077 6.87429 3.77266 6.88249 3.7933 6.89037C3.82083 6.90077 3.84803 6.91086 3.8743 6.92284C3.88869 6.92915 3.90245 6.93577 3.91684 6.94271L3.93904 6.95343C3.96156 6.96383 3.98283 6.9755 4.00409 6.98685L4.01223 6.99126L4.07352 7.0272L4.0851 7.03477C4.10511 7.0477 4.12575 7.06094 4.14483 7.07386C4.15609 7.08143 4.16703 7.08963 4.17798 7.09783L4.20237 7.1158C4.22458 7.13282 4.24678 7.15048 4.26649 7.16624L4.32216 7.21606C4.34186 7.23403 4.36125 7.25294 4.37939 7.27123C4.39659 7.2892 4.41379 7.30717 4.4313 7.32672L4.43756 7.33366C4.4532 7.35068 4.46852 7.36739 4.48353 7.38631C4.49917 7.40554 4.51418 7.42572 4.53076 7.44842C4.54733 7.46923 4.56203 7.48941 4.57517 7.50801C4.58955 7.53071 4.60394 7.55373 4.6177 7.57516C4.63084 7.59755 4.64397 7.6193 4.65679 7.64263C4.6693 7.66502 4.68119 7.68867 4.69307 7.7142C4.70433 7.73627 4.71528 7.75897 4.72591 7.7842C4.73654 7.80816 4.74655 7.83338 4.75531 7.85577L4.76625 7.88666C4.77126 7.90054 4.77626 7.91472 4.78127 7.93112C4.78783 7.95004 4.79284 7.96927 4.79784 7.98882L4.80347 8.00994C4.81066 8.03516 4.81661 8.05944 4.82255 8.08529C4.8263 8.10074 4.82912 8.11619 4.83193 8.13196C4.83412 8.14425 4.83631 8.15623 4.83818 8.16443C4.84006 8.1783 4.85038 8.24104 4.85038 8.24104C4.85038 8.24104 4.85539 8.30788 4.85695 8.32648L4.86133 8.41539V8.46395C4.84882 9.3458 4.15484 10.0618 3.28353 10.0943H2.94139C2.52762 10.0943 2.29463 9.89439 2.04756 9.68283C1.8055 9.47538 1.55499 9.26067 1.13341 9.26067C0.605493 9.26067 0.176407 9.69387 0.176407 10.2261C0.176407 10.7583 0.605806 11.1915 1.13341 11.1915C1.55467 11.1915 1.80518 10.9771 2.04725 10.7696C2.294 10.5584 2.52731 10.3585 2.94107 10.3585H3.27978C4.16641 10.391 4.86102 11.1174 4.86102 12.0125C4.86102 12.9069 4.16672 13.6336 3.2829 13.6668H2.94076C2.527 13.6668 2.294 13.4672 2.04694 13.2556C1.80487 13.0482 1.55436 12.8338 1.13309 12.8338C0.60518 12.8338 0.176094 13.2667 0.176094 13.7989C0.176094 14.3311 0.605493 14.7643 1.13309 14.7643C1.55436 14.7643 1.80487 14.5499 2.04694 14.3424C2.29369 14.1312 2.527 13.9313 2.94076 13.9313H3.27946C4.15108 13.9638 4.84569 14.6788 4.86039 15.5581V15.6098L4.85601 15.688L4.85414 15.7151C4.85226 15.7388 4.85069 15.7628 4.84788 15.7867C4.846 15.8053 4.84256 15.8233 4.83787 15.8479C4.83318 15.8816 4.82661 15.915 4.81911 15.9494C4.81536 15.9655 4.81191 15.9812 4.80597 16.0008C4.79784 16.0352 4.78877 16.0702 4.77783 16.1026L4.76281 16.1455L4.75312 16.1704C4.74249 16.1985 4.73185 16.2262 4.72091 16.2514L4.70308 16.2883C4.68588 16.3252 4.66743 16.3608 4.6496 16.394L4.63177 16.4239C4.61082 16.4605 4.5883 16.4955 4.56641 16.5276L4.54233 16.5604C4.51825 16.5923 4.49542 16.6232 4.47071 16.6522L4.45382 16.6711C4.42693 16.7026 4.3969 16.7354 4.365 16.7666L4.34874 16.7818C4.31434 16.8155 4.2815 16.8448 4.24647 16.8722L4.2349 16.882C4.19831 16.911 4.16047 16.9388 4.12231 16.9646L4.11074 16.9725C4.07133 16.9977 4.03099 17.022 3.99065 17.0438L3.97688 17.0504C3.93404 17.0728 3.89182 17.0929 3.8471 17.1122L3.8374 17.1166C3.79174 17.1346 3.74639 17.151 3.70104 17.1651L3.68728 17.1692C3.63975 17.1837 3.59409 17.1954 3.54749 17.2045L3.53279 17.2074C3.48556 17.2168 3.43803 17.2241 3.38924 17.2291L3.37204 17.2304C3.3148 17.2361 3.26414 17.2386 3.21785 17.2386H2.94045C2.52669 17.2386 2.29369 17.039 2.04662 16.8275C1.80456 16.62 1.55405 16.4053 1.13278 16.4053C0.604868 16.4053 0.175781 16.8385 0.175781 17.3707C0.175781 17.9032 0.60518 18.3364 1.13278 18.3364C1.55405 18.3364 1.80456 18.1217 2.04662 17.9142C2.29338 17.7027 2.52669 17.5031 2.94045 17.5031H3.24225C3.25914 17.5034 3.27665 17.5047 3.29416 17.5056L3.3295 17.5075C3.35702 17.5094 3.38642 17.5119 3.41301 17.5148C3.43021 17.517 3.44678 17.5195 3.46398 17.5224L3.48838 17.5261L3.51778 17.5318C3.5356 17.535 3.55343 17.5384 3.57282 17.5428C3.59815 17.5479 3.62161 17.5545 3.64506 17.5608L3.66914 17.5674C3.68791 17.5728 3.70636 17.5778 3.72356 17.5835C3.74796 17.5917 3.77172 17.6005 3.79674 17.6103C3.82176 17.6195 3.84647 17.6295 3.87086 17.6406C3.89432 17.6507 3.91653 17.6611 3.94061 17.6734C3.96406 17.6844 3.98721 17.6964 4.01004 17.7093C4.03193 17.7216 4.05382 17.7349 4.07509 17.7481L4.08572 17.7547C4.10449 17.7664 4.12356 17.778 4.14233 17.791C4.15953 17.8026 4.17579 17.8149 4.19299 17.8279L4.20488 17.837C4.22489 17.8515 4.24491 17.867 4.26399 17.8837C4.28463 17.901 4.3037 17.9184 4.32247 17.9354L4.33342 17.9455C4.34843 17.9597 4.36375 17.9735 4.37814 17.9883C4.39596 18.0066 4.41442 18.0262 4.43255 18.0467C4.44944 18.065 4.46602 18.0836 4.48103 18.1025C4.49792 18.1233 4.51481 18.1444 4.53107 18.1665C4.54608 18.1863 4.56078 18.2059 4.57423 18.2261C4.5858 18.2437 4.59675 18.262 4.60801 18.2803L4.6177 18.2964C4.63052 18.3169 4.64303 18.337 4.65523 18.3607C4.66836 18.3837 4.68087 18.4074 4.69307 18.4335C4.70433 18.4559 4.71465 18.4777 4.72435 18.4991C4.73529 18.5246 4.7453 18.5514 4.75468 18.5767L4.76406 18.6028C4.76907 18.6167 4.77439 18.6309 4.7797 18.6489C4.78877 18.6747 4.79596 18.7009 4.80284 18.7318C4.80941 18.7545 4.81535 18.7769 4.82067 18.8037C4.82536 18.822 4.82849 18.8402 4.83162 18.8588L4.83693 18.8888C4.84069 18.9124 4.84444 18.9364 4.84757 18.9604C4.85038 18.9824 4.85195 19.0045 4.85382 19.0266L4.8557 19.0483L4.86008 19.1306V19.438C4.86008 19.8554 4.6618 20.0907 4.45194 20.3394C4.24616 20.5834 4.03349 20.8357 4.03349 21.2604C4.03349 21.7929 4.46289 22.2264 4.99049 22.2264C5.51872 22.2264 5.94843 21.7932 5.94843 21.2604C5.94843 20.8357 5.73576 20.5834 5.52998 20.3394C5.32169 20.091 5.12372 19.8558 5.12372 19.4383Z" fill="url(#paint0_linear_140_953)"/>
<path d="M18.0725 10.358H18.4102C18.8237 10.358 19.0567 10.5575 19.3034 10.7691C19.5455 10.9766 19.796 11.1913 20.2176 11.1913C20.7458 11.1913 21.1755 10.7581 21.1755 10.2259C21.1755 9.69367 20.7458 9.26047 20.2176 9.26047C19.796 9.26047 19.5458 9.47517 19.3034 9.68263C19.0567 9.89419 18.8237 10.0938 18.4102 10.0938H18.0737C17.1868 10.0613 16.4918 9.33456 16.4918 8.43947C16.4918 8.37988 16.494 8.32975 16.4984 8.28498L16.5009 8.26827C16.5053 8.21436 16.5144 8.16296 16.5216 8.12387L16.5253 8.10874C16.5347 8.05861 16.5466 8.01005 16.5597 7.96654L16.5641 7.95393C16.5763 7.91326 16.5913 7.87007 16.6129 7.81521L16.6169 7.80543C16.6341 7.7635 16.6545 7.71999 16.6804 7.67018L16.6832 7.66356C16.7055 7.62194 16.7305 7.58001 16.7577 7.53744L16.763 7.52893C16.7899 7.48763 16.818 7.44885 16.8474 7.41164L16.8537 7.40282C16.8825 7.36687 16.9128 7.33251 16.9472 7.29625L16.9572 7.28522C16.9866 7.25432 17.0198 7.2231 17.0551 7.19252L17.072 7.17802C17.107 7.14712 17.1405 7.12095 17.1761 7.09636L17.1955 7.08186C17.2296 7.05727 17.2653 7.03488 17.3003 7.01376L17.3278 6.99799C17.3622 6.97782 17.3985 6.95984 17.4363 6.94187L17.4676 6.92642C17.503 6.91066 17.5399 6.89679 17.5752 6.88355L17.6177 6.86873C17.6512 6.85706 17.6865 6.84729 17.7212 6.83814L17.7431 6.83247C17.7522 6.82995 17.7613 6.82774 17.7713 6.82553C17.8054 6.81797 17.8395 6.81166 17.872 6.8063L17.9336 6.79716C17.9649 6.79306 17.9968 6.79085 18.0306 6.78864C18.0553 6.78675 18.0806 6.78518 18.1053 6.78486H18.4102C18.8237 6.78486 19.0567 6.98444 19.3034 7.19599C19.5455 7.40345 19.796 7.61816 20.2176 7.61816C20.7458 7.61816 21.1755 7.18527 21.1755 6.65307C21.1755 6.12087 20.7458 5.68799 20.2176 5.68799C19.796 5.68799 19.5458 5.90238 19.3037 6.10984C19.057 6.32108 18.824 6.52065 18.4105 6.52065H18.1941V6.51971H18.1316C18.0843 6.51971 18.0346 6.51719 17.9796 6.51214L17.9617 6.51056C17.9155 6.50584 17.8695 6.49858 17.8254 6.49039L17.7994 6.48534C17.7613 6.47746 17.7209 6.46706 17.674 6.45287L17.6443 6.44467C17.6062 6.43237 17.5693 6.41882 17.5317 6.40337L17.4936 6.38823C17.4592 6.37405 17.4263 6.35797 17.3944 6.34157L17.3506 6.31856C17.3278 6.30658 17.3059 6.2927 17.2837 6.27915L17.2171 6.23721C17.1918 6.21924 17.1658 6.20033 17.142 6.18204L17.1305 6.1729C17.1177 6.16281 17.1045 6.1524 17.0898 6.13979C17.0723 6.12592 17.0554 6.11047 17.0379 6.09502L17.0073 6.06665C16.996 6.05624 16.9847 6.04615 16.9738 6.03449C16.9588 6.01967 16.9453 6.00422 16.9316 5.98909L16.9172 5.97332C16.9006 5.95535 16.884 5.9377 16.8684 5.9172C16.8596 5.90648 16.824 5.85982 16.824 5.85982C16.8068 5.8368 16.7896 5.81379 16.7733 5.79014C16.7642 5.7769 16.7564 5.76334 16.7483 5.7501L16.743 5.74127C16.7245 5.71195 16.707 5.68295 16.6923 5.65709L16.6689 5.60791C16.651 5.57575 16.636 5.5417 16.6232 5.51143L16.6079 5.47234C16.5935 5.43513 16.5791 5.39698 16.5675 5.3601L16.5585 5.32825C16.5469 5.286 16.5356 5.24344 16.5269 5.20498L16.5225 5.17565C16.5125 5.12679 16.5056 5.08233 16.5015 5.03725L16.4994 5.01927C16.4947 4.9723 16.4928 4.92217 16.4928 4.86636L16.4922 4.80331V4.58608C16.4922 4.16864 16.6901 3.93375 16.8997 3.68468C17.1055 3.44065 17.3178 3.18811 17.3178 2.76342C17.3178 2.23122 16.8881 1.79834 16.3602 1.79834C15.8323 1.79834 15.4029 2.23122 15.4029 2.76342C15.4029 3.18842 15.6158 3.44065 15.8216 3.68468C16.0315 3.93344 16.2298 4.16864 16.2298 4.58576V4.88938L16.2291 4.90041C16.2279 4.92248 16.227 4.94424 16.2245 4.97041C16.2232 5.00225 16.2207 5.03441 16.2166 5.06688C16.2144 5.0858 16.2113 5.1044 16.2066 5.12836C16.2029 5.16178 16.196 5.19678 16.1894 5.22862L16.1769 5.27844C16.1678 5.31501 16.1578 5.34969 16.1472 5.38311L16.1322 5.42473C16.1184 5.46162 16.1047 5.49819 16.0887 5.5335L16.0728 5.56787C16.0559 5.60507 16.0368 5.64164 16.0196 5.67412L16.0027 5.70123C15.9805 5.73844 15.958 5.77532 15.9352 5.80874L15.9205 5.82892C15.8942 5.86518 15.8676 5.90018 15.8395 5.93328L15.8248 5.94968C15.7932 5.9872 15.7632 6.01935 15.7316 6.04899L15.7206 6.05971C15.6872 6.09218 15.6518 6.12277 15.6149 6.15335L15.6071 6.15997C15.5736 6.18645 15.5339 6.21704 15.4889 6.24541L15.4804 6.2514C15.4429 6.27662 15.4019 6.30122 15.3597 6.32423L15.3491 6.32959C15.3094 6.35072 15.2659 6.37121 15.2177 6.3917L15.2077 6.3958C15.1608 6.41535 15.1145 6.43206 15.0689 6.44562L15.0598 6.44845C15.0094 6.46327 14.9622 6.47557 14.9172 6.48503L14.904 6.48723C14.8553 6.49701 14.8055 6.50457 14.7571 6.5093L14.7455 6.51025C14.6898 6.51561 14.6385 6.51813 14.5888 6.51813L14.5262 6.51908H14.3108C13.8967 6.51908 13.6631 6.31919 13.416 6.10795C13.1739 5.90049 12.9234 5.68641 12.5025 5.68641C11.9739 5.68641 11.5436 6.1193 11.5436 6.6515C11.5436 7.18369 11.9736 7.61658 12.5025 7.61658C12.9234 7.61658 13.1736 7.40219 13.416 7.19505C13.6631 6.98349 13.8964 6.7836 14.3108 6.7836H14.6141C14.6351 6.78392 14.6557 6.78549 14.6764 6.78644L14.6948 6.78738C14.7252 6.78928 14.7545 6.79148 14.7849 6.7959C14.8087 6.79873 14.8327 6.8022 14.8556 6.80598C14.8847 6.81103 14.9137 6.81639 14.9444 6.82301C14.9628 6.82648 14.9807 6.83121 14.9976 6.83594L15.0107 6.83941C15.0395 6.84729 15.0673 6.85517 15.097 6.86526C15.1139 6.87062 15.1302 6.87661 15.1464 6.8826L15.1639 6.88922C15.1902 6.89931 15.2165 6.9094 15.2399 6.91949C15.2399 6.91949 15.294 6.94502 15.3059 6.95102C15.3309 6.96331 15.3569 6.97687 15.3791 6.98853L15.3935 6.99705C15.4091 7.00651 15.4251 7.01596 15.4435 7.02794C15.4604 7.03772 15.4764 7.04812 15.4926 7.05916L15.5133 7.07272C15.5292 7.08312 15.5439 7.09447 15.5589 7.10582L15.5708 7.11496C15.5924 7.13136 15.6143 7.14838 15.6346 7.16478C15.6531 7.18023 15.6712 7.19631 15.6912 7.21554C15.7109 7.23256 15.7288 7.2499 15.7488 7.27071C15.7641 7.28522 15.7769 7.2994 15.79 7.31422L15.8004 7.32589C15.8182 7.34449 15.8354 7.36309 15.851 7.38264C15.861 7.39493 15.8707 7.40786 15.8804 7.42079L15.9117 7.46241C15.9223 7.47691 15.933 7.4911 15.943 7.50654C15.958 7.52893 15.9724 7.55163 15.9861 7.57433L16.0033 7.60302C16.0105 7.615 16.018 7.62698 16.0246 7.63928C16.0346 7.65725 16.0437 7.67554 16.0534 7.69445L16.0621 7.71148C16.0721 7.73481 16.0828 7.75783 16.0928 7.77832C16.1034 7.80449 16.1134 7.83097 16.125 7.86218C16.1341 7.88331 16.1416 7.90475 16.1488 7.92682C16.1575 7.95393 16.165 7.98136 16.1722 8.011L16.175 8.02109C16.1804 8.04032 16.1857 8.05955 16.1897 8.08005C16.196 8.10968 16.2019 8.13995 16.2066 8.1658L16.2113 8.19891C16.2135 8.21246 16.2154 8.22602 16.2169 8.24021C16.2204 8.26985 16.2232 8.29885 16.2241 8.33038C16.2241 8.33038 16.2282 8.39186 16.2295 8.41141V8.46469C16.2151 9.34528 15.5205 10.0607 14.6507 10.0928H14.3108C13.8967 10.0928 13.6631 9.89292 13.416 9.68137C13.1739 9.47391 12.9234 9.25952 12.5025 9.25952C11.9739 9.25952 11.5436 9.69272 11.5436 10.2249C11.5436 10.7571 11.9736 11.1903 12.5025 11.1903C12.9234 11.1903 13.1736 10.9759 13.416 10.7688C13.6631 10.5572 13.8964 10.3573 14.3108 10.3573H14.6485C15.5352 10.3898 16.2295 11.1162 16.2295 12.0113C16.2295 12.9058 15.5348 13.6325 14.6507 13.6656H14.3108C13.8967 13.6656 13.6631 13.4657 13.416 13.2542C13.1739 13.0467 12.9234 12.8323 12.5025 12.8323C11.9739 12.8323 11.5436 13.2652 11.5436 13.7974C11.5436 14.3296 11.9736 14.7628 12.5025 14.7628C12.9234 14.7628 13.1736 14.5484 13.416 14.3409C13.6631 14.1294 13.8964 13.9298 14.3108 13.9298H14.6482C15.5201 13.9623 16.2148 14.677 16.2291 15.5567V15.6081L16.2285 15.6185C16.2273 15.6412 16.2263 15.6632 16.2235 15.6897C16.2223 15.7213 16.2198 15.7531 16.2157 15.7862C16.2138 15.8057 16.2104 15.824 16.206 15.848C16.2022 15.882 16.1954 15.9155 16.1885 15.9479C16.1863 15.9587 16.1763 15.9987 16.1763 15.9987C16.1672 16.0343 16.1572 16.0696 16.1463 16.1031L16.1313 16.1447C16.1178 16.1819 16.1037 16.2175 16.0878 16.2535L16.0728 16.2872C16.0549 16.3247 16.0368 16.3606 16.0184 16.3944L16.0021 16.4218C15.9799 16.459 15.9577 16.4946 15.9333 16.5293L15.9198 16.5495C15.8939 16.5845 15.8676 16.6192 15.8376 16.6535L15.8235 16.6706C15.7951 16.7046 15.7644 16.7371 15.7328 16.767L15.7184 16.7806C15.6796 16.8175 15.6471 16.8462 15.6137 16.8727L15.6037 16.8815C15.5639 16.9137 15.5273 16.9405 15.4876 16.9657L15.4804 16.971C15.4423 16.9963 15.4007 17.0212 15.3622 17.0426L15.3469 17.0495C15.3034 17.0735 15.259 17.0943 15.2174 17.1117L15.2058 17.1161C15.1614 17.135 15.1151 17.1514 15.0692 17.1656L15.0585 17.1687C15.0166 17.182 14.9694 17.1939 14.9181 17.205L14.904 17.2072C14.8565 17.217 14.8083 17.2242 14.7571 17.2296L14.7449 17.2305C14.6936 17.2356 14.6423 17.2381 14.5882 17.2381L14.5256 17.239H14.3101C13.8961 17.239 13.6624 17.0391 13.4154 16.8276C13.1733 16.6201 12.9228 16.4057 12.5018 16.4057C11.9733 16.4057 11.543 16.8389 11.543 17.3711C11.543 17.9036 11.973 18.3368 12.5018 18.3368C12.9228 18.3368 13.173 18.1225 13.4154 17.915C13.6624 17.7034 13.8958 17.5035 14.3101 17.5035H14.611C14.6282 17.5039 14.6457 17.5048 14.6629 17.5061L14.6983 17.508C14.7273 17.5099 14.7555 17.5124 14.7824 17.5152C14.8011 17.5174 14.8199 17.5206 14.839 17.5234L14.8571 17.5262L14.8825 17.531C14.9019 17.5344 14.9209 17.5382 14.9416 17.5426C14.9641 17.5474 14.9847 17.553 15.0129 17.5606L15.0304 17.5653C15.0513 17.5713 15.0723 17.577 15.0936 17.5843C15.1155 17.5915 15.1377 17.5994 15.1627 17.6085L15.1814 17.6161C15.2008 17.6237 15.2212 17.6319 15.2402 17.6401L15.3056 17.67C15.3056 17.67 15.365 17.7009 15.3788 17.7085C15.3957 17.7183 15.4426 17.7466 15.4426 17.7466C15.4426 17.7466 15.4926 17.7785 15.5117 17.7914C15.5305 17.804 15.548 17.8176 15.5724 17.8362C15.593 17.8513 15.6137 17.8671 15.633 17.8835C15.6509 17.8989 15.6684 17.9147 15.6912 17.9352C15.7103 17.9525 15.7284 17.9695 15.7481 17.9897C15.7632 18.0039 15.7766 18.019 15.79 18.0339C15.79 18.0339 15.8413 18.0909 15.8504 18.1013C15.867 18.1224 15.8832 18.1439 15.9004 18.1669C15.9155 18.1861 15.9292 18.2051 15.943 18.2265C15.9583 18.2486 15.9727 18.2713 15.9861 18.2949L16.0037 18.3239C16.0108 18.3356 16.018 18.3472 16.0243 18.358C16.0331 18.374 16.0412 18.3904 16.0496 18.4072L16.0618 18.4305C16.0718 18.4541 16.0828 18.4771 16.0925 18.4976C16.0987 18.5125 16.1247 18.5796 16.1247 18.5796C16.1331 18.6011 16.1409 18.6241 16.1481 18.6458C16.1569 18.6733 16.1644 18.7007 16.1716 18.7297L16.1747 18.7414C16.18 18.7606 16.185 18.7792 16.1891 18.7997C16.1954 18.829 16.2013 18.859 16.206 18.8857L16.2107 18.917C16.2129 18.9308 16.2148 18.945 16.2166 18.9598C16.2201 18.9888 16.2226 19.0185 16.2238 19.0497C16.2238 19.0497 16.2282 19.1124 16.2291 19.1304V19.4378C16.2291 19.8552 16.0309 20.0904 15.821 20.3392C15.6152 20.5832 15.4022 20.8355 15.4022 21.2602C15.4022 21.7854 15.8257 22.2186 16.3467 22.2262H16.3727H16.373C16.8934 22.2189 17.3169 21.7854 17.3169 21.2602C17.3169 20.8355 17.1042 20.5832 16.8987 20.3392C16.6892 20.0904 16.4909 19.8552 16.4909 19.4378V19.2209H16.4915V19.1578C16.4915 19.0992 16.4937 19.0475 16.4981 19.004L16.5006 18.9873C16.504 18.9444 16.5109 18.8974 16.5216 18.8429L16.5253 18.8277C16.5347 18.7773 16.5466 18.7291 16.5603 18.6849L16.5641 18.6729C16.5763 18.6326 16.5919 18.5881 16.6135 18.533L16.6166 18.5244C16.6323 18.4875 16.6532 18.4393 16.6779 18.393L16.6839 18.3819C16.7064 18.3394 16.7314 18.2984 16.7555 18.2593L16.7633 18.2473C16.7905 18.206 16.8174 18.1688 16.8449 18.1341L16.8565 18.1199C16.8809 18.0887 16.9094 18.0562 16.9463 18.0171L16.9594 18.003C16.9897 17.9711 17.0216 17.9412 17.0554 17.9122L17.0736 17.8961C17.1051 17.8686 17.138 17.8425 17.173 17.8176L17.1971 17.8002C17.2299 17.7766 17.2643 17.7551 17.2987 17.7343L17.3291 17.7161C17.3622 17.6968 17.3969 17.6792 17.432 17.6628L17.4707 17.6448C17.503 17.63 17.537 17.6167 17.5746 17.6035C17.5896 17.5975 17.6043 17.5918 17.6184 17.5871C17.6503 17.5767 17.6843 17.5666 17.7184 17.5578L17.7297 17.5549C17.7447 17.5512 17.7594 17.5474 17.7741 17.5439C17.8051 17.5367 17.8367 17.5307 17.8679 17.5266L17.8786 17.5247C17.897 17.5215 17.9148 17.5181 17.9345 17.5162C17.9639 17.5127 17.9946 17.5099 18.0259 17.5083L18.0459 17.507C18.0665 17.5058 18.0875 17.5042 18.1078 17.5039H18.4102C18.8237 17.5039 19.0567 17.7034 19.3034 17.915C19.5455 18.1225 19.796 18.3372 20.2176 18.3372C20.7458 18.3372 21.1755 17.904 21.1755 17.3714C21.1755 16.8389 20.7458 16.406 20.2176 16.406C19.796 16.406 19.5458 16.6208 19.3034 16.8282C19.0567 17.0395 18.8237 17.2393 18.4102 17.2393H18.1938V17.2384H18.1313C18.08 17.2384 18.029 17.2359 17.9793 17.2311L17.9621 17.2296C17.9189 17.2252 17.8751 17.2185 17.8241 17.2091L17.7994 17.2043C17.7563 17.1958 17.7147 17.1848 17.6725 17.1725L17.6446 17.1646C17.6065 17.152 17.568 17.1381 17.5295 17.1221L17.4948 17.1085C17.4592 17.0934 17.4254 17.0763 17.3919 17.0599L17.3519 17.0395C17.3212 17.0227 17.2918 17.0045 17.2621 16.9855L17.2543 16.9805C17.2421 16.9729 17.2302 16.9654 17.2168 16.9559C17.1902 16.9382 17.1649 16.92 17.1395 16.9001C17.1227 16.8872 17.107 16.8746 17.0911 16.8616C17.0795 16.8519 17.0263 16.8049 17.0263 16.8049L17.0063 16.7863C16.9951 16.7756 16.9838 16.7655 16.9735 16.7548C16.9607 16.7418 16.9488 16.7286 16.9369 16.715L16.9209 16.6971C16.9025 16.6775 16.8853 16.6583 16.8684 16.6372C16.8565 16.6226 16.8449 16.6069 16.8334 16.5914L16.8271 16.5829C16.809 16.5593 16.7908 16.5353 16.7733 16.5098C16.7677 16.5016 16.7424 16.4615 16.7424 16.4615L16.7323 16.4445C16.7183 16.4212 16.7045 16.3982 16.6933 16.3774L16.6689 16.3279C16.6513 16.2951 16.6366 16.2632 16.6232 16.2314L16.6019 16.1768C16.5897 16.1444 16.5775 16.1113 16.5675 16.081L16.5585 16.0473C16.5469 16.0053 16.5356 15.9631 16.5269 15.9246L16.5225 15.8947C16.5125 15.8461 16.5056 15.8017 16.5015 15.7569L16.4994 15.7389C16.4947 15.6922 16.4928 15.6421 16.4928 15.586C16.4928 14.6906 17.188 13.9639 18.0734 13.9317H18.4112C18.8246 13.9317 19.0576 14.1313 19.3044 14.3425C19.5464 14.55 19.7969 14.7647 20.2185 14.7647C20.7467 14.7647 21.1765 14.3315 21.1765 13.7993C21.1765 13.2671 20.7467 12.8342 20.2185 12.8342C19.7969 12.8342 19.5467 13.0489 19.3044 13.2564C19.0576 13.4676 18.8246 13.6675 18.4112 13.6675H18.0747C17.1877 13.635 16.4928 12.9086 16.4928 12.0132C16.4918 11.1169 17.1871 10.3904 18.0725 10.358Z" fill="url(#paint1_linear_140_953)"/>
<path d="M14.5402 18.1808C14.1187 18.1808 13.8685 18.3952 13.6264 18.6027C13.3796 18.8139 13.1466 19.0138 12.7329 19.0138H12.518V19.0132H12.4555C12.4067 19.0132 12.3566 19.0106 12.3 19.005L12.2844 19.0043C12.2375 18.999 12.1921 18.9917 12.1487 18.9838L12.1224 18.9782C12.0805 18.9693 12.0376 18.9586 11.9979 18.9476L11.9657 18.9375C11.9276 18.9258 11.8903 18.9116 11.855 18.8978L11.8165 18.8817C11.7828 18.8672 11.749 18.8511 11.7171 18.8353L11.6733 18.812C11.6439 18.7959 11.6142 18.7776 11.5864 18.7603C11.5704 18.7502 11.5541 18.7398 11.5388 18.7294C11.5132 18.7118 11.4888 18.6941 11.4619 18.673C11.4456 18.6604 11.429 18.6471 11.4131 18.6342C11.3918 18.6162 11.3709 18.5979 11.3518 18.58L11.334 18.5629C11.3218 18.5513 11.3093 18.5399 11.2964 18.5267C11.2789 18.5097 11.2624 18.4917 11.2467 18.4743L11.2342 18.4602C11.2192 18.4431 11.2045 18.4267 11.1892 18.4081C11.1763 18.3917 11.1632 18.3753 11.1516 18.3596L11.1376 18.3407C11.1235 18.3221 11.1094 18.3031 11.0966 18.2827C11.0866 18.2675 11.0763 18.2511 11.0659 18.2344C11.0478 18.206 11.0312 18.1773 11.0153 18.1471L10.9925 18.1039C10.9759 18.0708 10.9602 18.0377 10.9465 18.0039L10.9308 17.9633C10.9155 17.928 10.9033 17.8914 10.8905 17.8526L10.8814 17.8217C10.8699 17.7798 10.8583 17.7366 10.8498 17.6962L10.8455 17.6694C10.838 17.6294 10.8295 17.5818 10.8248 17.5307L10.8233 17.514C10.8189 17.4563 10.8154 17.4084 10.8154 17.3589C10.8154 16.4641 11.51 15.7374 12.3948 15.7046H12.7338C13.1476 15.7046 13.3806 15.9042 13.6273 16.1157C13.8694 16.3232 14.1199 16.5379 14.5412 16.5379C15.0691 16.5379 15.4988 16.1047 15.4988 15.5725C15.4988 15.04 15.0691 14.6071 14.5412 14.6071C14.1196 14.6071 13.8694 14.8218 13.6273 15.0292C13.3806 15.2408 13.1476 15.4404 12.7338 15.4404H12.397C11.51 15.4079 10.8151 14.6812 10.8151 13.7864C10.8151 12.891 11.5097 12.1643 12.3945 12.1318H12.7335C13.1473 12.1318 13.3803 12.3314 13.627 12.5429C13.8691 12.7504 14.1196 12.9648 14.5409 12.9648C15.0688 12.9648 15.4985 12.5316 15.4985 11.9991C15.4985 11.4669 15.0688 11.0337 14.5409 11.0337C14.1193 11.0337 13.8691 11.2484 13.627 11.4558C13.3803 11.6674 13.1473 11.867 12.7335 11.867H12.3967C11.5097 11.8351 10.8148 11.1087 10.8148 10.213C10.8148 9.31788 11.5094 8.59147 12.3942 8.559H12.7332C13.147 8.559 13.3799 8.75857 13.6267 8.97013C13.8688 9.17758 14.1193 9.39198 14.5405 9.39198C15.0685 9.39198 15.4982 8.95878 15.4982 8.42658C15.4982 7.89407 15.0685 7.46055 14.5405 7.46055C14.119 7.46055 13.8688 7.67526 13.6267 7.88271C13.3799 8.09427 13.147 8.29384 12.7332 8.29384H12.3964C11.5094 8.26168 10.8145 7.53496 10.8145 6.63987C10.8145 6.58785 10.8183 6.53488 10.8217 6.48601L10.8242 6.46961C10.8283 6.42295 10.8351 6.3744 10.8455 6.32206L10.8483 6.30945C10.857 6.26531 10.8689 6.21833 10.8849 6.1641L10.8871 6.15559C10.9014 6.1083 10.918 6.06195 10.938 6.01371L10.9405 6.00552C10.9574 5.96453 10.9774 5.92165 10.9996 5.87783L11.0078 5.86427C11.0306 5.82171 11.0541 5.78072 11.0769 5.74446L11.0888 5.72807C11.1107 5.69307 11.1373 5.6565 11.1713 5.6133L11.1782 5.60322C11.2073 5.5679 11.2373 5.53354 11.2689 5.50043L11.2827 5.48562C11.3133 5.45377 11.3452 5.4235 11.3765 5.39544L11.3965 5.37873C11.4287 5.35067 11.4622 5.32514 11.4953 5.30054L11.5201 5.28289C11.5532 5.25893 11.5873 5.2378 11.6223 5.21668L11.6523 5.19902C11.6871 5.17979 11.7211 5.16213 11.7549 5.14574L11.7946 5.12777C11.8275 5.11232 11.8622 5.09939 11.8957 5.08678C11.9116 5.08142 11.926 5.07575 11.9423 5.06944C11.9717 5.05998 12.0017 5.05147 12.0314 5.04327L12.0392 5.04107C12.0492 5.03886 12.0871 5.0294 12.0971 5.02719C12.1287 5.01963 12.1612 5.01395 12.1959 5.00859C12.2153 5.00481 12.2372 5.00165 12.2572 4.99913C12.2875 4.99566 12.3182 4.99314 12.3488 4.99125L12.3754 4.98967C12.3945 4.98841 12.4136 4.98715 12.4314 4.98652H12.7332C13.147 4.98652 13.3799 5.18641 13.6267 5.39765C13.8688 5.60511 14.1193 5.81981 14.5405 5.81981C15.0685 5.81981 15.4982 5.38662 15.4982 4.85442C15.4982 4.3219 15.0685 3.88902 14.5405 3.88902C14.119 3.88902 13.8688 4.10373 13.6267 4.31118C13.3799 4.52274 13.147 4.72231 12.7332 4.72231H12.5183V4.72168H12.4558C12.4029 4.72168 12.3529 4.71916 12.3004 4.7138L12.2844 4.71286C12.2391 4.70781 12.1943 4.70087 12.1455 4.6911L12.124 4.68763C12.0814 4.67849 12.038 4.66777 11.9967 4.65516L11.967 4.64633C11.9285 4.63403 11.8903 4.62048 11.8525 4.60534L11.8172 4.59116C11.7831 4.57634 11.7487 4.55963 11.7149 4.54229L11.6755 4.52242C11.6511 4.50855 11.6273 4.49405 11.6032 4.47923L11.5864 4.46883L11.5673 4.45653C11.5582 4.45085 11.5491 4.44486 11.5388 4.43761C11.5125 4.42027 11.4882 4.40136 11.4588 4.37865C11.4434 4.36667 11.4284 4.35532 11.4131 4.34271C11.3906 4.32443 11.3693 4.30519 11.3499 4.28785L11.3333 4.27209C11.3211 4.26042 11.3093 4.24907 11.2968 4.23615C11.2821 4.22164 11.2683 4.20651 11.2542 4.19169L11.2436 4.18034C11.2258 4.16079 11.2082 4.14062 11.1904 4.11855C11.177 4.10278 11.1648 4.0867 11.1495 4.06652L11.1366 4.0495C11.1226 4.0309 11.1085 4.01198 11.0969 3.99496C11.0863 3.97761 11.0753 3.95996 11.0647 3.94325C11.0472 3.91519 11.0306 3.8865 11.0147 3.85592L10.9909 3.81209C10.9743 3.77899 10.9587 3.7462 10.9449 3.71341L10.929 3.674C10.9143 3.63648 10.9018 3.59991 10.8899 3.56144L10.8802 3.52928C10.8686 3.48798 10.8573 3.44605 10.8486 3.40506L10.8439 3.37858C10.8361 3.33538 10.8283 3.28872 10.8236 3.2408L10.822 3.22283C10.8176 3.16576 10.8142 3.11815 10.8142 3.06834L10.8136 3.00528V2.78805C10.8136 2.37062 11.0118 2.13541 11.2217 1.88666C11.4275 1.64263 11.6405 1.3904 11.6405 0.965397C11.6405 0.433199 11.2107 0 10.6828 0C10.1546 0 9.72521 0.432884 9.72521 0.965397C9.72521 1.39008 9.93788 1.64231 10.1434 1.88634C10.3529 2.1351 10.5509 2.3703 10.5509 2.78774V3.09577C10.5509 3.12067 10.5496 3.14621 10.548 3.16986C10.548 3.16986 10.5415 3.24616 10.5393 3.26728C10.5365 3.28809 10.5337 3.30858 10.5305 3.32908C10.5249 3.36281 10.5193 3.39686 10.5102 3.43659L10.4971 3.48893C10.4883 3.5214 10.4796 3.55356 10.4686 3.5854L10.4536 3.62923C10.4401 3.6658 10.4267 3.70111 10.4123 3.73453L10.3948 3.77173C10.3779 3.80768 10.3601 3.84362 10.3426 3.87515L10.3229 3.90699C10.3022 3.94293 10.2806 3.9773 10.2575 4.01072L10.2403 4.03468C10.2153 4.06999 10.1884 4.10373 10.1631 4.13463L10.1459 4.15386C10.1171 4.18728 10.0867 4.22007 10.057 4.2497L10.0414 4.26452C10.0076 4.29763 9.97072 4.32884 9.94038 4.35375L9.92662 4.36447C9.8894 4.39379 9.8525 4.4209 9.8134 4.44802L9.80402 4.45464C9.76243 4.48144 9.72115 4.50603 9.68111 4.52715L9.66985 4.53314C9.62826 4.55553 9.58448 4.57634 9.54132 4.59431L9.52912 4.59904C9.4844 4.61764 9.4378 4.63435 9.39276 4.64822L9.38057 4.65169C9.33991 4.66462 9.29425 4.67628 9.23702 4.68826L9.22732 4.69047C9.17978 4.69993 9.12974 4.7075 9.08189 4.71286L9.06751 4.7138C9.01653 4.71916 8.96524 4.72168 8.90988 4.72168L8.84734 4.72231H8.63248C8.21841 4.72231 7.98541 4.52242 7.73834 4.31087C7.49628 4.10341 7.24608 3.88902 6.82513 3.88902C6.2969 3.88902 5.86719 4.32222 5.86719 4.85442C5.86719 5.38662 6.2969 5.81981 6.82513 5.81981C7.24608 5.81981 7.49628 5.60542 7.73834 5.39797C7.9851 5.18641 8.21841 4.98652 8.63248 4.98652H8.93334C8.95367 4.98715 8.97431 4.98841 8.99526 4.98967L9.01997 4.99125C9.04874 4.99346 9.0772 4.99566 9.10504 4.9985C9.13099 5.00165 9.15508 5.00544 9.18166 5.01048C9.20856 5.01458 9.23608 5.01963 9.2636 5.02562C9.28799 5.03098 9.31207 5.0376 9.33772 5.04453C9.36368 5.05147 9.39057 5.05904 9.41528 5.0666C9.43999 5.07512 9.46282 5.08363 9.4869 5.09277C9.51223 5.10223 9.53788 5.11232 9.56258 5.12335C9.5801 5.13092 9.59667 5.13912 9.61356 5.147L9.6292 5.15457C9.6539 5.16718 9.67799 5.17979 9.70176 5.19272C9.72333 5.2047 9.7446 5.21762 9.76618 5.23087C9.7887 5.24474 9.8109 5.25893 9.83405 5.27532C9.85437 5.28856 9.87439 5.30307 9.89878 5.3223C9.91755 5.3368 9.93663 5.35099 9.95664 5.36864C9.97603 5.38409 9.99448 5.40049 10.0186 5.42319C10.0355 5.43864 10.053 5.45472 10.0692 5.47174C10.0874 5.49003 10.1055 5.50926 10.1227 5.52881C10.1396 5.5471 10.1565 5.5657 10.1731 5.58714C10.1881 5.60479 10.2021 5.62308 10.2162 5.64168L10.2209 5.64767L10.2653 5.70978C10.28 5.73185 10.2947 5.75518 10.3088 5.7782L10.3463 5.84062L10.3835 5.91377C10.3882 5.92449 10.3932 5.93521 10.3986 5.94593C10.4042 5.95791 10.4098 5.96989 10.4151 5.98219C10.4261 6.00772 10.4361 6.03358 10.4464 6.0629C10.4555 6.08528 10.463 6.10767 10.4711 6.13226C10.4783 6.15212 10.4836 6.17199 10.4889 6.19217L10.4946 6.21297C10.5008 6.23693 10.5068 6.25963 10.5124 6.28391C10.5168 6.30409 10.5202 6.32458 10.5236 6.34476L10.5283 6.37125C10.5327 6.39489 10.5358 6.41822 10.5387 6.4425C10.5415 6.46646 10.5434 6.49074 10.5459 6.51565L10.5474 6.53236C10.549 6.55947 10.5502 6.58627 10.5502 6.6137V6.66761C10.5365 7.5482 9.8428 8.26295 8.97337 8.2951H8.6331C8.21903 8.2951 7.98604 8.09522 7.73897 7.88366C7.4969 7.6762 7.24671 7.46181 6.82575 7.46181C6.29752 7.46181 5.86781 7.89501 5.86781 8.42784C5.86781 8.96035 6.29752 9.39324 6.82575 9.39324C7.24671 9.39324 7.4969 9.17884 7.73897 8.97139C7.98572 8.75983 8.21903 8.56026 8.6331 8.56026H8.97118C9.85813 8.59273 10.553 9.31914 10.553 10.2142C10.553 11.1093 9.85844 11.8357 8.974 11.8682H8.6331C8.21903 11.8682 7.98604 11.6683 7.73897 11.4568C7.4969 11.2493 7.24671 11.0349 6.82575 11.0349C6.29752 11.0349 5.86781 11.4678 5.86781 12.0003C5.86781 12.5328 6.29752 12.966 6.82575 12.966C7.24671 12.966 7.4969 12.7516 7.73897 12.5442C7.98572 12.3326 8.21903 12.133 8.6331 12.133H8.97118C9.85844 12.1655 10.5534 12.8923 10.5534 13.7877C10.5534 14.6824 9.85875 15.4088 8.97431 15.4413H8.6331C8.21903 15.4413 7.98604 15.2414 7.73897 15.0299C7.4969 14.8224 7.24671 14.608 6.82575 14.608C6.29752 14.608 5.86781 15.0412 5.86781 15.5734C5.86781 16.1056 6.29752 16.5388 6.82575 16.5388C7.24671 16.5388 7.4969 16.3244 7.73897 16.117C7.98572 15.9054 8.21903 15.7055 8.6331 15.7055H8.97118C9.84343 15.738 10.5374 16.4534 10.5512 17.3327V17.3872C10.5512 17.4131 10.5499 17.4383 10.5484 17.4617C10.5484 17.4617 10.5421 17.5367 10.5396 17.5594C10.5368 17.5805 10.534 17.6004 10.5308 17.6206C10.5252 17.6549 10.5196 17.6887 10.5124 17.7205C10.5077 17.7385 10.503 17.7564 10.4993 17.7728C10.4899 17.8078 10.4808 17.8419 10.4661 17.8822C10.4627 17.8958 10.458 17.9087 10.4536 17.9207C10.4401 17.9573 10.4267 17.9932 10.4126 18.0263L10.3951 18.0632C10.3782 18.0988 10.3604 18.1345 10.3416 18.1682L10.3235 18.1982C10.3029 18.2338 10.281 18.2688 10.2581 18.3022L10.2409 18.3258C10.2159 18.3608 10.189 18.3949 10.1634 18.4261L10.1462 18.4453C10.1174 18.4791 10.0871 18.5115 10.0586 18.5406L10.0414 18.556C10.0092 18.5869 9.97509 18.6169 9.941 18.6449L9.92599 18.6569C9.89003 18.6859 9.85344 18.7124 9.81716 18.7373L9.80215 18.7467C9.75993 18.7748 9.72083 18.7985 9.68174 18.8189L9.67111 18.8249C9.62169 18.8505 9.58041 18.8697 9.54069 18.8861L9.52975 18.8908C9.48408 18.9094 9.43811 18.9258 9.39652 18.9391L9.38088 18.9432C9.34053 18.9564 9.2955 18.9678 9.23858 18.9794L9.22888 18.9816C9.17884 18.9914 9.12912 18.9987 9.08408 19.0043L9.06938 19.005C9.0134 19.0103 8.96149 19.0128 8.91114 19.0128L8.84859 19.0135H8.63373C8.21966 19.0135 7.98666 18.8139 7.73959 18.6023C7.49753 18.3949 7.24733 18.1805 6.82638 18.1805C6.29815 18.1805 5.86844 18.6134 5.86844 19.1456C5.86844 19.6781 6.29815 20.111 6.82638 20.111C7.24733 20.111 7.49753 19.8966 7.73959 19.6891C7.98635 19.4776 8.21966 19.2777 8.63373 19.2777H8.93522C8.96305 19.2783 8.99182 19.2799 9.02278 19.2827C9.05062 19.2843 9.07845 19.2862 9.10816 19.29C9.1335 19.2925 9.15758 19.2966 9.18229 19.301C9.20949 19.3057 9.23733 19.3105 9.26516 19.3165C9.28424 19.3206 9.30332 19.3256 9.32271 19.3307L9.33834 19.3348C9.3643 19.342 9.39151 19.3496 9.4181 19.3581C9.43154 19.3625 9.44437 19.3672 9.45719 19.372L9.4869 19.3824L9.56446 19.4139C9.58729 19.4237 9.6095 19.4347 9.63139 19.4457C9.65641 19.4583 9.6808 19.471 9.70301 19.4826C9.72427 19.4946 9.74585 19.5075 9.76868 19.523C9.79057 19.5362 9.81215 19.5495 9.83561 19.5662C9.85688 19.5797 9.87689 19.5949 9.89785 19.6113C9.91849 19.6261 9.93819 19.6415 9.95758 19.6579C9.9776 19.6749 9.9973 19.6923 10.0164 19.7096L10.0245 19.7172C10.0408 19.7323 10.057 19.7471 10.0711 19.7613C10.0852 19.7761 10.0993 19.7913 10.1133 19.8067L10.1393 19.8351C10.1509 19.848 10.1627 19.8616 10.1749 19.8767C10.1925 19.8978 10.2093 19.9199 10.2247 19.9404L10.2672 19.9987L10.3041 20.058C10.3041 20.058 10.3373 20.1132 10.3482 20.1308C10.3616 20.1567 10.3745 20.1829 10.3873 20.2093L10.392 20.2191C10.4004 20.2361 10.4092 20.2541 10.417 20.2733C10.4264 20.2945 10.4348 20.3162 10.4433 20.338L10.4495 20.3541C10.4573 20.3761 10.4649 20.3976 10.473 20.4231C10.4817 20.4461 10.4874 20.4682 10.4933 20.4912L10.4974 20.506C10.5036 20.529 10.5096 20.5517 10.5149 20.5741C10.5196 20.5956 10.523 20.6173 10.5268 20.6394L10.5308 20.6646C10.5352 20.6873 10.5383 20.7106 10.5408 20.7327C10.543 20.7542 10.5496 20.8235 10.5496 20.8235C10.5512 20.8506 10.5524 20.8777 10.5524 20.9045V21.2126C10.5524 21.63 10.3545 21.8649 10.1449 22.114C9.93944 22.358 9.72677 22.6102 9.72677 23.0349C9.72677 23.5671 10.1565 24 10.6844 24C11.2123 24 11.642 23.5671 11.642 23.0349C11.642 22.6102 11.429 22.3577 11.2233 22.1137C11.0134 21.8649 10.8151 21.6297 10.8151 21.2126V20.995H10.8158V20.932C10.8158 20.8803 10.8195 20.8276 10.8229 20.7781L10.8251 20.7614C10.8292 20.7154 10.8361 20.6671 10.8464 20.6142L10.8489 20.6016C10.8573 20.5587 10.8689 20.513 10.8855 20.4562L10.8877 20.4471C10.9021 20.4007 10.9186 20.3547 10.9393 20.3049L10.9415 20.2973C10.9577 20.2579 10.9771 20.2163 11.0006 20.1696L11.0084 20.1561C11.0312 20.1138 11.0547 20.0731 11.08 20.0334L11.0891 20.0192C11.1116 19.9846 11.1376 19.9483 11.1713 19.9054L11.1785 19.8947C11.2079 19.8597 11.2386 19.825 11.2689 19.7916L11.283 19.7768C11.314 19.7459 11.3462 19.7153 11.3781 19.6866L11.3968 19.6699C11.4294 19.6422 11.4625 19.616 11.4966 19.5914L11.5204 19.5741C11.5538 19.5507 11.5879 19.5287 11.6233 19.5075L11.653 19.4899C11.6877 19.4706 11.7221 19.4533 11.7565 19.4363L11.795 19.418C11.8281 19.4029 11.8628 19.3896 11.895 19.3773C11.9047 19.3742 11.9438 19.3603 11.9438 19.3603C11.9763 19.3493 12.0095 19.3398 12.0414 19.3316L12.0971 19.3171C12.1293 19.3098 12.1618 19.3045 12.1959 19.2991C12.2156 19.2957 12.2375 19.2922 12.2584 19.2897C12.286 19.2865 12.3138 19.2846 12.3416 19.2824L12.3504 19.2818C12.3785 19.2799 12.4051 19.278 12.4323 19.2777H12.7341C13.1479 19.2777 13.3809 19.4773 13.6276 19.6888C13.8697 19.8963 14.1202 20.111 14.5415 20.111C15.0694 20.111 15.4991 19.6778 15.4991 19.1456C15.4979 18.6137 15.0685 18.1808 14.5402 18.1808Z" fill="url(#paint2_linear_140_953)"/>
<defs>
<linearGradient id="paint0_linear_140_953" x1="-0.530573" y1="21.4928" x2="13.7779" y2="-2.67418" gradientUnits="userSpaceOnUse">
<stop stop-color="#00A563"/>
<stop offset="0.1342" stop-color="#009D7F"/>
<stop offset="0.2768" stop-color="#009593"/>
<stop offset="0.4215" stop-color="#008EA3"/>
<stop offset="0.5661" stop-color="#0088AE"/>
<stop offset="0.7106" stop-color="#0084B5"/>
<stop offset="0.8551" stop-color="#0082BA"/>
<stop offset="1" stop-color="#0081BB"/>
</linearGradient>
<linearGradient id="paint1_linear_140_953" x1="7.92223" y1="26.495" x2="22.2307" y2="2.32805" gradientUnits="userSpaceOnUse">
<stop stop-color="#00A563"/>
<stop offset="0.1342" stop-color="#009D7F"/>
<stop offset="0.2768" stop-color="#009593"/>
<stop offset="0.4215" stop-color="#008EA3"/>
<stop offset="0.5661" stop-color="#0088AE"/>
<stop offset="0.7106" stop-color="#0084B5"/>
<stop offset="0.8551" stop-color="#0082BA"/>
<stop offset="1" stop-color="#0081BB"/>
</linearGradient>
<linearGradient id="paint2_linear_140_953" x1="3.69528" y1="23.9947" x2="18.0038" y2="-0.17228" gradientUnits="userSpaceOnUse">
<stop stop-color="#00A563"/>
<stop offset="0.1342" stop-color="#009D7F"/>
<stop offset="0.2768" stop-color="#009593"/>
<stop offset="0.4215" stop-color="#008EA3"/>
<stop offset="0.5661" stop-color="#0088AE"/>
<stop offset="0.7106" stop-color="#0084B5"/>
<stop offset="0.8551" stop-color="#0082BA"/>
<stop offset="1" stop-color="#0081BB"/>
</linearGradient>
</defs>
</svg>
