<svg width="122" height="137" viewBox="0 0 122 137" fill="none" xmlns="http://www.w3.org/2000/svg">
<g filter="url(#filter0_b_97_3177)">
<path d="M28.6311 110.955V109.717H28.6329V109.357C28.6329 109.067 28.6492 108.765 28.6799 108.439L28.6818 108.387C28.7107 108.101 28.7541 107.816 28.8102 107.55L28.8283 107.469C28.8808 107.195 28.946 106.927 29.0238 106.663L29.0491 106.587C29.1233 106.351 29.2174 106.092 29.3459 105.777L29.3586 105.734C29.4672 105.475 29.5848 105.226 29.7187 104.976L29.7459 104.919C29.8617 104.703 29.9974 104.476 30.1657 104.219L30.2109 104.147C30.334 103.956 30.4824 103.752 30.6652 103.52L30.743 103.43C30.9258 103.204 31.0868 103.018 31.2678 102.836L31.3366 102.759C31.4958 102.593 31.675 102.431 31.8994 102.235L31.9917 102.152C32.1527 102.014 32.3301 101.882 32.502 101.753L32.7065 101.604C32.9001 101.469 33.1046 101.341 33.3037 101.224L33.481 101.121C33.6729 101.011 33.8774 100.911 34.0801 100.813L34.29 100.716C34.4872 100.63 34.6881 100.552 34.8908 100.477L35.1442 100.387C35.345 100.326 35.5441 100.266 35.7341 100.216L35.8554 100.185C35.9169 100.169 35.9784 100.153 36.0562 100.139C36.239 100.097 36.4218 100.063 36.5973 100.034L36.7566 100.011C36.8308 100 36.9032 99.9892 36.9792 99.9802C37.1583 99.9604 37.3357 99.9442 37.5076 99.9352L37.6433 99.9262C37.761 99.919 37.875 99.9118 37.9818 99.91H39.7317C42.1296 99.91 43.4796 101.051 44.9074 102.259C46.3063 103.443 47.7541 104.667 50.1899 104.667C53.2447 104.667 55.7312 102.194 55.7312 99.1541C55.7312 96.1143 53.2447 93.6433 50.1899 93.6433C47.7541 93.6433 46.3063 94.8671 44.9074 96.0513C43.4796 97.2589 42.1296 98.4 39.7317 98.4H38.1265C37.8768 98.4 37.6108 98.3874 37.2633 98.3568L37.1276 98.3442C36.8706 98.3172 36.6082 98.2776 36.3585 98.229L36.192 98.1984C35.9531 98.1498 35.7178 98.0886 35.4916 98.0238L35.2962 97.9681C35.0772 97.8979 34.8655 97.8205 34.6555 97.7395L34.4275 97.6495C34.2321 97.5667 34.0457 97.4767 33.8557 97.3813C33.8557 97.3813 33.6656 97.2877 33.6023 97.2535C33.4412 97.1654 33.2856 97.07 33.0974 96.953C33.0051 96.8972 32.9182 96.845 32.8241 96.7784C32.683 96.683 32.5364 96.5823 32.3989 96.4707L32.2812 96.3825C32.2215 96.3375 32.16 96.2925 32.1021 96.2421C31.9772 96.1359 31.8505 96.0279 31.7329 95.9217L31.4162 95.6248C31.3149 95.5276 31.2244 95.425 31.1248 95.3098C31.0163 95.1946 30.9131 95.0813 30.8081 94.9553C30.743 94.8815 30.6815 94.8005 30.6217 94.7213L30.4661 94.5125C30.3992 94.4208 30.3304 94.329 30.2707 94.2462C30.2091 94.1472 30.1458 94.0482 30.0843 93.9564L30.0336 93.8844C29.9485 93.7441 29.8635 93.6055 29.782 93.4579C29.7459 93.3949 29.7133 93.3301 29.6807 93.2671L29.6499 93.2059C29.5558 93.0206 29.469 92.8388 29.3912 92.648L29.2952 92.4122C29.2102 92.2017 29.1306 91.9893 29.0654 91.7985L29.0111 91.5807C28.9387 91.3486 28.8808 91.1128 28.832 90.9005L28.8048 90.7241C28.7523 90.4703 28.7107 90.2166 28.6836 89.9664L28.6763 89.8368C28.6474 89.5254 28.6329 89.2411 28.6329 88.9639C28.6329 83.8545 32.654 79.7042 37.7736 79.5207H39.7317C42.1296 79.5207 43.4796 80.6617 44.9074 81.8693C46.3063 83.0518 47.7541 84.2756 50.1899 84.2756C53.2447 84.2756 55.7312 81.8027 55.7312 78.7648C55.7312 75.7268 53.2447 73.2558 50.1899 73.2558C47.7541 73.2558 46.3063 74.4796 44.9074 75.6638C43.4796 76.8714 42.1296 78.0125 39.7317 78.0125H37.7863C32.654 77.8271 28.6329 73.6805 28.6329 68.5692C28.6329 63.4598 32.654 59.3131 37.7736 59.1278H39.7317C42.1296 59.1278 43.4796 60.2688 44.9074 61.4764C46.3063 62.6607 47.7541 63.8827 50.1899 63.8827C53.2447 63.8827 55.7312 61.4098 55.7312 58.3719C55.7312 55.3339 53.2447 52.8611 50.1899 52.8611C47.7541 52.8611 46.3063 54.0849 44.9056 55.2691C43.4778 56.4767 42.1277 57.6178 39.7299 57.6178H37.7863C32.654 57.4324 28.6329 53.284 28.6329 48.1745C28.6329 47.8974 28.6474 47.6076 28.6781 47.2801L28.6818 47.1937C28.7107 46.9201 28.7541 46.6447 28.8139 46.3622L28.8283 46.2794C28.8808 46.0166 28.946 45.7539 29.031 45.4677L29.0491 45.3993C29.1342 45.1384 29.2283 44.8774 29.3296 44.629L29.3676 44.539C29.4726 44.2745 29.5993 44.0207 29.7042 43.8155L29.7495 43.7346C29.8798 43.4844 30.0318 43.2414 30.1621 43.0417L30.2091 42.9715C30.3539 42.7555 30.5077 42.5431 30.6778 42.329L30.743 42.2498C30.9095 42.0428 31.0832 41.8448 31.2624 41.6594L31.3384 41.5803C31.5157 41.3913 31.7202 41.2095 31.9012 41.0529L31.9935 40.9719C32.198 40.792 32.4296 40.6228 32.5925 40.5076L32.7029 40.4266C32.8965 40.2916 33.1028 40.1657 33.32 40.0343L33.4702 39.9479C33.6693 39.8345 33.8828 39.7319 34.1036 39.6257L34.2809 39.5394C34.4872 39.4494 34.6972 39.3684 34.9179 39.291L35.1333 39.2118C35.345 39.1434 35.5477 39.0858 35.754 39.0336L35.8572 39.0066C35.9151 38.9904 35.9748 38.976 36.04 38.9616C36.2372 38.9184 36.4327 38.8824 36.6299 38.8518C36.7457 38.8338 36.8634 38.8177 36.9774 38.8015C37.1601 38.7781 37.3484 38.7655 37.5384 38.7529C37.6813 38.7421 37.8225 38.7331 37.9673 38.7313H39.7317C42.1296 38.7313 43.4796 39.8723 44.9074 41.0799C46.3063 42.2642 47.7541 43.4862 50.1899 43.4862C53.2447 43.4862 55.7312 41.0151 55.7312 37.9772C55.7312 34.9392 53.2447 32.4682 50.1899 32.4682C47.7541 32.4682 46.3063 33.692 44.9074 34.8744C43.4796 36.082 42.1296 37.2231 39.7317 37.2231H38.4866V37.2177H38.1247C37.846 37.2177 37.5637 37.2033 37.238 37.1745L37.133 37.1655C36.8688 37.1385 36.5991 37.0971 36.3476 37.0503L36.1992 37.0197C35.9802 36.9765 35.7576 36.9207 35.4681 36.8361L35.2962 36.7875C35.0736 36.7174 34.8564 36.64 34.6429 36.5518L34.4221 36.4636C34.223 36.3826 34.0312 36.2872 33.8484 36.1972L33.5933 36.064C33.4431 35.9867 33.3019 35.8985 33.1625 35.8103L33.0793 35.7581C32.9834 35.7059 32.902 35.6555 32.8223 35.6015C32.6757 35.4989 32.5237 35.3873 32.3844 35.283L32.2468 35.1786C32.1944 35.139 32.1401 35.0994 32.0948 35.0616C31.9863 34.9698 31.8759 34.8726 31.7673 34.7754L31.7202 34.734C31.6171 34.6386 31.5175 34.5451 31.4126 34.4425C31.3402 34.3741 31.275 34.3039 31.2117 34.2337L31.1085 34.1239C31.0054 34.0123 30.9022 33.8954 30.8045 33.782C30.7502 33.7172 30.6996 33.6488 30.6471 33.5822L30.5548 33.4634C30.4498 33.332 30.3539 33.1971 30.2616 33.0603C30.2236 33.0045 30.0698 32.7615 30.0698 32.7615C29.9703 32.6049 29.8725 32.4484 29.7802 32.2792C29.744 32.218 29.7151 32.1568 29.6843 32.0956L29.6427 32.0128C29.5522 31.8328 29.4635 31.6475 29.3857 31.4675L29.2862 31.2281C29.2084 31.023 29.1306 30.816 29.0654 30.6072L29.0021 30.3876C28.9351 30.1627 28.8772 29.9341 28.8302 29.7145L28.7976 29.5274C28.7433 29.2646 28.7053 29.0126 28.6854 28.7841L28.6727 28.6347C28.6438 28.3269 28.6293 28.0462 28.6293 27.7816L28.6275 26.1816C28.6275 23.7988 29.773 22.458 30.9873 21.0362C32.1781 19.6432 33.4087 18.2016 33.4087 15.7773C33.4087 12.7394 30.9221 10.2683 27.8656 10.2683C24.8108 10.2683 22.3279 12.7394 22.3279 15.7773C22.3279 18.2016 23.5585 19.6432 24.7511 21.0362C25.9654 22.4562 27.1128 23.7988 27.1128 26.1798V27.9022L27.0874 28.3827L27.0766 28.5267C27.0657 28.6545 27.0567 28.7823 27.0404 28.9173C27.0277 29.0342 27.0078 29.1512 26.977 29.2898C26.9499 29.4752 26.9173 29.6606 26.8793 29.8423C26.8594 29.9413 26.8323 30.0385 26.7961 30.1537L26.7725 30.2437C26.7309 30.4056 26.6893 30.5658 26.6296 30.735C26.6097 30.798 26.5879 30.8538 26.5662 30.9132L26.4703 31.1669C26.416 31.3073 26.3635 31.4477 26.302 31.5827L26.2079 31.7879L26.1247 31.9498C26.0468 32.101 25.9708 32.2504 25.8948 32.3854L25.7826 32.5689C25.6668 32.7723 25.5383 32.9739 25.4116 33.1557L25.3194 33.2816L25.2053 33.4292C25.0895 33.5804 24.9755 33.7298 24.8525 33.8738L24.771 33.9691C24.6027 34.1617 24.4254 34.3489 24.2426 34.5253L24.163 34.6009C23.9711 34.7844 23.7757 34.9536 23.5621 35.1264L23.506 35.1732C23.2907 35.3369 23.0699 35.5007 22.8437 35.6483L22.7767 35.6915C22.5035 35.8697 22.2845 35.9993 22.0746 36.1072L22.0131 36.1378C21.7253 36.2872 21.4828 36.3988 21.2602 36.4906L21.1933 36.5158C20.911 36.6328 20.6504 36.7246 20.3952 36.8001L20.3427 36.8163C20.0622 36.8991 19.7817 36.9711 19.5121 37.0251L19.4487 37.0377C19.1519 37.0971 18.8696 37.1385 18.5891 37.1637L18.5204 37.1691C18.2091 37.1997 17.9032 37.2141 17.6137 37.2141L17.2518 37.2195H16.0067C13.6125 37.2195 12.2643 36.0802 10.8346 34.8726C9.43391 33.6884 7.98435 32.4646 5.5467 32.4646C2.49194 32.4646 0.009049 34.9356 0.009049 37.9736C0.009049 41.0115 2.49375 43.4826 5.5467 43.4826C7.98435 43.4826 9.43391 42.2588 10.8346 41.0745C12.2625 39.8669 13.6125 38.7277 16.0067 38.7277H17.7657C17.8833 38.7313 18.01 38.7385 18.1331 38.7457L18.2362 38.7511C18.4063 38.7619 18.5801 38.7745 18.7592 38.7997C18.8932 38.8141 19.009 38.8321 19.1646 38.8572C19.3347 38.886 19.5084 38.9148 19.6804 38.9544C19.7709 38.9724 19.8559 38.994 19.9428 39.0174L20.0604 39.048C20.2269 39.093 20.3898 39.138 20.5581 39.1956C20.6866 39.2352 20.8132 39.282 20.9327 39.327C21.0919 39.3864 21.2494 39.444 21.4014 39.5124C21.4846 39.5483 21.5643 39.5861 21.6475 39.6257L21.776 39.6869C21.9063 39.7463 22.0293 39.8129 22.1524 39.8777L22.1994 39.9029L22.5542 40.1081L22.6211 40.1513C22.7369 40.2251 22.8564 40.3006 22.9668 40.3744C23.0319 40.4176 23.0952 40.4644 23.1586 40.5112L23.2997 40.6138C23.4282 40.711 23.5567 40.8118 23.6707 40.9018L23.9929 41.1861C24.1069 41.2887 24.2191 41.3967 24.324 41.5011C24.4236 41.6037 24.5231 41.7062 24.6244 41.8178L24.6606 41.8574C24.7511 41.9546 24.8398 42.05 24.9267 42.158C25.0171 42.2678 25.104 42.3829 25.1999 42.5125C25.2958 42.6313 25.3809 42.7465 25.4569 42.8527C25.5401 42.9823 25.6234 43.1136 25.703 43.236C25.779 43.3638 25.855 43.488 25.9292 43.6212C26.0016 43.749 26.0704 43.8839 26.1391 44.0297C26.2043 44.1557 26.2676 44.2853 26.3292 44.4293C26.3907 44.566 26.4486 44.71 26.4993 44.8378L26.5626 45.0142C26.5916 45.0934 26.6205 45.1743 26.6495 45.2679C26.6875 45.3759 26.7164 45.4857 26.7454 45.5973L26.778 45.7179C26.8196 45.8619 26.854 46.0004 26.8884 46.148C26.9101 46.2362 26.9264 46.3244 26.9426 46.4144C26.9553 46.4846 26.968 46.553 26.9788 46.5998C26.9897 46.6789 27.0494 47.0371 27.0494 47.0371C27.0494 47.0371 27.0784 47.4186 27.0874 47.5248L27.1128 48.0323V48.3095C27.0404 53.3434 23.0247 57.4306 17.9829 57.616H16.0031C13.6089 57.616 12.2606 56.4749 10.831 55.2673C9.43029 54.0831 7.98073 52.8575 5.54127 52.8575C2.48651 52.8575 0.00362015 55.3303 0.00362015 58.3683C0.00362015 61.4062 2.48832 63.8791 5.54127 63.8791C7.97892 63.8791 9.42848 62.6553 10.8292 61.471C12.257 60.2652 13.607 59.1242 16.0013 59.1242H17.9612C23.0916 59.3095 27.1109 63.4562 27.1109 68.5656C27.1109 73.6715 23.0934 77.8199 17.9793 78.0089H15.9995C13.6052 78.0089 12.257 76.8697 10.8274 75.662C9.42667 74.4778 7.97711 73.254 5.53946 73.254C2.4847 73.254 0.00181146 75.725 0.00181146 78.763C0.00181146 81.8009 2.48651 84.2738 5.53946 84.2738C7.97711 84.2738 9.42667 83.05 10.8274 81.8657C12.2552 80.6599 13.6052 79.5189 15.9995 79.5189H17.9594C23.003 79.7042 27.0223 83.7861 27.1073 88.8055V89.1007L27.082 89.547L27.0711 89.7018C27.0603 89.8368 27.0512 89.9736 27.0349 90.1104C27.0241 90.2166 27.0042 90.3191 26.977 90.4595C26.9499 90.6521 26.9119 90.8429 26.8685 91.039C26.8467 91.1308 26.8268 91.2208 26.7924 91.3324C26.7454 91.5286 26.6929 91.7283 26.6296 91.9137L26.5427 92.1585L26.4866 92.3007C26.4251 92.4608 26.3635 92.6192 26.3002 92.7632L26.1971 92.9738C26.0975 93.1843 25.9907 93.3877 25.8876 93.5767L25.7844 93.7477C25.6632 93.9564 25.5329 94.1562 25.4062 94.3398L25.2669 94.5269C25.1275 94.7087 24.9954 94.8851 24.8525 95.0507L24.7547 95.1586C24.5991 95.3386 24.4254 95.5258 24.2408 95.704L24.1467 95.7904C23.9476 95.9829 23.7576 96.1503 23.5549 96.3069L23.4879 96.3627C23.2762 96.5283 23.0572 96.6866 22.8365 96.8342L22.7695 96.8792C22.5415 97.0232 22.308 97.1618 22.0746 97.2859L21.995 97.3237C21.747 97.4515 21.5027 97.5667 21.2439 97.6765L21.1878 97.7017C20.9236 97.8043 20.6612 97.8979 20.3988 97.9789L20.3192 98.0023C20.0441 98.085 19.7799 98.1516 19.5103 98.2038L19.4252 98.22C19.1519 98.274 18.8769 98.3154 18.5946 98.3442L18.495 98.3514C18.1638 98.3838 17.8707 98.3982 17.6028 98.3982H15.9976C13.6034 98.3982 12.2552 97.2589 10.8256 96.0513C9.42486 94.8671 7.9753 93.6415 5.53765 93.6415C2.48289 93.6415 0 96.1143 0 99.1523C0 102.192 2.4847 104.665 5.53765 104.665C7.9753 104.665 9.42486 103.439 10.8256 102.255C12.2534 101.047 13.6034 99.9082 15.9976 99.9082H17.744C17.8417 99.91 17.9431 99.9172 18.0444 99.9226L18.2489 99.9334C18.4082 99.9442 18.5783 99.9586 18.7321 99.9748C18.8316 99.9874 18.9275 100.002 19.0271 100.018L19.1682 100.04L19.3383 100.072C19.4415 100.09 19.5446 100.11 19.6568 100.135C19.8034 100.164 19.9392 100.202 20.0749 100.238L20.2142 100.275C20.3228 100.306 20.4296 100.335 20.5291 100.367C20.6703 100.414 20.8078 100.464 20.9526 100.52C21.0974 100.572 21.2403 100.63 21.3815 100.693C21.5172 100.75 21.6457 100.81 21.785 100.88C21.9208 100.943 22.0547 101.011 22.1868 101.085C22.3135 101.155 22.4401 101.231 22.5632 101.307L22.6247 101.344C22.7333 101.411 22.8437 101.478 22.9523 101.551C23.0518 101.618 23.1459 101.688 23.2455 101.762L23.3142 101.814C23.43 101.897 23.5459 101.985 23.6563 102.08C23.7757 102.179 23.8861 102.278 23.9947 102.376L24.058 102.433C24.1449 102.514 24.2335 102.593 24.3168 102.678C24.4199 102.782 24.5267 102.894 24.6317 103.011C24.7294 103.115 24.8253 103.222 24.9122 103.329C25.0099 103.448 25.1076 103.569 25.2017 103.695C25.2886 103.808 25.3736 103.92 25.4515 104.035C25.5184 104.136 25.5818 104.24 25.6469 104.345L25.703 104.436C25.7772 104.553 25.8496 104.668 25.9202 104.803C25.9962 104.935 26.0686 105.07 26.1391 105.219C26.2043 105.347 26.264 105.471 26.3201 105.594C26.3835 105.739 26.4414 105.892 26.4957 106.036L26.5499 106.186C26.5789 106.265 26.6097 106.346 26.6404 106.448C26.6929 106.596 26.7345 106.745 26.7743 106.922C26.8123 107.051 26.8467 107.179 26.8775 107.332C26.9046 107.437 26.9227 107.541 26.9408 107.647L26.9716 107.818C26.9933 107.953 27.015 108.09 27.0331 108.227C27.0494 108.353 27.0585 108.479 27.0693 108.605L27.0802 108.729L27.1055 109.198V110.953C27.1055 113.336 25.9582 114.679 24.7439 116.099C23.5531 117.492 22.3225 118.931 22.3225 121.356C22.3225 124.395 24.8072 126.87 27.8602 126.87C30.9167 126.87 33.4032 124.397 33.4032 121.356C33.4032 118.931 32.1726 117.492 30.9819 116.099C29.7766 114.68 28.6311 113.338 28.6311 110.955Z" fill="white" fill-opacity="0.2"/>
<path d="M103.542 59.1266H105.497C107.889 59.1266 109.238 60.2659 110.665 61.4735C112.066 62.6577 113.516 63.8834 115.955 63.8834C119.012 63.8834 121.498 61.4105 121.498 58.3725C121.498 55.3346 119.012 52.8617 115.955 52.8617C113.516 52.8617 112.068 54.0874 110.665 55.2716C109.238 56.4792 107.889 57.6185 105.497 57.6185H103.55C98.4174 57.4331 94.3963 53.2847 94.3963 48.1752C94.3963 47.835 94.4089 47.5489 94.4343 47.2933L94.4488 47.1979C94.4741 46.8902 94.5266 46.5968 94.5682 46.3736L94.5899 46.2873C94.6442 46.0011 94.713 45.7239 94.789 45.4756L94.8143 45.4036C94.8849 45.1714 94.9718 44.9249 95.0966 44.6117L95.1202 44.5559C95.2197 44.3165 95.3373 44.0682 95.4875 43.7838L95.5038 43.746C95.6323 43.5085 95.7771 43.2691 95.9345 43.0261L95.9653 42.9775C96.1209 42.7418 96.2838 42.5204 96.4539 42.308L96.4901 42.2576C96.6566 42.0525 96.8321 41.8563 97.0312 41.6493L97.0891 41.5863C97.2592 41.41 97.451 41.2318 97.6555 41.0572L97.7533 40.9744C97.9559 40.798 98.1496 40.6487 98.3559 40.5083L98.4681 40.4255C98.6653 40.2851 98.8716 40.1573 99.0743 40.0368L99.2336 39.9468C99.4326 39.8316 99.6426 39.729 99.8615 39.6264L100.043 39.5382C100.247 39.4482 100.461 39.369 100.665 39.2935L100.911 39.2089C101.105 39.1423 101.309 39.0865 101.51 39.0343L101.637 39.0019C101.689 38.9875 101.742 38.9749 101.8 38.9623C101.997 38.9191 102.194 38.8831 102.382 38.8525L102.739 38.8003C102.92 38.7769 103.104 38.7643 103.3 38.7517C103.443 38.7409 103.59 38.7319 103.732 38.7301H105.497C107.889 38.7301 109.238 39.8694 110.665 41.077C112.066 42.2612 113.516 43.4869 115.955 43.4869C119.012 43.4869 121.498 41.0158 121.498 37.9778C121.498 34.9399 119.012 32.4688 115.955 32.4688C113.516 32.4688 112.068 33.6927 110.667 34.8769C109.239 36.0827 107.891 37.2219 105.499 37.2219H104.246V37.2166H103.884C103.611 37.2166 103.323 37.2022 103.005 37.1734L102.902 37.1644C102.634 37.1374 102.368 37.096 102.113 37.0492L101.963 37.0204C101.742 36.9754 101.508 36.916 101.237 36.835L101.065 36.7882C100.844 36.718 100.631 36.6406 100.413 36.5524L100.193 36.4661C99.9936 36.3851 99.8036 36.2933 99.619 36.1997L99.3657 36.0683C99.2336 35.9999 99.1069 35.9207 98.9784 35.8433L98.5929 35.604C98.4464 35.5014 98.2962 35.3934 98.1586 35.289L98.0917 35.2368C98.0175 35.1792 97.9415 35.1199 97.8564 35.0479C97.7551 34.9687 97.6573 34.8805 97.556 34.7923L97.3787 34.6303C97.3135 34.5709 97.2484 34.5133 97.185 34.4467C97.0981 34.3622 97.0203 34.274 96.9407 34.1876L96.8575 34.0976C96.7615 33.995 96.6656 33.8942 96.5751 33.7772C96.5245 33.7161 96.3182 33.4497 96.3182 33.4497C96.2186 33.3183 96.1191 33.1869 96.025 33.0519C95.9725 32.9764 95.9273 32.899 95.8802 32.8234L95.8495 32.773C95.7427 32.6056 95.6413 32.44 95.5563 32.2925L95.4206 32.0117C95.3174 31.8281 95.2305 31.6337 95.1563 31.461L95.0677 31.2378C94.9844 31.0254 94.9012 30.8077 94.8342 30.5971L94.7817 30.4153C94.7148 30.1742 94.6496 29.9312 94.599 29.7116L94.5736 29.5442C94.5157 29.2653 94.4759 29.0115 94.4524 28.7542L94.4397 28.6516C94.4126 28.3834 94.4017 28.0972 94.4017 27.7787L94.3981 27.4187V26.1787C94.3981 23.7959 95.5436 22.455 96.7561 21.0332C97.9469 19.6402 99.1757 18.1987 99.1757 15.7744C99.1757 12.7364 96.6892 10.2654 93.6344 10.2654C90.5797 10.2654 88.095 12.7364 88.095 15.7744C88.095 18.2005 89.3273 19.6402 90.5181 21.0332C91.7324 22.4532 92.8798 23.7959 92.8798 26.1769V27.9101L92.8761 27.9731C92.8689 28.099 92.8635 28.2232 92.849 28.3726C92.8418 28.5544 92.8273 28.738 92.8038 28.9233C92.7911 29.0313 92.773 29.1375 92.7458 29.2743C92.7241 29.4651 92.6843 29.6648 92.6463 29.8466L92.5739 30.131C92.5215 30.3397 92.4635 30.5377 92.402 30.7285L92.3151 30.966C92.2355 31.1766 92.1559 31.3854 92.0636 31.587L91.9713 31.7831C91.8736 31.9955 91.7632 32.2043 91.6637 32.3896L91.5659 32.5444C91.4374 32.7568 91.3071 32.9674 91.175 33.1581L91.09 33.2733C90.938 33.4803 90.7841 33.6801 90.6213 33.869L90.5362 33.9626C90.3534 34.1768 90.1797 34.3604 89.9969 34.5295L89.9336 34.5907C89.74 34.7761 89.5355 34.9507 89.3219 35.1252L89.2767 35.163C89.083 35.3142 88.8532 35.4888 88.5926 35.6508L88.5438 35.685C88.3266 35.8289 88.0895 35.9693 87.8452 36.1007L87.7837 36.1313C87.5538 36.2519 87.3023 36.3689 87.0236 36.4859L86.9657 36.5093C86.6942 36.6208 86.4264 36.7162 86.1622 36.7936L86.1097 36.8098C85.8184 36.8944 85.5451 36.9646 85.2845 37.0186L85.2085 37.0312C84.9262 37.087 84.6384 37.1302 84.3579 37.1572L84.291 37.1626C83.9689 37.1932 83.6721 37.2076 83.3843 37.2076L83.0224 37.213H81.7755C79.3795 37.213 78.0276 36.0719 76.598 34.8661C75.1973 33.6819 73.7477 32.4598 71.3119 32.4598C68.2535 32.4598 65.7634 34.9309 65.7634 37.9688C65.7634 41.0068 68.2517 43.4779 71.3119 43.4779C73.7477 43.4779 75.1955 42.254 76.598 41.0716C78.0276 39.864 79.3777 38.7229 81.7755 38.7229H83.5309C83.6522 38.7247 83.7716 38.7337 83.891 38.7391L83.9978 38.7445C84.1734 38.7553 84.3435 38.7679 84.519 38.7931C84.6565 38.8093 84.7959 38.8291 84.928 38.8507C85.0963 38.8795 85.2646 38.9101 85.4419 38.9479C85.5487 38.9677 85.6519 38.9947 85.7496 39.0217L85.8256 39.0415C85.9921 39.0865 86.1532 39.1315 86.3251 39.1891C86.4228 39.2197 86.5169 39.2539 86.611 39.2881L86.7123 39.3259C86.8644 39.3834 87.0164 39.441 87.1521 39.4986C87.1521 39.4986 87.4652 39.6444 87.5339 39.6786C87.6787 39.7488 87.8289 39.8262 87.9574 39.8928L88.0407 39.9414C88.1311 39.9954 88.2234 40.0493 88.3302 40.1177C88.4279 40.1735 88.5202 40.2329 88.6143 40.2959L88.7338 40.3733C88.8261 40.4327 88.9111 40.4975 88.998 40.5623L89.0668 40.6145C89.1916 40.7081 89.3183 40.8052 89.4359 40.8988C89.5427 40.987 89.6477 41.0788 89.7635 41.1886C89.8775 41.2858 89.9806 41.3848 90.0965 41.5035C90.1851 41.5863 90.2593 41.6673 90.3353 41.7519L90.3951 41.8185C90.4982 41.9247 90.5977 42.0309 90.6882 42.1425C90.7461 42.2126 90.8022 42.2864 90.8583 42.3602L91.0393 42.5978C91.1008 42.6806 91.1624 42.7616 91.2203 42.8497C91.3071 42.9775 91.3904 43.1071 91.47 43.2367L91.5695 43.4005C91.6112 43.4689 91.6546 43.5373 91.6926 43.6074C91.7505 43.71 91.803 43.8144 91.8591 43.9224L91.9098 44.0196C91.9677 44.1528 92.0292 44.2841 92.0871 44.4011C92.1487 44.5505 92.2066 44.7017 92.2735 44.8799C92.326 45.0004 92.3694 45.1228 92.4111 45.2488C92.4617 45.4036 92.5052 45.5602 92.5468 45.7293L92.5631 45.7869C92.5938 45.8967 92.6246 46.0065 92.6481 46.1235C92.6843 46.2927 92.7187 46.4654 92.7458 46.613L92.773 46.802C92.7857 46.8794 92.7965 46.9568 92.8056 47.0378C92.8255 47.2069 92.8418 47.3725 92.8472 47.5525C92.8472 47.5525 92.8707 47.9034 92.878 48.015V48.3192C92.7947 53.3459 88.7754 57.4295 83.7426 57.613H81.7755C79.3795 57.613 78.0276 56.472 76.598 55.2644C75.1973 54.0802 73.7477 52.8563 71.3119 52.8563C68.2535 52.8563 65.7634 55.3292 65.7634 58.3671C65.7634 61.4051 68.2517 63.878 71.3119 63.878C73.7477 63.878 75.1955 62.6541 76.598 61.4717C78.0276 60.2641 79.3777 59.123 81.7755 59.123H83.73C88.8604 59.3084 92.878 63.455 92.878 68.5645C92.878 73.6704 88.8586 77.8188 83.7426 78.0078H81.7755C79.3795 78.0078 78.0276 76.8667 76.598 75.6591C75.1973 74.4749 73.7477 73.251 71.3119 73.251C68.2535 73.251 65.7634 75.7221 65.7634 78.76C65.7634 81.798 68.2517 84.2709 71.3119 84.2709C73.7477 84.2709 75.1955 83.047 76.598 81.8628C78.0276 80.6552 79.3777 79.5159 81.7755 79.5159H83.7282C88.7736 79.7013 92.7929 83.7813 92.8761 88.8026V89.096L92.8725 89.1554C92.8653 89.285 92.8599 89.4109 92.8436 89.5621C92.8363 89.7421 92.8219 89.9239 92.7983 90.1128C92.7875 90.2244 92.7676 90.3288 92.7422 90.4656C92.7205 90.66 92.6807 90.8507 92.6409 91.0361C92.6282 91.0973 92.5703 91.3259 92.5703 91.3259C92.5178 91.5292 92.4599 91.7308 92.3966 91.9216L92.3097 92.1591C92.2319 92.3715 92.1505 92.5749 92.0582 92.7801L91.9713 92.9726C91.8681 93.1868 91.7632 93.392 91.6564 93.5845L91.5623 93.7411C91.4338 93.9535 91.3053 94.1569 91.1642 94.3548L91.0864 94.47C90.9362 94.6698 90.7841 94.8678 90.6104 95.0639L90.529 95.1611C90.3643 95.3555 90.1869 95.5409 90.0042 95.7118L89.9209 95.7892C89.6965 95.9998 89.5083 96.1636 89.3147 96.3148L89.2568 96.3651C89.0269 96.5487 88.8152 96.7017 88.5854 96.8457L88.5438 96.8763C88.323 97.0203 88.0823 97.1624 87.8597 97.2848L87.771 97.3244C87.5195 97.4612 87.2625 97.58 87.0218 97.679L86.9548 97.7042C86.6979 97.8121 86.43 97.9057 86.164 97.9867L86.1025 98.0047C85.86 98.0803 85.5867 98.1487 85.2899 98.2117L85.2085 98.2243C84.9334 98.2801 84.6547 98.3215 84.3579 98.3521L84.2874 98.3575C83.9906 98.3863 83.6938 98.4007 83.3807 98.4007L83.0188 98.4061H81.7719C79.3759 98.4061 78.024 97.265 76.5944 96.0574C75.1937 94.8732 73.7441 93.6493 71.3083 93.6493C68.2499 93.6493 65.7598 96.1222 65.7598 99.1601C65.7598 102.2 68.2481 104.673 71.3083 104.673C73.7441 104.673 75.1919 103.449 76.5944 102.265C78.024 101.057 79.3741 99.916 81.7719 99.916H83.5128C83.6124 99.9178 83.7137 99.9232 83.8132 99.9304L84.0177 99.9412C84.186 99.952 84.3489 99.9664 84.5045 99.9826C84.6131 99.9952 84.7217 100.013 84.8321 100.029L84.937 100.046L85.0836 100.073C85.1958 100.092 85.3062 100.114 85.4257 100.139C85.556 100.166 85.6754 100.199 85.8383 100.242L85.9396 100.269C86.0609 100.303 86.1821 100.335 86.3052 100.377C86.4318 100.418 86.5603 100.463 86.7051 100.515L86.8137 100.559C86.9259 100.602 87.0435 100.649 87.1539 100.695L87.5321 100.866C87.5321 100.866 87.876 101.043 87.9556 101.086C88.0533 101.142 88.3248 101.304 88.3248 101.304C88.3248 101.304 88.6143 101.485 88.7247 101.559C88.8333 101.631 88.9346 101.709 89.0758 101.815C89.1952 101.901 89.3147 101.991 89.4269 102.085C89.53 102.173 89.6314 102.263 89.7635 102.38C89.8739 102.479 89.9788 102.576 90.0928 102.691C90.1797 102.772 90.2575 102.859 90.3353 102.943C90.3353 102.943 90.6321 103.269 90.6846 103.328C90.7805 103.449 90.8746 103.571 90.9742 103.703C91.061 103.812 91.1406 103.92 91.2203 104.043C91.309 104.169 91.3922 104.298 91.47 104.433L91.5714 104.599C91.613 104.666 91.6546 104.732 91.6908 104.793C91.7415 104.885 91.7885 104.979 91.8374 105.074L91.908 105.207C91.9659 105.342 92.0292 105.474 92.0853 105.591C92.1215 105.675 92.2717 106.059 92.2717 106.059C92.3206 106.181 92.3658 106.312 92.4074 106.437C92.4581 106.593 92.5015 106.75 92.5432 106.915L92.5613 106.982C92.592 107.092 92.621 107.198 92.6445 107.315C92.6807 107.482 92.7151 107.653 92.7422 107.806L92.7694 107.984C92.782 108.063 92.7929 108.144 92.8038 108.229C92.8237 108.395 92.8381 108.564 92.8454 108.742C92.8454 108.742 92.8707 109.1 92.8761 109.203V110.957C92.8761 113.34 91.7288 114.683 90.5145 116.103C89.3237 117.496 88.0913 118.936 88.0913 121.36C88.0913 124.358 90.5416 126.831 93.5566 126.874H93.7068H93.7086C96.7199 126.833 99.1702 124.358 99.1702 121.36C99.1702 118.936 97.9396 117.496 96.7507 116.103C95.5382 114.683 94.3909 113.34 94.3909 110.957V109.719H94.3945V109.359C94.3945 109.025 94.4071 108.729 94.4325 108.481L94.447 108.386C94.4669 108.141 94.5067 107.873 94.5682 107.561L94.5899 107.475C94.6442 107.187 94.713 106.912 94.7926 106.66L94.8143 106.591C94.8849 106.361 94.9754 106.107 95.1002 105.792L95.1184 105.744C95.2088 105.533 95.3301 105.258 95.473 104.993L95.5074 104.93C95.6377 104.687 95.7825 104.453 95.9219 104.23L95.9671 104.162C96.1245 103.926 96.2802 103.714 96.4394 103.516L96.5064 103.435C96.6475 103.256 96.8122 103.071 97.0258 102.848L97.1018 102.767C97.2773 102.585 97.4619 102.414 97.6573 102.249L97.7623 102.157C97.9451 102 98.1351 101.851 98.3378 101.709L98.4771 101.61C98.6672 101.475 98.8662 101.352 99.0653 101.233L99.2408 101.129C99.4326 101.019 99.6335 100.919 99.8362 100.825L100.061 100.722C100.247 100.638 100.444 100.562 100.661 100.487C100.748 100.452 100.833 100.42 100.915 100.393C101.099 100.334 101.297 100.276 101.494 100.226L101.559 100.209C101.646 100.188 101.731 100.166 101.816 100.146C101.995 100.105 102.178 100.071 102.359 100.047L102.42 100.037C102.527 100.019 102.63 99.9988 102.744 99.988C102.914 99.9682 103.092 99.952 103.273 99.943L103.389 99.9358C103.508 99.9286 103.629 99.9196 103.747 99.9178H105.497C107.889 99.9178 109.238 101.057 110.665 102.265C112.066 103.449 113.516 104.675 115.955 104.675C119.012 104.675 121.498 102.202 121.498 99.1619C121.498 96.1222 119.012 93.6511 115.955 93.6511C113.516 93.6511 112.068 94.8768 110.665 96.061C109.238 97.2668 107.889 98.4079 105.497 98.4079H104.245V98.4025H103.883C103.586 98.4025 103.291 98.3881 103.003 98.3611L102.904 98.3521C102.654 98.3269 102.401 98.2891 102.106 98.2351L101.963 98.2081C101.713 98.1595 101.472 98.0965 101.228 98.0263L101.067 97.9813C100.846 97.9093 100.623 97.8301 100.401 97.7383L100.2 97.661C99.9936 97.5746 99.7982 97.4774 99.6046 97.3838L99.3729 97.2668C99.1956 97.1714 99.0255 97.067 98.8535 96.9591L98.8083 96.9303C98.7377 96.8871 98.669 96.8439 98.5911 96.7899C98.4373 96.6891 98.2907 96.5847 98.1441 96.4713C98.0464 96.3975 97.9559 96.3255 97.8636 96.2518C97.7967 96.196 97.489 95.9278 97.489 95.9278L97.3732 95.8216C97.3081 95.7604 97.2429 95.7028 97.1832 95.6416C97.109 95.5679 97.0402 95.4923 96.9715 95.4149L96.8792 95.3123C96.7724 95.2007 96.6729 95.0909 96.5751 94.9703C96.5064 94.8876 96.4394 94.7976 96.3725 94.7094L96.3363 94.6608C96.2313 94.5258 96.1263 94.389 96.025 94.2432C95.9924 94.1965 95.8458 93.9679 95.8458 93.9679L95.7879 93.8707C95.7065 93.7375 95.6269 93.6061 95.5617 93.4874L95.4206 93.2048C95.3192 93.0176 95.2342 92.8358 95.1563 92.6541L95.0333 92.3427C94.9627 92.1573 94.8921 91.9684 94.8342 91.7956L94.7817 91.603C94.7148 91.3636 94.6496 91.1225 94.599 90.9029L94.5736 90.7319C94.5157 90.4548 94.4759 90.201 94.4524 89.9455L94.4397 89.8429C94.4126 89.5765 94.4017 89.2904 94.4017 88.97C94.4017 83.8587 98.4246 79.7103 103.548 79.5267H105.502C107.895 79.5267 109.243 80.666 110.671 81.8718C112.072 83.056 113.521 84.2817 115.961 84.2817C119.017 84.2817 121.504 81.8088 121.504 78.7708C121.504 75.7329 119.017 73.2618 115.961 73.2618C113.521 73.2618 112.073 74.4875 110.671 75.6717C109.243 76.8775 107.895 78.0185 105.502 78.0185H103.555C98.4228 77.8332 94.4017 73.6866 94.4017 68.5753C94.3963 63.4586 98.4192 59.312 103.542 59.1266Z" fill="white" fill-opacity="0.2"/>
<path d="M83.1277 103.782C80.6882 103.782 79.2405 105.006 77.8398 106.19C76.4119 107.396 75.0637 108.537 72.6695 108.537H71.4262V108.534H71.0643C70.782 108.534 70.4924 108.519 70.1649 108.487L70.0744 108.483C69.8029 108.453 69.5405 108.411 69.289 108.366L69.137 108.334C68.8945 108.283 68.6466 108.222 68.4167 108.159L68.2303 108.102C68.0095 108.035 67.7942 107.954 67.5897 107.875L67.3671 107.783C67.1717 107.7 66.9762 107.609 66.7916 107.519L66.5383 107.385C66.3682 107.294 66.1962 107.189 66.0352 107.09C65.9429 107.033 65.8488 106.973 65.7601 106.914C65.6117 106.813 65.4706 106.712 65.3149 106.592C65.2208 106.52 65.1249 106.444 65.0326 106.37C64.9096 106.268 64.7883 106.163 64.6779 106.061L64.5748 105.964C64.5042 105.897 64.4318 105.832 64.3576 105.757C64.2562 105.659 64.1603 105.557 64.0699 105.458L63.9975 105.377C63.9106 105.28 63.8255 105.186 63.7369 105.08C63.6627 104.986 63.5867 104.893 63.5197 104.803L63.4383 104.695C63.3568 104.589 63.2754 104.481 63.2012 104.364C63.1433 104.277 63.0836 104.184 63.0239 104.088C62.9189 103.926 62.823 103.762 62.7307 103.59L62.5986 103.343C62.5027 103.154 62.4122 102.965 62.3326 102.773L62.2421 102.54C62.1534 102.339 62.0828 102.13 62.0086 101.909L61.9561 101.732C61.8892 101.493 61.8222 101.246 61.7734 101.016L61.748 100.863C61.7046 100.634 61.6557 100.363 61.6286 100.071L61.6195 99.9758C61.5942 99.6464 61.5743 99.3729 61.5743 99.0903C61.5743 93.9826 65.5936 89.8342 70.7132 89.647H72.6749C75.0691 89.647 76.4174 90.7863 77.8452 91.9939C79.2459 93.1782 80.6955 94.4038 83.1331 94.4038C86.1879 94.4038 88.6744 91.9309 88.6744 88.893C88.6744 85.8532 86.1879 83.3821 83.1331 83.3821C80.6936 83.3821 79.2459 84.6078 77.8452 85.792C76.4174 86.9996 75.0691 88.1389 72.6749 88.1389H70.7259C65.5936 87.9535 61.5725 83.8051 61.5725 78.6974C61.5725 73.5861 65.5918 69.4377 70.7114 69.2524H72.6731C75.0673 69.2524 76.4156 70.3916 77.8434 71.5992C79.2441 72.7835 80.6937 74.0073 83.1313 74.0073C86.1861 74.0073 88.6726 71.5344 88.6726 68.4947C88.6726 65.4567 86.1861 62.9838 83.1313 62.9838C80.6918 62.9838 79.2441 64.2095 77.8434 65.3937C76.4156 66.6013 75.0673 67.7406 72.6731 67.7406H70.7241C65.5918 67.5588 61.5707 63.4122 61.5707 58.2991C61.5707 53.1896 65.59 49.043 70.7096 48.8576H72.6713C75.0655 48.8576 76.4137 49.9969 77.8416 51.2045C79.2423 52.3888 80.6918 53.6126 83.1295 53.6126C86.1842 53.6126 88.6708 51.1397 88.6708 48.1018C88.6708 45.062 86.1842 42.5873 83.1295 42.5873C80.69 42.5873 79.2423 43.813 77.8416 44.9972C76.4137 46.2048 75.0655 47.3441 72.6713 47.3441H70.7223C65.59 47.1605 61.5689 43.0121 61.5689 37.9026C61.5689 37.6057 61.5906 37.3033 61.6105 37.0243L61.625 36.9307C61.6485 36.6644 61.6883 36.3872 61.748 36.0885L61.7643 36.0165C61.815 35.7645 61.8838 35.4964 61.976 35.1868L61.9887 35.1382C62.072 34.8682 62.1679 34.6037 62.2837 34.3283L62.2982 34.2815C62.3959 34.0476 62.5117 33.8028 62.6402 33.5526L62.6873 33.4752C62.8194 33.2323 62.9551 32.9983 63.0872 32.7913L63.156 32.6978C63.2826 32.498 63.4365 32.2892 63.6337 32.0426L63.6735 31.985C63.8418 31.7835 64.0156 31.5873 64.1983 31.3983L64.278 31.3137C64.4553 31.132 64.6399 30.9592 64.8209 30.799L64.9367 30.7036C65.1231 30.5435 65.3167 30.3977 65.5086 30.2573L65.6515 30.1565C65.8433 30.0197 66.0406 29.8991 66.2433 29.7786L66.417 29.6778C66.6179 29.568 66.8152 29.4672 67.0106 29.3736L67.2404 29.271C67.4305 29.1828 67.6313 29.1091 67.825 29.0371C67.9173 29.0065 68.0005 28.9741 68.0946 28.9381C68.2647 28.8841 68.4384 28.8355 68.6104 28.7887L68.6556 28.7761C68.7135 28.7635 68.9325 28.7095 68.9904 28.6969C69.1732 28.6537 69.3614 28.6213 69.5623 28.5907C69.6745 28.5691 69.8011 28.5511 69.917 28.5367C70.0925 28.5169 70.2698 28.5025 70.4472 28.4917L70.601 28.4827C70.7114 28.4755 70.8218 28.4683 70.925 28.4648H72.6713C75.0655 28.4648 76.4137 29.6058 77.8416 30.8116C79.2423 31.9958 80.6918 33.2215 83.1295 33.2215C86.1842 33.2215 88.6708 30.7486 88.6708 27.7107C88.6708 24.6709 86.1842 22.1998 83.1295 22.1998C80.69 22.1998 79.2423 23.4255 77.8416 24.6097C76.4137 25.8173 75.0655 26.9566 72.6713 26.9566H71.428V26.953H71.0661C70.7603 26.953 70.4707 26.9386 70.1667 26.908L70.0744 26.9026C69.812 26.8738 69.5532 26.8342 69.2709 26.7784L69.146 26.7586C68.8999 26.7064 68.6484 26.6452 68.4095 26.5732L68.2376 26.5228C68.015 26.4526 67.7942 26.3752 67.5752 26.2889L67.3707 26.2079C67.1735 26.1233 66.9744 26.0279 66.779 25.9289L66.5509 25.8155C66.4098 25.7363 66.2722 25.6536 66.1329 25.569L66.0352 25.5096L65.9248 25.4394C65.8723 25.407 65.8198 25.3728 65.7601 25.3314C65.6081 25.2324 65.4669 25.1244 65.2968 24.9948C65.2081 24.9265 65.1213 24.8617 65.0326 24.7897C64.9023 24.6853 64.7793 24.5755 64.6671 24.4765L64.5711 24.3865C64.5006 24.3199 64.4318 24.2552 64.3594 24.1814C64.2743 24.0986 64.1947 24.0122 64.1133 23.9276L64.0518 23.8628C63.9486 23.7512 63.8473 23.636 63.7441 23.5101C63.6663 23.4201 63.5957 23.3283 63.507 23.2131L63.4328 23.1159C63.3514 23.0097 63.27 22.9017 63.203 22.8046C63.1415 22.7056 63.0781 22.6048 63.0166 22.5094C62.9153 22.3492 62.8194 22.1854 62.7271 22.0109L62.5895 21.7607C62.4936 21.5717 62.4031 21.3846 62.3235 21.1974L62.2312 20.9724C62.1462 20.7582 62.0738 20.5495 62.005 20.3299L61.9489 20.1463C61.8819 19.9106 61.8168 19.6712 61.7661 19.4372L61.739 19.2861C61.6937 19.0395 61.6485 18.7731 61.6213 18.4996L61.6123 18.397C61.587 18.0712 61.5671 17.7995 61.5671 17.5151L61.5634 17.1552V15.9151C61.5634 13.5323 62.7108 12.1897 63.9251 10.7697C65.1159 9.37667 66.3482 7.93687 66.3482 5.51082C66.3482 2.47285 63.8617 0 60.807 0C57.7504 0 55.2657 2.47105 55.2657 5.51082C55.2657 7.93507 56.4963 9.37487 57.6853 10.7679C58.8978 12.1879 60.0433 13.5305 60.0433 15.9133V17.6717C60.0433 17.8139 60.0361 17.9596 60.027 18.0946C60.027 18.0946 59.989 18.5302 59.9763 18.6507C59.9601 18.7695 59.9438 18.8865 59.9257 19.0035C59.8931 19.1961 59.8605 19.3904 59.808 19.6172L59.732 19.916C59.6814 20.1013 59.6307 20.2849 59.5674 20.4667L59.4805 20.7169C59.4027 20.9256 59.3249 21.1272 59.2416 21.318L59.1403 21.5303C59.0425 21.7355 58.9394 21.9407 58.838 22.1207L58.724 22.3024C58.6046 22.5076 58.4797 22.7038 58.3458 22.8945L58.2463 23.0313C58.1015 23.2329 57.9459 23.4255 57.7993 23.6018L57.6998 23.7116C57.5333 23.9024 57.3577 24.0896 57.1858 24.2587L57.0953 24.3433C56.8999 24.5323 56.6863 24.7105 56.5108 24.8527L56.4312 24.9139C56.2158 25.0812 56.0023 25.236 55.7761 25.3908L55.7218 25.4286C55.4811 25.5816 55.2422 25.7219 55.0106 25.8425L54.9454 25.8767C54.7047 26.0045 54.4514 26.1233 54.2016 26.2259L54.131 26.2529C53.8723 26.359 53.6026 26.4544 53.342 26.5336L53.2714 26.5534C53.0362 26.6272 52.772 26.6938 52.4408 26.7622L52.3847 26.7748C52.1096 26.8288 51.8201 26.872 51.5432 26.9026L51.4599 26.908C51.165 26.9386 50.8682 26.953 50.5479 26.953L50.1859 26.9566H48.9427C46.5466 26.9566 45.1984 25.8155 43.7688 24.6079C42.3681 23.4237 40.9203 22.1998 38.4845 22.1998C35.4279 22.1998 32.9414 24.6727 32.9414 27.7107C32.9414 30.7486 35.4279 33.2215 38.4845 33.2215C40.9203 33.2215 42.3681 31.9977 43.7688 30.8134C45.1966 29.6058 46.5466 28.4648 48.9427 28.4648H50.6836C50.8012 28.4683 50.9207 28.4755 51.0419 28.4827L51.1849 28.4917C51.3514 28.5043 51.516 28.5169 51.6771 28.5331C51.8273 28.5511 51.9667 28.5727 52.1205 28.6015C52.2761 28.6249 52.4354 28.6537 52.5946 28.6879C52.7358 28.7185 52.8751 28.7563 53.0235 28.7959C53.1737 28.8355 53.3294 28.8787 53.4723 28.9219C53.6153 28.9705 53.7474 29.0191 53.8867 29.0713C54.0333 29.1253 54.1817 29.1828 54.3247 29.2458C54.426 29.289 54.5219 29.3358 54.6197 29.3808L54.7101 29.424C54.8531 29.496 54.9925 29.568 55.13 29.6418C55.2549 29.7102 55.3779 29.784 55.5028 29.8596C55.6331 29.9387 55.7616 30.0197 55.8955 30.1133C56.0131 30.1889 56.1289 30.2717 56.2701 30.3815C56.3787 30.4643 56.4891 30.5453 56.6049 30.646C56.7171 30.7342 56.8239 30.8278 56.9632 30.9574C57.0609 31.0456 57.1623 31.1374 57.2564 31.2346C57.3613 31.3389 57.4663 31.4487 57.5658 31.5603C57.6636 31.6647 57.7613 31.7709 57.8572 31.8933C57.9441 31.9941 58.0255 32.0984 58.1069 32.2046L58.1341 32.2388L58.3911 32.5934C58.4761 32.7193 58.5612 32.8525 58.6426 32.9839L58.8598 33.3403L59.0751 33.7578C59.1023 33.819 59.1312 33.8802 59.162 33.9414C59.1946 34.0098 59.2271 34.0782 59.2579 34.1483C59.3212 34.2941 59.3791 34.4417 59.4389 34.6091C59.4913 34.7369 59.5348 34.8646 59.5818 35.005C59.6235 35.1184 59.6542 35.2318 59.685 35.347L59.7176 35.4658C59.7538 35.6025 59.7881 35.7321 59.8207 35.8707C59.846 35.9859 59.866 36.1029 59.8859 36.2181L59.913 36.3692C59.9383 36.5042 59.9564 36.6374 59.9727 36.776C59.989 36.9127 59.9999 37.0513 60.0143 37.1935L60.0234 37.2889C60.0324 37.4437 60.0397 37.5967 60.0397 37.7532V38.061C59.9601 43.0877 55.9462 47.1677 50.9152 47.3513H48.9463C46.5503 47.3513 45.202 46.2102 43.7724 45.0026C42.3717 43.8184 40.9239 42.5945 38.4881 42.5945C35.4315 42.5945 32.945 45.0674 32.945 48.109C32.945 51.1487 35.4315 53.6198 38.4881 53.6198C40.9239 53.6198 42.3717 52.3959 43.7724 51.2117C45.2002 50.0041 46.5503 48.8649 48.9463 48.8649H50.9026C56.0348 49.0502 60.056 53.1968 60.056 58.3063C60.056 63.4158 56.0366 67.5624 50.9188 67.7478H48.9463C46.5503 67.7478 45.202 66.6067 43.7724 65.3991C42.3717 64.2149 40.9239 62.991 38.4881 62.991C35.4315 62.991 32.945 65.4621 32.945 68.5019C32.945 71.5416 35.4315 74.0145 38.4881 74.0145C40.9239 74.0145 42.3717 72.7906 43.7724 71.6064C45.2002 70.3988 46.5503 69.2596 48.9463 69.2596H50.9026C56.0366 69.4449 60.0578 73.5933 60.0578 78.7046C60.0578 83.8123 56.0385 87.9589 50.9207 88.1443H48.9463C46.5503 88.1443 45.202 87.0032 43.7724 85.7956C42.3717 84.6114 40.9239 83.3875 38.4881 83.3875C35.4315 83.3875 32.945 85.8604 32.945 88.8984C32.945 91.9363 35.4315 94.4092 38.4881 94.4092C40.9239 94.4092 42.3717 93.1853 43.7724 92.0011C45.2002 90.7935 46.5503 89.6525 48.9463 89.6525H50.9026C55.9498 89.8378 59.9655 93.9214 60.0451 98.9409V99.2523C60.0451 99.3999 60.0379 99.5438 60.0288 99.677C60.0288 99.677 59.9926 100.105 59.9782 100.235C59.9619 100.356 59.9456 100.469 59.9275 100.584C59.8949 100.78 59.8623 100.973 59.8207 101.155C59.7936 101.257 59.7664 101.36 59.7447 101.453C59.6904 101.653 59.6379 101.848 59.5529 102.078C59.533 102.155 59.5058 102.229 59.4805 102.297C59.4027 102.506 59.3249 102.711 59.2434 102.9L59.1421 103.111C59.0444 103.314 58.9412 103.518 58.8326 103.71L58.7277 103.881C58.6082 104.085 58.4815 104.284 58.3494 104.475L58.2499 104.61C58.1051 104.81 57.9495 105.004 57.8011 105.182L57.7016 105.292C57.5351 105.485 57.3595 105.67 57.1949 105.836L57.0953 105.924C56.9089 106.1 56.7117 106.271 56.5144 106.431L56.4275 106.5C56.2194 106.665 56.0077 106.817 55.7978 106.959L55.7109 107.013C55.4666 107.173 55.2404 107.308 55.0142 107.425L54.9526 107.459C54.6667 107.605 54.4278 107.715 54.198 107.808L54.1347 107.835C53.8705 107.941 53.6044 108.035 53.3637 108.111L53.2733 108.134C53.0398 108.21 52.7792 108.274 52.4498 108.341L52.3937 108.354C52.1042 108.409 51.8165 108.451 51.5559 108.483L51.4708 108.487C51.1469 108.517 50.8465 108.532 50.5551 108.532L50.1932 108.535H48.9499C46.5539 108.535 45.2057 107.396 43.776 106.188C42.3753 105.004 40.9276 103.78 38.4917 103.78C35.4352 103.78 32.9486 106.251 32.9486 109.289C32.9486 112.329 35.4352 114.8 38.4917 114.8C40.9276 114.8 42.3753 113.576 43.776 112.392C45.2039 111.185 46.5539 110.044 48.9499 110.044H50.6945C50.8555 110.047 51.022 110.056 51.2012 110.072C51.3622 110.081 51.5233 110.092 51.6952 110.114C51.8418 110.128 51.9811 110.152 52.1241 110.177C52.2815 110.204 52.4426 110.231 52.6037 110.265C52.7141 110.288 52.8244 110.317 52.9367 110.346L53.0271 110.369C53.1773 110.411 53.3348 110.454 53.4886 110.502C53.5664 110.528 53.6406 110.555 53.7148 110.582L53.8867 110.641L54.3355 110.821C54.4676 110.877 54.5961 110.94 54.7228 111.003C54.8676 111.075 55.0087 111.147 55.1372 111.213C55.2603 111.282 55.3852 111.356 55.5173 111.444C55.6439 111.519 55.7688 111.595 55.9045 111.69C56.0276 111.768 56.1434 111.854 56.2647 111.948C56.3841 112.032 56.4981 112.12 56.6103 112.214C56.7261 112.311 56.8402 112.41 56.9505 112.509L56.9976 112.552C57.0917 112.639 57.1858 112.723 57.2672 112.804C57.3487 112.889 57.4301 112.975 57.5115 113.064L57.6617 113.225C57.7287 113.299 57.7975 113.377 57.8681 113.463C57.9694 113.584 58.0671 113.71 58.1558 113.827L58.4019 114.16L58.6155 114.498C58.6155 114.498 58.8073 114.813 58.8706 114.914C58.9484 115.061 59.0226 115.211 59.0968 115.362L59.124 115.418C59.1728 115.515 59.2235 115.617 59.2687 115.727C59.323 115.848 59.3719 115.972 59.4208 116.096L59.457 116.188C59.5022 116.314 59.5456 116.436 59.5927 116.582C59.6434 116.713 59.6759 116.839 59.7103 116.971L59.7338 117.055C59.77 117.187 59.8044 117.316 59.8352 117.444C59.8623 117.566 59.8822 117.691 59.904 117.817L59.9275 117.961C59.9528 118.09 59.9709 118.223 59.9854 118.349C59.9981 118.472 60.0361 118.868 60.0361 118.868C60.0451 119.022 60.0523 119.177 60.0523 119.33V121.089C60.0523 123.471 58.9068 124.812 57.6943 126.234C56.5054 127.627 55.2748 129.067 55.2748 131.491C55.2748 134.529 57.7613 137 60.816 137C63.8708 137 66.3573 134.529 66.3573 131.491C66.3573 129.067 65.1249 127.625 63.9341 126.232C62.7198 124.812 61.5725 123.47 61.5725 121.089V119.847H61.5761V119.487C61.5761 119.192 61.5978 118.891 61.6177 118.609L61.6304 118.513C61.6539 118.25 61.6937 117.975 61.7535 117.673L61.7679 117.601C61.8168 117.356 61.8838 117.095 61.9797 116.771L61.9923 116.719C62.0756 116.454 62.1715 116.191 62.2909 115.907L62.3036 115.864C62.3977 115.639 62.5099 115.401 62.6456 115.135L62.6909 115.058C62.823 114.816 62.9587 114.584 63.1053 114.358L63.1578 114.277C63.2881 114.079 63.4383 113.872 63.6337 113.627L63.6753 113.566C63.8455 113.366 64.0228 113.168 64.1983 112.977L64.2798 112.893C64.4589 112.716 64.6453 112.542 64.8299 112.378L64.9385 112.282C65.1267 112.124 65.3185 111.975 65.5158 111.834L65.6533 111.735C65.847 111.602 66.0442 111.476 66.2487 111.356L66.4206 111.255C66.6215 111.145 66.8206 111.046 67.0196 110.949L67.2422 110.844C67.4341 110.758 67.6349 110.682 67.8213 110.612C67.8774 110.594 68.1036 110.515 68.1036 110.515C68.2919 110.452 68.4837 110.398 68.6683 110.351L68.9904 110.269C69.1768 110.227 69.365 110.197 69.5623 110.166C69.6763 110.146 69.8029 110.126 69.9242 110.112C70.0834 110.094 70.2445 110.083 70.4056 110.071L70.4562 110.067C70.6191 110.056 70.7729 110.045 70.9304 110.044H72.6767C75.071 110.044 76.4192 111.183 77.847 112.39C79.2477 113.575 80.6973 114.8 83.1349 114.8C86.1897 114.8 88.6762 112.327 88.6762 109.289C88.6689 106.253 86.1842 103.782 83.1277 103.782Z" fill="white" fill-opacity="0.2"/>
</g>
<defs>
<filter id="filter0_b_97_3177" x="-168" y="-168" width="457.504" height="473" filterUnits="userSpaceOnUse" color-interpolation-filters="sRGB">
<feFlood flood-opacity="0" result="BackgroundImageFix"/>
<feGaussianBlur in="BackgroundImageFix" stdDeviation="84"/>
<feComposite in2="SourceAlpha" operator="in" result="effect1_backgroundBlur_97_3177"/>
<feBlend mode="normal" in="SourceGraphic" in2="effect1_backgroundBlur_97_3177" result="shape"/>
</filter>
</defs>
</svg>
