<svg width="180" height="80" viewBox="0 0 180 80" fill="none" xmlns="http://www.w3.org/2000/svg">
<path d="M16.8169 64.7918V64.0688H16.8179V63.8586C16.8179 63.6894 16.8275 63.5128 16.8456 63.3226L16.8466 63.2921C16.8636 63.125 16.8891 62.959 16.9221 62.8034L16.9327 62.7561C16.9635 62.5964 17.0018 62.4398 17.0475 62.2853L17.0624 62.2412C17.106 62.1035 17.1612 61.9521 17.2367 61.7682L17.2442 61.743C17.3079 61.5917 17.377 61.4466 17.4557 61.3006L17.4716 61.2669C17.5397 61.1408 17.6194 61.0084 17.7182 60.8581L17.7448 60.8161C17.8171 60.7047 17.9042 60.5859 18.0116 60.4504L18.0573 60.3978C18.1647 60.2654 18.2593 60.1571 18.3656 60.051L18.406 60.0058C18.4995 59.9091 18.6047 59.8145 18.7365 59.7L18.7907 59.6516C18.8853 59.5707 18.9895 59.494 19.0905 59.4183L19.2106 59.3311C19.3243 59.2523 19.4445 59.1777 19.5614 59.1093L19.6655 59.0494C19.7782 58.9853 19.8983 58.9265 20.0174 58.8697L20.1407 58.813C20.2565 58.7625 20.3745 58.7173 20.4936 58.6732L20.6424 58.6207C20.7604 58.5849 20.8773 58.5502 20.9889 58.5208L21.0601 58.5029C21.0963 58.4935 21.1324 58.484 21.1781 58.4756C21.2855 58.4515 21.3928 58.4315 21.4959 58.4147L21.5895 58.401C21.6331 58.3947 21.6756 58.3884 21.7202 58.3831C21.8255 58.3716 21.9296 58.3621 22.0306 58.3569L22.1103 58.3516C22.1794 58.3474 22.2464 58.3432 22.3091 58.3422H23.337C24.7454 58.3422 25.5383 59.0085 26.377 59.7136C27.1986 60.4052 28.049 61.1198 29.4797 61.1198C31.274 61.1198 32.7345 59.6758 32.7345 57.9008C32.7345 56.1257 31.274 54.6828 29.4797 54.6828C28.049 54.6828 27.1986 55.3974 26.377 56.0889C25.5383 56.7941 24.7454 57.4604 23.337 57.4604H22.3941C22.2474 57.4604 22.0912 57.4531 21.8871 57.4352L21.8074 57.4278C21.6564 57.4121 21.5023 57.3889 21.3556 57.3606L21.2578 57.3427C21.1175 57.3143 20.9793 57.2786 20.8465 57.2408L20.7317 57.2082C20.6031 57.1672 20.4787 57.122 20.3554 57.0747L20.2215 57.0222C20.1067 56.9738 19.9972 56.9213 19.8856 56.8656C19.8856 56.8656 19.774 56.8109 19.7368 56.791C19.6422 56.7395 19.5507 56.6838 19.4402 56.6155C19.386 56.5829 19.335 56.5524 19.2797 56.5135C19.1968 56.4578 19.1107 56.399 19.0299 56.3338L18.9608 56.2823C18.9257 56.256 18.8896 56.2298 18.8556 56.2003C18.7822 56.1383 18.7078 56.0753 18.6387 56.0133L18.4527 55.8399C18.3932 55.7831 18.3401 55.7232 18.2816 55.6559C18.2178 55.5887 18.1572 55.5225 18.0956 55.4489C18.0573 55.4058 18.0212 55.3585 17.9861 55.3123L17.8947 55.1904C17.8554 55.1368 17.815 55.0832 17.7799 55.0348C17.7437 54.977 17.7065 54.9192 17.6704 54.8656L17.6406 54.8236C17.5907 54.7416 17.5407 54.6607 17.4929 54.5745C17.4716 54.5377 17.4525 54.4999 17.4334 54.4631L17.4153 54.4274C17.36 54.3191 17.309 54.213 17.2633 54.1016L17.207 53.9639C17.157 53.841 17.1102 53.7169 17.072 53.6055L17.0401 53.4784C16.9976 53.3428 16.9635 53.2051 16.9348 53.0811L16.9189 52.9781C16.8881 52.83 16.8636 52.6818 16.8477 52.5357L16.8434 52.46C16.8264 52.2782 16.8179 52.1122 16.8179 51.9503C16.8179 48.9667 19.1798 46.5432 22.1869 46.436H23.337C24.7454 46.436 25.5383 47.1023 26.377 47.8075C27.1986 48.498 28.049 49.2126 29.4797 49.2126C31.274 49.2126 32.7345 47.7686 32.7345 45.9946C32.7345 44.2206 31.274 42.7777 29.4797 42.7777C28.049 42.7777 27.1986 43.4923 26.377 44.1838C25.5383 44.889 24.7454 45.5553 23.337 45.5553H22.1943C19.1798 45.4471 16.8179 43.0257 16.8179 40.041C16.8179 37.0574 19.1798 34.636 22.1869 34.5277H23.337C24.7454 34.5277 25.5383 35.194 26.377 35.8992C27.1986 36.5907 28.049 37.3043 29.4797 37.3043C31.274 37.3043 32.7345 35.8603 32.7345 34.0863C32.7345 32.3124 31.274 30.8684 29.4797 30.8684C28.049 30.8684 27.1986 31.583 26.3759 32.2745C25.5373 32.9797 24.7443 33.646 23.3359 33.646H22.1943C19.1798 33.5378 16.8179 31.1153 16.8179 28.1317C16.8179 27.9699 16.8264 27.8007 16.8445 27.6094L16.8466 27.5589C16.8636 27.3992 16.8891 27.2384 16.9242 27.0734L16.9327 27.0251C16.9635 26.8716 17.0018 26.7182 17.0518 26.5511L17.0624 26.5111C17.1124 26.3588 17.1676 26.2064 17.2271 26.0613L17.2495 26.0088C17.3111 25.8543 17.3855 25.7061 17.4472 25.5863L17.4738 25.539C17.5503 25.3929 17.6396 25.2511 17.7161 25.1344L17.7437 25.0934C17.8288 24.9673 17.9191 24.8433 18.019 24.7182L18.0573 24.672C18.1551 24.5511 18.2571 24.4355 18.3624 24.3273L18.407 24.281C18.5112 24.1707 18.6313 24.0645 18.7376 23.9731L18.7918 23.9258C18.9119 23.8207 19.048 23.7219 19.1436 23.6547L19.2085 23.6074C19.3222 23.5286 19.4434 23.455 19.5709 23.3783L19.6592 23.3278C19.7761 23.2616 19.9015 23.2017 20.0312 23.1397L20.1354 23.0893C20.2565 23.0367 20.3798 22.9894 20.5095 22.9442L20.636 22.898C20.7604 22.8581 20.8794 22.8244 21.0006 22.794L21.0612 22.7782C21.0952 22.7687 21.1303 22.7603 21.1686 22.7519C21.2844 22.7267 21.3992 22.7057 21.5151 22.6878C21.5831 22.6773 21.6522 22.6678 21.7192 22.6584C21.8265 22.6447 21.9371 22.6374 22.0487 22.63C22.1326 22.6237 22.2156 22.6184 22.3006 22.6174H23.337C24.7454 22.6174 25.5383 23.2837 26.377 23.9889C27.1986 24.6804 28.049 25.394 29.4797 25.394C31.274 25.394 32.7345 23.951 32.7345 22.177C32.7345 20.4031 31.274 18.9601 29.4797 18.9601C28.049 18.9601 27.1986 19.6747 26.377 20.3652C25.5383 21.0704 24.7454 21.7367 23.337 21.7367H22.6057V21.7335H22.3931C22.2294 21.7335 22.0636 21.7251 21.8722 21.7083L21.8106 21.7031C21.6554 21.6873 21.497 21.6631 21.3493 21.6358L21.2621 21.6179C21.1335 21.5927 21.0027 21.5601 20.8327 21.5107L20.7317 21.4824C20.6009 21.4414 20.4734 21.3962 20.348 21.3447L20.2183 21.2932C20.1014 21.2459 19.9887 21.1902 19.8813 21.1377L19.7315 21.0599C19.6432 21.0147 19.5603 20.9632 19.4785 20.9117L19.4296 20.8812C19.3732 20.8508 19.3254 20.8213 19.2786 20.7898C19.1925 20.7299 19.1032 20.6647 19.0214 20.6038L18.9406 20.5428C18.9098 20.5197 18.8779 20.4966 18.8513 20.4745C18.7876 20.4209 18.7227 20.3642 18.6589 20.3074L18.6313 20.2832C18.5707 20.2275 18.5123 20.1729 18.4506 20.113C18.4081 20.0731 18.3698 20.0321 18.3326 19.9911L18.272 19.927C18.2114 19.8618 18.1509 19.7935 18.0935 19.7273C18.0616 19.6895 18.0318 19.6495 18.001 19.6106L17.9468 19.5413C17.8851 19.4646 17.8288 19.3857 17.7746 19.3059C17.7522 19.2733 17.6619 19.1314 17.6619 19.1314C17.6034 19.04 17.546 18.9485 17.4918 18.8498C17.4706 18.814 17.4536 18.7783 17.4355 18.7426L17.411 18.6942C17.3579 18.5891 17.3058 18.4809 17.2601 18.3758L17.2016 18.236C17.1559 18.1162 17.1102 17.9953 17.072 17.8734L17.0348 17.7452C16.9954 17.6138 16.9614 17.4804 16.9338 17.3522L16.9146 17.2429C16.8828 17.0894 16.8604 16.9423 16.8487 16.8088L16.8413 16.7216C16.8243 16.5419 16.8158 16.3779 16.8158 16.2234L16.8147 15.2892C16.8147 13.8977 17.4876 13.1148 18.2008 12.2845C18.9002 11.4711 19.623 10.6293 19.623 9.21365C19.623 7.43965 18.1625 5.9967 16.3672 5.9967C14.573 5.9967 13.1146 7.43965 13.1146 9.21365C13.1146 10.6293 13.8374 11.4711 14.5379 12.2845C15.2511 13.1137 15.925 13.8977 15.925 15.2881V16.2939L15.9102 16.5745L15.9038 16.6585C15.8974 16.7332 15.8921 16.8078 15.8825 16.8866C15.8751 16.9549 15.8634 17.0232 15.8453 17.1041C15.8294 17.2124 15.8102 17.3206 15.7879 17.4268C15.7762 17.4846 15.7603 17.5413 15.739 17.6086L15.7252 17.6611C15.7008 17.7557 15.6763 17.8493 15.6412 17.948C15.6295 17.9848 15.6168 18.0174 15.604 18.0521L15.5477 18.2003C15.5158 18.2822 15.485 18.3642 15.4488 18.443L15.3936 18.5628L15.3447 18.6574C15.299 18.7457 15.2543 18.8329 15.2097 18.9118L15.1438 19.019C15.0758 19.1377 15.0003 19.2554 14.9259 19.3616L14.8717 19.4351L14.8047 19.5213C14.7367 19.6096 14.6697 19.6968 14.5974 19.7809L14.5496 19.8366C14.4507 19.949 14.3466 20.0583 14.2392 20.1613L14.1924 20.2055C14.0798 20.3127 13.965 20.4115 13.8395 20.5124L13.8066 20.5397C13.6801 20.6353 13.5504 20.7309 13.4176 20.8171L13.3782 20.8423C13.2177 20.9464 13.0891 21.0221 12.9658 21.0851L12.9297 21.103C12.7607 21.1902 12.6182 21.2554 12.4875 21.309L12.4481 21.3237C12.2823 21.392 12.1293 21.4456 11.9794 21.4897L11.9486 21.4992C11.7838 21.5475 11.6191 21.5896 11.4607 21.6211L11.4235 21.6285C11.2491 21.6631 11.0833 21.6873 10.9186 21.702L10.8782 21.7052C10.6954 21.723 10.5157 21.7314 10.3456 21.7314L10.1331 21.7346H9.40175C7.99547 21.7346 7.20358 21.0694 6.36385 20.3642C5.54113 19.6726 4.68971 18.958 3.25793 18.958C1.46368 18.958 0.00531505 20.4009 0.00531505 22.1749C0.00531505 23.9489 1.46474 25.3919 3.25793 25.3919C4.68971 25.3919 5.54113 24.6772 6.36385 23.9857C7.20252 23.2805 7.99547 22.6153 9.40175 22.6153H10.4349C10.504 22.6174 10.5784 22.6216 10.6507 22.6258L10.7113 22.629C10.8112 22.6353 10.9133 22.6426 11.0185 22.6573C11.0971 22.6657 11.1652 22.6762 11.2566 22.691C11.3565 22.7078 11.4585 22.7246 11.5595 22.7477C11.6127 22.7582 11.6626 22.7708 11.7137 22.7845L11.7827 22.8024C11.8805 22.8286 11.9762 22.8549 12.0751 22.8885C12.1505 22.9117 12.2249 22.939 12.2951 22.9653C12.3886 22.9999 12.4811 23.0336 12.5704 23.0735C12.6193 23.0945 12.6661 23.1166 12.7149 23.1397L12.7904 23.1754C12.867 23.2101 12.9392 23.249 13.0115 23.2868L13.0391 23.3016L13.2475 23.4214L13.2868 23.4466C13.3548 23.4897 13.425 23.5338 13.4898 23.5769C13.5281 23.6021 13.5653 23.6295 13.6025 23.6568L13.6854 23.7167C13.7609 23.7734 13.8364 23.8323 13.9033 23.8848L14.0925 24.0509C14.1595 24.1108 14.2254 24.1738 14.287 24.2348C14.3455 24.2947 14.404 24.3546 14.4635 24.4198L14.4848 24.4429C14.5379 24.4996 14.59 24.5553 14.641 24.6184C14.6942 24.6825 14.7452 24.7498 14.8015 24.8254C14.8578 24.8948 14.9078 24.9621 14.9524 25.0241C15.0013 25.0997 15.0502 25.1764 15.097 25.2479C15.1417 25.3225 15.1863 25.395 15.2299 25.4728C15.2724 25.5474 15.3128 25.6262 15.3532 25.7114C15.3914 25.7849 15.4286 25.8606 15.4648 25.9447C15.5009 26.0246 15.5349 26.1086 15.5647 26.1832L15.6019 26.2862C15.6189 26.3325 15.6359 26.3798 15.6529 26.4344C15.6753 26.4975 15.6923 26.5616 15.7093 26.6267L15.7284 26.6972C15.7528 26.7812 15.773 26.8622 15.7932 26.9483C15.806 26.9998 15.8156 27.0513 15.8251 27.1039C15.8326 27.1449 15.84 27.1848 15.8464 27.2121C15.8528 27.2584 15.8878 27.4675 15.8878 27.4675C15.8878 27.4675 15.9048 27.6903 15.9102 27.7523L15.925 28.0487V28.2105C15.8825 31.15 13.5239 33.5367 10.5625 33.645H9.39962C7.99335 33.645 7.20145 32.9787 6.36173 32.2735C5.53901 31.5819 4.68759 30.8663 3.25474 30.8663C1.46049 30.8663 0.00212634 32.3103 0.00212634 34.0843C0.00212634 35.8582 1.46155 37.3022 3.25474 37.3022C4.68653 37.3022 5.53794 36.5876 6.36066 35.8961C7.19933 35.1919 7.99228 34.5256 9.39856 34.5256H10.5497C13.5632 34.6339 15.924 37.0553 15.924 40.0389C15.924 43.0204 13.5642 45.4429 10.5604 45.5532H9.3975C7.99122 45.5532 7.19933 44.888 6.3596 44.1828C5.53688 43.4913 4.68546 42.7766 3.25367 42.7766C1.45942 42.7766 0.00106398 44.2196 0.00106398 45.9936C0.00106398 47.7676 1.46049 49.2115 3.25367 49.2115C4.68546 49.2115 5.53688 48.4969 6.3596 47.8054C7.19826 47.1013 7.99122 46.435 9.3975 46.435H10.5487C13.5111 46.5432 15.8719 48.9267 15.9219 51.8578V52.0302L15.907 52.2908L15.9006 52.3812C15.8942 52.46 15.8889 52.5399 15.8793 52.6198C15.873 52.6818 15.8613 52.7417 15.8453 52.8236C15.8294 52.9361 15.8071 53.0475 15.7815 53.1621C15.7688 53.2157 15.7571 53.2682 15.7369 53.3334C15.7093 53.4479 15.6784 53.5646 15.6412 53.6728L15.5902 53.8157L15.5573 53.8988C15.5211 53.9923 15.485 54.0848 15.4478 54.1689L15.3872 54.2918C15.3287 54.4148 15.266 54.5335 15.2054 54.6439L15.1448 54.7437C15.0736 54.8656 14.9971 54.9823 14.9227 55.0895L14.8408 55.1988C14.759 55.3049 14.6814 55.4079 14.5974 55.5046L14.54 55.5677C14.4486 55.6728 14.3466 55.7821 14.2381 55.8861L14.1829 55.9365C14.066 56.049 13.9543 56.1467 13.8353 56.2382L13.796 56.2707C13.6716 56.3674 13.543 56.4599 13.4133 56.5461L13.374 56.5724C13.24 56.6564 13.1029 56.7374 12.9658 56.8099L12.919 56.8319C12.7734 56.9066 12.6299 56.9738 12.4779 57.0379L12.445 57.0526C12.2898 57.1125 12.1356 57.1672 11.9815 57.2145L11.9347 57.2282C11.7732 57.2765 11.618 57.3154 11.4596 57.3459L11.4097 57.3553C11.2491 57.3868 11.0876 57.411 10.9218 57.4278L10.8633 57.432C10.6688 57.451 10.4966 57.4594 10.3393 57.4594H9.39644C7.99016 57.4594 7.19826 56.7941 6.35854 56.0889C5.53582 55.3974 4.6844 54.6817 3.25261 54.6817C1.45836 54.6817 0 56.1257 0 57.8997C0 59.6748 1.45942 61.1187 3.25261 61.1187C4.6844 61.1187 5.53582 60.4031 6.35854 59.7115C7.1972 59.0063 7.99016 58.3411 9.39644 58.3411H10.4222C10.4796 58.3422 10.5391 58.3464 10.5986 58.3495L10.7187 58.3558C10.8123 58.3621 10.9122 58.3705 11.0025 58.38C11.061 58.3873 11.1173 58.3958 11.1758 58.4052L11.2587 58.4178L11.3586 58.4367C11.4192 58.4473 11.4798 58.4588 11.5457 58.4735C11.6318 58.4903 11.7115 58.5124 11.7913 58.5334L11.8731 58.5555C11.9369 58.5734 11.9996 58.5902 12.0581 58.6091C12.141 58.6364 12.2217 58.6658 12.3068 58.6984C12.3918 58.7289 12.4758 58.7625 12.5587 58.7993C12.6384 58.8329 12.7139 58.8676 12.7957 58.9086C12.8755 58.9454 12.9541 58.9853 13.0317 59.0284C13.1061 59.0694 13.1805 59.1136 13.2528 59.1577L13.2889 59.1798C13.3527 59.2186 13.4176 59.2575 13.4813 59.3006C13.5398 59.3395 13.5951 59.3805 13.6535 59.4236L13.6939 59.4541C13.7619 59.5024 13.83 59.5539 13.8948 59.6096C13.965 59.6674 14.0298 59.7252 14.0936 59.782L14.1308 59.8156C14.1818 59.8629 14.2339 59.9091 14.2828 59.9585C14.3434 60.0195 14.4061 60.0846 14.4677 60.1529C14.5251 60.2139 14.5815 60.2759 14.6325 60.339C14.6899 60.4083 14.7473 60.4787 14.8026 60.5523C14.8536 60.6185 14.9036 60.6837 14.9493 60.7509C14.9886 60.8098 15.0258 60.8707 15.0641 60.9317L15.097 60.9853C15.1406 61.0536 15.1831 61.1209 15.2246 61.1997C15.2692 61.2764 15.3117 61.3552 15.3532 61.4424C15.3914 61.5171 15.4265 61.5896 15.4595 61.661C15.4967 61.7462 15.5307 61.8355 15.5626 61.9196L15.5945 62.0068C15.6115 62.053 15.6295 62.1003 15.6476 62.1602C15.6784 62.2464 15.7029 62.3336 15.7263 62.4366C15.7486 62.5123 15.7688 62.5869 15.7869 62.6763C15.8028 62.7372 15.8134 62.7982 15.8241 62.8602L15.8421 62.96C15.8549 63.0388 15.8676 63.1187 15.8783 63.1986C15.8878 63.2721 15.8932 63.3457 15.8995 63.4193L15.9059 63.4918L15.9208 63.7661V64.7908C15.9208 66.1822 15.2469 66.9662 14.5336 67.7954C13.8342 68.6088 13.1114 69.4496 13.1114 70.8652C13.1114 72.6403 14.5709 74.0853 16.364 74.0853C18.1594 74.0853 19.6198 72.6413 19.6198 70.8652C19.6198 69.4496 18.897 68.6088 18.1976 67.7954C17.4897 66.9673 16.8169 66.1833 16.8169 64.7918Z" fill="white"/>
<path d="M60.8094 34.5268H61.9573C63.3625 34.5268 64.1544 35.1921 64.9931 35.8973C65.8158 36.5888 66.6672 37.3045 68.1001 37.3045C69.8954 37.3045 71.3559 35.8605 71.3559 34.0865C71.3559 32.3125 69.8954 30.8685 68.1001 30.8685C66.6672 30.8685 65.8169 31.5842 64.9931 32.2757C64.1544 32.9809 63.3625 33.6462 61.9573 33.6462H60.8136C57.7991 33.5379 55.4372 31.1155 55.4372 28.1318C55.4372 27.9332 55.4447 27.7661 55.4596 27.6169L55.4681 27.5612C55.4829 27.3815 55.5138 27.2102 55.5382 27.0798L55.551 27.0294C55.5829 26.8623 55.6232 26.7005 55.6679 26.5554L55.6828 26.5134C55.7242 26.3778 55.7753 26.2338 55.8486 26.051L55.8624 26.0184C55.9209 25.8786 55.99 25.7336 56.0782 25.5675L56.0878 25.5455C56.1632 25.4067 56.2483 25.267 56.3407 25.1251L56.3588 25.0967C56.4502 24.959 56.5459 24.8298 56.6458 24.7058L56.6671 24.6763C56.7648 24.5565 56.868 24.442 56.9849 24.3211L57.0189 24.2843C57.1188 24.1813 57.2315 24.0773 57.3516 23.9754L57.409 23.927C57.528 23.824 57.6418 23.7368 57.763 23.6548L57.8289 23.6065C57.9447 23.5245 58.0659 23.4499 58.1849 23.3795L58.2785 23.3269C58.3954 23.2597 58.5187 23.1998 58.6473 23.1399L58.7536 23.0884C58.8737 23.0358 58.9992 22.9896 59.1193 22.9454L59.2638 22.896C59.3776 22.8572 59.4977 22.8246 59.6157 22.7941L59.6901 22.7752C59.7209 22.7668 59.7517 22.7594 59.7857 22.7521C59.9016 22.7268 60.0175 22.7058 60.128 22.688L60.3374 22.6575C60.4437 22.6438 60.5521 22.6365 60.6669 22.6291C60.7509 22.6228 60.837 22.6175 60.921 22.6165H61.9573C63.3625 22.6165 64.1544 23.2817 64.9931 23.9869C65.8158 24.6784 66.6672 25.3941 68.1001 25.3941C69.8954 25.3941 71.3559 23.9512 71.3559 22.1772C71.3559 20.4032 69.8954 18.9603 68.1001 18.9603C66.6672 18.9603 65.8169 19.6749 64.9942 20.3664C64.1555 21.0705 63.3636 21.7358 61.9584 21.7358H61.2228V21.7326H61.0103C60.8497 21.7326 60.6807 21.7242 60.4937 21.7074L60.4331 21.7022C60.2758 21.6864 60.1195 21.6622 59.9696 21.6349L59.8814 21.6181C59.7517 21.5918 59.6146 21.5571 59.4552 21.5098L59.3542 21.4825C59.2245 21.4415 59.0991 21.3963 58.9715 21.3448L58.8418 21.2944C58.7249 21.2471 58.6133 21.1935 58.5049 21.1389L58.3561 21.0621C58.2785 21.0222 58.2041 20.976 58.1286 20.9308L57.9022 20.791C57.8161 20.7311 57.7279 20.668 57.6471 20.6071L57.6078 20.5766C57.5642 20.543 57.5195 20.5083 57.4696 20.4663C57.4101 20.42 57.3527 20.3685 57.2931 20.317L57.189 20.2224C57.1507 20.1878 57.1124 20.1541 57.0752 20.1152C57.0242 20.0658 56.9785 20.0144 56.9317 19.9639L56.8828 19.9114C56.8265 19.8515 56.7702 19.7926 56.717 19.7243C56.6873 19.6886 56.5661 19.533 56.5661 19.533C56.5076 19.4563 56.4492 19.3796 56.3939 19.3008C56.3631 19.2566 56.3365 19.2114 56.3088 19.1673L56.2908 19.1379C56.2281 19.0401 56.1685 18.9434 56.1186 18.8573L56.0389 18.6933C55.9783 18.5861 55.9272 18.4726 55.8837 18.3717L55.8316 18.2414C55.7827 18.1174 55.7338 17.9902 55.6945 17.8673L55.6636 17.7611C55.6243 17.6203 55.586 17.4784 55.5563 17.3502L55.5414 17.2525C55.5074 17.0896 55.484 16.9414 55.4702 16.7911L55.4627 16.7312C55.4468 16.5746 55.4404 16.4075 55.4404 16.2215L55.4383 16.0113V15.2872C55.4383 13.8958 56.1111 13.1128 56.8233 12.2825C57.5227 11.4691 58.2445 10.6273 58.2445 9.21169C58.2445 7.4377 56.784 5.99475 54.9897 5.99475C53.1955 5.99475 51.7361 7.4377 51.7361 9.21169C51.7361 10.6284 52.4599 11.4691 53.1593 12.2825C53.8726 13.1117 54.5465 13.8958 54.5465 15.2862V16.2982L54.5444 16.335C54.5401 16.4086 54.5369 16.4811 54.5284 16.5683C54.5242 16.6744 54.5157 16.7816 54.5018 16.8899C54.4944 16.9529 54.4838 17.015 54.4678 17.0948C54.4551 17.2062 54.4317 17.3229 54.4094 17.429L54.3668 17.5951C54.336 17.717 54.302 17.8326 54.2659 17.944L54.2148 18.0827C54.1681 18.2057 54.1213 18.3276 54.0671 18.4453L54.0129 18.5598C53.9555 18.6839 53.8906 18.8058 53.8322 18.914L53.7748 19.0044C53.6993 19.1284 53.6228 19.2514 53.5452 19.3628L53.4952 19.43C53.4059 19.5509 53.3156 19.6675 53.2199 19.7779L53.17 19.8325C53.0626 19.9576 52.9606 20.0648 52.8532 20.1636L52.816 20.1993C52.7023 20.3076 52.5822 20.4095 52.4567 20.5114L52.4302 20.5335C52.3164 20.6218 52.1814 20.7237 52.0284 20.8183L51.9997 20.8383C51.8721 20.9224 51.7329 21.0043 51.5894 21.0811L51.5532 21.0989C51.4182 21.1693 51.2705 21.2376 51.1068 21.306L51.0728 21.3196C50.9133 21.3848 50.756 21.4405 50.6008 21.4857L50.57 21.4951C50.3989 21.5445 50.2384 21.5855 50.0853 21.617L50.0407 21.6244C49.8748 21.657 49.7058 21.6822 49.5411 21.698L49.5017 21.7011C49.3125 21.719 49.1382 21.7274 48.9692 21.7274L48.7566 21.7305H48.0243C46.6169 21.7305 45.8229 21.0642 44.9832 20.3601C44.1604 19.6686 43.309 18.955 41.8783 18.955C40.0819 18.955 38.6193 20.3979 38.6193 22.1719C38.6193 23.9459 40.0809 25.3889 41.8783 25.3889C43.309 25.3889 44.1594 24.6742 44.9832 23.9838C45.8229 23.2786 46.6158 22.6123 48.0243 22.6123H49.0553C49.1265 22.6133 49.1967 22.6186 49.2668 22.6217L49.3296 22.6249C49.4327 22.6312 49.5326 22.6386 49.6357 22.6533C49.7165 22.6627 49.7983 22.6743 49.8759 22.6869C49.9748 22.7037 50.0736 22.7216 50.1778 22.7437C50.2405 22.7552 50.3011 22.771 50.3585 22.7867L50.4031 22.7983C50.5009 22.8246 50.5955 22.8508 50.6965 22.8845C50.7539 22.9023 50.8092 22.9223 50.8644 22.9423L50.924 22.9644C51.0133 22.998 51.1025 23.0316 51.1823 23.0652C51.1823 23.0652 51.3662 23.1504 51.4065 23.1703C51.4916 23.2113 51.5798 23.2565 51.6553 23.2954L51.7042 23.3238C51.7573 23.3553 51.8115 23.3868 51.8742 23.4268C51.9316 23.4593 51.9859 23.494 52.0411 23.5308L52.1113 23.576C52.1655 23.6107 52.2154 23.6485 52.2665 23.6863L52.3069 23.7168C52.3802 23.7715 52.4546 23.8282 52.5237 23.8829C52.5864 23.9344 52.6481 23.988 52.7161 24.0521C52.7831 24.1088 52.8436 24.1666 52.9117 24.236C52.9638 24.2843 53.0073 24.3316 53.052 24.381L53.0871 24.4199C53.1476 24.4819 53.2061 24.5439 53.2593 24.6091C53.2933 24.6501 53.3262 24.6932 53.3592 24.7362L53.4655 24.875C53.5016 24.9233 53.5377 24.9706 53.5718 25.0221C53.6228 25.0967 53.6717 25.1724 53.7184 25.2481L53.7769 25.3437C53.8014 25.3836 53.8269 25.4236 53.8492 25.4645C53.8832 25.5245 53.914 25.5854 53.947 25.6485L53.9767 25.7052C54.0108 25.783 54.0469 25.8597 54.0809 25.928C54.1171 26.0152 54.1511 26.1035 54.1904 26.2076C54.2212 26.278 54.2467 26.3494 54.2712 26.423C54.3009 26.5134 54.3265 26.6048 54.3509 26.7036L54.3605 26.7372C54.3785 26.8013 54.3966 26.8655 54.4104 26.9338C54.4317 27.0326 54.4519 27.1334 54.4678 27.2196L54.4838 27.33C54.4912 27.3752 54.4976 27.4204 54.5029 27.4676C54.5146 27.5664 54.5242 27.6631 54.5273 27.7682C54.5273 27.7682 54.5412 27.9732 54.5454 28.0383V28.2159C54.4965 31.1512 52.1357 33.5358 49.1797 33.643H48.0243C46.6169 33.643 45.8229 32.9767 44.9832 32.2715C44.1604 31.58 43.309 30.8653 41.8783 30.8653C40.0819 30.8653 38.6193 32.3093 38.6193 34.0833C38.6193 35.8573 40.0809 37.3013 41.8783 37.3013C43.309 37.3013 44.1594 36.5867 44.9832 35.8962C45.8229 35.191 46.6158 34.5247 48.0243 34.5247H49.1722C52.1857 34.633 54.5454 37.0544 54.5454 40.038C54.5454 43.0195 52.1846 45.4419 49.1797 45.5523H48.0243C46.6169 45.5523 45.8229 44.886 44.9832 44.1808C44.1604 43.4893 43.309 42.7747 41.8783 42.7747C40.0819 42.7747 38.6193 44.2176 38.6193 45.9916C38.6193 47.7656 40.0809 49.2096 41.8783 49.2096C43.309 49.2096 44.1594 48.4949 44.9832 47.8034C45.8229 47.0982 46.6158 46.433 48.0243 46.433H49.1712C52.1347 46.5412 54.4955 48.9237 54.5444 51.8559V52.0272L54.5422 52.0618C54.538 52.1375 54.5348 52.2111 54.5252 52.2994C54.521 52.4045 54.5125 52.5106 54.4987 52.621C54.4923 52.6861 54.4806 52.7471 54.4657 52.8269C54.4529 52.9404 54.4296 53.0518 54.4062 53.1601C54.3987 53.1958 54.3647 53.3293 54.3647 53.3293C54.3339 53.448 54.2999 53.5657 54.2627 53.6771L54.2117 53.8159C54.1659 53.9399 54.1181 54.0586 54.0639 54.1785L54.0129 54.2909C53.9523 54.416 53.8906 54.5358 53.8279 54.6482L53.7727 54.7397C53.6972 54.8637 53.6217 54.9824 53.5388 55.098L53.4931 55.1653C53.4049 55.2819 53.3156 55.3975 53.2135 55.5121L53.1657 55.5688C53.069 55.6824 52.9648 55.7906 52.8575 55.8904L52.8086 55.9356C52.6768 56.0586 52.5662 56.1542 52.4525 56.2425L52.4185 56.2719C52.2835 56.3791 52.1591 56.4685 52.0241 56.5525L51.9997 56.5704C51.87 56.6545 51.7286 56.7375 51.5979 56.809L51.5458 56.8321C51.398 56.912 51.2471 56.9813 51.1057 57.0391L51.0664 57.0538C50.9155 57.1169 50.7581 57.1715 50.6019 57.2188L50.5658 57.2293C50.4233 57.2735 50.2628 57.3134 50.0885 57.3502L50.0407 57.3576C49.8791 57.3901 49.7154 57.4143 49.5411 57.4322L49.4996 57.4353C49.3253 57.4521 49.151 57.4605 48.9671 57.4605L48.7545 57.4637H48.0221C46.6148 57.4637 45.8208 56.7974 44.981 56.0922C44.1583 55.4007 43.3069 54.6861 41.8762 54.6861C40.0798 54.6861 38.6172 56.1301 38.6172 57.9041C38.6172 59.6791 40.0787 61.1231 41.8762 61.1231C43.3069 61.1231 44.1573 60.4085 44.981 59.7169C45.8208 59.0117 46.6137 58.3454 48.0221 58.3454H49.0447C49.1031 58.3465 49.1627 58.3496 49.2211 58.3539L49.3412 58.3602C49.4401 58.3665 49.5358 58.3749 49.6272 58.3843C49.691 58.3917 49.7547 58.4022 49.8196 58.4117L49.8812 58.4211L49.9673 58.4369C50.0332 58.4484 50.0981 58.4611 50.1682 58.4758C50.2447 58.4915 50.3149 58.5104 50.4106 58.5357L50.4701 58.5514C50.5413 58.5714 50.6125 58.5903 50.6848 58.6145C50.7592 58.6387 50.8347 58.6649 50.9197 58.6954L50.9835 58.7206C51.0494 58.7459 51.1185 58.7732 51.1833 58.8005L51.4055 58.9003C51.4055 58.9003 51.6074 59.0033 51.6542 59.0286C51.7116 59.0611 51.871 59.1557 51.871 59.1557C51.871 59.1557 52.0411 59.2619 52.106 59.305C52.1697 59.347 52.2293 59.3922 52.3122 59.4542C52.3823 59.5046 52.4525 59.5572 52.5184 59.6118C52.579 59.6633 52.6385 59.7159 52.7161 59.7842C52.7809 59.842 52.8426 59.8987 52.9095 59.966C52.9606 60.0133 53.0063 60.0637 53.052 60.1131C53.052 60.1131 53.2263 60.3034 53.2571 60.338C53.3135 60.4084 53.3687 60.4799 53.4272 60.5566C53.4782 60.6207 53.525 60.6838 53.5718 60.7553C53.6238 60.8288 53.6727 60.9045 53.7184 60.9833L53.778 61.08C53.8024 61.1189 53.8269 61.1578 53.8481 61.1935C53.8779 61.2471 53.9055 61.3018 53.9342 61.3575L53.9757 61.4352C54.0097 61.514 54.0469 61.5908 54.0799 61.6591C54.1011 61.7085 54.1893 61.9323 54.1893 61.9323C54.218 62.0038 54.2446 62.0805 54.2691 62.153C54.2988 62.2444 54.3243 62.3359 54.3488 62.4326L54.3594 62.4715C54.3775 62.5356 54.3945 62.5976 54.4083 62.6659C54.4296 62.7636 54.4498 62.8635 54.4657 62.9528L54.4816 63.0568C54.4891 63.1031 54.4955 63.1504 54.5018 63.1998C54.5135 63.2964 54.522 63.3952 54.5263 63.4993C54.5263 63.4993 54.5412 63.7084 54.5444 63.7683V64.793C54.5444 66.1844 53.8705 66.9684 53.1572 67.7976C52.4578 68.6111 51.7339 69.4518 51.7339 70.8675C51.7339 72.6183 53.1732 74.0623 54.944 74.0875H55.0322H55.0333C56.8021 74.0634 58.2413 72.6183 58.2413 70.8675C58.2413 69.4518 57.5185 68.6111 56.8201 67.7976C56.1079 66.9684 55.434 66.1844 55.434 64.793V64.0699H55.4362V63.8597C55.4362 63.6643 55.4436 63.4919 55.4585 63.3469L55.467 63.2912C55.4787 63.1483 55.5021 62.9917 55.5382 62.8099L55.551 62.7594C55.5829 62.5913 55.6232 62.4305 55.67 62.2833L55.6828 62.2434C55.7242 62.1089 55.7774 61.9607 55.8507 61.7768L55.8613 61.7484C55.9145 61.6254 55.9857 61.4646 56.0697 61.3102L56.0899 61.2734C56.1664 61.1315 56.2514 60.9949 56.3333 60.8646L56.3599 60.8246C56.4523 60.6869 56.5438 60.5629 56.6373 60.4473L56.6766 60.4C56.7595 60.296 56.8563 60.1878 56.9817 60.0574L57.0263 60.0101C57.1294 59.904 57.2379 59.8042 57.3527 59.7075L57.4143 59.6539C57.5217 59.5624 57.6333 59.4752 57.7523 59.3922L57.8342 59.3344C57.9458 59.2556 58.0627 59.1841 58.1796 59.1147L58.2827 59.0538C58.3954 58.9897 58.5134 58.9308 58.6324 58.8762L58.7643 58.8163C58.8737 58.7669 58.9896 58.7227 59.1171 58.6786C59.1682 58.6586 59.2181 58.6397 59.266 58.6239C59.3744 58.5893 59.4902 58.5556 59.6061 58.5262L59.6444 58.5167C59.6954 58.5041 59.7453 58.4915 59.7953 58.48C59.9005 58.4558 60.0079 58.4358 60.1142 58.4222L60.1503 58.4159C60.213 58.4054 60.2736 58.3938 60.3406 58.3875C60.4405 58.3759 60.5447 58.3665 60.651 58.3612L60.719 58.357C60.7892 58.3528 60.8604 58.3475 60.9295 58.3465H61.9573C63.3625 58.3465 64.1544 59.0117 64.9931 59.7169C65.8158 60.4085 66.6672 61.1241 68.1001 61.1241C69.8954 61.1241 71.3559 59.6801 71.3559 57.9051C71.3559 56.1301 69.8954 54.6871 68.1001 54.6871C66.6672 54.6871 65.8169 55.4028 64.9931 56.0943C64.1544 56.7985 63.3625 57.4648 61.9573 57.4648H61.2218V57.4616H61.0092C60.8349 57.4616 60.6616 57.4532 60.4926 57.4374L60.4341 57.4322C60.2874 57.4175 60.1386 57.3954 59.9654 57.3639L59.8814 57.3481C59.7347 57.3197 59.5933 57.2829 59.4498 57.242L59.3552 57.2157C59.2256 57.1736 59.0948 57.1274 58.9641 57.0738L58.8461 57.0286C58.7249 56.9782 58.6101 56.9214 58.4964 56.8668L58.3603 56.7985C58.2562 56.7428 58.1562 56.6818 58.0553 56.6187L58.0287 56.6019C57.9872 56.5767 57.9468 56.5515 57.9011 56.52C57.8108 56.4611 57.7247 56.4001 57.6386 56.3339C57.5812 56.2909 57.528 56.2488 57.4738 56.2057C57.4345 56.1731 57.2538 56.0166 57.2538 56.0166L57.1858 55.9545C57.1475 55.9188 57.1092 55.8852 57.0742 55.8494C57.0306 55.8064 56.9902 55.7622 56.9498 55.717L56.8956 55.6571C56.8329 55.592 56.7744 55.5279 56.717 55.4574C56.6766 55.4091 56.6373 55.3566 56.598 55.3051L56.5767 55.2767C56.5151 55.1979 56.4534 55.118 56.3939 55.0329C56.3747 55.0055 56.2886 54.8721 56.2886 54.8721L56.2546 54.8153C56.2068 54.7376 56.16 54.6608 56.1218 54.5915L56.0389 54.4265C55.9793 54.3172 55.9294 54.211 55.8837 54.1049L55.8114 53.9231C55.7699 53.8148 55.7285 53.7045 55.6945 53.6036L55.6636 53.4911C55.6243 53.3514 55.586 53.2105 55.5563 53.0823L55.5414 52.9825C55.5074 52.8206 55.484 52.6724 55.4702 52.5232L55.4627 52.4633C55.4468 52.3078 55.4404 52.1407 55.4404 51.9536C55.4404 48.9689 57.8033 46.5465 60.8125 46.4393H61.9605C63.3657 46.4393 64.1576 47.1045 64.9963 47.8087C65.819 48.5002 66.6704 49.2159 68.1033 49.2159C69.8986 49.2159 71.3591 47.7719 71.3591 45.9979C71.3591 44.2239 69.8986 42.781 68.1033 42.781C66.6704 42.781 65.8201 43.4967 64.9963 44.1882C64.1576 44.8923 63.3657 45.5586 61.9605 45.5586H60.8168C57.8023 45.4504 55.4404 43.029 55.4404 40.0443C55.4372 37.0565 57.8002 34.6351 60.8094 34.5268Z" fill="white"/>
<path d="M48.837 60.6027C47.4041 60.6027 46.5538 61.3174 45.731 62.0089C44.8924 62.713 44.1005 63.3793 42.6942 63.3793H41.964V63.3772H41.7514C41.5856 63.3772 41.4155 63.3688 41.2231 63.3499L41.1699 63.3478C41.0105 63.3299 40.8564 63.3057 40.7086 63.2795L40.6193 63.2606C40.4769 63.2311 40.3313 63.1954 40.1963 63.1586L40.0868 63.125C39.9571 63.0861 39.8306 63.0388 39.7105 62.9926L39.5798 62.939C39.465 62.8906 39.3502 62.837 39.2418 62.7845L39.0929 62.7067C38.993 62.6531 38.8921 62.5922 38.7974 62.5344C38.7432 62.5007 38.688 62.466 38.6359 62.4314C38.5487 62.3725 38.4658 62.3137 38.3744 62.2432C38.3191 62.2012 38.2628 62.1571 38.2086 62.114C38.1363 62.0541 38.0651 61.9931 38.0002 61.9332L37.9397 61.8765C37.8982 61.8376 37.8557 61.7997 37.8121 61.7556C37.7526 61.6988 37.6962 61.6389 37.6431 61.5811L37.6006 61.5339C37.5495 61.4771 37.4996 61.4224 37.4475 61.3604C37.4039 61.3058 37.3593 61.2511 37.32 61.1986L37.2721 61.1355C37.2243 61.0735 37.1765 61.0105 37.1329 60.9422C37.0989 60.8917 37.0638 60.8371 37.0287 60.7814C36.9671 60.6868 36.9107 60.5912 36.8565 60.4903L36.7789 60.3463C36.7226 60.2359 36.6694 60.1256 36.6227 60.0131L36.5695 59.8776C36.5174 59.7599 36.476 59.6379 36.4324 59.5087L36.4016 59.4057C36.3622 59.2659 36.3229 59.1219 36.2942 58.9874L36.2793 58.8981C36.2538 58.7646 36.2251 58.6059 36.2092 58.4357L36.2039 58.38C36.189 58.1876 36.1773 58.0279 36.1773 57.8629C36.1773 54.8803 38.5381 52.4579 41.5452 52.3486H42.6974C44.1037 52.3486 44.8956 53.0138 45.7342 53.719C46.5569 54.4106 47.4084 55.1262 48.8401 55.1262C50.6344 55.1262 52.0949 53.6822 52.0949 51.9082C52.0949 50.1332 50.6344 48.6903 48.8401 48.6903C47.4073 48.6903 46.5569 49.406 45.7342 50.0975C44.8956 50.8027 44.1037 51.4679 42.6974 51.4679H41.5526C38.5381 51.3597 36.1762 48.9372 36.1762 45.9547C36.1762 42.97 38.537 40.5475 41.5441 40.4393H42.6963C44.1026 40.4393 44.8945 41.1045 45.7332 41.8097C46.5559 42.5012 47.4073 43.2159 48.8391 43.2159C50.6333 43.2159 52.0938 41.7719 52.0938 39.9968C52.0938 38.2229 50.6333 36.7789 48.8391 36.7789C47.4062 36.7789 46.5559 37.4945 45.7332 38.1861C44.8945 38.8913 44.1026 39.5565 42.6963 39.5565H41.5515C38.537 39.4504 36.1752 37.029 36.1752 34.0432C36.1752 31.0596 38.536 28.6382 41.543 28.53H42.6953C44.1015 28.53 44.8934 29.1952 45.7321 29.9004C46.5548 30.5919 47.4062 31.3066 48.838 31.3066C50.6323 31.3066 52.0928 29.8626 52.0928 28.0886C52.0928 26.3135 50.6323 24.8685 48.838 24.8685C47.4052 24.8685 46.5548 25.5842 45.7321 26.2757C44.8934 26.9809 44.1015 27.6461 42.6953 27.6461H41.5505C38.536 27.5389 36.1741 25.1165 36.1741 22.1329C36.1741 21.9595 36.1869 21.7829 36.1985 21.62L36.2071 21.5654C36.2209 21.4098 36.2443 21.248 36.2793 21.0735L36.2889 21.0315C36.3187 20.8844 36.3591 20.7278 36.4133 20.547L36.4207 20.5186C36.4696 20.361 36.5259 20.2065 36.594 20.0457L36.6025 20.0184C36.6599 19.8818 36.7279 19.7388 36.8034 19.5928L36.831 19.5476C36.9086 19.4057 36.9883 19.2691 37.0659 19.1482L37.1063 19.0936C37.1807 18.9769 37.2711 18.855 37.3869 18.711L37.4103 18.6774C37.5092 18.5597 37.6112 18.4451 37.7186 18.3348L37.7653 18.2854C37.8695 18.1792 37.9779 18.0783 38.0842 17.9848L38.1522 17.9291C38.2617 17.8356 38.3755 17.7505 38.4881 17.6685L38.5721 17.6096C38.6848 17.5298 38.8006 17.4593 38.9197 17.3889L39.0217 17.3301C39.1397 17.266 39.2556 17.2071 39.3704 17.1525L39.5054 17.0926C39.617 17.0411 39.735 16.998 39.8487 16.9559C39.9029 16.9381 39.9518 16.9192 40.0071 16.8981C40.107 16.8666 40.209 16.8382 40.31 16.8109L40.3366 16.8036C40.3706 16.7962 40.4992 16.7647 40.5332 16.7573C40.6406 16.7321 40.7511 16.7132 40.8691 16.6953C40.935 16.6827 41.0094 16.6722 41.0775 16.6638C41.1806 16.6522 41.2847 16.6438 41.3889 16.6375L41.4793 16.6322C41.5441 16.628 41.6089 16.6238 41.6695 16.6217H42.6953C44.1015 16.6217 44.8934 17.288 45.7321 17.9922C46.5548 18.6837 47.4062 19.3994 48.838 19.3994C50.6323 19.3994 52.0928 17.9554 52.0928 16.1814C52.0928 14.4063 50.6323 12.9634 48.838 12.9634C47.4052 12.9634 46.5548 13.6791 45.7321 14.3706C44.8934 15.0758 44.1015 15.741 42.6953 15.741H41.965V15.7389H41.7524C41.5728 15.7389 41.4027 15.7305 41.2242 15.7127L41.1699 15.7095C41.0158 15.6927 40.8638 15.6696 40.698 15.637L40.6247 15.6254C40.4801 15.595 40.3323 15.5592 40.192 15.5172L40.0911 15.4878C39.9603 15.4468 39.8306 15.4016 39.702 15.3511L39.5819 15.3039C39.466 15.2545 39.3491 15.1988 39.2343 15.141L39.1004 15.0747C39.0175 15.0285 38.9367 14.9802 38.8548 14.9308L38.7974 14.8961L38.7326 14.8551C38.7018 14.8362 38.671 14.8162 38.6359 14.792C38.5466 14.7342 38.4637 14.6712 38.3638 14.5955C38.3117 14.5556 38.2607 14.5177 38.2086 14.4757C38.132 14.4148 38.0598 14.3506 37.9939 14.2928L37.9375 14.2403C37.8961 14.2014 37.8557 14.1636 37.8132 14.1205C37.7632 14.0721 37.7164 14.0217 37.6686 13.9723L37.6325 13.9345C37.5719 13.8693 37.5124 13.8021 37.4518 13.7285C37.4061 13.6759 37.3646 13.6223 37.3125 13.5551L37.2689 13.4983C37.2211 13.4363 37.1733 13.3733 37.1339 13.3165C37.0978 13.2587 37.0606 13.1999 37.0245 13.1442C36.9649 13.0506 36.9086 12.955 36.8544 12.8531L36.7736 12.707C36.7173 12.5966 36.6641 12.4873 36.6173 12.378L36.5631 12.2467C36.5132 12.1216 36.4707 11.9997 36.4303 11.8715L36.3973 11.7643C36.358 11.6266 36.3197 11.4868 36.29 11.3502L36.274 11.2619C36.2474 11.1179 36.2209 10.9624 36.2049 10.8027L36.1996 10.7428C36.1847 10.5525 36.173 10.3938 36.173 10.2278L36.1709 10.0176V9.2935C36.1709 7.90205 36.8448 7.11805 37.5581 6.28885C38.2575 5.47542 38.9813 4.63466 38.9813 3.21799C38.9813 1.444 37.5208 0 35.7266 0C33.9313 0 32.4719 1.44295 32.4719 3.21799C32.4719 4.63361 33.1947 5.47437 33.893 6.2878C34.6052 7.117 35.278 7.901 35.278 9.29245V10.3192C35.278 10.4022 35.2738 10.4874 35.2685 10.5662C35.2685 10.5662 35.2462 10.8205 35.2387 10.8909C35.2291 10.9603 35.2196 11.0286 35.2089 11.0969C35.1898 11.2094 35.1707 11.3229 35.1399 11.4553L35.0952 11.6298C35.0654 11.738 35.0357 11.8452 34.9985 11.9513L34.9475 12.0974C34.9018 12.2193 34.8561 12.337 34.8072 12.4484L34.7476 12.5724C34.6902 12.6923 34.6296 12.8121 34.5701 12.9172L34.5032 13.0233C34.433 13.1431 34.3597 13.2577 34.281 13.3691L34.2225 13.4489C34.1375 13.5666 34.0461 13.6791 33.96 13.7821L33.9015 13.8462C33.8037 13.9576 33.7006 14.0669 33.5997 14.1657L33.5465 14.2151C33.4317 14.3254 33.3063 14.4295 33.2032 14.5125L33.1564 14.5482C33.0299 14.646 32.9045 14.7363 32.7716 14.8267L32.7397 14.8488C32.5984 14.9381 32.458 15.0201 32.322 15.0905L32.2837 15.1105C32.1424 15.1851 31.9935 15.2545 31.8469 15.3144L31.8054 15.3301C31.6534 15.3921 31.495 15.4478 31.342 15.4941L31.3005 15.5056C31.1623 15.5487 31.0071 15.5876 30.8126 15.6275L30.7797 15.6349C30.6181 15.6664 30.448 15.6917 30.2854 15.7095L30.2365 15.7127C30.0632 15.7305 29.8889 15.7389 29.7008 15.7389L29.4882 15.741H28.7579C27.3506 15.741 26.5587 15.0747 25.719 14.3696C24.8963 13.678 24.0459 12.9634 22.6152 12.9634C20.8199 12.9634 19.3594 14.4074 19.3594 16.1814C19.3594 17.9554 20.8199 19.3994 22.6152 19.3994C24.0459 19.3994 24.8963 18.6847 25.719 17.9932C26.5576 17.288 27.3506 16.6217 28.7579 16.6217H29.7805C29.8496 16.6238 29.9197 16.628 29.9909 16.6322L30.0749 16.6375C30.1727 16.6449 30.2694 16.6522 30.364 16.6617C30.4523 16.6722 30.5341 16.6848 30.6245 16.7016C30.7159 16.7153 30.8094 16.7321 30.903 16.7521C30.9859 16.7699 31.0677 16.792 31.1549 16.8151C31.2431 16.8382 31.3345 16.8635 31.4185 16.8887C31.5025 16.9171 31.5801 16.9454 31.6619 16.9759C31.748 17.0074 31.8352 17.0411 31.9191 17.0778C31.9787 17.1031 32.035 17.1304 32.0924 17.1567L32.1455 17.1819C32.2295 17.2239 32.3114 17.266 32.3921 17.3091C32.4655 17.349 32.5378 17.3921 32.6111 17.4362C32.6876 17.4825 32.7631 17.5298 32.8418 17.5844C32.9109 17.6285 32.9789 17.6769 33.0618 17.741C33.1256 17.7893 33.1904 17.8366 33.2584 17.8955C33.3243 17.947 33.3871 18.0016 33.4689 18.0773C33.5263 18.1288 33.5858 18.1824 33.6411 18.2391C33.7028 18.3001 33.7644 18.3642 33.8229 18.4294C33.8803 18.4903 33.9377 18.5523 33.994 18.6238C34.045 18.6826 34.0929 18.7436 34.1407 18.8056L34.1566 18.8256L34.3076 19.0326C34.3575 19.1062 34.4075 19.1839 34.4553 19.2607L34.5829 19.4687L34.7094 19.7126C34.7253 19.7483 34.7423 19.784 34.7604 19.8198C34.7795 19.8597 34.7986 19.8996 34.8167 19.9406C34.8539 20.0257 34.8879 20.1119 34.923 20.2097C34.9538 20.2843 34.9794 20.3589 35.007 20.4409C35.0314 20.5071 35.0495 20.5733 35.0676 20.6406L35.0867 20.7099C35.108 20.7898 35.1282 20.8654 35.1473 20.9464C35.1622 21.0136 35.1739 21.0819 35.1856 21.1492L35.2015 21.2375C35.2164 21.3163 35.227 21.3941 35.2366 21.475C35.2461 21.5549 35.2525 21.6358 35.261 21.7188L35.2663 21.7745C35.2717 21.8649 35.2759 21.9542 35.2759 22.0457V22.2254C35.2291 25.1607 32.8715 27.5432 29.9165 27.6503H28.7601C27.3527 27.6503 26.5608 26.9841 25.7211 26.2789C24.8984 25.5873 24.048 24.8727 22.6173 24.8727C20.822 24.8727 19.3615 26.3167 19.3615 28.0928C19.3615 29.8678 20.822 31.3108 22.6173 31.3108C24.048 31.3108 24.8984 30.5961 25.7211 29.9046C26.5598 29.1994 27.3527 28.5342 28.7601 28.5342H29.9091C32.9236 28.6424 35.2855 31.0638 35.2855 34.0474C35.2855 37.0311 32.9247 39.4525 29.9187 39.5607H28.7601C27.3527 39.5607 26.5608 38.8944 25.7211 38.1892C24.8984 37.4977 24.048 36.7831 22.6173 36.7831C20.822 36.7831 19.3615 38.226 19.3615 40.001C19.3615 41.7761 20.822 43.2201 22.6173 43.2201C24.048 43.2201 24.8984 42.5054 25.7211 41.8139C26.5598 41.1087 27.3527 40.4435 28.7601 40.4435H29.9091C32.9247 40.5517 35.2865 42.9742 35.2865 45.9589C35.2865 48.9414 32.9257 51.3628 29.9197 51.4711H28.7601C27.3527 51.4711 26.5608 50.8048 25.7211 50.0996C24.8984 49.4081 24.048 48.6934 22.6173 48.6934C20.822 48.6934 19.3615 50.1374 19.3615 51.9114C19.3615 53.6854 20.822 55.1294 22.6173 55.1294C24.048 55.1294 24.8984 54.4148 25.7211 53.7232C26.5598 53.018 27.3527 52.3517 28.7601 52.3517H29.9091C32.8737 52.46 35.2323 54.8446 35.2791 57.7757V57.9575C35.2791 58.0437 35.2748 58.1277 35.2695 58.2055C35.2695 58.2055 35.2483 58.4556 35.2398 58.5313C35.2302 58.6017 35.2206 58.6679 35.21 58.7352C35.1909 58.8497 35.1717 58.9622 35.1473 59.0683C35.1314 59.1282 35.1154 59.1881 35.1027 59.2428C35.0708 59.3594 35.0399 59.4729 34.99 59.6075C34.9783 59.6527 34.9623 59.6958 34.9475 59.7357C34.9018 59.8576 34.8561 59.9774 34.8082 60.0878L34.7487 60.2107C34.6913 60.3295 34.6307 60.4482 34.5669 60.5607L34.5053 60.6605C34.4351 60.7793 34.3607 60.8959 34.2831 61.0073L34.2247 61.0861C34.1396 61.2028 34.0482 61.3163 33.961 61.4203L33.9026 61.4845C33.8048 61.5969 33.7017 61.7052 33.605 61.8018L33.5465 61.8533C33.437 61.9563 33.3212 62.0562 33.2053 62.1497L33.1543 62.1896C33.032 62.2863 32.9077 62.3746 32.7844 62.4576L32.7333 62.4892C32.5899 62.5827 32.457 62.6615 32.3241 62.7298L32.288 62.7498C32.12 62.8349 31.9797 62.899 31.8447 62.9537L31.8075 62.9694C31.6523 63.0314 31.4961 63.0861 31.3547 63.1302L31.3016 63.1439C31.1644 63.188 31.0114 63.2259 30.8179 63.2648L30.785 63.2721C30.6149 63.3047 30.4459 63.3289 30.2928 63.3478L30.2429 63.3499C30.0526 63.3678 29.8762 63.3762 29.705 63.3762L29.4924 63.3783H28.7622C27.3548 63.3783 26.563 62.713 25.7232 62.0078C24.9005 61.3163 24.0502 60.6017 22.6194 60.6017C20.8241 60.6017 19.3636 62.0446 19.3636 63.8186C19.3636 65.5936 20.8241 67.0366 22.6194 67.0366C24.0502 67.0366 24.9005 66.322 25.7232 65.6304C26.5619 64.9252 27.3548 64.2589 28.7622 64.2589H29.7869C29.8815 64.2611 29.9793 64.2663 30.0845 64.2758C30.1791 64.281 30.2737 64.2873 30.3747 64.2999C30.4608 64.3083 30.5426 64.322 30.6266 64.3367C30.7191 64.3525 30.8137 64.3682 30.9083 64.3882C30.9731 64.4019 31.0379 64.4187 31.1039 64.4355L31.157 64.4492C31.2452 64.4733 31.3377 64.4986 31.4281 64.5269C31.4738 64.5417 31.5173 64.5574 31.5609 64.5732L31.6619 64.6079L31.9255 64.713C32.0031 64.7455 32.0786 64.7823 32.153 64.8191C32.238 64.8611 32.3209 64.9032 32.3964 64.9421C32.4687 64.982 32.542 65.0251 32.6196 65.0766C32.694 65.1207 32.7674 65.1649 32.8471 65.2206C32.9194 65.2658 32.9874 65.3162 33.0586 65.3709C33.1288 65.4202 33.1957 65.4717 33.2616 65.5264C33.3297 65.5831 33.3966 65.6409 33.4615 65.6987L33.4891 65.724C33.5444 65.7744 33.5996 65.8238 33.6475 65.8711C33.6953 65.9205 33.7431 65.9709 33.791 66.0224L33.8792 66.117C33.9185 66.1601 33.9589 66.2053 34.0004 66.2557C34.0599 66.3262 34.1173 66.3997 34.1694 66.468L34.3139 66.6625L34.4394 66.86C34.4394 66.86 34.552 67.044 34.5893 67.1028C34.635 67.189 34.6785 67.2762 34.7221 67.3645L34.7381 67.3971C34.7668 67.4538 34.7965 67.5137 34.8231 67.5778C34.855 67.6482 34.8837 67.7208 34.9124 67.7933L34.9336 67.8469C34.9602 67.9204 34.9857 67.9919 35.0134 68.077C35.0431 68.1538 35.0623 68.2273 35.0825 68.304L35.0963 68.3534C35.1175 68.4302 35.1377 68.5058 35.1558 68.5804C35.1717 68.6519 35.1834 68.7244 35.1962 68.798L35.21 68.8821C35.2249 68.9577 35.2355 69.0355 35.244 69.1091C35.2515 69.1805 35.2738 69.4117 35.2738 69.4117C35.2791 69.5021 35.2834 69.5925 35.2834 69.6818V70.7086C35.2834 72.1 34.6105 72.883 33.8983 73.7132C33.2 74.5267 32.4772 75.3674 32.4772 76.7831C32.4772 78.557 33.9377 80 35.7319 80C37.5262 80 38.9867 78.557 38.9867 76.7831C38.9867 75.3674 38.2628 74.5256 37.5634 73.7122C36.8501 72.883 36.1762 72.099 36.1762 70.7086V69.9834H36.1784V69.7733C36.1784 69.6009 36.1911 69.4254 36.2028 69.2604L36.2102 69.2047C36.2241 69.0513 36.2474 68.8905 36.2825 68.7139L36.291 68.6719C36.3197 68.5289 36.3591 68.3766 36.4154 68.1874L36.4228 68.1569C36.4717 68.0024 36.5281 67.849 36.5982 67.6829L36.6057 67.6577C36.6609 67.5263 36.7268 67.3876 36.8066 67.2321L36.8331 67.1869C36.9107 67.0461 36.9904 66.9105 37.0765 66.7781L37.1074 66.7308C37.1839 66.6152 37.2721 66.4943 37.3869 66.3514L37.4114 66.3156C37.5113 66.199 37.6155 66.0834 37.7186 65.972L37.7664 65.9226C37.8716 65.8196 37.9811 65.7177 38.0895 65.622L38.1533 65.5663C38.2638 65.4738 38.3765 65.3866 38.4924 65.3046L38.5732 65.2468C38.6869 65.1691 38.8028 65.0955 38.9229 65.0251L39.0239 64.9662C39.1418 64.9021 39.2588 64.8443 39.3757 64.7876L39.5064 64.7266C39.6191 64.6762 39.7371 64.632 39.8466 64.5911C39.8795 64.5805 40.0124 64.5343 40.0124 64.5343C40.1229 64.4975 40.2356 64.466 40.344 64.4387L40.5332 64.3903C40.6427 64.3661 40.7533 64.3483 40.8691 64.3304C40.9361 64.3189 41.0105 64.3073 41.0817 64.2989C41.1753 64.2884 41.2699 64.2821 41.3645 64.2747L41.3942 64.2726C41.4899 64.2663 41.5802 64.26 41.6727 64.2589H42.6985C44.1047 64.2589 44.8966 64.9242 45.7353 65.6294C46.558 66.3209 47.4094 67.0366 48.8412 67.0366C50.6355 67.0366 52.096 65.5926 52.096 63.8186C52.0917 62.0457 50.6323 60.6027 48.837 60.6027Z" fill="white"/>
<path d="M87.0756 21.8953H82.9609L83.0088 19.1829H94.1654L94.2197 21.8953H90.0508V32.553H87.0756V21.8953Z" fill="white"/>
<path d="M111.364 21.9249H107.249L107.188 19.2124H118.453L118.382 21.9249H114.338V32.5825H111.363V21.9249H111.364Z" fill="white"/>
<path d="M119.703 19.1838H122.891L125.692 28.2367L128.724 19.146H131.274L134.307 28.2367L137.108 19.1838H140.218L135.602 32.6485H133.013L129.962 23.9005L126.909 32.6485H124.321L119.703 19.1838Z" fill="white"/>
<path d="M155.359 19.184H165.559L164.563 21.8008H158.315V24.5133H164.69L164.627 27.1302H158.315V29.9372H165.656V32.5541H155.359V19.184Z" fill="white"/>
<path d="M142.422 19.184H152.622L151.626 21.8008H145.378V24.5133H151.752L151.69 27.1302H145.378V29.9372H152.719V32.5541H142.422V19.184Z" fill="white"/>
<path d="M176.517 32.5529H179.995L176.69 27.7763C178.41 27.1489 179.587 25.7911 179.587 23.6325V23.5936C179.587 22.3335 179.182 21.2826 178.429 20.5385C177.541 19.6599 176.207 19.1807 174.487 19.1807H168.305V32.5518H171.282V21.8385H174.237C175.686 21.8385 176.574 22.488 176.574 23.7491V23.788C176.574 24.9136 175.744 25.6766 174.293 25.6766L172.262 25.7123" fill="white"/>
<path d="M102.086 19.0883H99.3431L93.5469 32.553H96.5805L97.8167 29.5536H101.13L102.472 26.9546H98.8797L100.677 22.6205L102.234 26.3797L102.291 26.5121L102.472 26.9546L103.538 29.5536L103.848 30.3081L104.774 32.553H107.883L102.086 19.0883Z" fill="white"/>
<path d="M112.925 50.1415V57.908H89.8158V48.2666L86.5887 50.1425V60.302C86.5887 62.6856 85.1846 63.3445 82.9375 63.3056V66.4963C83.0045 66.4973 83.0704 66.5026 83.1373 66.5026C84.8402 66.5026 86.5536 66.1705 87.9217 64.9609C88.687 64.283 89.5799 63.0797 89.7733 61.0997H116.152V48.2666L112.925 50.1415Z" fill="white"/>
<path d="M176.183 50.1416V57.9081L164.713 57.907V55.6959C164.713 53.8283 164.345 52.1416 163.378 51.1148C162.226 49.9073 160.656 49.4049 158.581 49.4049H145.874V42.6147L142.647 44.4854V57.907H131.919L131.941 48.2646H127.736C118.134 48.2646 117.598 61.0977 126.783 61.0977L128.713 57.907H127.351C125.278 57.907 123.616 56.7899 123.616 54.6712C123.616 52.7332 125.436 51.4584 127.351 51.4584H128.713V57.4614V57.6853V57.906V60.3873C128.713 63.2564 126.682 63.6305 123.591 63.291V66.4943C124.138 66.5469 124.697 66.5878 125.261 66.5878C126.963 66.5878 128.679 66.2557 130.046 65.0451C130.821 64.3588 131.712 63.1197 131.889 61.0956L179.408 61.0967V48.2667L176.183 50.1416ZM161.486 57.907H145.875V52.5756H158.904C159.734 52.5756 160.474 52.9613 160.864 53.4637C161.281 53.9849 161.486 54.6481 161.486 55.5592V57.907Z" fill="white"/>
<path d="M173.153 43.3329L170.977 45.485L173.153 47.6371L175.33 45.485L173.153 43.3329Z" fill="white"/>
<path d="M177.817 43.3329L175.641 45.485L177.817 47.6371L179.994 45.485L177.817 43.3329Z" fill="white"/>
<path d="M109.333 63.0054L107.156 65.1575L109.333 67.3096L111.51 65.1575L109.333 63.0054Z" fill="white"/>
<path d="M113.997 63.0056L111.82 65.1577L113.997 67.3098L116.174 65.1577L113.997 63.0056Z" fill="white"/>
</svg>
