<svg width="80" height="90" viewBox="0 0 80 90" fill="none" xmlns="http://www.w3.org/2000/svg">
<path d="M18.6857 72.8908V72.0774H18.6869V71.8409C18.6869 71.6506 18.6975 71.4519 18.7176 71.2379L18.7188 71.2037C18.7377 71.0157 18.766 70.8289 18.8026 70.6539L18.8144 70.6007C18.8487 70.421 18.8912 70.2448 18.942 70.071L18.9585 70.0213C19.007 69.8665 19.0684 69.6962 19.1522 69.4893L19.1605 69.4609C19.2314 69.2907 19.3081 69.1275 19.3955 68.9632L19.4132 68.9253C19.4888 68.7835 19.5774 68.6345 19.6873 68.4654L19.7168 68.4181C19.7971 68.2928 19.8939 68.1592 20.0132 68.0067L20.064 67.9476C20.1833 67.7986 20.2884 67.6768 20.4065 67.5574L20.4514 67.5066C20.5553 67.3978 20.6723 67.2914 20.8187 67.1625L20.879 67.1081C20.9841 67.0171 21.0998 66.9308 21.212 66.8457L21.3455 66.7475C21.4718 66.6588 21.6053 66.5749 21.7352 66.4981L21.851 66.4307C21.9762 66.3585 22.1096 66.2923 22.2419 66.2285L22.3789 66.1646C22.5076 66.1079 22.6387 66.0571 22.771 66.0074L22.9364 65.9483C23.0675 65.9081 23.1974 65.8691 23.3214 65.836L23.4005 65.8159C23.4407 65.8052 23.4808 65.7946 23.5316 65.7851C23.6509 65.7579 23.7702 65.7355 23.8848 65.7165L23.9887 65.7012C24.0371 65.6941 24.0844 65.687 24.134 65.6811C24.2509 65.6681 24.3666 65.6574 24.4789 65.6515L24.5674 65.6456C24.6442 65.6409 24.7186 65.6361 24.7883 65.635H25.9304C27.4953 65.635 28.3764 66.3846 29.3082 67.1779C30.2212 67.9558 31.1661 68.7598 32.7558 68.7598C34.7494 68.7598 36.3722 67.1353 36.3722 65.1384C36.3722 63.1415 34.7494 61.5182 32.7558 61.5182C31.1661 61.5182 30.2212 62.3221 29.3082 63.1001C28.3764 63.8934 27.4953 64.643 25.9304 64.643H24.8828C24.7198 64.643 24.5462 64.6347 24.3194 64.6146L24.2308 64.6064C24.0631 64.5886 23.8919 64.5626 23.7289 64.5307L23.6202 64.5106C23.4643 64.4787 23.3108 64.4385 23.1631 64.3959L23.0356 64.3593C22.8927 64.3131 22.7545 64.2623 22.6175 64.2091L22.4687 64.15C22.3411 64.0956 22.2195 64.0365 22.0955 63.9738C22.0955 63.9738 21.9714 63.9123 21.9301 63.8899C21.825 63.8319 21.7234 63.7693 21.6006 63.6924C21.5404 63.6558 21.4837 63.6215 21.4222 63.5777C21.3301 63.5151 21.2345 63.4489 21.1447 63.3756L21.0679 63.3176C21.0289 63.2881 20.9888 63.2585 20.951 63.2254C20.8695 63.1557 20.7868 63.0847 20.7101 63.015L20.5034 62.8199C20.4372 62.756 20.3782 62.6886 20.3132 62.613C20.2424 62.5373 20.175 62.4628 20.1065 62.3801C20.064 62.3316 20.0239 62.2784 19.9849 62.2264L19.8833 62.0892C19.8396 62.0289 19.7947 61.9686 19.7558 61.9142C19.7156 61.8492 19.6743 61.7842 19.6341 61.7239L19.601 61.6766C19.5455 61.5844 19.49 61.4933 19.4369 61.3964C19.4132 61.355 19.392 61.3124 19.3707 61.271L19.3506 61.2309C19.2892 61.1091 19.2325 60.9897 19.1818 60.8643L19.1192 60.7094C19.0636 60.5711 19.0117 60.4316 18.9692 60.3063L18.9337 60.1632C18.8865 60.0107 18.8487 59.8558 18.8168 59.7163L18.7991 59.6004C18.7648 59.4337 18.7377 59.267 18.72 59.1027L18.7152 59.0176C18.6963 58.813 18.6869 58.6262 18.6869 58.4441C18.6869 55.0876 21.3112 52.3611 24.6525 52.2405H25.9304C27.4953 52.2405 28.3764 52.9901 29.3082 53.7835C30.2212 54.5602 31.1661 55.3642 32.7558 55.3642C34.7494 55.3642 36.3722 53.7397 36.3722 51.744C36.3722 49.7482 34.7494 48.1249 32.7558 48.1249C31.1661 48.1249 30.2212 48.9289 29.3082 49.7068C28.3764 50.5002 27.4953 51.2498 25.9304 51.2498H24.6607C21.3112 51.128 18.6869 48.4039 18.6869 45.0462C18.6869 41.6896 21.3112 38.9655 24.6525 38.8438H25.9304C27.4953 38.8438 28.3764 39.5933 29.3082 40.3867C30.2212 41.1646 31.1661 41.9674 32.7558 41.9674C34.7494 41.9674 36.3722 40.3429 36.3722 38.3472C36.3722 36.3514 34.7494 34.7269 32.7558 34.7269C31.1661 34.7269 30.2212 35.5309 29.3071 36.3089C28.3752 37.1022 27.4941 37.8518 25.9292 37.8518H24.6607C21.3112 37.73 18.6869 35.0048 18.6869 31.6482C18.6869 31.4661 18.6963 31.2758 18.7164 31.0606L18.7188 31.0038C18.7377 30.8241 18.766 30.6432 18.805 30.4576L18.8144 30.4032C18.8487 30.2306 18.8912 30.058 18.9467 29.87L18.9585 29.8251C19.014 29.6536 19.0755 29.4822 19.1416 29.319L19.1664 29.2599C19.2349 29.0861 19.3176 28.9194 19.3861 28.7846L19.4156 28.7314C19.5006 28.5671 19.5999 28.4075 19.6849 28.2762L19.7156 28.2301C19.8101 28.0883 19.9105 27.9487 20.0215 27.8081L20.064 27.756C20.1727 27.6201 20.2861 27.49 20.403 27.3682L20.4526 27.3162C20.5683 27.1921 20.7018 27.0727 20.8199 26.9698L20.8801 26.9166C21.0136 26.7984 21.1648 26.6872 21.2711 26.6116L21.3431 26.5583C21.4695 26.4697 21.6041 26.3869 21.7459 26.3006L21.8439 26.2439C21.9738 26.1694 22.1132 26.102 22.2573 26.0322L22.373 25.9755C22.5076 25.9164 22.6447 25.8631 22.7887 25.8123L22.9293 25.7603C23.0675 25.7154 23.1998 25.6775 23.3344 25.6432L23.4017 25.6255C23.4395 25.6149 23.4785 25.6054 23.521 25.5959C23.6497 25.5676 23.7773 25.5439 23.906 25.5238C23.9816 25.512 24.0584 25.5014 24.1328 25.4907C24.2521 25.4754 24.3749 25.4671 24.4989 25.4588C24.5922 25.4517 24.6844 25.4458 24.7788 25.4446H25.9304C27.4953 25.4446 28.3764 26.1942 29.3082 26.9875C30.2212 27.7655 31.1661 28.5683 32.7558 28.5683C34.7494 28.5683 36.3722 26.945 36.3722 24.9492C36.3722 22.9535 34.7494 21.3302 32.7558 21.3302C31.1661 21.3302 30.2212 22.1341 29.3082 22.9109C28.3764 23.7042 27.4953 24.4538 25.9304 24.4538H25.1178V24.4503H24.8816C24.6997 24.4503 24.5155 24.4408 24.3029 24.4219L24.2344 24.416C24.0619 24.3983 23.886 24.3711 23.7218 24.3403L23.6249 24.3202C23.482 24.2919 23.3368 24.2552 23.1478 24.1996L23.0356 24.1677C22.8903 24.1216 22.7486 24.0708 22.6092 24.0128L22.4651 23.9549C22.3352 23.9017 22.21 23.839 22.0907 23.7799L21.9242 23.6924C21.8262 23.6416 21.734 23.5837 21.6431 23.5257L21.5888 23.4914C21.5262 23.4571 21.473 23.424 21.4211 23.3886C21.3254 23.3212 21.2262 23.2479 21.1352 23.1793L21.0455 23.1107C21.0112 23.0847 20.9758 23.0587 20.9463 23.0339C20.8754 22.9736 20.8034 22.9097 20.7325 22.8459L20.7018 22.8187C20.6345 22.756 20.5695 22.6946 20.501 22.6272C20.4538 22.5822 20.4112 22.5361 20.3699 22.49L20.3026 22.4179C20.2353 22.3446 20.1679 22.2677 20.1042 22.1933C20.0687 22.1507 20.0357 22.1058 20.0014 22.062L19.9412 21.984C19.8727 21.8977 19.8101 21.809 19.7499 21.7191C19.725 21.6825 19.6247 21.5229 19.6247 21.5229C19.5597 21.42 19.4959 21.3172 19.4357 21.206C19.4121 21.1658 19.3932 21.1256 19.3731 21.0854L19.3459 21.031C19.2869 20.9128 19.229 20.791 19.1782 20.6728L19.1133 20.5156C19.0625 20.3808 19.0117 20.2448 18.9692 20.1077L18.9278 19.9634C18.8841 19.8156 18.8463 19.6655 18.8156 19.5212L18.7944 19.3983C18.7589 19.2256 18.7341 19.0601 18.7211 18.91L18.7129 18.8118C18.694 18.6097 18.6845 18.4252 18.6845 18.2514L18.6833 17.2003C18.6833 15.635 19.431 14.7541 20.2235 13.8201C21.0006 12.905 21.8037 11.958 21.8037 10.3654C21.8037 8.36965 20.1809 6.74634 18.1861 6.74634C16.1925 6.74634 14.572 8.36965 14.572 10.3654C14.572 11.958 15.3752 12.905 16.1535 13.8201C16.946 14.753 17.6948 15.635 17.6948 17.1992V18.3306L17.6783 18.6463L17.6712 18.7409C17.6641 18.8248 17.6582 18.9088 17.6475 18.9975C17.6393 19.0743 17.6263 19.1512 17.6062 19.2422C17.5885 19.364 17.5672 19.4858 17.5424 19.6052C17.5294 19.6702 17.5117 19.734 17.4881 19.8097L17.4727 19.8688C17.4456 19.9752 17.4184 20.0805 17.3794 20.1916C17.3665 20.233 17.3523 20.2696 17.3381 20.3086L17.2755 20.4754C17.2401 20.5676 17.2058 20.6598 17.1657 20.7485L17.1043 20.8832L17.0499 20.9897C16.9991 21.089 16.9495 21.1871 16.8999 21.2758L16.8267 21.3964C16.7511 21.53 16.6673 21.6624 16.5846 21.7818L16.5243 21.8646L16.4499 21.9615C16.3744 22.0608 16.2999 22.159 16.2196 22.2535L16.1665 22.3162C16.0566 22.4427 15.9409 22.5657 15.8216 22.6815L15.7696 22.7312C15.6445 22.8518 15.5169 22.9629 15.3775 23.0764L15.3409 23.1072C15.2004 23.2148 15.0563 23.3224 14.9086 23.4193L14.8649 23.4477C14.6866 23.5647 14.5437 23.6499 14.4067 23.7208L14.3665 23.7409C14.1787 23.839 14.0205 23.9123 13.8752 23.9726L13.8315 23.9892C13.6473 24.066 13.4772 24.1263 13.3107 24.176L13.2764 24.1866C13.0933 24.241 12.9103 24.2883 12.7343 24.3238L12.693 24.3321C12.4993 24.3711 12.315 24.3983 12.132 24.4148L12.0871 24.4184C11.8839 24.4385 11.6843 24.4479 11.4954 24.4479L11.2591 24.4515H10.4466C8.88401 24.4515 8.00411 23.7031 7.07107 22.9097C6.15692 22.1318 5.21088 21.3278 3.61998 21.3278C1.62633 21.3278 0.00590571 22.9511 0.00590571 24.9469C0.00590571 26.9426 1.62752 28.5659 3.61998 28.5659C5.21088 28.5659 6.15692 27.7619 7.07107 26.984C8.00293 26.1907 8.88401 25.4422 10.4466 25.4422H11.5946C11.6713 25.4446 11.754 25.4493 11.8343 25.4541L11.9016 25.4576C12.0127 25.4647 12.126 25.473 12.243 25.4895C12.3304 25.499 12.406 25.5108 12.5075 25.5274C12.6186 25.5463 12.7319 25.5652 12.8441 25.5912C12.9032 25.603 12.9587 25.6172 13.0154 25.6326L13.0922 25.6527C13.2008 25.6823 13.3071 25.7118 13.417 25.7496C13.5008 25.7757 13.5835 25.8064 13.6614 25.836C13.7654 25.875 13.8681 25.9128 13.9673 25.9577C14.0217 25.9814 14.0736 26.0062 14.128 26.0322L14.2118 26.0724C14.2968 26.1114 14.3772 26.1552 14.4575 26.1977L14.4882 26.2143L14.7197 26.3491L14.7634 26.3775C14.839 26.4259 14.9169 26.4756 14.989 26.5241C15.0315 26.5524 15.0728 26.5832 15.1142 26.6139L15.2063 26.6813C15.2901 26.7452 15.374 26.8114 15.4484 26.8705L15.6586 27.0573C15.733 27.1247 15.8063 27.1956 15.8748 27.2642C15.9397 27.3316 16.0047 27.399 16.0708 27.4723L16.0944 27.4983C16.1535 27.5621 16.2114 27.6248 16.2681 27.6957C16.3271 27.7679 16.3838 27.8435 16.4464 27.9286C16.509 28.0067 16.5645 28.0824 16.6141 28.1521C16.6684 28.2372 16.7228 28.3235 16.7747 28.4039C16.8243 28.4879 16.8739 28.5695 16.9224 28.657C16.9696 28.7409 17.0145 28.8296 17.0594 28.9253C17.1019 29.0081 17.1432 29.0932 17.1834 29.1878C17.2235 29.2777 17.2613 29.3723 17.2944 29.4562L17.3357 29.5721C17.3546 29.6241 17.3735 29.6773 17.3924 29.7388C17.4172 29.8097 17.4361 29.8818 17.455 29.9551L17.4763 30.0343C17.5035 30.1289 17.5259 30.22 17.5483 30.3169C17.5625 30.3749 17.5731 30.4328 17.5838 30.4919C17.592 30.538 17.6003 30.5829 17.6074 30.6137C17.6145 30.6657 17.6535 30.901 17.6535 30.901C17.6535 30.901 17.6723 31.1516 17.6783 31.2214L17.6948 31.5548V31.7369C17.6475 35.0438 15.0268 37.7288 11.7363 37.8506H10.4442C8.88165 37.8506 8.00175 37.101 7.0687 36.3077C6.15456 35.5297 5.20852 34.7246 3.61644 34.7246C1.62279 34.7246 0.00236264 36.3491 0.00236264 38.3448C0.00236264 40.3406 1.62397 41.9651 3.61644 41.9651C5.20734 41.9651 6.15337 41.1611 7.06752 40.3831C7.99939 39.591 8.88046 38.8414 10.443 38.8414H11.7221C15.0705 38.9632 17.6936 41.6872 17.6936 45.0438C17.6936 48.398 15.0716 51.1233 11.7339 51.2474H10.4418C8.87928 51.2474 7.99939 50.499 7.06634 49.7057C6.15219 48.9277 5.20616 48.1237 3.61525 48.1237C1.62161 48.1237 0.00118222 49.747 0.00118222 51.7428C0.00118222 53.7385 1.62279 55.363 3.61525 55.363C5.20616 55.363 6.15219 54.5591 7.06634 53.7811C7.9982 52.9889 8.87928 52.2394 10.4418 52.2394H11.7209C15.0126 52.3611 17.6357 55.0426 17.6912 58.3401V58.534L17.6747 58.8272L17.6676 58.9289C17.6605 59.0176 17.6546 59.1074 17.644 59.1973C17.6369 59.267 17.6239 59.3344 17.6062 59.4266C17.5885 59.5531 17.5637 59.6785 17.5353 59.8073C17.5212 59.8676 17.5082 59.9268 17.4857 60.0001C17.455 60.1289 17.4208 60.2602 17.3794 60.382L17.3227 60.5427L17.2861 60.6361C17.246 60.7414 17.2058 60.8454 17.1645 60.94L17.0972 61.0783C17.0322 61.2167 16.9625 61.3503 16.8952 61.4744L16.8279 61.5867C16.7487 61.7239 16.6637 61.8551 16.581 61.9757L16.4901 62.0987C16.3992 62.2181 16.3129 62.3339 16.2196 62.4427L16.1559 62.5137C16.0543 62.6319 15.9409 62.7549 15.8204 62.8719L15.759 62.9287C15.6291 63.0552 15.5051 63.1651 15.3728 63.268L15.3291 63.3046C15.1909 63.4134 15.048 63.5174 14.9039 63.6144L14.8602 63.6439C14.7114 63.7385 14.559 63.8296 14.4067 63.9112L14.3547 63.936C14.1929 64.0199 14.0335 64.0956 13.8646 64.1677L13.828 64.1843C13.6555 64.2517 13.4843 64.3131 13.313 64.3663L13.2611 64.3817C13.0815 64.4361 12.9091 64.4798 12.7331 64.5141L12.6776 64.5248C12.4993 64.5602 12.3197 64.5874 12.1355 64.6064L12.0705 64.6111C11.8544 64.6324 11.6631 64.6418 11.4883 64.6418H10.4407C8.8781 64.6418 7.99821 63.8934 7.06516 63.1001C6.15101 62.3221 5.20498 61.517 3.61407 61.517C1.62043 61.517 0 63.1415 0 65.1372C0 67.1341 1.62161 68.7586 3.61407 68.7586C5.20498 68.7586 6.15101 67.9535 7.06516 67.1755C7.99702 66.3822 8.8781 65.6338 10.4407 65.6338H11.5804C11.6442 65.635 11.7103 65.6397 11.7764 65.6432L11.9099 65.6503C12.0138 65.6574 12.1249 65.6669 12.2253 65.6775C12.2902 65.6858 12.3528 65.6953 12.4178 65.7059L12.5099 65.7201L12.6209 65.7414C12.6882 65.7532 12.7556 65.7662 12.8288 65.7828C12.9244 65.8017 13.013 65.8265 13.1016 65.8501L13.1925 65.875C13.2634 65.8951 13.3331 65.914 13.3981 65.9353C13.4902 65.966 13.5799 65.9991 13.6744 66.0358C13.7689 66.0701 13.8622 66.1079 13.9543 66.1493C14.0429 66.1871 14.1268 66.2261 14.2177 66.2722C14.3063 66.3136 14.3937 66.3585 14.4799 66.407C14.5626 66.4531 14.6453 66.5028 14.7256 66.5524L14.7657 66.5773C14.8366 66.621 14.9086 66.6648 14.9795 66.7132C15.0445 66.757 15.1059 66.8031 15.1708 66.8516L15.2157 66.8859C15.2913 66.9402 15.3669 66.9982 15.4389 67.0608C15.5169 67.1259 15.5889 67.1909 15.6598 67.2547L15.7011 67.2926C15.7578 67.3458 15.8157 67.3978 15.87 67.4534C15.9374 67.5219 16.007 67.5952 16.0755 67.6721C16.1393 67.7407 16.2019 67.8104 16.2586 67.8814C16.3224 67.9594 16.3862 68.0386 16.4476 68.1214C16.5043 68.1959 16.5598 68.2692 16.6106 68.3448C16.6543 68.411 16.6956 68.4796 16.7381 68.5482L16.7747 68.6085C16.8232 68.6853 16.8704 68.761 16.9165 68.8497C16.9661 68.936 17.0133 69.0247 17.0594 69.1228C17.1019 69.2067 17.1409 69.2883 17.1775 69.3687C17.2188 69.4645 17.2566 69.565 17.292 69.6596L17.3275 69.7577C17.3464 69.8097 17.3665 69.8629 17.3865 69.9303C17.4208 70.0273 17.4479 70.1254 17.4739 70.2413C17.4987 70.3264 17.5212 70.4103 17.5412 70.5108C17.559 70.5794 17.5708 70.648 17.5826 70.7177L17.6027 70.83C17.6168 70.9187 17.631 71.0086 17.6428 71.0984C17.6535 71.1812 17.6594 71.264 17.6664 71.3467L17.6735 71.4283L17.6901 71.7369V72.8896C17.6901 74.455 16.9413 75.337 16.1488 76.2699C15.3716 77.185 14.5685 78.1308 14.5685 79.7234C14.5685 81.7203 16.1901 83.346 18.1826 83.346C20.1774 83.346 21.8002 81.7215 21.8002 79.7234C21.8002 78.1308 20.9971 77.185 20.2199 76.2699C19.4333 75.3382 18.6857 74.4562 18.6857 72.8908Z" fill="white"/>
<path d="M67.5803 38.8425H68.8558C70.4172 38.8425 71.2971 39.5909 72.2289 40.3842C73.1431 41.1622 74.0891 41.9674 75.6812 41.9674C77.676 41.9674 79.2988 40.3429 79.2988 38.3471C79.2988 36.3514 77.676 34.7269 75.6812 34.7269C74.0891 34.7269 73.1443 35.532 72.2289 36.31C71.2971 37.1033 70.4172 37.8517 68.8558 37.8517H67.585C64.2355 37.7299 61.6111 35.0047 61.6111 31.6481C61.6111 31.4247 61.6194 31.2367 61.6359 31.0688L61.6454 31.0061C61.6619 30.804 61.6962 30.6112 61.7233 30.4646L61.7375 30.4079C61.7729 30.2199 61.8178 30.0378 61.8674 29.8747L61.8839 29.8274C61.93 29.6748 61.9867 29.5129 62.0682 29.3071L62.0836 29.2705C62.1485 29.1133 62.2253 28.9501 62.3233 28.7633L62.3339 28.7385C62.4178 28.5824 62.5123 28.4251 62.615 28.2655L62.6351 28.2336C62.7367 28.0787 62.843 27.9333 62.954 27.7938L62.9776 27.7607C63.0863 27.6259 63.2008 27.497 63.3308 27.3611L63.3686 27.3197C63.4796 27.2038 63.6048 27.0868 63.7382 26.9721L63.802 26.9177C63.9343 26.8018 64.0607 26.7037 64.1953 26.6115L64.2685 26.5571C64.3973 26.4649 64.5319 26.3809 64.6642 26.3017L64.7681 26.2426C64.898 26.1669 65.035 26.0995 65.178 26.0321L65.2961 25.9742C65.4295 25.9151 65.5689 25.8631 65.7024 25.8134L65.863 25.7578C65.9893 25.7141 66.1228 25.6775 66.2539 25.6432L66.3366 25.6219C66.3708 25.6124 66.4051 25.6041 66.4429 25.5959C66.5716 25.5675 66.7004 25.5438 66.8232 25.5237L67.0559 25.4895C67.174 25.4741 67.2944 25.4658 67.422 25.4575C67.5153 25.4504 67.611 25.4445 67.7043 25.4434H68.8558C70.4172 25.4434 71.2971 26.1918 72.2289 26.9851C73.1431 27.7631 74.0891 28.5682 75.6812 28.5682C77.676 28.5682 79.2988 26.9449 79.2988 24.9491C79.2988 22.9534 77.676 21.3301 75.6812 21.3301C74.0891 21.3301 73.1443 22.1341 72.2301 22.912C71.2983 23.7042 70.4184 24.4526 68.857 24.4526H68.0397V24.449H67.8035C67.6251 24.449 67.4373 24.4396 67.2295 24.4207L67.1622 24.4147C66.9874 24.397 66.8137 24.3698 66.6472 24.3391L66.5492 24.3202C66.4051 24.2906 66.2527 24.2516 66.0756 24.1984L65.9634 24.1676C65.8193 24.1215 65.6799 24.0707 65.5382 24.0128L65.3941 23.956C65.2642 23.9028 65.1402 23.8425 65.0197 23.781L64.8543 23.6947C64.7681 23.6498 64.6854 23.5978 64.6016 23.5469L64.35 23.3897C64.2544 23.3223 64.1563 23.2513 64.0666 23.1828L64.0229 23.1485C63.9744 23.1106 63.9248 23.0716 63.8693 23.0243C63.8032 22.9723 63.7394 22.9144 63.6733 22.8565L63.5575 22.75C63.515 22.711 63.4725 22.6732 63.4312 22.6295C63.3745 22.5739 63.3237 22.5159 63.2717 22.4592L63.2174 22.4001C63.1548 22.3327 63.0922 22.2665 63.0331 22.1896C63.0001 22.1494 62.8654 21.9744 62.8654 21.9744C62.8005 21.8881 62.7355 21.8018 62.6741 21.7132C62.6398 21.6635 62.6103 21.6127 62.5796 21.563L62.5595 21.5299C62.4898 21.4199 62.4237 21.3112 62.3682 21.2142L62.2796 21.0298C62.2123 20.9092 62.1556 20.7815 62.1072 20.668L62.0493 20.5214C61.995 20.3819 61.9406 20.2388 61.8969 20.1005L61.8627 19.9811C61.819 19.8226 61.7765 19.663 61.7434 19.5188L61.7269 19.4088C61.6891 19.2256 61.6631 19.0589 61.6477 18.8898L61.6395 18.8224C61.6218 18.6462 61.6147 18.4582 61.6147 18.249L61.6123 18.0125V17.1979C61.6123 15.6325 62.3599 14.7517 63.1512 13.8177C63.9284 12.9026 64.7303 11.9555 64.7303 10.363C64.7303 8.36721 63.1075 6.7439 61.1139 6.7439C59.1203 6.7439 57.4986 8.36721 57.4986 10.363C57.4986 11.9567 58.3029 12.9026 59.0801 13.8177C59.8726 14.7505 60.6214 15.6325 60.6214 17.1967V18.3353L60.619 18.3767C60.6143 18.4594 60.6108 18.541 60.6013 18.6391C60.5966 18.7586 60.5871 18.8792 60.5718 19.0009C60.5635 19.0719 60.5517 19.1416 60.534 19.2315C60.5198 19.3568 60.4938 19.488 60.469 19.6075L60.4218 19.7943C60.3875 19.9314 60.3497 20.0615 60.3096 20.1868L60.2529 20.3429C60.2009 20.4812 60.149 20.6183 60.0887 20.7508L60.0285 20.8796C59.9647 21.0191 59.8927 21.1563 59.8277 21.2781L59.7639 21.3797C59.6801 21.5193 59.595 21.6576 59.5088 21.7829L59.4533 21.8586C59.3541 21.9945 59.2537 22.1258 59.1474 22.2499L59.0919 22.3114C58.9726 22.4521 58.8592 22.5727 58.7399 22.6838L58.6986 22.724C58.5722 22.8458 58.4388 22.9605 58.2994 23.0752L58.2699 23.1C58.1435 23.1993 57.9935 23.314 57.8234 23.4204L57.7915 23.4429C57.6498 23.5375 57.4951 23.6297 57.3357 23.716L57.2955 23.7361C57.1455 23.8153 56.9813 23.8922 56.7994 23.969L56.7617 23.9844C56.5845 24.0577 56.4097 24.1203 56.2373 24.1712L56.203 24.1818C56.0129 24.2374 55.8345 24.2835 55.6644 24.319L55.6148 24.3272C55.4306 24.3639 55.2428 24.3923 55.0597 24.41L55.016 24.4136C54.8058 24.4337 54.6121 24.4431 54.4243 24.4431L54.1881 24.4467H53.3743C51.8106 24.4467 50.9283 23.6971 49.9953 22.9049C49.0812 22.127 48.1351 21.3242 46.5454 21.3242C44.5494 21.3242 42.9242 22.9475 42.9242 24.9432C42.9242 26.939 44.5482 28.5623 46.5454 28.5623C48.1351 28.5623 49.08 27.7583 49.9953 26.9815C50.9283 26.1882 51.8094 25.4386 53.3743 25.4386H54.52C54.5991 25.4398 54.6771 25.4457 54.755 25.4493L54.8247 25.4528C54.9393 25.4599 55.0503 25.4682 55.1648 25.4847C55.2546 25.4954 55.3456 25.5084 55.4318 25.5226C55.5416 25.5415 55.6514 25.5616 55.7672 25.5864C55.8369 25.5994 55.9042 25.6172 55.968 25.6349L56.0176 25.6479C56.1262 25.6775 56.2314 25.707 56.3436 25.7448C56.4073 25.7649 56.4687 25.7874 56.5302 25.8099L56.5963 25.8347C56.6955 25.8725 56.7947 25.9104 56.8833 25.9482C56.8833 25.9482 57.0876 26.044 57.1325 26.0664C57.227 26.1125 57.325 26.1634 57.4089 26.2071L57.4632 26.2391C57.5223 26.2745 57.5825 26.31 57.6522 26.3549C57.716 26.3916 57.7762 26.4306 57.8376 26.472L57.9156 26.5228C57.9758 26.5618 58.0313 26.6044 58.088 26.6469L58.1329 26.6812C58.2144 26.7427 58.297 26.8066 58.3738 26.868C58.4435 26.926 58.512 26.9863 58.5876 27.0584C58.662 27.1222 58.7293 27.1873 58.8049 27.2653C58.8628 27.3197 58.9112 27.3729 58.9608 27.4285L58.9998 27.4722C59.0671 27.542 59.1321 27.6117 59.1911 27.685C59.2289 27.7311 59.2655 27.7796 59.3021 27.8281L59.4202 27.9841C59.4604 28.0385 59.5006 28.0917 59.5383 28.1497C59.595 28.2336 59.6494 28.3187 59.7013 28.4039L59.7663 28.5115C59.7935 28.5564 59.8218 28.6013 59.8466 28.6474C59.8844 28.7148 59.9187 28.7834 59.9553 28.8543L59.9883 28.9182C60.0261 29.0057 60.0663 29.092 60.1041 29.1688C60.1442 29.267 60.182 29.3663 60.2257 29.4833C60.26 29.5625 60.2883 29.6429 60.3155 29.7257C60.3486 29.8274 60.3769 29.9302 60.4041 30.0414L60.4147 30.0792C60.4348 30.1513 60.4549 30.2234 60.4702 30.3003C60.4938 30.4114 60.5163 30.5249 60.534 30.6219L60.5517 30.746C60.56 30.7969 60.5671 30.8477 60.573 30.9009C60.586 31.012 60.5966 31.1208 60.6001 31.239C60.6001 31.239 60.6155 31.4696 60.6202 31.5429V31.7427C60.5659 35.0449 57.9427 37.7276 54.6582 37.8482H53.3743C51.8106 37.8482 50.9283 37.0986 49.9953 36.3053C49.0812 35.5273 48.1351 34.7233 46.5454 34.7233C44.5494 34.7233 42.9242 36.3478 42.9242 38.3436C42.9242 40.3393 44.5482 41.9638 46.5454 41.9638C48.1351 41.9638 49.08 41.1598 49.9953 40.3831C50.9283 39.5897 51.8094 38.8401 53.3743 38.8401H54.6499C57.9982 38.9619 60.6202 41.686 60.6202 45.0426C60.6202 48.3968 57.997 51.122 54.6582 51.2461H53.3743C51.8106 51.2461 50.9283 50.4966 49.9953 49.7032C49.0812 48.9253 48.1351 48.1213 46.5454 48.1213C44.5494 48.1213 42.9242 49.7446 42.9242 51.7403C42.9242 53.7361 44.5482 55.3606 46.5454 55.3606C48.1351 55.3606 49.08 54.5566 49.9953 53.7787C50.9283 52.9853 51.8094 52.2369 53.3743 52.2369H54.6487C57.9415 52.3587 60.5647 55.039 60.619 58.3377V58.5304L60.6167 58.5694C60.6119 58.6545 60.6084 58.7373 60.5978 58.8366C60.593 58.9548 60.5836 59.0742 60.5682 59.1984C60.5612 59.2717 60.5482 59.3403 60.5316 59.4301C60.5175 59.5578 60.4915 59.6831 60.4655 59.8049C60.4572 59.8451 60.4194 59.9953 60.4194 59.9953C60.3852 60.1289 60.3474 60.2613 60.306 60.3866L60.2494 60.5427C60.1986 60.6822 60.1454 60.8158 60.0852 60.9506L60.0285 61.0771C59.9612 61.2178 59.8927 61.3525 59.823 61.4791L59.7616 61.5819C59.6777 61.7214 59.5939 61.855 59.5017 61.9851L59.4509 62.0608C59.3529 62.192 59.2537 62.322 59.1403 62.4509L59.0872 62.5148C58.9797 62.6425 58.864 62.7642 58.7447 62.8766L58.6903 62.9274C58.5439 63.0657 58.4211 63.1733 58.2947 63.2726L58.2569 63.3057C58.1069 63.4263 57.9687 63.5268 57.8187 63.6214L57.7915 63.6415C57.6475 63.7361 57.4904 63.8295 57.3451 63.9099L57.2872 63.9359C57.1231 64.0258 56.9553 64.1038 56.7983 64.1688L56.7546 64.1854C56.5869 64.2563 56.4121 64.3178 56.2384 64.371L56.1983 64.3828C56.04 64.4325 55.8617 64.4774 55.668 64.5188L55.6148 64.5271C55.4353 64.5637 55.2534 64.5909 55.0597 64.611L55.0137 64.6146C54.82 64.6335 54.6263 64.6429 54.422 64.6429L54.1857 64.6465H53.372C51.8082 64.6465 50.926 63.8969 49.9929 63.1036C49.0788 62.3256 48.1328 61.5216 46.543 61.5216C44.547 61.5216 42.9219 63.1461 42.9219 65.1419C42.9219 67.1388 44.5459 68.7633 46.543 68.7633C48.1328 68.7633 49.0776 67.9593 49.9929 67.1814C50.926 66.388 51.8071 65.6384 53.372 65.6384H54.5082C54.5731 65.6396 54.6393 65.6432 54.7042 65.6479L54.8377 65.655C54.9475 65.6621 55.0538 65.6715 55.1554 65.6822C55.2263 65.6905 55.2971 65.7023 55.3692 65.7129L55.4377 65.7236L55.5333 65.7413C55.6066 65.7543 55.6786 65.7685 55.7566 65.785C55.8416 65.8028 55.9195 65.8241 56.0258 65.8524L56.092 65.8702C56.1711 65.8926 56.2503 65.9139 56.3306 65.9411C56.4132 65.9683 56.4971 65.9979 56.5916 66.0321L56.6624 66.0605C56.7357 66.0889 56.8124 66.1196 56.8845 66.1504L57.1313 66.2627C57.1313 66.2627 57.3557 66.3786 57.4077 66.4069C57.4715 66.4436 57.6486 66.55 57.6486 66.55C57.6486 66.55 57.8376 66.6694 57.9097 66.7179C57.9805 66.7652 58.0467 66.816 58.1388 66.8858C58.2167 66.9425 58.2947 67.0016 58.3679 67.0631C58.4352 67.1211 58.5014 67.1802 58.5876 67.257C58.6596 67.322 58.7281 67.3859 58.8025 67.4616C58.8592 67.5148 58.91 67.5715 58.9608 67.6271C58.9608 67.6271 59.1545 67.8411 59.1888 67.8801C59.2514 67.9593 59.3128 68.0397 59.3777 68.126C59.4344 68.1981 59.4864 68.2691 59.5383 68.3495C59.5962 68.4322 59.6505 68.5174 59.7013 68.606L59.7675 68.7148C59.7946 68.7586 59.8218 68.8023 59.8454 68.8425C59.8785 68.9028 59.9092 68.9643 59.9411 69.0269L59.9872 69.1144C60.0249 69.2031 60.0663 69.2894 60.1029 69.3663C60.1265 69.4218 60.2245 69.6737 60.2245 69.6737C60.2564 69.7541 60.286 69.8404 60.3131 69.922C60.3462 70.0248 60.3745 70.1277 60.4017 70.2364L60.4135 70.2802C60.4336 70.3523 60.4525 70.4221 60.4678 70.4989C60.4915 70.6089 60.5139 70.7212 60.5316 70.8217L60.5493 70.9387C60.5576 70.9908 60.5647 71.044 60.5718 71.0995C60.5848 71.2083 60.5942 71.3195 60.599 71.4365C60.599 71.4365 60.6155 71.6718 60.619 71.7392V72.8919C60.619 74.4573 59.8702 75.3393 59.0777 76.2721C58.3006 77.1873 57.4963 78.1331 57.4963 79.7257C57.4963 81.6954 59.0954 83.3199 61.0631 83.3483H61.1611H61.1623C63.1276 83.3211 64.7268 81.6954 64.7268 79.7257C64.7268 78.1331 63.9237 77.1873 63.1477 76.2721C62.3564 75.3393 61.6076 74.4573 61.6076 72.8919V72.0785H61.6099V71.842C61.6099 71.6221 61.6182 71.4282 61.6347 71.2651L61.6442 71.2024C61.6572 71.0416 61.6832 70.8654 61.7233 70.6609L61.7375 70.6041C61.7729 70.415 61.8178 70.2341 61.8698 70.0686L61.8839 70.0236C61.93 69.8723 61.9891 69.7056 62.0706 69.4987L62.0824 69.4668C62.1414 69.3284 62.2206 69.1475 62.3139 68.9737L62.3363 68.9324C62.4213 68.7727 62.5158 68.619 62.6068 68.4724L62.6363 68.4275C62.7391 68.2726 62.8406 68.1331 62.9446 68.0031L62.9883 67.9499C63.0804 67.8328 63.1879 67.711 63.3272 67.5644L63.3768 67.5112C63.4914 67.3918 63.6119 67.2795 63.7394 67.1707L63.8079 67.1104C63.9272 67.0076 64.0512 66.9094 64.1835 66.816L64.2744 66.751C64.3985 66.6623 64.5284 66.5819 64.6583 66.5039L64.7728 66.4353C64.898 66.3632 65.0291 66.297 65.1614 66.2355L65.3079 66.1681C65.4295 66.1125 65.5583 66.0629 65.7 66.0132C65.7567 65.9908 65.8122 65.9695 65.8653 65.9517C65.9858 65.9127 66.1145 65.8749 66.2433 65.8418L66.2858 65.8311C66.3425 65.817 66.398 65.8028 66.4535 65.7898C66.5704 65.7626 66.6897 65.7401 66.8078 65.7247L66.848 65.7177C66.9177 65.7058 66.985 65.6928 67.0594 65.6857C67.1704 65.6727 67.2862 65.6621 67.4043 65.6562L67.4799 65.6514C67.5578 65.6467 67.6369 65.6408 67.7137 65.6396H68.8558C70.4172 65.6396 71.2971 66.388 72.2289 67.1814C73.1431 67.9593 74.0891 68.7645 75.6812 68.7645C77.676 68.7645 79.2988 67.14 79.2988 65.143C79.2988 63.1461 77.676 61.5228 75.6812 61.5228C74.0891 61.5228 73.1443 62.328 72.2289 63.1059C71.2971 63.8981 70.4172 64.6477 68.8558 64.6477H68.0385V64.6441H67.8023C67.6086 64.6441 67.4161 64.6347 67.2283 64.6169L67.1633 64.611C67.0003 64.5944 66.835 64.5696 66.6425 64.5342L66.5492 64.5164C66.3862 64.4845 66.2291 64.4431 66.0697 64.397L65.9646 64.3674C65.8205 64.3202 65.6752 64.2681 65.5299 64.2078L65.3988 64.157C65.2642 64.1002 65.1366 64.0364 65.0102 63.9749L64.8591 63.8981C64.7433 63.8354 64.6323 63.7668 64.5201 63.6959L64.4906 63.677C64.4445 63.6486 64.3996 63.6202 64.3488 63.5848C64.2485 63.5185 64.1528 63.45 64.0571 63.3755C63.9933 63.327 63.9343 63.2797 63.8741 63.2312C63.8304 63.1946 63.6296 63.0184 63.6296 63.0184L63.554 62.9487C63.5115 62.9085 63.4689 62.8706 63.43 62.8304C63.3815 62.782 63.3367 62.7323 63.2918 62.6815L63.2316 62.6141C63.1619 62.5408 63.0969 62.4687 63.0331 62.3894C62.9883 62.3351 62.9446 62.2759 62.9009 62.218L62.8772 62.1861C62.8087 62.0974 62.7402 62.0076 62.6741 61.9118C62.6528 61.881 62.5572 61.7309 62.5572 61.7309L62.5194 61.667C62.4662 61.5796 62.4143 61.4932 62.3717 61.4152L62.2796 61.2296C62.2135 61.1066 62.158 60.9872 62.1072 60.8678L62.0269 60.6633C61.9808 60.5415 61.9347 60.4173 61.8969 60.3038L61.8627 60.1773C61.819 60.0201 61.7765 59.8617 61.7434 59.7174L61.7269 59.6051C61.6891 59.423 61.6631 59.2563 61.6477 59.0884L61.6395 59.021C61.6218 58.846 61.6147 58.6581 61.6147 58.4476C61.6147 55.0898 64.2402 52.3646 67.5838 52.244H68.8594C70.4207 52.244 71.3006 52.9924 72.2325 53.7846C73.1466 54.5625 74.0927 55.3677 75.6848 55.3677C77.6796 55.3677 79.3024 53.7432 79.3024 51.7474C79.3024 49.7517 77.6796 48.1284 75.6848 48.1284C74.0927 48.1284 73.1478 48.9335 72.2325 49.7115C71.3006 50.5037 70.4207 51.2532 68.8594 51.2532H67.5885C64.239 51.1315 61.6147 48.4074 61.6147 45.0496C61.6111 41.6883 64.2366 38.9643 67.5803 38.8425Z" fill="white"/>
<path d="M54.2495 68.1781C52.6574 68.1781 51.7126 68.982 50.7984 69.76C49.8666 70.5521 48.9867 71.3017 47.4241 71.3017H46.6127V71.2994H46.3765C46.1923 71.2994 46.0033 71.2899 45.7895 71.2686L45.7305 71.2663C45.5533 71.2462 45.382 71.219 45.2179 71.1894L45.1187 71.1681C44.9604 71.135 44.7986 71.0948 44.6486 71.0534L44.527 71.0156C44.3829 70.9719 44.2423 70.9187 44.1089 70.8666L43.9636 70.8063C43.836 70.7519 43.7085 70.6917 43.588 70.6325L43.4227 70.545C43.3116 70.4847 43.1994 70.4162 43.0943 70.3511C43.0341 70.3133 42.9727 70.2743 42.9148 70.2353C42.8179 70.1691 42.7258 70.1029 42.6243 70.0236C42.5628 69.9763 42.5002 69.9267 42.44 69.8782C42.3597 69.8108 42.2806 69.7423 42.2085 69.6749L42.1412 69.611C42.0951 69.5673 42.0479 69.5247 41.9995 69.475C41.9333 69.4112 41.8707 69.3438 41.8117 69.2788L41.7644 69.2256C41.7077 69.1617 41.6522 69.1003 41.5944 69.0305C41.5459 68.969 41.4963 68.9075 41.4526 68.8484L41.3995 68.7775C41.3463 68.7077 41.2932 68.6368 41.2448 68.5599C41.207 68.5032 41.168 68.4417 41.129 68.379C41.0605 68.2726 40.9979 68.165 40.9377 68.0515L40.8515 67.8896C40.7889 67.7654 40.7298 67.6413 40.6778 67.5148L40.6188 67.3623C40.5609 67.2298 40.5149 67.0927 40.4664 66.9473L40.4322 66.8314C40.3885 66.6742 40.3448 66.5122 40.3129 66.3608L40.2964 66.2603C40.268 66.1102 40.2361 65.9317 40.2184 65.7401L40.2125 65.6775C40.196 65.4611 40.183 65.2814 40.183 65.0958C40.183 61.7404 42.8061 59.0151 46.1474 58.8922H47.4277C48.9902 58.8922 49.8701 59.6406 50.802 60.4339C51.7161 61.2119 52.6622 62.017 54.2531 62.017C56.2467 62.017 57.8695 60.3925 57.8695 58.3968C57.8695 56.3999 56.2467 54.7765 54.2531 54.7765C52.661 54.7765 51.7161 55.5817 50.802 56.3597C49.8701 57.153 48.9902 57.9014 47.4277 57.9014H46.1556C42.8061 57.7796 40.1818 55.0544 40.1818 51.699C40.1818 48.3412 42.805 45.616 46.1462 45.4942H47.4265C48.989 45.4942 49.8689 46.2426 50.8008 47.0359C51.7149 47.8139 52.661 48.6179 54.2519 48.6179C56.2455 48.6179 57.8683 46.9934 57.8683 44.9965C57.8683 43.0007 56.2455 41.3762 54.2519 41.3762C52.6598 41.3762 51.7149 42.1814 50.8008 42.9593C49.8689 43.7527 48.989 44.5011 47.4265 44.5011H46.1545C42.805 44.3816 40.1806 41.6576 40.1806 38.2986C40.1806 34.9421 42.8038 32.218 46.145 32.0962H47.4253C48.9879 32.0962 49.8677 32.8446 50.7996 33.638C51.7138 34.4159 52.6598 35.2199 54.2507 35.2199C56.2443 35.2199 57.8671 33.5954 57.8671 31.5997C57.8671 29.6027 56.2443 27.9771 54.2507 27.9771C52.6586 27.9771 51.7138 28.7822 50.7996 29.5602C49.8677 30.3535 48.9879 31.1019 47.4253 31.1019H46.1533C42.8038 30.9813 40.1794 28.2561 40.1794 24.8995C40.1794 24.7044 40.1936 24.5058 40.2066 24.3225L40.216 24.2611C40.2314 24.0861 40.2574 23.904 40.2964 23.7077L40.307 23.6604C40.3401 23.4949 40.3849 23.3187 40.4452 23.1154L40.4534 23.0835C40.5078 22.9061 40.5704 22.7323 40.646 22.5514L40.6554 22.5207C40.7192 22.367 40.7948 22.2062 40.8786 22.0419L40.9093 21.991C40.9956 21.8314 41.0841 21.6777 41.1704 21.5417L41.2152 21.4803C41.2979 21.349 41.3983 21.2119 41.527 21.0499L41.553 21.0121C41.6629 20.8796 41.7762 20.7508 41.8955 20.6266L41.9475 20.5711C42.0632 20.4516 42.1837 20.3381 42.3018 20.2329L42.3774 20.1703C42.4991 20.065 42.6254 19.9693 42.7506 19.877L42.8439 19.8108C42.9691 19.721 43.0979 19.6418 43.2301 19.5625L43.3435 19.4963C43.4746 19.4242 43.6034 19.358 43.7309 19.2965L43.8809 19.2291C44.0049 19.1712 44.136 19.1227 44.2624 19.0754C44.3226 19.0553 44.377 19.034 44.4384 19.0104C44.5494 18.9749 44.6628 18.943 44.775 18.9123L44.8045 18.904C44.8423 18.8957 44.9852 18.8602 45.023 18.852C45.1423 18.8236 45.2651 18.8023 45.3962 18.7822C45.4694 18.768 45.5521 18.7562 45.6277 18.7467C45.7423 18.7337 45.858 18.7243 45.9738 18.7172L46.0742 18.7113C46.1462 18.7065 46.2182 18.7018 46.2856 18.6995H47.4253C48.9879 18.6995 49.8677 19.449 50.7996 20.2412C51.7138 21.0192 52.6598 21.8243 54.2507 21.8243C56.2443 21.8243 57.8671 20.1998 57.8671 18.2041C57.8671 16.2071 56.2443 14.5838 54.2507 14.5838C52.6586 14.5838 51.7138 15.389 50.7996 16.1669C49.8677 16.9603 48.9879 17.7087 47.4253 17.7087H46.6139V17.7063H46.3777C46.1781 17.7063 45.9891 17.6969 45.7907 17.6768L45.7305 17.6732C45.5592 17.6543 45.3903 17.6283 45.2061 17.5916L45.1246 17.5786C44.9639 17.5443 44.7998 17.5041 44.6439 17.4568L44.5317 17.4237C44.3864 17.3776 44.2423 17.3268 44.0994 17.27L43.9659 17.2168C43.8372 17.1613 43.7073 17.0986 43.5797 17.0336L43.4309 16.9591C43.3388 16.9071 43.249 16.8527 43.1581 16.7971L43.0943 16.7581L43.0223 16.712C42.988 16.6907 42.9538 16.6682 42.9148 16.641C42.8156 16.576 42.7235 16.5051 42.6124 16.42C42.5546 16.375 42.4979 16.3325 42.44 16.2852C42.355 16.2166 42.2747 16.1445 42.2014 16.0794L42.1388 16.0203C42.0928 15.9766 42.0479 15.934 42.0006 15.8856C41.9451 15.8312 41.8932 15.7744 41.84 15.7188L41.7999 15.6763C41.7325 15.603 41.6664 15.5273 41.5991 15.4445C41.5483 15.3854 41.5022 15.3251 41.4444 15.2495L41.3959 15.1856C41.3428 15.1159 41.2896 15.0449 41.2459 14.9811C41.2058 14.9161 41.1644 14.8498 41.1243 14.7872C41.0582 14.682 40.9956 14.5744 40.9353 14.4597L40.8456 14.2953C40.783 14.1712 40.7239 14.0482 40.6719 13.9253L40.6117 13.7775C40.5562 13.6368 40.509 13.4996 40.4641 13.3554L40.4275 13.2348C40.3838 13.0799 40.3412 12.9227 40.3082 12.769L40.2905 12.6697C40.2609 12.5077 40.2314 12.3327 40.2137 12.153L40.2078 12.0856C40.1912 11.8716 40.1783 11.6931 40.1783 11.5063L40.1759 11.2698V10.4552C40.1759 8.88981 40.9247 8.0078 41.7172 7.07496C42.4943 6.15985 43.2986 5.214 43.2986 3.62024C43.2986 1.6245 41.6758 0 39.6822 0C37.6874 0 36.0658 1.62331 36.0658 3.62024C36.0658 5.21282 36.8689 6.15867 37.6449 7.07378C38.4362 8.00662 39.1838 8.88863 39.1838 10.454V11.6091C39.1838 11.7025 39.1791 11.7983 39.1732 11.887C39.1732 11.887 39.1484 12.1731 39.1401 12.2523C39.1295 12.3303 39.1188 12.4072 39.107 12.484C39.0858 12.6105 39.0645 12.7382 39.0303 12.8872L38.9806 13.0835C38.9476 13.2052 38.9145 13.3258 38.8732 13.4453L38.8165 13.6096C38.7657 13.7467 38.7149 13.8792 38.6606 14.0045L38.5944 14.144C38.5307 14.2788 38.4633 14.4136 38.3972 14.5318L38.3228 14.6512C38.2448 14.786 38.1634 14.9149 38.076 15.0402L38.011 15.1301C37.9165 15.2625 37.8149 15.389 37.7193 15.5048L37.6543 15.577C37.5457 15.7023 37.4311 15.8253 37.3189 15.9364L37.2598 15.992C37.1323 16.1161 36.9929 16.2331 36.8783 16.3266L36.8264 16.3668C36.6858 16.4767 36.5465 16.5784 36.3988 16.6801L36.3634 16.7049C36.2063 16.8054 36.0504 16.8976 35.8992 16.9768L35.8567 16.9993C35.6996 17.0832 35.5343 17.1613 35.3713 17.2287L35.3252 17.2464C35.1563 17.3161 34.9804 17.3788 34.8103 17.4308L34.7642 17.4438C34.6107 17.4923 34.4383 17.5361 34.2221 17.581L34.1855 17.5893C34.006 17.6247 33.817 17.6531 33.6363 17.6732L33.582 17.6768C33.3895 17.6969 33.1958 17.7063 32.9867 17.7063L32.7505 17.7087H31.9391C30.3754 17.7087 29.4955 16.9591 28.5624 16.1658C27.6483 15.3878 26.7034 14.5838 25.1137 14.5838C23.1189 14.5838 21.4961 16.2083 21.4961 18.2041C21.4961 20.1998 23.1189 21.8243 25.1137 21.8243C26.7034 21.8243 27.6483 21.0203 28.5624 20.2424C29.4943 19.449 30.3754 18.6995 31.9391 18.6995H33.0753C33.1521 18.7018 33.23 18.7065 33.3092 18.7113L33.4025 18.7172C33.5111 18.7255 33.6186 18.7337 33.7237 18.7444C33.8217 18.7562 33.9127 18.7704 34.0131 18.7893C34.1146 18.8047 34.2186 18.8236 34.3225 18.8461C34.4146 18.8662 34.5056 18.891 34.6024 18.917C34.7005 18.943 34.802 18.9714 34.8953 18.9998C34.9886 19.0317 35.0749 19.0636 35.1658 19.0979C35.2615 19.1334 35.3583 19.1712 35.4516 19.2126C35.5178 19.241 35.5804 19.2717 35.6441 19.3013L35.7032 19.3296C35.7965 19.3769 35.8874 19.4242 35.9772 19.4727C36.0587 19.5176 36.139 19.5661 36.2205 19.6157C36.3055 19.6678 36.3894 19.721 36.4768 19.7825C36.5536 19.8321 36.6291 19.8865 36.7213 19.9586C36.7921 20.013 36.8642 20.0662 36.9398 20.1324C37.013 20.1903 37.0827 20.2518 37.1736 20.337C37.2374 20.3949 37.3035 20.4552 37.3649 20.519C37.4334 20.5876 37.502 20.6597 37.5669 20.733C37.6307 20.8016 37.6945 20.8714 37.7571 20.9518C37.8138 21.018 37.8669 21.0865 37.92 21.1563L37.9378 21.1788L38.1055 21.4117C38.161 21.4944 38.2165 21.5819 38.2696 21.6682L38.4114 21.9023L38.5519 22.1766C38.5696 22.2168 38.5885 22.257 38.6086 22.2972C38.6299 22.3422 38.6511 22.3871 38.6712 22.4332C38.7125 22.529 38.7503 22.6259 38.7893 22.7359C38.8236 22.8198 38.8519 22.9038 38.8826 22.996C38.9098 23.0705 38.9299 23.145 38.9499 23.2206L38.9712 23.2986C38.9948 23.3885 39.0173 23.4736 39.0385 23.5647C39.0551 23.6403 39.0681 23.7172 39.081 23.7929L39.0988 23.8922C39.1153 23.9808 39.1271 24.0683 39.1377 24.1594C39.1484 24.2492 39.1554 24.3403 39.1649 24.4337L39.1708 24.4963C39.1767 24.598 39.1814 24.6985 39.1814 24.8014V25.0035C39.1295 28.3057 36.5099 30.986 33.2265 31.1066H31.9415C30.3777 31.1066 29.4978 30.3571 28.5648 29.5637C27.6506 28.7858 26.7058 27.9818 25.1161 27.9818C23.1212 27.9818 21.4985 29.6063 21.4985 31.6044C21.4985 33.6013 23.1212 35.2246 25.1161 35.2246C26.7058 35.2246 27.6506 34.4207 28.5648 33.6427C29.4967 32.8494 30.3777 32.101 31.9415 32.101H33.2182C36.5677 32.2227 39.1921 34.9468 39.1921 38.3034C39.1921 41.66 36.5689 44.384 33.2288 44.5058H31.9415C30.3777 44.5058 29.4978 43.7562 28.5648 42.9629C27.6506 42.1849 26.7058 41.3809 25.1161 41.3809C23.1212 41.3809 21.4985 43.0043 21.4985 45.0012C21.4985 46.9981 23.1212 48.6226 25.1161 48.6226C26.7058 48.6226 27.6506 47.8186 28.5648 47.0407C29.4967 46.2473 30.3777 45.4989 31.9415 45.4989H33.2182C36.5689 45.6207 39.1932 48.3459 39.1932 51.7037C39.1932 55.0591 36.5701 57.7832 33.23 57.9049H31.9415C30.3777 57.9049 29.4978 57.1554 28.5648 56.362C27.6506 55.5841 26.7058 54.7801 25.1161 54.7801C23.1212 54.7801 21.4985 56.4046 21.4985 58.4003C21.4985 60.3961 23.1212 62.0206 25.1161 62.0206C26.7058 62.0206 27.6506 61.2166 28.5648 60.4386C29.4967 59.6453 30.3777 58.8957 31.9415 58.8957H33.2182C36.5122 59.0175 39.133 61.7002 39.185 64.9976V65.2022C39.185 65.2991 39.1803 65.3937 39.1743 65.4812C39.1743 65.4812 39.1507 65.7626 39.1413 65.8477C39.1306 65.9269 39.12 66.0014 39.1082 66.0771C39.0869 66.206 39.0657 66.3325 39.0385 66.4519C39.0208 66.5193 39.0031 66.5867 38.9889 66.6481C38.9535 66.7794 38.9192 66.9071 38.8637 67.0584C38.8507 67.1092 38.833 67.1577 38.8165 67.2026C38.7657 67.3398 38.7149 67.4746 38.6618 67.5987L38.5956 67.737C38.5318 67.8706 38.4645 68.0043 38.3937 68.1308L38.3252 68.2431C38.2472 68.3767 38.1645 68.5079 38.0783 68.6332L38.0134 68.7219C37.9189 68.8532 37.8173 68.9808 37.7204 69.0979L37.6555 69.17C37.5468 69.2965 37.4323 69.4183 37.3248 69.5271L37.2598 69.585C37.1382 69.7009 37.0094 69.8132 36.8807 69.9184L36.824 69.9633C36.6882 70.0721 36.55 70.1714 36.413 70.2648L36.3563 70.3003C36.1969 70.4055 36.0492 70.4942 35.9016 70.5711L35.8614 70.5935C35.6748 70.6893 35.5189 70.7614 35.3689 70.8229L35.3276 70.8406C35.1552 70.9104 34.9815 70.9719 34.8245 71.0215L34.7654 71.0369C34.6131 71.0865 34.443 71.1291 34.228 71.1728L34.1914 71.1811C34.0024 71.2178 33.8147 71.245 33.6446 71.2663L33.5891 71.2686C33.3777 71.2887 33.1816 71.2982 32.9914 71.2982L32.7552 71.3005H31.9438C30.3801 71.3005 29.5002 70.5521 28.5672 69.7588C27.653 68.9808 26.7082 68.1769 25.1184 68.1769C23.1236 68.1769 21.5008 69.8002 21.5008 71.7959C21.5008 73.7929 23.1236 75.4162 25.1184 75.4162C26.7082 75.4162 27.653 74.6122 28.5672 73.8342C29.499 73.0409 30.3801 72.2913 31.9438 72.2913H33.0824C33.1875 72.2937 33.2962 72.2996 33.4131 72.3102C33.5182 72.3161 33.6233 72.3232 33.7355 72.3374C33.8312 72.3469 33.9221 72.3623 34.0154 72.3788C34.1182 72.3965 34.2233 72.4143 34.3284 72.4367C34.4005 72.4521 34.4725 72.471 34.5457 72.4899L34.6048 72.5053C34.7028 72.5325 34.8056 72.5609 34.906 72.5928C34.9567 72.6094 35.0052 72.6271 35.0536 72.6448L35.1658 72.6838L35.4587 72.8021C35.5449 72.8387 35.6288 72.8801 35.7115 72.9215C35.8059 72.9688 35.8981 73.0161 35.9819 73.0598C36.0622 73.1047 36.1437 73.1532 36.2299 73.2112C36.3126 73.2608 36.3941 73.3105 36.4827 73.3731C36.563 73.424 36.6386 73.4807 36.7177 73.5422C36.7957 73.5978 36.8701 73.6557 36.9433 73.7172C37.0189 73.781 37.0933 73.8461 37.1653 73.9111L37.1961 73.9395C37.2575 73.9962 37.3189 74.0518 37.372 74.105C37.4252 74.1606 37.4783 74.2173 37.5315 74.2752L37.6295 74.3816C37.6732 74.4301 37.7181 74.481 37.7641 74.5377C37.8303 74.6169 37.8941 74.6997 37.9519 74.7765L38.1126 74.9953L38.2519 75.2175C38.2519 75.2175 38.3771 75.4244 38.4185 75.4907C38.4693 75.5876 38.5177 75.6857 38.5661 75.785L38.5838 75.8217C38.6157 75.8855 38.6488 75.9529 38.6783 76.0251C38.7137 76.1043 38.7456 76.1859 38.7775 76.2674L38.8011 76.3277C38.8307 76.4105 38.859 76.4909 38.8897 76.5867C38.9228 76.673 38.944 76.7557 38.9665 76.842L38.9818 76.8976C39.0055 76.9839 39.0279 77.069 39.048 77.153C39.0657 77.2334 39.0787 77.315 39.0929 77.3977L39.1082 77.4923C39.1247 77.5774 39.1366 77.6649 39.146 77.7477C39.1543 77.8281 39.1791 78.0882 39.1791 78.0882C39.185 78.1899 39.1897 78.2916 39.1897 78.3921V79.5472C39.1897 81.1126 38.4421 81.9934 37.6508 82.9274C36.8748 83.8425 36.0717 84.7884 36.0717 86.3809C36.0717 88.3767 37.6945 90 39.6881 90C41.6818 90 43.3045 88.3767 43.3045 86.3809C43.3045 84.7884 42.5002 83.8413 41.7231 82.9262C40.9306 81.9934 40.1818 81.1114 40.1818 79.5472V78.7314H40.1842V78.4949C40.1842 78.301 40.1983 78.1036 40.2113 77.9179L40.2196 77.8553C40.235 77.6827 40.2609 77.5018 40.2999 77.3031L40.3094 77.2558C40.3412 77.0951 40.3849 76.9236 40.4475 76.7108L40.4558 76.6765C40.5101 76.5027 40.5727 76.3301 40.6507 76.1433L40.659 76.1149C40.7204 75.9671 40.7936 75.8111 40.8822 75.6361L40.9117 75.5852C40.9979 75.4268 41.0865 75.2743 41.1822 75.1253L41.2164 75.0721C41.3015 74.9421 41.3995 74.8061 41.527 74.6453L41.5542 74.6051C41.6652 74.4739 41.781 74.3438 41.8955 74.2185L41.9487 74.1629C42.0656 74.0471 42.1873 73.9324 42.3077 73.8248L42.3786 73.7621C42.5014 73.6581 42.6266 73.5599 42.7553 73.4677L42.8451 73.4027C42.9715 73.3152 43.1002 73.2324 43.2337 73.1532L43.3459 73.087C43.477 73.0149 43.6069 72.9499 43.7368 72.886L43.8821 72.8174C44.0073 72.7607 44.1384 72.711 44.26 72.6649C44.2966 72.6531 44.4443 72.6011 44.4443 72.6011C44.5671 72.5597 44.6923 72.5242 44.8128 72.4935L45.023 72.4391C45.1447 72.4119 45.2675 72.3918 45.3962 72.3717C45.4706 72.3587 45.5533 72.3457 45.6324 72.3362C45.7364 72.3244 45.8415 72.3173 45.9466 72.3091L45.9797 72.3067C46.086 72.2996 46.1864 72.2925 46.2891 72.2913H47.4288C48.9914 72.2913 49.8713 73.0397 50.8032 73.833C51.7173 74.611 52.6633 75.4162 54.2542 75.4162C56.2479 75.4162 57.8707 73.7917 57.8707 71.7959C57.866 69.8014 56.2443 68.1781 54.2495 68.1781Z" fill="white"/>
</svg>
