<svg width="124" height="67" viewBox="0 0 124 67" fill="none" xmlns="http://www.w3.org/2000/svg">
<path d="M21.3591 46.3646V45.952H21.3597V45.8321C21.3597 45.7356 21.3651 45.6348 21.3754 45.5263L21.376 45.5089C21.3856 45.4136 21.4001 45.3188 21.4188 45.2301L21.4248 45.2031C21.4423 45.112 21.464 45.0226 21.4899 44.9345L21.4984 44.9093C21.5231 44.8308 21.5544 44.7444 21.5973 44.6395L21.6015 44.6251C21.6376 44.5388 21.6768 44.456 21.7215 44.3727L21.7305 44.3535C21.7691 44.2815 21.8143 44.206 21.8704 44.1202L21.8854 44.0962C21.9264 44.0327 21.9759 43.9649 22.0368 43.8876L22.0627 43.8576C22.1236 43.782 22.1773 43.7203 22.2376 43.6597L22.2605 43.6339C22.3135 43.5788 22.3732 43.5248 22.448 43.4595L22.4787 43.4319C22.5324 43.3857 22.5915 43.3419 22.6487 43.2988L22.7169 43.249C22.7814 43.204 22.8495 43.1615 22.9158 43.1225L22.9749 43.0883C23.0388 43.0517 23.107 43.0182 23.1745 42.9858L23.2444 42.9534C23.3101 42.9246 23.3771 42.8988 23.4446 42.8736L23.529 42.8437C23.5959 42.8233 23.6623 42.8035 23.7256 42.7867L23.766 42.7765C23.7865 42.7711 23.807 42.7657 23.8329 42.7609C23.8938 42.7471 23.9547 42.7357 24.0131 42.7261L24.0662 42.7183C24.0909 42.7148 24.115 42.7112 24.1404 42.7082C24.2001 42.7016 24.2591 42.6962 24.3164 42.6932L24.3616 42.6902C24.4008 42.6878 24.4388 42.6854 24.4744 42.6848H25.0574C25.8563 42.6848 26.3061 43.0649 26.7818 43.4673C27.2478 43.8618 27.7301 44.2695 28.5417 44.2695C29.5594 44.2695 30.3878 43.4457 30.3878 42.4329C30.3878 41.4202 29.5594 40.5969 28.5417 40.5969C27.7301 40.5969 27.2478 41.0047 26.7818 41.3992C26.3061 41.8015 25.8563 42.1817 25.0574 42.1817H24.5226C24.4394 42.1817 24.3508 42.1775 24.235 42.1673L24.1898 42.1631C24.1042 42.1541 24.0168 42.1409 23.9336 42.1247L23.8781 42.1145C23.7985 42.0984 23.7201 42.078 23.6448 42.0564L23.5796 42.0378C23.5067 42.0144 23.4362 41.9886 23.3662 41.9616L23.2902 41.9317C23.2251 41.9041 23.163 41.8741 23.0997 41.8423C23.0997 41.8423 23.0364 41.8111 23.0153 41.7997C22.9617 41.7704 22.9098 41.7386 22.8471 41.6996C22.8164 41.681 22.7874 41.6636 22.7561 41.6415C22.709 41.6097 22.6602 41.5761 22.6144 41.5389L22.5752 41.5095C22.5553 41.4946 22.5348 41.4796 22.5155 41.4628C22.4739 41.4274 22.4317 41.3914 22.3925 41.356L22.287 41.2571C22.2532 41.2247 22.2231 41.1906 22.1899 41.1522C22.1537 41.1138 22.1194 41.076 22.0844 41.0341C22.0627 41.0095 22.0422 40.9825 22.0223 40.9561L21.9705 40.8866C21.9482 40.856 21.9252 40.8254 21.9053 40.7978C21.8848 40.7648 21.8637 40.7319 21.8432 40.7013L21.8264 40.6773C21.798 40.6305 21.7697 40.5844 21.7426 40.5352C21.7305 40.5142 21.7196 40.4926 21.7088 40.4716L21.6985 40.4512C21.6672 40.3895 21.6383 40.3289 21.6123 40.2654L21.5804 40.1868C21.552 40.1167 21.5255 40.0459 21.5038 39.9823L21.4857 39.9098C21.4616 39.8324 21.4423 39.7539 21.426 39.6831L21.417 39.6244C21.3995 39.5398 21.3856 39.4553 21.3766 39.3719L21.3742 39.3288C21.3645 39.225 21.3597 39.1303 21.3597 39.038C21.3597 37.3357 22.6994 35.953 24.405 35.8918H25.0574C25.8563 35.8918 26.3061 36.272 26.7818 36.6743C27.2478 37.0683 27.7301 37.476 28.5417 37.476C29.5594 37.476 30.3878 36.6521 30.3878 35.64C30.3878 34.6279 29.5594 33.8046 28.5417 33.8046C27.7301 33.8046 27.2478 34.2123 26.7818 34.6069C26.3061 35.0092 25.8563 35.3894 25.0574 35.3894H24.4093C22.6994 35.3276 21.3597 33.9461 21.3597 32.2432C21.3597 30.5409 22.6994 29.1594 24.405 29.0977H25.0574C25.8563 29.0977 26.3061 29.4778 26.7818 29.8802C27.2478 30.2747 27.7301 30.6819 28.5417 30.6819C29.5594 30.6819 30.3878 29.858 30.3878 28.8459C30.3878 27.8337 29.5594 27.0099 28.5417 27.0099C27.7301 27.0099 27.2478 27.4176 26.7812 27.8121C26.3054 28.2145 25.8557 28.5946 25.0568 28.5946H24.4093C22.6994 28.5329 21.3597 27.1508 21.3597 25.4485C21.3597 25.3561 21.3645 25.2596 21.3748 25.1505L21.376 25.1217C21.3856 25.0306 21.4001 24.9388 21.42 24.8447L21.4248 24.8171C21.4423 24.7296 21.464 24.642 21.4923 24.5467L21.4984 24.5239C21.5267 24.437 21.5581 24.35 21.5918 24.2673L21.6045 24.2373C21.6395 24.1491 21.6817 24.0646 21.7166 23.9962L21.7317 23.9693C21.7751 23.8859 21.8258 23.805 21.8692 23.7384L21.8848 23.715C21.9331 23.6431 21.9843 23.5723 22.041 23.501L22.0627 23.4746C22.1182 23.4056 22.1761 23.3397 22.2357 23.2779L22.2611 23.2515C22.3202 23.1886 22.3883 23.128 22.4486 23.0758L22.4793 23.0489C22.5475 22.9889 22.6246 22.9325 22.6789 22.8942L22.7157 22.8672C22.7802 22.8222 22.8489 22.7802 22.9213 22.7365L22.9713 22.7077C23.0376 22.6699 23.1088 22.6357 23.1823 22.6004L23.2414 22.5716C23.3101 22.5416 23.3801 22.5146 23.4536 22.4888L23.5254 22.4624C23.5959 22.4397 23.6635 22.4205 23.7322 22.4031L23.7666 22.3941C23.7858 22.3887 23.8057 22.3839 23.8275 22.3791C23.8932 22.3647 23.9583 22.3527 24.024 22.3425C24.0626 22.3365 24.1018 22.3311 24.1398 22.3257C24.2007 22.3179 24.2634 22.3137 24.3267 22.3095C24.3743 22.306 24.4213 22.303 24.4696 22.3024H25.0574C25.8563 22.3024 26.3061 22.6825 26.7818 23.0848C27.2478 23.4794 27.7301 23.8865 28.5417 23.8865C29.5594 23.8865 30.3878 23.0633 30.3878 22.0511C30.3878 21.039 29.5594 20.2157 28.5417 20.2157C27.7301 20.2157 27.2478 20.6235 26.7818 21.0174C26.3061 21.4197 25.8563 21.7999 25.0574 21.7999H24.6426V21.7981H24.522C24.4292 21.7981 24.3351 21.7933 24.2266 21.7837L24.1916 21.7807C24.1036 21.7717 24.0138 21.7579 23.9299 21.7423L23.8805 21.7321C23.8076 21.7177 23.7334 21.6992 23.6369 21.671L23.5796 21.6548C23.5055 21.6314 23.4331 21.6056 23.362 21.5762L23.2884 21.5468C23.2221 21.5199 23.1582 21.4881 23.0973 21.4581L23.0123 21.4137C22.9623 21.388 22.9152 21.3586 22.8688 21.3292L22.8411 21.3118C22.8091 21.2944 22.782 21.2776 22.7555 21.2596C22.7066 21.2255 22.656 21.1883 22.6096 21.1535L22.5637 21.1187C22.5462 21.1055 22.5282 21.0923 22.5131 21.0798C22.4769 21.0492 22.4401 21.0168 22.404 20.9844L22.3883 20.9706C22.3539 20.9388 22.3208 20.9077 22.2858 20.8735C22.2617 20.8507 22.24 20.8273 22.2189 20.8039L22.1845 20.7674C22.1501 20.7302 22.1158 20.6912 22.0832 20.6534C22.0651 20.6319 22.0482 20.6091 22.0308 20.5869L22 20.5473C21.965 20.5035 21.9331 20.4586 21.9023 20.413C21.8897 20.3944 21.8384 20.3135 21.8384 20.3135C21.8053 20.2613 21.7727 20.2091 21.742 20.1528C21.7299 20.1324 21.7202 20.112 21.71 20.0916L21.6961 20.064C21.666 20.0041 21.6364 19.9423 21.6105 19.8823L21.5774 19.8026C21.5514 19.7342 21.5255 19.6653 21.5038 19.5957L21.4827 19.5226C21.4604 19.4476 21.4411 19.3715 21.4254 19.2983L21.4146 19.236C21.3965 19.1484 21.3838 19.0645 21.3772 18.9883L21.373 18.9386C21.3633 18.836 21.3585 18.7425 21.3585 18.6543L21.3579 18.1213C21.3579 17.3274 21.7395 16.8807 22.1441 16.407C22.5408 15.9429 22.9508 15.4626 22.9508 14.655C22.9508 13.6428 22.1224 12.8196 21.1041 12.8196C20.0863 12.8196 19.2591 13.6428 19.2591 14.655C19.2591 15.4626 19.6691 15.9429 20.0664 16.407C20.471 16.8801 20.8532 17.3274 20.8532 18.1207V18.6945L20.8448 18.8546L20.8412 18.9026C20.8376 18.9452 20.8346 18.9877 20.8291 19.0327C20.8249 19.0717 20.8183 19.1106 20.808 19.1568C20.799 19.2186 20.7881 19.2803 20.7755 19.3409C20.7688 19.3739 20.7598 19.4063 20.7477 19.4446L20.7399 19.4746C20.726 19.5286 20.7122 19.5819 20.6923 19.6383C20.6856 19.6593 20.6784 19.6779 20.6712 19.6977L20.6392 19.7822C20.6211 19.829 20.6036 19.8757 20.5831 19.9207L20.5518 19.9891L20.5241 20.043C20.4981 20.0934 20.4728 20.1432 20.4475 20.1881L20.4101 20.2493C20.3715 20.3171 20.3287 20.3842 20.2865 20.4448L20.2558 20.4867L20.2178 20.5359C20.1792 20.5863 20.1412 20.636 20.1002 20.684L20.0731 20.7158C20.017 20.78 19.9579 20.8423 19.897 20.9011L19.8705 20.9263C19.8066 20.9874 19.7415 21.0438 19.6703 21.1013L19.6516 21.1169C19.5799 21.1715 19.5063 21.2261 19.431 21.2752L19.4087 21.2896C19.3176 21.349 19.2447 21.3921 19.1747 21.4281L19.1542 21.4383C19.0584 21.4881 18.9776 21.5253 18.9034 21.5558L18.8811 21.5642C18.787 21.6032 18.7002 21.6338 18.6152 21.659L18.5977 21.6644C18.5043 21.692 18.4108 21.7159 18.321 21.7339L18.2999 21.7381C18.201 21.7579 18.107 21.7717 18.0135 21.7801L17.9906 21.7819C17.8869 21.7921 17.785 21.7969 17.6885 21.7969L17.5679 21.7987H17.1531C16.3555 21.7987 15.9063 21.4191 15.43 21.0168C14.9633 20.6223 14.4804 20.2145 13.6683 20.2145C12.6505 20.2145 11.8233 21.0378 11.8233 22.0499C11.8233 23.0621 12.6511 23.8853 13.6683 23.8853C14.4804 23.8853 14.9633 23.4776 15.43 23.083C15.9057 22.6807 16.3555 22.3012 17.1531 22.3012H17.7392C17.7784 22.3024 17.8206 22.3048 17.8616 22.3071L17.8959 22.3089C17.9526 22.3125 18.0105 22.3167 18.0702 22.3251C18.1148 22.3299 18.1534 22.3359 18.2052 22.3443C18.2619 22.3539 18.3198 22.3635 18.3771 22.3767C18.4072 22.3827 18.4355 22.3899 18.4645 22.3977L18.5037 22.4079C18.5591 22.4229 18.6134 22.4379 18.6695 22.4571C18.7123 22.4702 18.7545 22.4858 18.7943 22.5008C18.8473 22.5206 18.8998 22.5398 18.9504 22.5626C18.9782 22.5746 19.0047 22.5872 19.0324 22.6004L19.0752 22.6207C19.1187 22.6405 19.1597 22.6627 19.2006 22.6843L19.2163 22.6927L19.3345 22.7611L19.3568 22.7754C19.3954 22.8 19.4352 22.8252 19.472 22.8498C19.4937 22.8642 19.5148 22.8798 19.5359 22.8954L19.5829 22.9295C19.6257 22.9619 19.6685 22.9955 19.7065 23.0255L19.8138 23.1202C19.8518 23.1544 19.8892 23.1904 19.9242 23.2251C19.9573 23.2593 19.9905 23.2935 20.0242 23.3307L20.0363 23.3439C20.0664 23.3762 20.096 23.408 20.1249 23.444C20.1551 23.4806 20.184 23.519 20.216 23.5621C20.2479 23.6017 20.2763 23.6401 20.3016 23.6755C20.3293 23.7186 20.357 23.7624 20.3836 23.8032C20.4089 23.8457 20.4342 23.8871 20.4589 23.9315C20.4831 23.9741 20.506 24.019 20.5289 24.0676C20.5506 24.1096 20.5717 24.1527 20.5922 24.2007C20.6127 24.2463 20.632 24.2942 20.6489 24.3368L20.67 24.3956C20.6796 24.422 20.6893 24.4489 20.6989 24.4801C20.7116 24.5161 20.7212 24.5527 20.7309 24.5899L20.7417 24.63C20.7556 24.678 20.767 24.7242 20.7785 24.7733C20.7857 24.8027 20.7912 24.8321 20.7966 24.8621C20.8008 24.8855 20.805 24.9082 20.8086 24.9238C20.8123 24.9502 20.8321 25.0695 20.8321 25.0695C20.8321 25.0695 20.8418 25.1967 20.8448 25.232L20.8532 25.4011V25.4935C20.8291 27.1706 19.4913 28.5323 17.8115 28.594H17.1519C16.3543 28.594 15.9051 28.2139 15.4288 27.8115C14.9621 27.417 14.4792 27.0087 13.6665 27.0087C12.6487 27.0087 11.8215 27.8325 11.8215 28.8447C11.8215 29.8568 12.6493 30.6807 13.6665 30.6807C14.4786 30.6807 14.9615 30.2729 15.4282 29.8784C15.9039 29.4766 16.3537 29.0965 17.1513 29.0965H17.8043C19.5136 29.1583 20.8526 30.5397 20.8526 32.242C20.8526 33.9431 19.5142 35.3252 17.8103 35.3882H17.1507C16.3531 35.3882 15.9039 35.0086 15.4276 34.6063C14.9609 34.2117 14.478 33.804 13.6658 33.804C12.6481 33.804 11.8209 34.6273 11.8209 35.6394C11.8209 36.6515 12.6487 37.4754 13.6658 37.4754C14.478 37.4754 14.9609 37.0677 15.4276 36.6731C15.9033 36.2714 16.3531 35.8912 17.1507 35.8912H17.8037C19.484 35.953 20.8231 37.3129 20.8514 38.9852V39.0835L20.843 39.2322L20.8394 39.2838C20.8358 39.3288 20.8328 39.3743 20.8273 39.4199C20.8237 39.4553 20.8171 39.4895 20.808 39.5362C20.799 39.6004 20.7863 39.664 20.7719 39.7293C20.7646 39.7599 20.758 39.7899 20.7465 39.827C20.7309 39.8924 20.7134 39.959 20.6923 40.0207L20.6633 40.1023L20.6446 40.1496C20.6241 40.203 20.6036 40.2558 20.5825 40.3037L20.5482 40.3739C20.515 40.444 20.4794 40.5118 20.4451 40.5748L20.4107 40.6317C20.3703 40.7013 20.3269 40.7678 20.2847 40.829L20.2383 40.8913C20.1918 40.9519 20.1478 41.0107 20.1002 41.0658L20.0676 41.1018C20.0158 41.1618 19.9579 41.2241 19.8964 41.2835L19.8651 41.3123C19.7987 41.3764 19.7354 41.4322 19.6679 41.4844L19.6456 41.5029C19.5751 41.5581 19.5021 41.6109 19.4286 41.66L19.4062 41.675C19.3303 41.723 19.2525 41.7692 19.1747 41.8105L19.1482 41.8231C19.0656 41.8657 18.9842 41.9041 18.898 41.9407L18.8793 41.9491C18.7913 41.9832 18.7038 42.0144 18.6164 42.0414L18.5899 42.0492C18.4982 42.0768 18.4102 42.099 18.3204 42.1163L18.292 42.1217C18.201 42.1397 18.1094 42.1535 18.0153 42.1631L17.9821 42.1655C17.8718 42.1763 17.7741 42.1811 17.6849 42.1811H17.1501C16.3525 42.1811 15.9033 41.8015 15.427 41.3992C14.9603 41.0047 14.4774 40.5963 13.6652 40.5963C12.6475 40.5963 11.8203 41.4202 11.8203 42.4323C11.8203 43.4451 12.6481 44.2689 13.6652 44.2689C14.4774 44.2689 14.9603 43.8606 15.427 43.4661C15.9027 43.0637 16.3525 42.6842 17.1501 42.6842H17.7319C17.7645 42.6848 17.7983 42.6872 17.832 42.689L17.9002 42.6926C17.9532 42.6962 18.0099 42.701 18.0611 42.7064C18.0943 42.7106 18.1262 42.7153 18.1594 42.7207L18.2064 42.7279L18.2631 42.7387C18.2975 42.7447 18.3318 42.7513 18.3692 42.7597C18.4181 42.7693 18.4633 42.7819 18.5085 42.7939L18.5549 42.8065C18.5911 42.8167 18.6267 42.8263 18.6598 42.8371C18.7069 42.8527 18.7527 42.8694 18.8009 42.888C18.8491 42.9054 18.8968 42.9246 18.9438 42.9456C18.989 42.9648 19.0318 42.9846 19.0783 43.008C19.1235 43.0289 19.1681 43.0517 19.2121 43.0763C19.2543 43.0997 19.2965 43.1249 19.3375 43.1501L19.358 43.1627C19.3942 43.1848 19.431 43.207 19.4671 43.2316C19.5003 43.2538 19.5317 43.2772 19.5648 43.3018L19.5877 43.3192C19.6263 43.3467 19.6649 43.3761 19.7017 43.4079C19.7415 43.4409 19.7782 43.4739 19.8144 43.5062L19.8355 43.5254C19.8645 43.5524 19.894 43.5788 19.9217 43.607C19.9561 43.6417 19.9917 43.6789 20.0266 43.7179C20.0592 43.7527 20.0912 43.788 20.1201 43.824C20.1527 43.8636 20.1852 43.9038 20.2166 43.9457C20.2455 43.9835 20.2738 44.0207 20.2998 44.0591C20.3221 44.0926 20.3432 44.1274 20.3649 44.1622L20.3836 44.1928C20.4083 44.2318 20.4324 44.2701 20.4559 44.3151C20.4812 44.3589 20.5054 44.4038 20.5289 44.4536C20.5506 44.4962 20.5705 44.5376 20.5892 44.5783C20.6103 44.6269 20.6296 44.6779 20.6477 44.7258L20.6657 44.7756C20.6754 44.802 20.6856 44.829 20.6959 44.8631C20.7134 44.9123 20.7272 44.9621 20.7405 45.0208C20.7532 45.064 20.7646 45.1066 20.7749 45.1575C20.7839 45.1923 20.7899 45.2271 20.796 45.2625L20.8062 45.3194C20.8135 45.3644 20.8207 45.41 20.8267 45.4556C20.8321 45.4975 20.8352 45.5395 20.8388 45.5815L20.8424 45.6228L20.8508 45.7793V46.364C20.8508 47.1578 20.4686 47.6051 20.064 48.0782C19.6673 48.5423 19.2573 49.022 19.2573 49.8297C19.2573 50.8424 20.0851 51.6669 21.1023 51.6669C22.1206 51.6669 22.949 50.843 22.949 49.8297C22.949 49.022 22.539 48.5423 22.1423 48.0782C21.7407 47.6057 21.3591 47.1584 21.3591 46.3646Z" fill="url(#paint0_linear_177_2252)"/>
<path d="M46.3182 29.0971H46.9694C47.7664 29.0971 48.2156 29.4766 48.6913 29.879C49.158 30.2735 49.6409 30.6818 50.4536 30.6818C51.472 30.6818 52.3004 29.858 52.3004 28.8458C52.3004 27.8337 51.472 27.0098 50.4536 27.0098C49.6409 27.0098 49.1586 27.4182 48.6913 27.8127C48.2156 28.215 47.7664 28.5946 46.9694 28.5946H46.3206C44.6108 28.5328 43.2711 27.1507 43.2711 25.4485C43.2711 25.3351 43.2753 25.2398 43.2837 25.1547L43.2886 25.1229C43.297 25.0203 43.3145 24.9226 43.3283 24.8483L43.3356 24.8195C43.3537 24.7241 43.3766 24.6318 43.4019 24.5491L43.4103 24.5251C43.4339 24.4477 43.4628 24.3656 43.5044 24.2612L43.5122 24.2427C43.5454 24.1629 43.5846 24.0802 43.6346 23.9854L43.6401 23.9728C43.6829 23.8937 43.7311 23.8139 43.7835 23.733L43.7938 23.7168C43.8456 23.6383 43.8999 23.5645 43.9566 23.4937L43.9686 23.477C44.0241 23.4086 44.0826 23.3432 44.1489 23.2743L44.1682 23.2533C44.2249 23.1945 44.2888 23.1352 44.3569 23.077L44.3895 23.0494C44.457 22.9907 44.5215 22.9409 44.5903 22.8941L44.6276 22.8666C44.6933 22.8198 44.7621 22.7772 44.8296 22.737L44.8827 22.7071C44.949 22.6687 45.0189 22.6345 45.0919 22.6003L45.1522 22.571C45.2203 22.541 45.2914 22.5146 45.3596 22.4894L45.4416 22.4612C45.5061 22.439 45.5742 22.4205 45.6411 22.4031L45.6833 22.3923C45.7008 22.3875 45.7183 22.3833 45.7376 22.3791C45.8033 22.3647 45.869 22.3527 45.9317 22.3425L46.0505 22.3251C46.1108 22.3173 46.1723 22.3131 46.2374 22.3089C46.2851 22.3053 46.3339 22.3023 46.3815 22.3017H46.9694C47.7664 22.3017 48.2156 22.6813 48.6913 23.0836C49.158 23.4782 49.6409 23.8865 50.4536 23.8865C51.472 23.8865 52.3004 23.0632 52.3004 22.0511C52.3004 21.039 51.472 20.2157 50.4536 20.2157C49.6409 20.2157 49.1586 20.6234 48.6919 21.018C48.2162 21.4197 47.767 21.7993 46.97 21.7993H46.5528V21.7975H46.4322C46.3411 21.7975 46.2453 21.7927 46.1392 21.7831L46.1048 21.7801C46.0156 21.7711 45.9269 21.7573 45.8419 21.7417L45.7919 21.7321C45.7183 21.7171 45.6405 21.6973 45.5501 21.6703L45.4928 21.6548C45.4193 21.6314 45.3481 21.6056 45.2758 21.5762L45.2022 21.5474C45.1359 21.5204 45.0726 21.4899 45.0111 21.4587L44.9267 21.4149C44.8827 21.3921 44.8405 21.3657 44.7977 21.34L44.6692 21.2602C44.6204 21.226 44.5704 21.1901 44.5245 21.1553L44.5022 21.1379C44.4775 21.1187 44.4522 21.0989 44.4238 21.0749C44.3901 21.0486 44.3575 21.0192 44.3238 20.9898L44.2647 20.9358C44.243 20.916 44.2213 20.8969 44.2002 20.8747C44.1712 20.8465 44.1453 20.8171 44.1188 20.7883L44.091 20.7583C44.0591 20.7242 44.0271 20.6906 43.997 20.6516C43.9801 20.6312 43.9114 20.5425 43.9114 20.5425C43.8782 20.4987 43.845 20.4549 43.8137 20.41C43.7962 20.3848 43.7811 20.359 43.7655 20.3338L43.7552 20.317C43.7196 20.2613 43.6859 20.2061 43.6575 20.1569L43.6123 20.0634C43.578 20.0022 43.549 19.9375 43.5243 19.8799L43.4947 19.8056C43.467 19.7348 43.4393 19.6623 43.417 19.5921L43.3995 19.5315C43.3772 19.4512 43.3555 19.3703 43.3386 19.2971L43.3302 19.2413C43.3109 19.1484 43.2976 19.0639 43.2898 18.9781L43.2855 18.9439C43.2765 18.8546 43.2729 18.7593 43.2729 18.6531L43.2717 18.5332V18.1201C43.2717 17.3262 43.6533 16.8795 44.0573 16.4058C44.454 15.9417 44.8634 15.4614 44.8634 14.6538C44.8634 13.6416 44.035 12.8184 43.0172 12.8184C41.9995 12.8184 41.1717 13.6416 41.1717 14.6538C41.1717 15.462 41.5823 15.9417 41.979 16.4058C42.3836 16.8789 42.7658 17.3262 42.7658 18.1195V18.6969L42.7646 18.7179C42.7622 18.7599 42.7604 18.8012 42.7556 18.851C42.7532 18.9116 42.7483 18.9727 42.7405 19.0345C42.7363 19.0705 42.7302 19.1058 42.7212 19.1514C42.714 19.215 42.7007 19.2815 42.688 19.3421L42.6639 19.4368C42.6464 19.5064 42.6271 19.5723 42.6066 19.6359L42.5777 19.715C42.5512 19.7852 42.5247 19.8547 42.4939 19.9219L42.4632 19.9873C42.4306 20.058 42.3938 20.1276 42.3607 20.1893L42.3281 20.2409C42.2853 20.3116 42.2419 20.3818 42.1979 20.4454L42.1695 20.4837C42.1189 20.5527 42.0676 20.6192 42.0134 20.6822L41.985 20.7134C41.9241 20.7847 41.8663 20.8459 41.8054 20.9023L41.7843 20.9226C41.7198 20.9844 41.6516 21.0426 41.5805 21.1007L41.5654 21.1133C41.5009 21.1637 41.4243 21.2218 41.3375 21.2758L41.3212 21.2872C41.2489 21.3352 41.1699 21.3819 41.0885 21.4257L41.068 21.4359C40.9914 21.4761 40.9076 21.515 40.8148 21.554L40.7955 21.5618C40.705 21.599 40.6158 21.6308 40.5278 21.6566L40.5103 21.662C40.4132 21.6901 40.3222 21.7135 40.2354 21.7315L40.21 21.7357C40.116 21.7543 40.0201 21.7687 39.9267 21.7777L39.9044 21.7795C39.797 21.7897 39.6982 21.7945 39.6023 21.7945L39.4817 21.7963H39.0663C38.268 21.7963 37.8177 21.4161 37.3414 21.0144C36.8747 20.6198 36.3918 20.2127 35.5802 20.2127C34.5613 20.2127 33.7317 21.036 33.7317 22.0481C33.7317 23.0602 34.5607 23.8835 35.5802 23.8835C36.3918 23.8835 36.8741 23.4758 37.3414 23.0818C37.8177 22.6795 38.2674 22.2993 39.0663 22.2993H39.6511C39.6915 22.2999 39.7313 22.3029 39.7711 22.3047L39.8067 22.3065C39.8652 22.3101 39.9218 22.3143 39.9803 22.3227C40.0262 22.3281 40.0726 22.3347 40.1166 22.3419C40.1727 22.3515 40.2287 22.3617 40.2878 22.3743C40.3234 22.3809 40.3578 22.3899 40.3903 22.3989L40.4156 22.4055C40.4711 22.4205 40.5248 22.4354 40.582 22.4546C40.6146 22.4648 40.646 22.4762 40.6773 22.4876L40.7111 22.5002C40.7617 22.5194 40.8124 22.5386 40.8576 22.5578C40.8576 22.5578 40.9619 22.6063 40.9848 22.6177C41.033 22.6411 41.0831 22.6669 41.1259 22.6891L41.1536 22.7053C41.1838 22.7233 41.2145 22.7412 41.2501 22.764C41.2826 22.7826 41.3134 22.8024 41.3447 22.8234L41.3845 22.8492C41.4153 22.869 41.4436 22.8905 41.4726 22.9121L41.4955 22.9295C41.5371 22.9607 41.5793 22.9931 41.6185 23.0243C41.654 23.0536 41.689 23.0842 41.7276 23.1208C41.7656 23.1532 41.7999 23.1862 41.8385 23.2257C41.8681 23.2533 41.8928 23.2803 41.9181 23.3085L41.938 23.3307C41.9724 23.366 42.0055 23.4014 42.0357 23.4386C42.055 23.462 42.0737 23.4866 42.0924 23.5111L42.1526 23.5903C42.1731 23.6179 42.1936 23.6448 42.2129 23.6742C42.2419 23.7168 42.2696 23.76 42.2961 23.8031L42.3293 23.8577C42.3432 23.8805 42.3576 23.9033 42.3703 23.9267C42.3896 23.9608 42.4071 23.9956 42.4258 24.0316L42.4427 24.064C42.4619 24.1083 42.4824 24.1521 42.5017 24.1911C42.5222 24.2409 42.5415 24.2912 42.5638 24.3506C42.5813 24.3908 42.5958 24.4315 42.6097 24.4735C42.6265 24.5251 42.641 24.5772 42.6549 24.6336L42.6603 24.6528C42.6706 24.6894 42.6808 24.7259 42.6886 24.7649C42.7007 24.8213 42.7122 24.8788 42.7212 24.928L42.7302 24.991C42.7345 25.0167 42.7381 25.0425 42.7411 25.0695C42.7477 25.1259 42.7532 25.181 42.755 25.241C42.755 25.241 42.7628 25.3579 42.7652 25.3951V25.4964C42.7375 27.1711 41.3984 28.5316 39.7217 28.5928H39.0663C38.268 28.5928 37.8177 28.2126 37.3414 27.8103C36.8747 27.4158 36.3918 27.008 35.5802 27.008C34.5613 27.008 33.7317 27.8319 33.7317 28.844C33.7317 29.8562 34.5607 30.68 35.5802 30.68C36.3918 30.68 36.8741 30.2723 37.3414 29.8784C37.8177 29.476 38.2674 29.0959 39.0663 29.0959H39.7175C41.4267 29.1576 42.7652 30.5391 42.7652 32.2414C42.7652 33.9425 41.4261 35.3246 39.7217 35.3875H39.0663C38.268 35.3875 37.8177 35.0074 37.3414 34.6051C36.8747 34.2105 36.3918 33.8028 35.5802 33.8028C34.5613 33.8028 33.7317 34.626 33.7317 35.6382C33.7317 36.6503 34.5607 37.4742 35.5802 37.4742C36.3918 37.4742 36.8741 37.0664 37.3414 36.6719C37.8177 36.2696 38.2674 35.89 39.0663 35.89H39.7169C41.3978 35.9518 42.7369 37.3111 42.7646 38.984V39.0817L42.7634 39.1015C42.761 39.1447 42.7592 39.1866 42.7538 39.237C42.7513 39.297 42.7465 39.3575 42.7387 39.4205C42.7351 39.4577 42.7284 39.4924 42.72 39.538C42.7128 39.6028 42.6995 39.6663 42.6862 39.7281C42.682 39.7485 42.6627 39.8246 42.6627 39.8246C42.6452 39.8924 42.6259 39.9595 42.6048 40.0231L42.5759 40.1022C42.55 40.173 42.5228 40.2408 42.4921 40.3091L42.4632 40.3733C42.4288 40.4446 42.3938 40.513 42.3582 40.5771L42.3269 40.6293C42.2841 40.7 42.2413 40.7678 42.1943 40.8338L42.1683 40.8721C42.1183 40.9387 42.0676 41.0047 42.0098 41.07L41.9826 41.1024C41.9278 41.1671 41.8687 41.2289 41.8078 41.2859L41.78 41.3116C41.7053 41.3818 41.6426 41.4364 41.5781 41.4867L41.5588 41.5035C41.4822 41.5647 41.4117 41.6156 41.3351 41.6636L41.3212 41.6738C41.2477 41.7218 41.1675 41.7691 41.0933 41.8099L41.0638 41.8231C40.98 41.8687 40.8944 41.9083 40.8142 41.9412L40.7919 41.9496C40.7062 41.9856 40.617 42.0168 40.5284 42.0438L40.5079 42.0498C40.4271 42.0749 40.3361 42.0977 40.2372 42.1187L40.21 42.1229C40.1184 42.1415 40.0256 42.1553 39.9267 42.1655L39.9032 42.1673C39.8043 42.1769 39.7054 42.1817 39.6011 42.1817L39.4805 42.1835H39.0651C38.2668 42.1835 37.8165 41.8033 37.3401 41.401C36.8735 41.0064 36.3906 40.5987 35.579 40.5987C34.5601 40.5987 33.7305 41.4226 33.7305 42.4347C33.7305 43.4474 34.5595 44.2713 35.579 44.2713C36.3906 44.2713 36.8729 43.8636 37.3401 43.469C37.8165 43.0667 38.2662 42.6865 39.0651 42.6865H39.6451C39.6783 42.6871 39.712 42.6889 39.7452 42.6913L39.8133 42.6949C39.8694 42.6985 39.9237 42.7033 39.9755 42.7087C40.0117 42.7129 40.0479 42.7189 40.0846 42.7243L40.1196 42.7297L40.1684 42.7387C40.2058 42.7453 40.2426 42.7525 40.2824 42.7609C40.3258 42.7699 40.3656 42.7807 40.4199 42.7951L40.4536 42.8041C40.494 42.8155 40.5344 42.8263 40.5754 42.84C40.6176 42.8538 40.6604 42.8688 40.7087 42.8862L40.7448 42.9006C40.7822 42.915 40.8214 42.9306 40.8582 42.9462L40.9842 43.0031C40.9842 43.0031 41.0987 43.0619 41.1253 43.0763C41.1578 43.0949 41.2483 43.1488 41.2483 43.1488C41.2483 43.1488 41.3447 43.2094 41.3815 43.234C41.4177 43.258 41.4515 43.2838 41.4985 43.3191C41.5383 43.3479 41.5781 43.3779 41.6154 43.4091C41.6498 43.4385 41.6836 43.4684 41.7276 43.5074C41.7644 43.5404 41.7993 43.5728 41.8373 43.6111C41.8663 43.6381 41.8922 43.6669 41.9181 43.6951C41.9181 43.6951 42.017 43.8036 42.0345 43.8234C42.0664 43.8636 42.0978 43.9043 42.1309 43.9481C42.1599 43.9847 42.1864 44.0207 42.2129 44.0614C42.2425 44.1034 42.2702 44.1466 42.2961 44.1916L42.3299 44.2467C42.3438 44.2689 42.3576 44.2911 42.3697 44.3115C42.3866 44.3421 42.4023 44.3732 42.4185 44.405L42.442 44.4494C42.4613 44.4944 42.4824 44.5381 42.5011 44.5771C42.5132 44.6053 42.5632 44.733 42.5632 44.733C42.5795 44.7738 42.5946 44.8175 42.6085 44.8589C42.6253 44.9111 42.6398 44.9632 42.6537 45.0184L42.6597 45.0406C42.67 45.0772 42.6796 45.1125 42.6874 45.1515C42.6995 45.2073 42.711 45.2642 42.72 45.3152L42.729 45.3746C42.7333 45.401 42.7369 45.4279 42.7405 45.4561C42.7471 45.5113 42.752 45.5677 42.7544 45.627C42.7544 45.627 42.7628 45.7463 42.7646 45.7805V46.3651C42.7646 47.159 42.3824 47.6063 41.9778 48.0794C41.5811 48.5435 41.1705 49.0232 41.1705 49.8309C41.1705 50.8298 41.9868 51.6537 42.9913 51.668H43.0414H43.042C44.0452 51.6543 44.8616 50.8298 44.8616 49.8309C44.8616 49.0232 44.4516 48.5435 44.0555 48.0794C43.6515 47.6063 43.2693 47.159 43.2693 46.3651V45.9526H43.2705V45.8327C43.2705 45.7211 43.2747 45.6228 43.2831 45.5401L43.2879 45.5083C43.2946 45.4267 43.3078 45.3374 43.3283 45.2337L43.3356 45.2049C43.3537 45.109 43.3766 45.0172 43.4031 44.9333L43.4103 44.9105C43.4339 44.8337 43.464 44.7492 43.5056 44.6443L43.5116 44.6281C43.5418 44.5579 43.5822 44.4662 43.6298 44.378L43.6413 44.357C43.6847 44.2761 43.7329 44.1982 43.7793 44.1238L43.7944 44.101C43.8469 44.0225 43.8987 43.9517 43.9518 43.8858L43.9741 43.8588C44.0211 43.7994 44.076 43.7377 44.1471 43.6633L44.1724 43.6363C44.2309 43.5758 44.2924 43.5188 44.3575 43.4636L44.3925 43.4331C44.4534 43.3809 44.5167 43.3311 44.5842 43.2838L44.6306 43.2508C44.694 43.2058 44.7603 43.165 44.8266 43.1255L44.8851 43.0907C44.949 43.0541 45.0159 43.0205 45.0834 42.9893L45.1582 42.9552C45.2203 42.927 45.286 42.9018 45.3584 42.8766C45.3873 42.8652 45.4156 42.8544 45.4428 42.8454C45.5043 42.8257 45.57 42.8065 45.6357 42.7897L45.6574 42.7843C45.6864 42.7771 45.7147 42.7699 45.743 42.7633C45.8027 42.7495 45.8636 42.7381 45.9239 42.7303L45.9444 42.7267C45.98 42.7207 46.0143 42.7141 46.0523 42.7105C46.109 42.7039 46.1681 42.6985 46.2284 42.6955L46.267 42.6931C46.3068 42.6907 46.3472 42.6877 46.3863 42.6871H46.9694C47.7664 42.6871 48.2156 43.0667 48.6913 43.469C49.158 43.8636 49.6409 44.2719 50.4536 44.2719C51.472 44.2719 52.3004 43.448 52.3004 42.4353C52.3004 41.4226 51.472 40.5993 50.4536 40.5993C49.6409 40.5993 49.1586 41.0076 48.6913 41.4022C48.2156 41.8039 47.7664 42.1841 46.9694 42.1841H46.5522V42.1823H46.4316C46.3327 42.1823 46.2344 42.1775 46.1385 42.1685L46.1054 42.1655C46.0222 42.1571 45.9378 42.1445 45.8395 42.1265L45.7919 42.1175C45.7087 42.1013 45.6285 42.0803 45.5471 42.057L45.4934 42.042C45.4199 42.018 45.3457 41.9916 45.2716 41.961L45.2046 41.9352C45.1359 41.9065 45.0708 41.8741 45.0063 41.8429L44.9291 41.8039C44.87 41.7721 44.8133 41.7374 44.7561 41.7014L44.741 41.6918C44.7175 41.6774 44.6946 41.663 44.6686 41.645C44.6174 41.6114 44.5685 41.5767 44.5197 41.5389C44.4872 41.5143 44.457 41.4903 44.4263 41.4657C44.404 41.4472 44.3015 41.3578 44.3015 41.3578L44.2629 41.3224C44.2412 41.3021 44.2195 41.2829 44.1996 41.2625C44.1748 41.2379 44.1519 41.2127 44.129 41.1869L44.0983 41.1528C44.0627 41.1156 44.0295 41.079 43.997 41.0388C43.9741 41.0112 43.9518 40.9813 43.9295 40.9519L43.9174 40.9357C43.8824 40.8907 43.8475 40.8452 43.8137 40.7966C43.8028 40.781 43.754 40.7048 43.754 40.7048L43.7347 40.6725C43.7076 40.6281 43.681 40.5843 43.6593 40.5448L43.6123 40.4506C43.5786 40.3883 43.5502 40.3277 43.5243 40.2671L43.4833 40.1634C43.4598 40.1016 43.4363 40.0387 43.417 39.9811L43.3995 39.917C43.3772 39.8372 43.3555 39.7569 43.3386 39.6837L43.3302 39.6268C43.3109 39.5344 43.2976 39.4499 43.2898 39.3647L43.2855 39.3305C43.2765 39.2418 43.2729 39.1465 43.2729 39.0397C43.2729 37.3369 44.6132 35.9548 46.32 35.8936H46.9712C47.7682 35.8936 48.2174 36.2732 48.6931 36.6749C49.1598 37.0694 49.6427 37.4778 50.4555 37.4778C51.4738 37.4778 52.3022 36.6539 52.3022 35.6418C52.3022 34.6296 51.4738 33.8064 50.4555 33.8064C49.6427 33.8064 49.1604 34.2147 48.6931 34.6092C48.2174 35.011 47.7682 35.3911 46.9712 35.3911H46.3224C44.6126 35.3294 43.2729 33.9479 43.2729 32.245C43.2711 30.5403 44.6114 29.1588 46.3182 29.0971Z" fill="url(#paint1_linear_177_2252)"/>
<path d="M39.5131 43.9745C38.7004 43.9745 38.2181 44.3822 37.7514 44.7768C37.2757 45.1785 36.8265 45.5586 36.0289 45.5586H35.6146V45.5574H35.4941C35.4 45.5574 35.3035 45.5527 35.1944 45.5419L35.1643 45.5407C35.0738 45.5305 34.9864 45.5167 34.9026 45.5017L34.852 45.4909C34.7712 45.4741 34.6886 45.4537 34.612 45.4327L34.5499 45.4135C34.4763 45.3914 34.4046 45.3644 34.3365 45.338L34.2623 45.3074C34.1972 45.2798 34.1321 45.2493 34.0706 45.2193L33.9862 45.1749C33.9295 45.1443 33.8722 45.1095 33.8186 45.0766C33.7878 45.0574 33.7565 45.0376 33.7269 45.0178C33.6775 44.9842 33.6304 44.9506 33.5786 44.9105C33.5472 44.8865 33.5153 44.8613 33.4845 44.8367C33.4435 44.8025 33.4031 44.7678 33.3664 44.7336L33.332 44.7012C33.3085 44.679 33.2844 44.6574 33.2596 44.6323C33.2259 44.5999 33.1939 44.5657 33.1638 44.5327L33.1397 44.5057C33.1107 44.4734 33.0824 44.4422 33.0528 44.4068C33.0281 44.3756 33.0028 44.3444 32.9805 44.3145L32.9534 44.2785C32.9262 44.2431 32.8991 44.2071 32.8744 44.1682C32.8551 44.1394 32.8352 44.1082 32.8153 44.0764C32.7803 44.0225 32.7484 43.9679 32.7176 43.9103L32.6736 43.8282C32.6417 43.7652 32.6115 43.7023 32.585 43.6381L32.5548 43.5608C32.5253 43.4936 32.5018 43.424 32.4771 43.3503L32.4596 43.2915C32.4373 43.2118 32.415 43.1296 32.3987 43.0529L32.3902 43.0019C32.3758 42.9258 32.3595 42.8352 32.3504 42.7381L32.3474 42.7063C32.339 42.5966 32.3324 42.5055 32.3324 42.4113C32.3324 40.7096 33.6714 39.3275 35.3771 39.2652H36.0307C36.8283 39.2652 37.2775 39.6447 37.7532 40.0471C38.2199 40.4416 38.7028 40.8499 39.5149 40.8499C40.5327 40.8499 41.3611 40.0261 41.3611 39.0139C41.3611 38.0012 40.5327 37.1779 39.5149 37.1779C38.7022 37.1779 38.2199 37.5863 37.7532 37.9808C37.2775 38.3832 36.8283 38.7627 36.0307 38.7627H35.3813C33.6714 38.7009 32.3318 37.3189 32.3318 35.6172C32.3318 33.9143 33.6708 32.5322 35.3765 32.4704H36.0301C36.8277 32.4704 37.2769 32.85 37.7526 33.2523C38.2193 33.6469 38.7022 34.0546 39.5143 34.0546C40.5321 34.0546 41.3605 33.2307 41.3605 32.218C41.3605 31.2059 40.5321 30.382 39.5143 30.382C38.7016 30.382 38.2193 30.7903 37.7526 31.1849C37.2769 31.5872 36.8277 31.9668 36.0301 31.9668H35.3807C33.6708 31.9062 32.3312 30.5247 32.3312 28.8212C32.3312 27.119 33.6702 25.7375 35.3759 25.6757H36.0295C36.8271 25.6757 37.2763 26.0553 37.752 26.4576C38.2187 26.8521 38.7016 27.2599 39.5137 27.2599C40.5315 27.2599 41.3599 26.436 41.3599 25.4239C41.3599 24.4111 40.5315 23.5867 39.5137 23.5867C38.701 23.5867 38.2187 23.995 37.752 24.3895C37.2763 24.7919 36.8271 25.1714 36.0295 25.1714H35.3801C33.6702 25.1103 32.3305 23.7282 32.3305 22.0259C32.3305 21.927 32.3378 21.8262 32.3444 21.7333L32.3492 21.7021C32.3571 21.6134 32.3703 21.521 32.3902 21.4215L32.3957 21.3975C32.4125 21.3136 32.4355 21.2242 32.4662 21.1211L32.4704 21.1049C32.4982 21.015 32.5301 20.9268 32.5687 20.8351L32.5735 20.8195C32.6061 20.7415 32.6447 20.66 32.6875 20.5767L32.7032 20.5509C32.7472 20.4699 32.7924 20.392 32.8364 20.323L32.8593 20.2918C32.9015 20.2253 32.9528 20.1557 33.0185 20.0736L33.0317 20.0544C33.0878 19.9872 33.1457 19.9219 33.2066 19.8589L33.2331 19.8307C33.2922 19.7702 33.3537 19.7126 33.414 19.6593L33.4526 19.6275C33.5147 19.5741 33.5792 19.5255 33.6431 19.4788L33.6907 19.4452C33.7546 19.3996 33.8204 19.3595 33.8879 19.3193L33.9458 19.2857C34.0127 19.2491 34.0784 19.2155 34.1435 19.1844L34.2201 19.1502C34.2834 19.1208 34.3503 19.0962 34.4148 19.0722C34.4456 19.062 34.4733 19.0513 34.5047 19.0393C34.5613 19.0213 34.6192 19.0051 34.6765 18.9895L34.6916 18.9853C34.7109 18.9811 34.7838 18.9631 34.8031 18.9589C34.864 18.9445 34.9267 18.9337 34.9936 18.9235C35.031 18.9163 35.0732 18.9103 35.1118 18.9055C35.1703 18.899 35.2294 18.8942 35.2885 18.8906L35.3397 18.8876C35.3765 18.8852 35.4133 18.8828 35.4476 18.8816H36.0295C36.8271 18.8816 37.2763 19.2617 37.752 19.6635C38.2187 20.058 38.7016 20.4663 39.5137 20.4663C40.5315 20.4663 41.3599 19.6425 41.3599 18.6303C41.3599 17.6176 40.5315 16.7943 39.5137 16.7943C38.701 16.7943 38.2187 17.2027 37.752 17.5972C37.2763 17.9995 36.8271 18.3791 36.0295 18.3791H35.6153V18.3779H35.4947C35.3928 18.3779 35.2963 18.3731 35.195 18.3629L35.1643 18.3611C35.0768 18.3515 34.9906 18.3383 34.8966 18.3197L34.855 18.3131C34.773 18.2958 34.6892 18.2754 34.6096 18.2514L34.5523 18.2346C34.4781 18.2112 34.4046 18.1854 34.3316 18.1566L34.2635 18.1297C34.1978 18.1015 34.1315 18.0697 34.0664 18.0367L33.9904 17.9989C33.9434 17.9726 33.8975 17.945 33.8511 17.9168L33.8186 17.897L33.7818 17.8736C33.7643 17.8628 33.7468 17.8514 33.7269 17.8377C33.6763 17.8047 33.6292 17.7687 33.5726 17.7255C33.543 17.7027 33.5141 17.6812 33.4845 17.6572C33.4411 17.6224 33.4001 17.5858 33.3627 17.5528L33.3308 17.5229C33.3073 17.5007 33.2844 17.4791 33.2602 17.4545C33.2319 17.4269 33.2054 17.3981 33.1783 17.37L33.1578 17.3484C33.1234 17.3112 33.0896 17.2728 33.0553 17.2308C33.0293 17.2009 33.0058 17.1703 32.9763 17.1319L32.9516 17.0995C32.9244 17.0642 32.8973 17.0282 32.875 16.9958C32.8545 16.9628 32.8334 16.9292 32.8129 16.8975C32.7791 16.8441 32.7472 16.7895 32.7164 16.7314L32.6706 16.648C32.6386 16.5851 32.6085 16.5227 32.582 16.4604L32.5512 16.3854C32.5229 16.3141 32.4988 16.2445 32.4759 16.1713L32.4572 16.1102C32.4349 16.0316 32.4132 15.9519 32.3963 15.8739L32.3872 15.8236C32.3722 15.7414 32.3571 15.6527 32.348 15.5615L32.345 15.5274C32.3366 15.4188 32.3299 15.3283 32.3299 15.2336L32.3287 15.1136V14.7005C32.3287 13.9066 32.711 13.4593 33.1156 12.9862C33.5123 12.5221 33.9229 12.0425 33.9229 11.2342C33.9229 10.2221 33.0944 9.39819 32.0767 9.39819C31.0584 9.39819 30.2306 10.2215 30.2306 11.2342C30.2306 12.0419 30.6406 12.5215 31.0367 12.9856C31.4406 13.4587 31.8223 13.906 31.8223 14.6999V15.2857C31.8223 15.3331 31.8199 15.3817 31.8169 15.4266C31.8169 15.4266 31.8042 15.5717 31.8 15.6119C31.7946 15.6515 31.7891 15.6905 31.7831 15.7294C31.7722 15.7936 31.7614 15.8583 31.7439 15.9339L31.7186 16.0334C31.7017 16.0952 31.6848 16.1564 31.6637 16.2169L31.6348 16.3003C31.6089 16.3698 31.5829 16.437 31.5552 16.5005L31.5214 16.5713C31.4889 16.6396 31.4545 16.708 31.4207 16.768L31.3828 16.8285C31.343 16.8969 31.3014 16.9622 31.2568 17.0258L31.2236 17.0714C31.1754 17.1385 31.1235 17.2027 31.0747 17.2614L31.0415 17.298C30.986 17.3616 30.9276 17.4239 30.8703 17.4803L30.8401 17.5085C30.775 17.5714 30.7039 17.6308 30.6454 17.6782L30.6189 17.6985C30.5471 17.7543 30.476 17.8059 30.4006 17.8574L30.3825 17.87C30.3023 17.921 30.2227 17.9678 30.1456 18.0079L30.1239 18.0193C30.0437 18.0619 29.9593 18.1015 29.8761 18.1357L29.8526 18.1446C29.7663 18.18 29.6765 18.2118 29.5897 18.2382L29.5662 18.2448C29.4878 18.2694 29.3998 18.2916 29.2894 18.3143L29.2707 18.3185C29.1791 18.3365 29.0826 18.3509 28.9904 18.3611L28.9626 18.3629C28.8644 18.3731 28.7655 18.3779 28.6588 18.3779L28.5382 18.3791H28.124C27.3257 18.3791 26.8765 17.9989 26.4002 17.5966C25.9336 17.2021 25.4512 16.7943 24.6397 16.7943C23.6214 16.7943 22.793 17.6182 22.793 18.6303C22.793 19.6425 23.6214 20.4663 24.6397 20.4663C25.4512 20.4663 25.9336 20.0586 26.4002 19.6641C26.8759 19.2617 27.3257 18.8816 28.124 18.8816H28.704C28.7432 18.8828 28.783 18.8852 28.8234 18.8876L28.871 18.8906C28.9265 18.8948 28.9813 18.899 29.035 18.9044C29.085 18.9103 29.1315 18.9175 29.1827 18.9271C29.2346 18.9349 29.2876 18.9445 29.3407 18.9559C29.3877 18.9661 29.4341 18.9787 29.4836 18.9919C29.5336 19.0051 29.5855 19.0195 29.6331 19.0339C29.6807 19.0501 29.7247 19.0662 29.7712 19.0836C29.82 19.1016 29.8694 19.1208 29.9171 19.1418C29.9508 19.1562 29.9828 19.1718 30.0153 19.1868L30.0455 19.2012C30.0931 19.2251 30.1395 19.2491 30.1854 19.2737C30.227 19.2965 30.268 19.3211 30.3096 19.3463C30.353 19.3726 30.3958 19.3996 30.4404 19.4308C30.4796 19.456 30.5182 19.4836 30.5652 19.5201C30.6014 19.5477 30.6382 19.5747 30.6767 19.6083C30.7141 19.6377 30.7497 19.6688 30.7961 19.712C30.8287 19.7414 30.8624 19.772 30.8938 19.8044C30.9288 19.8391 30.9637 19.8757 30.9969 19.9129C31.0294 19.9477 31.062 19.983 31.094 20.0238C31.1229 20.0574 31.15 20.0922 31.1772 20.1275L31.1862 20.1389L31.2718 20.2571C31.3002 20.299 31.3285 20.3434 31.3556 20.3872L31.428 20.5059L31.4997 20.645C31.5088 20.6654 31.5184 20.6858 31.5287 20.7062C31.5395 20.729 31.5504 20.7517 31.5606 20.7751C31.5817 20.8237 31.601 20.8729 31.6209 20.9286C31.6384 20.9712 31.6529 21.0138 31.6685 21.0605C31.6824 21.0983 31.6927 21.1361 31.7029 21.1745L31.7138 21.214C31.7258 21.2596 31.7373 21.3028 31.7481 21.3489C31.7566 21.3873 31.7632 21.4263 31.7698 21.4647L31.7789 21.515C31.7873 21.56 31.7933 21.6044 31.7988 21.6505C31.8042 21.6961 31.8078 21.7423 31.8126 21.7897L31.8157 21.8214C31.8187 21.873 31.8211 21.924 31.8211 21.9761V22.0787C31.7946 23.7534 30.4573 25.1127 28.7812 25.1738H28.1252C27.3269 25.1738 26.8777 24.7937 26.4014 24.3913C25.9348 23.9968 25.4524 23.5891 24.6409 23.5891C23.6226 23.5891 22.7942 24.4129 22.7942 25.4263C22.7942 26.439 23.6226 27.2623 24.6409 27.2623C25.4524 27.2623 25.9348 26.8545 26.4014 26.46C26.8771 26.0577 27.3269 25.6781 28.1252 25.6781H28.7769C30.4868 25.7399 31.8265 27.1214 31.8265 28.8236C31.8265 30.5259 30.4874 31.9074 28.7824 31.9692H28.1252C27.3269 31.9692 26.8777 31.589 26.4014 31.1867C25.9348 30.7921 25.4524 30.3844 24.6409 30.3844C23.6226 30.3844 22.7942 31.2077 22.7942 32.2204C22.7942 33.2331 23.6226 34.057 24.6409 34.057C25.4524 34.057 25.9348 33.6493 26.4014 33.2547C26.8771 32.8524 27.3269 32.4728 28.1252 32.4728H28.7769C30.4874 32.5346 31.8271 33.9167 31.8271 35.6196C31.8271 37.3213 30.488 38.7027 28.783 38.7645H28.1252C27.3269 38.7645 26.8777 38.3844 26.4014 37.982C25.9348 37.5875 25.4524 37.1798 24.6409 37.1798C23.6226 37.1798 22.7942 38.0036 22.7942 39.0157C22.7942 40.0279 23.6226 40.8517 24.6409 40.8517C25.4524 40.8517 25.9348 40.444 26.4014 40.0495C26.8771 39.6471 27.3269 39.267 28.1252 39.267H28.7769C30.4585 39.3287 31.7964 40.6892 31.8229 42.3615V42.4653C31.8229 42.5144 31.8205 42.5624 31.8175 42.6068C31.8175 42.6068 31.8054 42.7495 31.8006 42.7927C31.7952 42.8328 31.7897 42.8706 31.7837 42.909C31.7728 42.9743 31.762 43.0385 31.7481 43.0991C31.7391 43.1332 31.73 43.1674 31.7228 43.1986C31.7047 43.2652 31.6872 43.3299 31.6589 43.4067C31.6523 43.4324 31.6432 43.457 31.6348 43.4798C31.6089 43.5494 31.5829 43.6177 31.5558 43.6807L31.522 43.7508C31.4895 43.8186 31.4551 43.8863 31.4189 43.9505L31.384 44.0075C31.3442 44.0752 31.302 44.1418 31.258 44.2053L31.2248 44.2503C31.1766 44.3169 31.1247 44.3816 31.0753 44.441L31.0421 44.4776C30.9866 44.5417 30.9282 44.6035 30.8733 44.6586L30.8401 44.688C30.778 44.7468 30.7123 44.8037 30.6466 44.8571L30.6177 44.8799C30.5483 44.9351 30.4778 44.9854 30.4078 45.0328L30.3789 45.0508C30.2975 45.1041 30.2221 45.1491 30.1468 45.1881L30.1263 45.1995C30.031 45.2481 29.9514 45.2846 29.8749 45.3158L29.8538 45.3248C29.7657 45.3602 29.6771 45.3914 29.5969 45.4165L29.5668 45.4243C29.489 45.4495 29.4022 45.4711 29.2924 45.4933L29.2737 45.4975C29.1773 45.5161 29.0814 45.5299 28.9946 45.5407L28.9663 45.5419C28.8583 45.5521 28.7583 45.5569 28.6612 45.5569L28.5406 45.558H28.1264C27.3281 45.558 26.879 45.1785 26.4026 44.7762C25.936 44.3816 25.4537 43.9739 24.6421 43.9739C23.6238 43.9739 22.7954 44.7971 22.7954 45.8093C22.7954 46.822 23.6238 47.6453 24.6421 47.6453C25.4537 47.6453 25.936 47.2375 26.4026 46.843C26.8783 46.4407 27.3281 46.0605 28.1264 46.0605H28.7076C28.7613 46.0617 28.8167 46.0647 28.8764 46.0701C28.9301 46.0731 28.9837 46.0767 29.041 46.0839C29.0899 46.0887 29.1363 46.0965 29.1839 46.1049C29.2364 46.1139 29.29 46.1229 29.3437 46.1343C29.3805 46.1421 29.4172 46.1517 29.4546 46.1613L29.4848 46.169C29.5348 46.1828 29.5873 46.1972 29.6385 46.2134C29.6644 46.2218 29.6892 46.2308 29.7139 46.2398L29.7712 46.2596L29.9207 46.3195C29.9647 46.3381 30.0075 46.3591 30.0497 46.3801C30.0979 46.4041 30.145 46.4281 30.1878 46.4503C30.2288 46.473 30.2704 46.4976 30.3144 46.527C30.3566 46.5522 30.3982 46.5774 30.4434 46.6092C30.4844 46.6349 30.523 46.6637 30.5634 46.6949C30.6032 46.7231 30.6412 46.7525 30.6786 46.7836C30.7171 46.816 30.7551 46.849 30.7919 46.882L30.8076 46.8964C30.8389 46.9251 30.8703 46.9533 30.8974 46.9803C30.9245 47.0085 30.9517 47.0373 30.9788 47.0667L31.0288 47.1206C31.0512 47.1452 31.0741 47.171 31.0976 47.1998C31.1313 47.2399 31.1639 47.2819 31.1934 47.3209L31.2754 47.4318L31.3466 47.5445C31.3466 47.5445 31.4105 47.6495 31.4316 47.6831C31.4575 47.7322 31.4822 47.782 31.507 47.8324L31.516 47.8509C31.5323 47.8833 31.5492 47.9175 31.5642 47.9541C31.5823 47.9942 31.5986 48.0356 31.6149 48.077L31.6269 48.1076C31.642 48.1495 31.6565 48.1903 31.6722 48.2389C31.689 48.2827 31.6999 48.3246 31.7113 48.3684L31.7192 48.3966C31.7312 48.4404 31.7427 48.4835 31.753 48.5261C31.762 48.5669 31.7686 48.6082 31.7759 48.6502L31.7837 48.6982C31.7921 48.7414 31.7982 48.7857 31.803 48.8277C31.8072 48.8685 31.8199 49.0004 31.8199 49.0004C31.8229 49.052 31.8253 49.1035 31.8253 49.1545V49.7403C31.8253 50.5342 31.4437 50.9809 31.0397 51.4546C30.6436 51.9187 30.2336 52.3984 30.2336 53.206C30.2336 54.2182 31.062 55.0414 32.0797 55.0414C33.0975 55.0414 33.9259 54.2182 33.9259 53.206C33.9259 52.3984 33.5153 51.9181 33.1186 51.454C32.714 50.9809 32.3318 50.5336 32.3318 49.7403V49.3266H32.333V49.2067C32.333 49.1083 32.3402 49.0082 32.3468 48.914L32.351 48.8823C32.3589 48.7947 32.3722 48.703 32.392 48.6022L32.3969 48.5783C32.4131 48.4967 32.4355 48.4098 32.4674 48.3018L32.4716 48.2845C32.4994 48.1963 32.5313 48.1088 32.5711 48.014L32.5753 47.9996C32.6067 47.9247 32.6441 47.8455 32.6893 47.7568L32.7044 47.731C32.7484 47.6507 32.7936 47.5733 32.8424 47.4978L32.8599 47.4708C32.9033 47.4048 32.9534 47.3359 33.0185 47.2543L33.0323 47.2339C33.089 47.1674 33.1481 47.1014 33.2066 47.0379L33.2337 47.0097C33.2934 46.9509 33.3555 46.8928 33.417 46.8382L33.4532 46.8064C33.5159 46.7537 33.5798 46.7039 33.6455 46.6571L33.6913 46.6241C33.7559 46.5798 33.8216 46.5378 33.8897 46.4976L33.947 46.4641C34.0139 46.4275 34.0802 46.3945 34.1465 46.3621L34.2207 46.3273C34.2846 46.2986 34.3515 46.2734 34.4136 46.25C34.4323 46.244 34.5077 46.2176 34.5077 46.2176C34.5704 46.1966 34.6343 46.1786 34.6958 46.1631L34.8031 46.1355C34.8652 46.1217 34.9279 46.1115 34.9936 46.1013C35.0316 46.0947 35.0738 46.0881 35.1142 46.0833C35.1673 46.0773 35.2209 46.0737 35.2746 46.0695L35.2915 46.0683C35.3457 46.0647 35.397 46.0611 35.4494 46.0605H36.0313C36.8289 46.0605 37.2781 46.4401 37.7538 46.8424C38.2205 47.2369 38.7034 47.6453 39.5155 47.6453C40.5333 47.6453 41.3617 46.8214 41.3617 45.8093C41.3593 44.7977 40.5315 43.9745 39.5131 43.9745Z" fill="url(#paint2_linear_177_2252)"/>
<path d="M61.2089 21.8904H58.875L58.9021 20.3428H65.2304L65.2611 21.8904H62.8965V27.971H61.2089V21.8904Z" fill="#0081BB"/>
<path d="M74.9939 21.9072H72.66L72.625 20.3596H79.0147L78.9749 21.9072H76.6808V27.9878H74.9933V21.9072H74.9939Z" fill="#0081BB"/>
<path d="M79.7188 20.3434H81.5269L83.1156 25.5084L84.8357 20.3218H86.2821L88.0023 25.5084L89.591 20.3434H91.3551L88.7366 28.0255H87.2685L85.5375 23.0344L83.8059 28.0255H82.3378L79.7188 20.3434Z" fill="#0081BB"/>
<path d="M99.9453 20.3434H105.731L105.166 21.8364H101.622V23.384H105.238L105.202 24.877H101.622V26.4786H105.786V27.9716H99.9453V20.3434Z" fill="#0081BB"/>
<path d="M92.6055 20.3434H98.3911L97.8261 21.8364H94.2822V23.384H97.8979L97.8623 24.877H94.2822V26.4786H98.4459V27.9716H92.6055V20.3434Z" fill="#0081BB"/>
<path d="M111.943 27.9709H113.916L112.042 25.2457C113.017 24.8878 113.685 24.1131 113.685 22.8815V22.8593C113.685 22.1404 113.455 21.5408 113.028 21.1162C112.524 20.615 111.767 20.3416 110.792 20.3416H107.285V27.9703H108.974V21.858H110.65C111.472 21.858 111.976 22.2285 111.976 22.948V22.9702C111.976 23.6124 111.505 24.0477 110.682 24.0477L109.53 24.0681" fill="#0081BB"/>
<path d="M69.7222 20.2888H68.1666L64.8789 27.971H66.5996L67.3008 26.2597H69.1801L69.9416 24.7769H67.9038L68.9233 22.3041L69.8066 24.4489L69.8385 24.5244L69.9416 24.7769L70.5458 26.2597L70.7218 26.6902L71.2469 27.971H73.0105L69.7222 20.2888Z" fill="#0081BB"/>
<path d="M75.8767 38.006V42.4371H62.7687V36.9363L60.9382 38.0066V43.803C60.9382 45.1629 60.1418 45.5388 58.8672 45.5166V47.337C58.9052 47.3376 58.9426 47.3406 58.9805 47.3406C59.9464 47.3406 60.9183 47.1512 61.6943 46.461C62.1284 46.0743 62.6348 45.3877 62.7446 44.2581H77.7072V36.9363L75.8767 38.006Z" fill="#0081BB"/>
<path d="M111.757 38.006V42.4371L105.251 42.4365V41.175C105.251 40.1095 105.042 39.1471 104.493 38.5613C103.84 37.8723 102.949 37.5857 101.772 37.5857H94.565V33.7117L92.7346 34.779V42.4365H86.6493L86.662 36.9352H84.2768C78.83 36.9352 78.5262 44.2569 83.736 44.2569L84.8309 42.4365H84.0586C82.8823 42.4365 81.9399 41.7992 81.9399 40.5904C81.9399 39.4847 82.9721 38.7574 84.0586 38.7574H84.8309V42.1823V42.31V42.4359V43.8516C84.8309 45.4885 83.6787 45.702 81.9254 45.5083V47.3359C82.2359 47.3659 82.5531 47.3893 82.8726 47.3893C83.8385 47.3893 84.8116 47.1998 85.587 46.5091C86.0265 46.1175 86.5317 45.4106 86.6324 44.2557L113.586 44.2563V36.9364L111.757 38.006ZM103.42 42.4365H94.5656V39.3947H101.956C102.426 39.3947 102.846 39.6148 103.067 39.9014C103.304 40.1988 103.42 40.5772 103.42 41.097V42.4365Z" fill="#0081BB"/>
<path d="M110.035 34.1214L108.801 35.3492L110.035 36.5771L111.27 35.3492L110.035 34.1214Z" fill="#0081BB"/>
<path d="M112.68 34.1214L111.445 35.3492L112.68 36.5771L113.915 35.3492L112.68 34.1214Z" fill="#0081BB"/>
<path d="M73.8323 45.3454L72.5977 46.5732L73.8323 47.8011L75.0669 46.5732L73.8323 45.3454Z" fill="#0081BB"/>
<path d="M76.4768 45.3455L75.2422 46.5734L76.4768 47.8012L77.7115 46.5734L76.4768 45.3455Z" fill="#0081BB"/>
<defs>
<linearGradient id="paint0_linear_177_2252" x1="10.4586" y1="50.2717" x2="37.4913" y2="3.98876" gradientUnits="userSpaceOnUse">
<stop stop-color="#00A563"/>
<stop offset="0.1342" stop-color="#009D7F"/>
<stop offset="0.2768" stop-color="#009593"/>
<stop offset="0.4215" stop-color="#008EA3"/>
<stop offset="0.5661" stop-color="#0088AE"/>
<stop offset="0.7106" stop-color="#0084B5"/>
<stop offset="0.8551" stop-color="#0082BA"/>
<stop offset="1" stop-color="#0081BB"/>
</linearGradient>
<linearGradient id="paint1_linear_177_2252" x1="26.7503" y1="59.7865" x2="53.783" y2="13.5036" gradientUnits="userSpaceOnUse">
<stop stop-color="#00A563"/>
<stop offset="0.1342" stop-color="#009D7F"/>
<stop offset="0.2768" stop-color="#009593"/>
<stop offset="0.4215" stop-color="#008EA3"/>
<stop offset="0.5661" stop-color="#0088AE"/>
<stop offset="0.7106" stop-color="#0084B5"/>
<stop offset="0.8551" stop-color="#0082BA"/>
<stop offset="1" stop-color="#0081BB"/>
</linearGradient>
<linearGradient id="paint2_linear_177_2252" x1="18.6059" y1="55.0313" x2="45.6386" y2="8.74835" gradientUnits="userSpaceOnUse">
<stop stop-color="#00A563"/>
<stop offset="0.1342" stop-color="#009D7F"/>
<stop offset="0.2768" stop-color="#009593"/>
<stop offset="0.4215" stop-color="#008EA3"/>
<stop offset="0.5661" stop-color="#0088AE"/>
<stop offset="0.7106" stop-color="#0084B5"/>
<stop offset="0.8551" stop-color="#0082BA"/>
<stop offset="1" stop-color="#0081BB"/>
</linearGradient>
</defs>
</svg>
